<svg xmlns="http://www.w3.org/2000/svg" xmlns:xlink="http://www.w3.org/1999/xlink" viewBox="0 0 1211 645"><defs><style>.cls-1{fill:none;}.cls-2{fill:#ececeb;}.cls-3{fill:#dededc;}.cls-4{fill:url(#新規パターンスウォッチ_6);}</style><pattern id="新規パターンスウォッチ_6" data-name="新規パターンスウォッチ 6" width="28.46" height="28.46" patternTransform="translate(238.22 -63.11)" patternUnits="userSpaceOnUse" viewBox="0 0 28.46 28.46"><rect class="cls-1" width="28.46" height="28.46"/><rect class="cls-2" width="28.46" height="28.46"/><path class="cls-3" d="M6.63,5.34A1.3,1.3,0,1,1,5.34,4,1.29,1.29,0,0,1,6.63,5.34Z"/><path class="cls-3" d="M20.86,5.34A1.3,1.3,0,1,1,19.57,4,1.29,1.29,0,0,1,20.86,5.34Z"/><path class="cls-3" d="M13.75,12.45a1.3,1.3,0,1,1-1.3-1.3A1.3,1.3,0,0,1,13.75,12.45Z"/><path class="cls-3" d="M6.63,19.56a1.3,1.3,0,1,1-1.29-1.29A1.3,1.3,0,0,1,6.63,19.56Z"/><path class="cls-3" d="M13.75,26.68a1.3,1.3,0,1,1-1.3-1.3A1.3,1.3,0,0,1,13.75,26.68Z"/><path class="cls-3" d="M20.86,19.56a1.3,1.3,0,1,1-1.29-1.29A1.3,1.3,0,0,1,20.86,19.56Z"/><path class="cls-3" d="M28,26.68a1.3,1.3,0,1,1-1.3-1.3A1.3,1.3,0,0,1,28,26.68Z"/><path class="cls-3" d="M28,12.45a1.3,1.3,0,1,1-1.3-1.3A1.3,1.3,0,0,1,28,12.45Z"/></pattern></defs><g id="Layer_2" data-name="Layer 2"><g id="back"><polygon class="cls-4" points="1210 645 0 645 1 0 1211 0 1210 645"/></g></g></svg>