<svg xmlns="http://www.w3.org/2000/svg" viewBox="0 0 466 309.69"><defs><style>.cls-1{fill:#f9f9f9;}.cls-2{fill:#00abbf;}</style></defs><g id="Layer_2" data-name="Layer 2"><g id="layout"><path class="cls-1" d="M233,308.69a.66.66,0,0,1-.36-.11L208.44,293H208v-.29l-31.83-20.49a.64.64,0,0,1-.28-.75.63.63,0,0,1,.63-.47H208V256H1V1H465V256H258v15h31.48a.63.63,0,0,1,.63.47.64.64,0,0,1-.28.75L258,292.71V293h-.44l-24.2,15.58A.66.66,0,0,1,233,308.69Z"/><path class="cls-2" d="M464,2V255H257v17h31.32l-30.4,19.58-.92.59h0l-.23.15L233,307.62l-23.77-15.3-.23-.15h0l-.92-.59L177.68,272H209V255H2V2H464m2-2H0V257H207v13H176.52a1.66,1.66,0,0,0-.9,3.06L207,293.26V294h1.15l23.95,15.42a1.63,1.63,0,0,0,1.8,0l24-15.42H259v-.74l31.38-20.2a1.66,1.66,0,0,0-.9-3.06H259V257H466V0Z"/></g></g></svg>