<svg xmlns="http://www.w3.org/2000/svg" xmlns:xlink="http://www.w3.org/1999/xlink" viewBox="0 0 88.23 101.99"><defs><style>.cls-1,.cls-5{fill:none;}.cls-2{fill:#fff;}.cls-3{opacity:0.15;}.cls-4{clip-path:url(#clip-path);}.cls-5{stroke:#00abbf;stroke-miterlimit:10;stroke-width:0.5px;}</style><clipPath id="clip-path" transform="translate(28.2 25.58)"><rect class="cls-1" width="28" height="28" transform="translate(28 0) rotate(90)"/></clipPath></defs><g id="Layer_2" data-name="Layer 2"><g id="layout"><rect class="cls-2" x="28.2" y="25.58" width="28" height="28"/><g class="cls-3"><g class="cls-4"><line class="cls-5" x1="49.34" y1="0.15" x2="0.2" y2="63.15"/><line class="cls-5" x1="51.19" y1="2" x2="2.04" y2="65"/><line class="cls-5" x1="53.03" y1="3.84" x2="3.88" y2="66.84"/><line class="cls-5" x1="54.87" y1="5.68" x2="5.72" y2="68.68"/><line class="cls-5" x1="56.71" y1="7.52" x2="7.57" y2="70.52"/><line class="cls-5" x1="58.55" y1="9.36" x2="9.41" y2="72.36"/><line class="cls-5" x1="60.4" y1="11.21" x2="11.25" y2="74.21"/><line class="cls-5" x1="62.24" y1="13.05" x2="13.09" y2="76.05"/><line class="cls-5" x1="64.08" y1="14.89" x2="14.93" y2="77.89"/><line class="cls-5" x1="65.92" y1="16.73" x2="16.78" y2="79.73"/><line class="cls-5" x1="67.77" y1="18.58" x2="18.62" y2="81.58"/><line class="cls-5" x1="69.61" y1="20.42" x2="20.46" y2="83.42"/><line class="cls-5" x1="71.45" y1="22.26" x2="22.3" y2="85.26"/><line class="cls-5" x1="73.29" y1="24.1" x2="24.14" y2="87.1"/><line class="cls-5" x1="75.13" y1="25.94" x2="25.99" y2="88.94"/><line class="cls-5" x1="76.98" y1="27.79" x2="27.83" y2="90.79"/><line class="cls-5" x1="78.82" y1="29.63" x2="29.67" y2="92.63"/><line class="cls-5" x1="80.66" y1="31.47" x2="31.51" y2="94.47"/><line class="cls-5" x1="82.5" y1="33.31" x2="33.36" y2="96.31"/><line class="cls-5" x1="84.34" y1="35.15" x2="35.2" y2="98.15"/><line class="cls-5" x1="86.19" y1="37" x2="37.04" y2="100"/><line class="cls-5" x1="88.03" y1="38.84" x2="38.88" y2="101.84"/></g></g></g></g></svg>