<svg xmlns="http://www.w3.org/2000/svg" xmlns:xlink="http://www.w3.org/1999/xlink" viewBox="0 0 233 228.88"><defs><style>.cls-1{fill:none;}.cls-2{fill:#fff;}.cls-3{opacity:0.1;fill:url(#新規パターンスウォッチ_3);}</style><pattern id="新規パターンスウォッチ_3" data-name="新規パターンスウォッチ 3" width="90.71" height="90.71" patternTransform="translate(64.91 -598.89) scale(0.24 0.24)" patternUnits="userSpaceOnUse" viewBox="0 0 90.71 90.71"><rect class="cls-1" width="90.71" height="90.71"/><rect class="cls-1" width="90.71" height="90.71"/><path class="cls-2" d="M45.35,85a5.67,5.67,0,1,1-5.66-5.67A5.66,5.66,0,0,1,45.35,85Z"/><path class="cls-2" d="M90.71,85A5.67,5.67,0,1,1,85,79.37,5.67,5.67,0,0,1,90.71,85Z"/><path class="cls-2" d="M22.68,62.36A5.67,5.67,0,1,1,17,56.69,5.67,5.67,0,0,1,22.68,62.36Z"/><path class="cls-2" d="M68,62.36a5.67,5.67,0,1,1-5.67-5.67A5.67,5.67,0,0,1,68,62.36Z"/><path class="cls-2" d="M45.35,39.68A5.67,5.67,0,1,1,39.69,34,5.66,5.66,0,0,1,45.35,39.68Z"/><path class="cls-2" d="M90.71,39.68A5.67,5.67,0,1,1,85,34,5.67,5.67,0,0,1,90.71,39.68Z"/><path class="cls-2" d="M22.68,17A5.67,5.67,0,1,1,17,11.34,5.67,5.67,0,0,1,22.68,17Z"/><path class="cls-2" d="M68,17a5.67,5.67,0,1,1-5.67-5.67A5.67,5.67,0,0,1,68,17Z"/></pattern></defs><g id="Layer_2" data-name="Layer 2"><g id="layout"><rect class="cls-3" width="233" height="228.88"/></g></g></svg>