<svg xmlns="http://www.w3.org/2000/svg" xmlns:xlink="http://www.w3.org/1999/xlink" viewBox="0 0 688 174.82"><defs><style>.cls-1{fill:none;}.cls-2{fill:#cceef2;}.cls-3{opacity:0.7;}.cls-4{fill:url(#新規パターンスウォッチ_5);}</style><pattern id="新規パターンスウォッチ_5" data-name="新規パターンスウォッチ 5" width="28.46" height="28.46" patternTransform="translate(93.5 -166.94)" patternUnits="userSpaceOnUse" viewBox="0 0 28.46 28.46"><rect class="cls-1" width="28.46" height="28.46"/><path class="cls-2" d="M6.63,5.34A1.3,1.3,0,1,1,5.34,4,1.29,1.29,0,0,1,6.63,5.34Z"/><path class="cls-2" d="M20.86,5.34A1.3,1.3,0,1,1,19.57,4,1.29,1.29,0,0,1,20.86,5.34Z"/><path class="cls-2" d="M13.75,12.45a1.3,1.3,0,1,1-1.3-1.3A1.3,1.3,0,0,1,13.75,12.45Z"/><path class="cls-2" d="M6.63,19.56a1.3,1.3,0,1,1-1.29-1.29A1.3,1.3,0,0,1,6.63,19.56Z"/><path class="cls-2" d="M13.75,26.68a1.3,1.3,0,1,1-1.3-1.3A1.3,1.3,0,0,1,13.75,26.68Z"/><path class="cls-2" d="M20.86,19.56a1.3,1.3,0,1,1-1.29-1.29A1.3,1.3,0,0,1,20.86,19.56Z"/><path class="cls-2" d="M28,26.68a1.3,1.3,0,1,1-1.3-1.3A1.3,1.3,0,0,1,28,26.68Z"/><path class="cls-2" d="M28,12.45a1.3,1.3,0,1,1-1.3-1.3A1.3,1.3,0,0,1,28,12.45Z"/></pattern></defs><g id="Layer_2" data-name="Layer 2"><g id="layout"><g class="cls-3"><rect class="cls-4" width="688" height="174.82"/></g></g></g></svg>