<svg xmlns="http://www.w3.org/2000/svg" viewBox="0 0 159.25 113.45"><defs><style>.cls-1{fill:#f4e75e;}.cls-2{opacity:0.2;}.cls-3{fill:#f9f9f9;}.cls-4{fill:#96dde5;}</style></defs><g id="Layer_2" data-name="Layer 2"><g id="layout"><path class="cls-1" d="M30.37,39a11.42,11.42,0,0,0-.34,1.4,20.67,20.67,0,0,1-1.16,4.29,38.33,38.33,0,0,1,4.05,2.49l-1.15,1.94A29.54,29.54,0,0,0,28,46.64a18.35,18.35,0,0,1-4.46,5.51L21.55,51a16,16,0,0,0,4.62-5.33,38.55,38.55,0,0,0-4.4-1.95L22.71,42c1.3.48,3,1.2,4.32,1.83a16,16,0,0,0,.9-3.73A10.7,10.7,0,0,0,28,38.7Z"/><path class="cls-1" d="M33.74,42.42c.52-.06,1.58-.23,2.33-.38l7.72-1.54c.66-.13,1.3-.32,1.67-.42l.45,2.26c-.35,0-1.09.14-1.7.26l-7.72,1.54c-.82.17-1.78.39-2.3.54Z"/><path class="cls-1" d="M48.15,45.91A6.89,6.89,0,0,0,49.91,42a24.89,24.89,0,0,0-.72-5.78,4.77,4.77,0,0,0-.39-1.28l2.12-.42a8.92,8.92,0,0,0,.15,1.31,33,33,0,0,1,.81,6.27,8.52,8.52,0,0,1-1.74,4.64Zm6.7-1.11a5.56,5.56,0,0,0-.09-1.09l-1.68-8.38a7.33,7.33,0,0,0-.36-1.22l2.15-.42A7.58,7.58,0,0,0,55,35l1.51,7.52a9.34,9.34,0,0,0,2.94-3.74l1.42,1.36A16.06,16.06,0,0,1,56.79,45a3,3,0,0,0-.54.55Z"/><path class="cls-1" d="M61.73,33.45c1.17-.33,3.49-1,6.05-1.77,1.44-.41,3-.8,4-1.05l.39,1.84a15.07,15.07,0,0,0-2.71.73,4.41,4.41,0,0,0-2.21,4.59c.46,2.34,2.82,2.75,5.26,2.39l-.27,2.1c-3,.41-6.17-.64-6.79-3.73a5.78,5.78,0,0,1,1.23-4.81c-1.21.38-4.14,1.29-5.72,2l-.58-1.92C60.92,33.68,61.46,33.54,61.73,33.45ZM72,36l-1,.7a11.1,11.1,0,0,0-1.52-1.77l1-.66A17,17,0,0,1,72,36Zm1.53-1-1,.73A13,13,0,0,0,70.94,34l1-.7A21,21,0,0,1,73.48,34.94Z"/><path class="cls-1" d="M35,53.63c.56.56,1.41,1.53,1.87,2.11l-1.29.89-.68-.86.41,2.07c-1.18.32-3.29.87-4.93,1.2-1.81.36-3.32.57-4.73.74l-.46-2.29a47.44,47.44,0,0,0,4.72-.73c1.65-.33,3.53-.81,4.82-1.19a12.63,12.63,0,0,0-1-1.11ZM28.12,64.5a7.09,7.09,0,0,0,.07,1.8c.22,1.09,1.4,1.69,3.89,1.19A24.66,24.66,0,0,0,38,65.61L38.5,68a28.34,28.34,0,0,1-5.87,1.76c-4,.79-6.17-.14-6.64-2.5a11.51,11.51,0,0,1-.17-2.56Zm8.8-12.06a19.77,19.77,0,0,1,1.89,2.08l-1.26.87a18.12,18.12,0,0,0-1.89-2.12Z"/><path class="cls-1" d="M45.63,57.86c.74.54,2.58,2,3,2.4l-.85,1.93a23.41,23.41,0,0,0-1.68-1.91l1.45,7.23-2,.4L44.2,61A15.17,15.17,0,0,1,43,65.35a10.59,10.59,0,0,0-1.36-1.76,17.28,17.28,0,0,0,1.53-6.34L41,57.69l-.39-1.94,2.49-.5-.71-3.56,2-.4L45,54.85l2.17-.43.39,1.95-2.17.43Zm9.81-7.81,3,15-2.09.41-.18-.88-4.09.81.2,1-2,.4-3-15.15Zm-5.78,3.18.43,2.15,4.09-.81-.43-2.16Zm.8,4,.44,2.21L55,58.64l-.44-2.21Zm5.35,5.5-.45-2.23-4.08.82.44,2.23Z"/><path class="cls-1" d="M66.22,51.6l-6.61,1.32-.33-1.63L65.89,50Zm-1.11-2.27-5.11,1-.31-1.56,5.11-1Zm1,4.75L60.9,55.13l-.32-1.59,5.22-1Zm-5,1.84,5.21-1,.31,1.55-5.21,1Zm6.76,6.61-3.55.71.14.68-1.74.34-1.18-5.93,5.28-1Zm-4.27-2.91.4,2,1.79-.36-.4-2Zm5.07-11.75a6.38,6.38,0,0,1-.73,3.49L66.13,51a5.66,5.66,0,0,0,.73-3.13Zm6.52,5.66a27.89,27.89,0,0,0-4-1.83A6.7,6.7,0,0,1,68,55.11a5.08,5.08,0,0,0-1.47-1.41c3.39-1.85,3.27-3.89,2.73-7.36l2-.4a19.14,19.14,0,0,1,.32,3.88,38.15,38.15,0,0,1,4.66,1.87Zm-7.89,5.25a5.72,5.72,0,0,0,.9-3.37H70a6.76,6.76,0,0,1-.91,3.87Zm6.53-1.45A6,6,0,0,0,78,59.66a15.52,15.52,0,0,0-.83,2,6.57,6.57,0,0,1-4.52-3.07,7.07,7.07,0,0,1-3.38,4.65,8.77,8.77,0,0,0-1.46-1.46c3.08-1.83,3.52-4.29,3.28-5.45l-.52-2.63,2.11-.42.52,2.63a3.9,3.9,0,0,0,.62,1.39A18.19,18.19,0,0,0,74.54,54l2.16.22a34.33,34.33,0,0,1-1.23,3.36Zm1.27-10.56c-.37,1.12-.79,2.31-1.13,3.13l-1.64-.28A16.3,16.3,0,0,0,73,46.54Z"/><path class="cls-1" d="M29.54,82.71l-1.93.38-.75-3.77,2.48-.5a11.17,11.17,0,0,0-1.17-1.62l1.46-.75c-.86.23-1.74.44-2.57.62a6.94,6.94,0,0,0-.82-1.66A99.26,99.26,0,0,0,39,71.64L40.7,73c-1.81.73-4,1.45-6.27,2.12a9.18,9.18,0,0,1,1.23,2.09l-1.22.57,3-.61a19.17,19.17,0,0,0,.61-2.83l2.31.08c-.25.81-.56,1.61-.83,2.34L42,76.3l.75,3.77-2,.4-.39-2L29.14,80.73Zm11.15-2.1a10.45,10.45,0,0,1-2.53,4.72,23.87,23.87,0,0,0,6,0,10,10,0,0,0-.88,2.18,21,21,0,0,1-7-.5,23.2,23.2,0,0,1-6.39,3.21,7.63,7.63,0,0,0-1.58-1.58A24.94,24.94,0,0,0,34,86.22,11.83,11.83,0,0,1,30.65,84l.53-.36-.82.17L30,82l8.78-1.75.37-.16Zm-6.38-5.43c-1.43.43-2.93.83-4.39,1.2a10.14,10.14,0,0,1,1.37,1.78l-.85.45,3.32-.67a11.19,11.19,0,0,0-1.09-2ZM32.8,83.36a10.26,10.26,0,0,0,3,1.49,8.6,8.6,0,0,0,2-2.49Z"/><path class="cls-1" d="M50.7,70.17a33.07,33.07,0,0,1-1,3.84L52.13,86,50,86.38l-1.74-8.71c-.3.58-.62,1.14-.94,1.63a16.93,16.93,0,0,0-1.65-1.91,18.46,18.46,0,0,0,2.83-7.47Zm11.11,3.06-1.91.38,1.57,7.9c.27,1.34.07,1.94-.71,2.42a12.69,12.69,0,0,1-4,1.16,8.21,8.21,0,0,0-1.21-1.89c1.35-.22,2.87-.52,3.27-.62s.56-.26.49-.64L57.74,74l-6.62,1.33-.42-2.09L57.33,72l-.71-3.55L58.78,68l.7,3.55,1.92-.38ZM55.4,81a42.93,42.93,0,0,0-3.08-3.73L54,76.09c1,1.12,2.46,2.61,3.19,3.55Z"/><path class="cls-1" d="M79.43,66.79l1.73,8.68L79,75.9,78.82,75l-3.93.78L76,81.24l-2.19.44L72.7,76.25,68.78,77l.2,1-2.09.41-1.75-8.76,6-1.2-.6-3L72.73,65l.6,3Zm-7.14,7.43-.75-3.74-3.91.78L68.38,75ZM78.41,73l-.74-3.73L73.74,70l.74,3.74Z"/><g class="cls-2"><path class="cls-3" d="M158.37,26.49a18,18,0,0,0-7.27,7.29,16.25,16.25,0,0,1-6.64,6.67,16.18,16.18,0,0,1-9.12,2.33,19.49,19.49,0,0,0-17.25,9.86,16.3,16.3,0,0,1-6.64,6.67,15.86,15.86,0,0,1-6,2.15,53,53,0,0,0-.52-8.24,22.24,22.24,0,0,0,2.39-1.2,18,18,0,0,0,7.27-7.29,17.72,17.72,0,0,1,15.76-9,17.94,17.94,0,0,0,10-2.56,18,18,0,0,0,7.27-7.29,16.25,16.25,0,0,1,6.64-6.67l-.88-1.55A18,18,0,0,0,146.05,25a16.19,16.19,0,0,1-6.64,6.67A16.16,16.16,0,0,1,130.29,34a19.46,19.46,0,0,0-17.24,9.85,16.38,16.38,0,0,1-6.64,6.68c-.64.36-1.24.66-1.81.92a52.41,52.41,0,0,0-2.2-8.3,18,18,0,0,0,7.12-7.2,17.72,17.72,0,0,1,15.76-9,17.89,17.89,0,0,0,10-2.56,18,18,0,0,0,7.28-7.29,16.19,16.19,0,0,1,6.64-6.67l-.89-1.55A18,18,0,0,0,141,16.12a16.25,16.25,0,0,1-6.64,6.67,16.18,16.18,0,0,1-9.12,2.33A19.49,19.49,0,0,0,108,35a16.18,16.18,0,0,1-6.23,6.44,52,52,0,0,0-3.28-6.82c-.14-.25-.28-.5-.43-.74a17.91,17.91,0,0,0,6.42-6.78,17.69,17.69,0,0,1,15.75-9,17.94,17.94,0,0,0,10-2.56,18,18,0,0,0,7.27-7.29,16.25,16.25,0,0,1,6.64-6.67L143.24,0A18,18,0,0,0,136,7.29,16.19,16.19,0,0,1,129.32,14a16.13,16.13,0,0,1-9.11,2.33,18,18,0,0,0-10,2.56A18,18,0,0,0,103,26.14a16.31,16.31,0,0,1-5.83,6.19,52.76,52.76,0,1,0,8.23,30.93,17.42,17.42,0,0,0,7-2.41,18,18,0,0,0,7.28-7.28,17.71,17.71,0,0,1,15.76-9,17.91,17.91,0,0,0,10-2.56,18,18,0,0,0,7.28-7.29A16.21,16.21,0,0,1,159.25,28ZM96,36a50.24,50.24,0,0,1,3.2,6.72,14.78,14.78,0,0,1-4.3,1.13,45.27,45.27,0,0,0-2.74-5.66c-.3-.53-.62-1-.94-1.57a16.66,16.66,0,0,0,4.32-1.4ZM88.2,56.91A15.49,15.49,0,0,1,96,54.62c.08.53.14,1.05.2,1.58l.16,2q.12,2.13,0,4.26a20.07,20.07,0,0,0-4,1.78l.88,1.55a18.61,18.61,0,0,1,3-1.41A43.63,43.63,0,0,1,33.07,99.72a1.05,1.05,0,0,1-.42,0c-1-.32-5.91-3.85-5.91-3.85A43.61,43.61,0,0,1,9.28,65.28l-.16-2a43.66,43.66,0,0,1,68-38.82l1.61,1.13a43.41,43.41,0,0,1,9.4,9.49l-.89,0a18,18,0,0,0-10,2.57l.88,1.54a16.35,16.35,0,0,1,9.12-2.33c.67,0,1.35,0,2-.06.47.72.92,1.46,1.36,2.21A44.21,44.21,0,0,1,93,44h-.8a18,18,0,0,0-10,2.57l.88,1.54a16.24,16.24,0,0,1,9.12-2.32l1.45,0a43.34,43.34,0,0,1,2,7.13,17.26,17.26,0,0,0-8.36,2.52ZM77.45,104A49.87,49.87,0,1,1,94.62,33.69,14.52,14.52,0,0,1,90.17,35a45.5,45.5,0,1,0,7.88,28.83,20.49,20.49,0,0,1,4.31-.39h.14A49.87,49.87,0,0,1,77.45,104Zm25.11-42.41h-.23a23.24,23.24,0,0,0-4.19.33,45.78,45.78,0,0,0-.39-7.39,20.75,20.75,0,0,0,4.39-.46A49.78,49.78,0,0,1,102.56,61.63Zm-.68-9.28a18.71,18.71,0,0,1-4.41.45,45.59,45.59,0,0,0-1.9-7.23,15.93,15.93,0,0,0,4.26-1.18A48,48,0,0,1,101.88,52.35Z"/><path class="cls-4" d="M153.54,18.59c.15.36.42.2.59.47l-.32-.55Z"/><path class="cls-4" d="M138,6.36c.21-.27,0-.59-.29-.69a9.4,9.4,0,0,1-1.14.76c.19.37.11.35.37.64C137.5,6.78,137.33,6.35,138,6.36Z"/><path class="cls-4" d="M145.35,11.07a1.17,1.17,0,0,0,0-.2l-.37.31A.44.44,0,0,0,145.35,11.07Z"/><path class="cls-4" d="M146.28,11.6c-.06-.24.3-.57-.08-.7l-.32.18c-.2.17-.41.69-.07.79l.08,0Z"/><path class="cls-4" d="M127.74,16c.11.21.27.18.39.31a.68.68,0,0,1,.42.08l.66-.32C128.69,15.65,128.06,15.45,127.74,16Z"/><path class="cls-4" d="M131.23,14.53c-.07-.15-.2-.12-.27-.28-.21.12-.47.23-.51.4.17.1.29.35.46.44l.33-.21A.34.34,0,0,0,131.23,14.53Z"/><path class="cls-4" d="M140.82,3c.17-.05.27.15.48-.07s-.2-.3-.35-.44l-.09-.16C140.63,2.45,140.52,2.84,140.82,3Z"/><path class="cls-4" d="M117.43,16.52a.29.29,0,0,0-.25-.07c0,.2-.48.27-.34.52C117,16.81,117.47,16.74,117.43,16.52Z"/><path class="cls-4" d="M135.32,8.32a.83.83,0,0,1,.32-.06,4.21,4.21,0,0,1,0-.51Z"/><path class="cls-4" d="M148.28,9.39,148,9l-.52.32A.6.6,0,0,0,148.28,9.39Z"/><path class="cls-4" d="M131.5,13a1.14,1.14,0,0,0,0,.75c.47.12.52-.31.82-.58C132.12,12.86,131.76,13.11,131.5,13Z"/><path class="cls-4" d="M134.25,10.23c.08.28.27.16.35.44.06-.05.1,0,.13,0,.23-.18.36,0,.6-.24a1.24,1.24,0,0,1,.43.34c.31-.4.59-.8.84-1.19a13.16,13.16,0,0,0-1.51.24C134.77,10.12,134.56,10,134.25,10.23Z"/><path class="cls-4" d="M140.29,3.68a1.93,1.93,0,0,1-.54,0c0,.22.18.5.09.7s.1.26.27.24l.19-.2C140.33,4.17,140.25,3.91,140.29,3.68Z"/><path class="cls-4" d="M139.73,19.84a2,2,0,0,0,.29.69l.11-.05c.24-.28.47-.56.68-.84A1,1,0,0,0,139.73,19.84Z"/><path class="cls-4" d="M141.63,18c-.52,0-.36.63-.4,1.06.2-.29.4-.58.58-.87l-.13-.11Z"/><path class="cls-4" d="M140.43,17.19c0,.13-.05.21,0,.34s0,.1,0,.12c.2.26.53-.13.68-.28a.46.46,0,0,0-.22-.2l-.05-.08C140.67,17.13,140.58,17.06,140.43,17.19Z"/><path class="cls-4" d="M152.41,34.12a3.78,3.78,0,0,0,.26.51c.24-.39.47-.78.72-1.16A5.05,5.05,0,0,1,152.41,34.12Z"/><path class="cls-4" d="M142.82,16a1.53,1.53,0,0,0,.27.11l.33-.51A.89.89,0,0,0,142.82,16Z"/><path class="cls-4" d="M147.37,26.22a3.79,3.79,0,0,1,.2-.34l0,0a2.38,2.38,0,0,0-.28.26Z"/><path class="cls-4" d="M147.29,25.16c.19.06.32.31.51.34l.38-.6v0c-.09-.09-.21-.05-.3-.16C147.66,24.85,147.34,25,147.29,25.16Z"/><path class="cls-4" d="M140.68,18.55c-.1-.14-.3.1-.41,0-.28.28-.41,0-.65.16s-.06.21-.14.29a.92.92,0,0,0,.88.25C140.45,19,140.89,18.88,140.68,18.55Z"/><path class="cls-4" d="M136.75,22.72c-.37.1-.2-.4-.49-.68a1.09,1.09,0,0,0-.61.78c.12-.06.18.15.26.27.19.41.5.36.8.35l.34-.24a1.72,1.72,0,0,0-.08-.28A.46.46,0,0,0,136.75,22.72Z"/><path class="cls-4" d="M126.75,34.18l-.31,0-.59.19c.15.37.45.18.61.51A.62.62,0,0,0,126.75,34.18Z"/><path class="cls-4" d="M131.4,34.35a.48.48,0,0,1-.38-.11c-.12.33.2.61.46.81C131.87,34.75,131.86,34.4,131.4,34.35Z"/><path class="cls-4" d="M133.47,35.41c-.19-.22-.08-.34-.19-.53.31-.24.52-.12.8-.25-.09-.36,0-.48-.33-.77l-.07-.12-1,.11c0,.21.12.43.13.63-.24.16-.65.27-.42.56l.05.08c.22,0,.23.32.17.52l.49,0A1.49,1.49,0,0,1,133.47,35.41Z"/><path class="cls-4" d="M131,25.49c-.41,0-.37.51-.49.81l.06,0c.26-.07.52-.14.78-.23C131.4,25.93,131,25.82,131,25.49Z"/><path class="cls-4" d="M146.84,39.66c.32-.37.71-.33,1.19-.68-.18-.49-.52-.39-.83-.4l-.5.4a1.34,1.34,0,0,1-.37.33l.14.24c.2.46-.72.9-.13,1.25l.4-.23c-.05-.1.1-.15.19-.21C146.79,40.09,146.5,39.78,146.84,39.66Z"/><path class="cls-4" d="M143.88,40.92c.34,0,.89-.16.8-.59l-.22.12c-.64.37-1.24.67-1.81.93a2,2,0,0,1,.29.29C143.34,41.63,143.91,41.28,143.88,40.92Z"/><path class="cls-4" d="M137.35,34.27l.39-.23a2.4,2.4,0,0,0-.46-.27c-.06-.14-.16-.1-.22-.2C136.93,33.7,137,34.45,137.35,34.27Z"/><path class="cls-4" d="M134.48,23.91c.05-.26.54-.39.33-.72a.74.74,0,0,0-.87,0C134,23.65,134.13,23.68,134.48,23.91Z"/><path class="cls-4" d="M137.32,21.33a2,2,0,0,0-.07-.52l-.41.34A.44.44,0,0,0,137.32,21.33Z"/><path class="cls-4" d="M149.11,37.18a.39.39,0,0,1,.29,0,1.19,1.19,0,0,0-.43-.27c-.27.31-.56.62-.88.93C148.46,37.6,148.53,37.31,149.11,37.18Z"/><path class="cls-4" d="M132.66,44.66c.16-.16.63-.23.58-.45a.28.28,0,0,0-.25-.07C133,44.34,132.52,44.41,132.66,44.66Z"/><path class="cls-4" d="M128.71,26.69a.32.32,0,0,0,0-.34c-.23.08-.38-.11-.61,0a1.7,1.7,0,0,0-.15.41Q128.34,26.75,128.71,26.69Z"/><path class="cls-4" d="M134.84,33.51l-.34.07a.41.41,0,0,0,.34,0Z"/><path class="cls-4" d="M146.1,27.14c.11.2.27.18.39.31h.1l.37-.57A.66.66,0,0,0,146.1,27.14Z"/><path class="cls-4" d="M149.89,36.52c.71.2.91-.58,1.57-.57,0-.26.11-.47,0-.75-.15.08-.2-.23-.37-.1-.15,0-.33.06-.53.19,0,.23.29.53.09.7a4.89,4.89,0,0,0-.83-.17l-.05,0a.44.44,0,0,0-.08.11C149.81,36.16,149.68,36.29,149.89,36.52Z"/><path class="cls-4" d="M157.66,28c.12-.05.21.05.33,0a3.51,3.51,0,0,0,.27-1,1.82,1.82,0,0,1-.57-.13l-.56.35C157.49,27.2,157.73,27.71,157.66,28Z"/><path class="cls-4" d="M157,27.34a17.27,17.27,0,0,0-1.84,1.38c0,.23,0,.42.31.44.24-.19.08-1.12.36-.85l0,.08c.22.1.41.32.67.26,0-.1,0-.17.07-.25l.15-.09a.25.25,0,0,0,.33,0c.23.07.29-.14.1-.37l-.13-.25C157,27.57,156.92,27.44,157,27.34Z"/><path class="cls-4" d="M129.08,34l-.81,0a2.61,2.61,0,0,0,.13.43c.29-.15.49,0,.78-.12A.51.51,0,0,0,129.08,34Z"/><path class="cls-4" d="M144.59,29.66l.11.16c.14-.15.28-.29.41-.44A2.42,2.42,0,0,0,144.59,29.66Z"/><path class="cls-4" d="M149.7,21.1l-.31-.55-.27.26C149.26,21.1,149.39,21.44,149.7,21.1Z"/><path class="cls-4" d="M151.57,20.14a.86.86,0,0,0,.2.53.4.4,0,0,1,.35-.1l.44-.32s0,0,0,0a5.85,5.85,0,0,1-.72-.34A.53.53,0,0,0,151.57,20.14Z"/><path class="cls-4" d="M150.54,20.73c.06.13.2.28.11.37.1.14,0,.23.1.37a.49.49,0,0,1,.32-.06l.42-.35A2.24,2.24,0,0,0,150.54,20.73Z"/><path class="cls-4" d="M134.35,24.41c-.17.06-.3-.06-.49.07,0,.26-.17.37.09.55l.47-.24C134.52,24.7,134.54,24.59,134.35,24.41Z"/><path class="cls-4" d="M147.32,40.67l0,.08.08-.06Z"/><path class="cls-4" d="M139.24,20.45c-.31.09-.13.44.07.49S139.42,20,139.24,20.45Z"/><path class="cls-4" d="M150.06,37.92a.33.33,0,0,0,.16.21l.35-.41A1.1,1.1,0,0,0,150.06,37.92Z"/><path class="cls-4" d="M138.76,32.22a.68.68,0,0,0-.07-.2l-.69.35c.05.1.12.2.17.29C138.39,32.52,138.71,32.41,138.76,32.22Z"/><path class="cls-4" d="M140.05,31.91c-.13,0-.19,0-.24.14-.13.43-.83.71-.66,1.23l0,.08a1.74,1.74,0,0,1,.72,0l.21-.12C140.12,32.81,140.45,32.46,140.05,31.91Z"/><path class="cls-4" d="M140.07,31.58c.1.14,0,.23.11.37.29-.13.81-.23.95-.55,0-.08,0-.13,0-.21a1.76,1.76,0,0,1,.69-.28,3.58,3.58,0,0,1-.49-.47h0c-.4.29-.83.57-1.31.86A.34.34,0,0,0,140.07,31.58Z"/><path class="cls-4" d="M141.48,32.38a.13.13,0,0,1,0,.06l.44-.29C141.75,32.15,141.53,32.16,141.48,32.38Z"/><path class="cls-4" d="M141.13,32.67h0Z"/><path class="cls-4" d="M7,87c.19-.31.35-.06.68-.28a1.16,1.16,0,0,0-.26-.82l-.63.36c-.19-.23-.38-.47-.58-.69.24.45.48.89.73,1.33Z"/><path class="cls-4" d="M3.4,79.39v0c.12,0,.21,0,.32,0a3.16,3.16,0,0,0,.27-1,1.77,1.77,0,0,1-.75-.22.39.39,0,0,0-.21.18,3.42,3.42,0,0,0,.13.34A.76.76,0,0,1,3.4,79.39Z"/><path class="cls-4" d="M9.83,88.47l-.5-.89a4.21,4.21,0,0,0-.47.48C9.1,88.53,9.42,88.68,9.83,88.47Z"/><path class="cls-4" d="M7.16,85.07c.11.19,0,.32.19.53L8,85.24l-.51-.89-.4.23C7,84.71,7.31,85,7.16,85.07Z"/><path class="cls-4" d="M86.94,21.73l.76-.43q-.26-.24-.51-.45A.85.85,0,0,0,86.94,21.73Z"/><path class="cls-4" d="M108.87,34.15l.08,0,.47-.28-.27-.48c0,.12-.16.21-.31.29l-.08.12C108.88,33.91,108.74,34,108.87,34.15Z"/><path class="cls-4" d="M105.5,24.19c-.12-.15-.31,0-.43-.18l-.08,0c-.1,0-.17,0-.25-.07-.15.14.2.42.25.61C105.2,24.47,105.46,24.36,105.5,24.19Z"/><path class="cls-4" d="M110.41,31.88s.07.09.13,0a.3.3,0,0,1,.25.07c-.07-.35.35-.57.18-1,0,0-.07,0-.09,0-.19.19-.36.39-.53.58A.41.41,0,0,0,110.41,31.88Z"/><path class="cls-4" d="M117.66,26.88a.93.93,0,0,0-.12-.34l-.53.24C117.13,27,117.34,27.13,117.66,26.88Z"/><path class="cls-4" d="M118.59,27.42c-.06-.25.3-.58-.08-.7l-.32.18c-.2.17-.41.69-.07.79l.08-.05Z"/><path class="cls-4" d="M79.27,16.58a1,1,0,0,0,.86.58l.07,0c.16-.09.23.16.41,0-.14-.28-.06-.73-.38-.85A1.4,1.4,0,0,0,79.27,16.58Z"/><path class="cls-4" d="M107.54,20.78c.17,0,.59,0,.48-.28l-.09-.15-.47.36S107.52,20.74,107.54,20.78Z"/><path class="cls-4" d="M98.32,36.86a1,1,0,0,0,.21.74c.18-.2.27,0,.44-.15-.06-.31.14-.55-.24-.61C98.57,36.93,98.5,36.68,98.32,36.86Z"/><path class="cls-4" d="M99,35.91a1.46,1.46,0,0,0,.32.25l-.29-.52A1.24,1.24,0,0,0,99,35.91Z"/><path class="cls-4" d="M100.05,31.8c.11.2.27.18.39.31h0l.6-.54A.72.72,0,0,0,100.05,31.8Z"/><path class="cls-4" d="M87.51,22.37c-.11.33.21.6.46.8.4-.3.38-.65-.08-.7A.47.47,0,0,1,87.51,22.37Z"/><path class="cls-4" d="M84.55,20.31c-.27.1-.17.39.06.29.41.24,1.15-.26.94-.75a.48.48,0,0,0-.38-.11C84.8,19.67,84.64,20.09,84.55,20.31Z"/><path class="cls-4" d="M88.92,23.17l0,.08c.3.05.2.55.08.7.24.11.62-.32.92-.42a.55.55,0,0,1-.13-.23l-.63-.62C89,22.81,88.72,22.92,88.92,23.17Z"/><path class="cls-4" d="M92.31,26.16c.23.15.41.46.66.53-.3-.36-.61-.72-.93-1.07-.19.17-.56.29-.47.53s.23.31.39.31C91.84,26.3,92.22,26.27,92.31,26.16Z"/><path class="cls-4" d="M103.43,26.66a1.27,1.27,0,0,1-.61.77l.14.25c.2.45-.72.9-.13,1.25l.4-.23c0-.1.11-.15.19-.22-.14-.26-.43-.57-.08-.7.29-.33.64-.33,1.07-.6l.07-.11,0,0C104.25,26.51,103.77,26.82,103.43,26.66Z"/><path class="cls-4" d="M101.71,28.08a.21.21,0,0,0,.1-.15Z"/><path class="cls-4" d="M104.23,24.92s0,.1,0,.12c-.13.19-.36.35-.16.63s.17.55.39.32c.53-.19.53-.53,1.18-.68l.13-.18A2,2,0,0,0,104.23,24.92Z"/><path class="cls-4" d="M113.13,18.76c.17-.05.27.15.48-.06s-.2-.31-.35-.44l-.09-.16C112.94,18.26,112.83,18.66,113.13,18.76Z"/><path class="cls-4" d="M93,36,93,36c0-.38.83-.49.39-1-.63.28-.78.69-1.21,1a.26.26,0,0,1-.06.25,1.25,1.25,0,0,1-.18.24l.41-.09a.5.5,0,0,1,0-.16,2.58,2.58,0,0,0,.5,0l.18-.05a.21.21,0,0,0,.09-.1Z"/><path class="cls-4" d="M83.14,21.22l.11-.06c-.08-.25.22-.39,0-.66-.11.05-.17,0-.29.05s-.24.2-.35.3Z"/><path class="cls-4" d="M82.32,20.09c.17-.05.3.06.49-.07.49-.19-.25-.91-.5-.68l-.08.05C82.18,19.6,82.07,20,82.32,20.09Z"/><path class="cls-4" d="M81.63,17.59,81.31,17c-.13,0-.22,0-.37.09C81.14,17.4,81.25,18,81.63,17.59Z"/><path class="cls-4" d="M89.82,27.15c.21,0,.27.53.49.47a3.68,3.68,0,0,1,.82-.58l.05.08.08,0L91.21,27a2.46,2.46,0,0,0,.12-.71c-.16-.16-.39-.07-.55-.23.22-.2.53-.39.2-.75-.58.34-.93-.2-1.54.24-.1.2.34.55.08.7a1.65,1.65,0,0,0-.76,0c.29.3.58.61.86.92C89.68,27.19,89.74,27.22,89.82,27.15Z"/><path class="cls-4" d="M110.24,33.05c0-.2-.4-.48-.25-.61s.07-.25.23-.35a.24.24,0,0,0-.1-.21,15.52,15.52,0,0,0-1,1.29l0,0C109.52,33.21,109.9,33.06,110.24,33.05Z"/><path class="cls-4" d="M106.61,24,106.3,24l-.16.09a.6.6,0,0,1,.12.38Z"/><path class="cls-4" d="M107.05,23.41s0,.06,0,.08l.19-.19Z"/><path class="cls-4" d="M113.65,29.07l.63-.37-.18-.3c-.28.19-.56.37-.81.56A.52.52,0,0,0,113.65,29.07Z"/><path class="cls-4" d="M114.87,28.26c0,.19-.15.3.1.37a1.32,1.32,0,0,0,.58-.65c-.2.05-.35-.08-.51-.15l-.18.1C114.84,28,114.73,28.11,114.87,28.26Z"/><path class="cls-4" d="M84.9,22.58c.28-.15.48,0,.77-.12,0-.17-.12-.4-.24-.62.35-.25.6-.13.79-.45a.65.65,0,0,0-.15-.45c-.16-.34-.45-.16-.67-.26-.11.31,0,1-.47,1C84.65,21.92,84.77,22.25,84.9,22.58Z"/><path class="cls-4" d="M82.57,17.59c.11.14,0,.23.11.36.24-.15.38.06.63-.14l-.84-.59C82.53,17.35,82.67,17.5,82.57,17.59Z"/><path class="cls-4" d="M83.25,18.59c.18.26.49,0,.78-.12l-.09-.21-.61-.44C83.44,18.11,83.24,18.32,83.25,18.59Z"/><path class="cls-4" d="M112.07,30.18c.3.08.49-.26.59-.44l-.35,0c-.18.14-.35.28-.51.43A.61.61,0,0,1,112.07,30.18Z"/><path class="cls-4" d="M112,31.72a.35.35,0,0,0,.18.52c.19-.2.4-.4.62-.6,0,0,0,0,0,0C112.52,31.63,112.22,31.85,112,31.72Z"/><path class="cls-4" d="M112.13,19.86l.46-.23a.66.66,0,0,1,0-.14,2.41,2.41,0,0,1-.54,0A.91.91,0,0,0,112.13,19.86Z"/><path class="cls-4" d="M91.54,92.23l-.07-.12c-.2.25-.39.5-.6.74a.19.19,0,0,1,0,.08l.8-.46Z"/><path class="cls-4" d="M99.13,83.61c-.1-.21-.21-.4-.35-.44a.39.39,0,0,0,0,.62Z"/><path class="cls-4" d="M100.37,81.72c.31-.16-.15-.53.37-.64l.08,0c-.25-.33-.53-.54-.89-.46C99.72,80.85,99.93,81.7,100.37,81.72Z"/><path class="cls-4" d="M100.17,79.16a1.74,1.74,0,0,0,.29.69c.26-.13.48-.27.46-.48.2,0,.33.29.52.35l.08,0C101.79,79,100.83,78.6,100.17,79.16Z"/><path class="cls-4" d="M102.11,77.41l0-.08c-.65.06-.24,1-.49,1.35a1.16,1.16,0,0,0,.58.28c.13-.35.25-.69.37-1A1.06,1.06,0,0,0,102.11,77.41Z"/><path class="cls-4" d="M100.87,76.52c0,.12-.06.21,0,.33s0,.1,0,.13c.21.25.54-.14.68-.29a.42.42,0,0,0-.21-.19l0-.08C101.11,76.45,101,76.39,100.87,76.52Z"/><path class="cls-4" d="M103.26,75.36l.07,0a1.33,1.33,0,0,1,0-.19A.42.42,0,0,0,103.26,75.36Z"/><path class="cls-4" d="M101.12,77.87c-.1-.14-.3.11-.41,0-.28.28-.41,0-.65.16s-.06.21-.15.3a.93.93,0,0,0,.88.24C100.89,78.35,101.32,78.2,101.12,77.87Z"/><path class="cls-4" d="M100.05,77.3a.66.66,0,0,0-.21-.32l-.18.49A.38.38,0,0,0,100.05,77.3Z"/><path class="cls-4" d="M97.5,82.64l-.08.15a.17.17,0,0,1,.1,0C97.51,82.76,97.51,82.7,97.5,82.64Z"/><path class="cls-4" d="M93.05,80.34l-.31.18c.24.29.18.5.33.77l.15,0c.09-.18.19-.36.28-.55C93.35,80.6,93.23,80.38,93.05,80.34Z"/><path class="cls-4" d="M91.46,93.56c-.12.33.2.61.46.81.39-.3.37-.65-.09-.7A.46.46,0,0,1,91.46,93.56Z"/><path class="cls-4" d="M94.23,93.23s0,0,0,0L94,92.86c-.09,0-.18,0-.25-.07-.23.19-.4.15-.6.23-.05.24.12.53.13.79-.25.15-.65.26-.42.55l0,.09c.11,0,.16.09.19.19Z"/><path class="cls-4" d="M91.22,84.88a.46.46,0,0,0-.18.28Z"/><path class="cls-4" d="M102.83,77a0,0,0,0,1,0,0c.06-.17.12-.35.17-.52C102.84,76.66,102.74,76.87,102.83,77Z"/><path class="cls-4" d="M86.26,90.54l-.08,0c-.06.21-.17.61.08.7h.13l.44-.49C86.68,90.57,86.39,90.41,86.26,90.54Z"/><path class="cls-4" d="M87.64,88.35c.31-.25.49,0,.77-.12,0-.12.06-.21,0-.33a4.68,4.68,0,0,1-.72-.34.53.53,0,0,0-.27.26A.86.86,0,0,0,87.64,88.35Z"/><path class="cls-4" d="M88.34,86.45c.37-.11,1-.32.82-.78-.23.08-.38-.11-.62,0h0A2,2,0,0,0,88.34,86.45Z"/><path class="cls-4" d="M90.05,86.65l.44-.64C90.24,86.09,90.16,86.37,90.05,86.65Z"/><path class="cls-4" d="M89.35,86.74l-.32.18c.12.23.24.45.37.65l.29-.41C89.57,87,89.52,86.65,89.35,86.74Z"/><path class="cls-4" d="M94.16,92.77c.09.11.22.07.33.12.31-.4.61-.81.9-1.22C94.81,91.73,94.57,92.38,94.16,92.77Z"/><path class="cls-4" d="M86.48,88.43l0,0c.07.11.15.23.08.3.1.14,0,.23.1.37.24-.16.39.06.65-.16.13.31-.09.52-.08.8s.27.12.44,0l.27-.34A1.59,1.59,0,0,0,86.48,88.43Z"/><path class="cls-4" d="M99.67,79.77c-.3.1-.12.44.08.49S99.86,79.31,99.67,79.77Z"/><path class="cls-4" d="M82.89,103.81c.22-.14.54-.25.59-.44,0-.39-.45-.6-.88-.25C82.54,103.31,82.77,103.57,82.89,103.81Z"/><path class="cls-4" d="M82.85,100.62l0-.1-.22.16A.48.48,0,0,0,82.85,100.62Z"/><path class="cls-4" d="M79.4,96.59c.06.19.18.19.26.28.2-.26.74-.42.49-.81L80.1,96C79.85,96.18,79.28,96.29,79.4,96.59Z"/><path class="cls-4" d="M63.77,109.38c-.12.33.2.6.46.8.39-.29.38-.64-.09-.7A.45.45,0,0,1,63.77,109.38Z"/><path class="cls-4" d="M65.46,109c0,.21.12.45.13.66-.25.16-.65.27-.42.56l0,.08c.3,0,.21.55.08.7.24.11.62-.31.92-.42-.2-.21-.09-.34-.2-.52.31-.24.53-.12.81-.25-.09-.36,0-.48-.34-.77l-.16-.28Z"/><path class="cls-4" d="M69.56,110.67a.47.47,0,0,0-.55.21l.57-.19S69.56,110.68,69.56,110.67Z"/><path class="cls-4" d="M70.09,109.4l.4-.22a2.48,2.48,0,0,0-.47-.27c0-.14-.15-.1-.22-.2C69.68,108.84,69.78,109.59,70.09,109.4Z"/><path class="cls-4" d="M57.88,104.6l-.27-.47-.39,0C57.4,104.46,57.52,105,57.88,104.6Z"/><path class="cls-4" d="M60,104.17c.31-.25.49,0,.77-.12,0-.13.06-.21,0-.33l-.1,0-.86.16A1.74,1.74,0,0,0,60,104.17Z"/><path class="cls-4" d="M63.52,104.7c.14-.11,0-.3.17-.42.16.1.37,0,.54,0l.08,0c.58-.08.28-.68,0-.62s-.62.06-.68.28a.44.44,0,0,0-.22-.19c-.07,0-.13,0-.17-.12-.45.28-.75,0-1.06-.22l-.39.08C62.24,104.25,62.8,104.79,63.52,104.7Z"/><path class="cls-4" d="M75.84,99.37c.11.08.25,0,.41,0a.55.55,0,0,0,.36-.1c.26-.22-.2-.32-.29-.7C75.91,98.58,76,99.06,75.84,99.37Z"/><path class="cls-4" d="M73.26,100.2c.37-.12,1-.33.81-.79-.22.09-.37-.1-.61,0A1.83,1.83,0,0,0,73.26,100.2Z"/><path class="cls-4" d="M75,100.36l.28-.15.51-.3a.61.61,0,0,0,0-.17C75.22,99.63,75.12,100,75,100.36Z"/><path class="cls-4" d="M74.26,100.48l-.31.18a2.12,2.12,0,0,0,.11.21l.41-.23C74.42,100.53,74.36,100.43,74.26,100.48Z"/><path class="cls-4" d="M68.73,108l-.6.2.09.16C68.35,108.2,68.74,108.14,68.73,108Z"/><path class="cls-4" d="M66.89,108.77l.08,0c.22-.09.38.1.61,0,0-.13,0-.25.06-.38q-.54.18-1.08.33C66.67,108.69,66.8,108.65,66.89,108.77Z"/><path class="cls-4" d="M66.87,102.47c0-.08,0-.13,0-.21a.56.56,0,0,1-.09-.17l-.49.16A1.07,1.07,0,0,0,66.87,102.47Z"/><path class="cls-4" d="M72.13,109.1c-.17.14-.26,0-.44.14s0,.46.15.63l.52-.21A1.28,1.28,0,0,0,72.13,109.1Z"/><path class="cls-4" d="M79.65,103.32l-.07,0c.07.16-.23.21-.1.38.22.34.62,0,1-.13,0-.26.39-.43.45-.69a3.05,3.05,0,0,0-.63-.61l-.59.37C80,102.84,80.14,103.12,79.65,103.32Z"/><path class="cls-4" d="M81.83,101.22c.12.14.24.25.42.19l0-.08a.34.34,0,0,0,.14-.48Z"/><path class="cls-4" d="M80.8,103.84c-.2.18-.51,1,0,.87.27-.08.24-.24.43-.35,0-.08.06-.12.11-.17C81.2,103.84,81,104,80.8,103.84Z"/><path class="cls-4" d="M81.14,102.79c0,.42.62.64,1,.74.19-.2.38-.39.12-.71C81.81,103,81.56,102.55,81.14,102.79Z"/><path class="cls-4" d="M85.07,101.92l-.48.27c.17.18.06.28.14.44l1.31-1h0C85.56,101.36,85.39,101.89,85.07,101.92Z"/><path class="cls-4" d="M58.72,104.23c.06.13.2.28.11.37.1.14,0,.23.1.37.25-.16.39.06.65-.16.13.31-.09.52-.08.79l.07.07.5-.08.21-.11A1.65,1.65,0,0,0,58.72,104.23Z"/><path class="cls-4" d="M78.2,105.37l.08,0c.16-.09.22.16.41,0-.15-.28-.07-.73-.38-.85a1.42,1.42,0,0,0-1,.33A1,1,0,0,0,78.2,105.37Z"/><path class="cls-4" d="M79.7,105.8l-.32-.56c-.12,0-.22,0-.36.09C79.21,105.61,79.33,106.21,79.7,105.8Z"/><path class="cls-4" d="M81.57,104.84h0l.36-.23-.08,0A.51.51,0,0,0,81.57,104.84Z"/><path class="cls-4" d="M80.58,105.49l.06,0-.1,0Z"/><path class="cls-4" d="M80.09,95.24a1,1,0,0,0,.85.58l.08,0c.16-.09.23.17.41,0-.14-.28-.06-.73-.38-.85A1.41,1.41,0,0,0,80.09,95.24Z"/><path class="cls-4" d="M74.77,98.81c.17,0,.28.31.54,0a3.76,3.76,0,0,0-.24-.57c-.18.11-.36.22-.55.32C74.6,98.67,74.68,98.79,74.77,98.81Z"/><path class="cls-4" d="M71.5,107.36a.46.46,0,0,0-.19-.35l-.67.27a2.88,2.88,0,0,0,.27.52C71.14,107.66,71.46,107.55,71.5,107.36Z"/><path class="cls-4" d="M72.8,107.05c-.13,0-.19,0-.24.13-.13.44-.83.72-.66,1.24l0,.08c.35-.12.61.08,1,0C72.81,108,73.22,107.64,72.8,107.05Z"/><path class="cls-4" d="M74.05,108.69a.6.6,0,0,0-.35.3.67.67,0,0,0,.12.06l.44-.2C74.21,108.74,74.14,108.66,74.05,108.69Z"/><path class="cls-4" d="M72.82,106.71c.1.15,0,.23.1.37.29-.12.82-.22,1-.54,0-.08,0-.13,0-.21a1.67,1.67,0,0,1,.68-.28,1.58,1.58,0,0,1-.33-.31l-1.49.68A.34.34,0,0,0,72.82,106.71Z"/><path class="cls-4" d="M74.22,107.52c.15.22-.53.21-.38.43,0,.07.09.16,0,.21l.23.4c.27,0,.59-.19.86-.16a.88.88,0,0,0-.12-1.12C74.62,107.3,74.3,107.23,74.22,107.52Z"/><path class="cls-4" d="M78.27,106c-.18.06-.17.18-.27.27-.26-.3-.5-.66-.85-.59.3.38.13.63.34,1-.18.2-.27,0-.44.15-.07.31-.64.4-.84.37l-.14-.24c-.22.23-.68.06-.71.41a.35.35,0,0,0,.5.14,2.73,2.73,0,0,1,.09.62l.44-.22c0-.28,0-.56.21-.4l.05.09a1.4,1.4,0,0,1,.17.09l1.12-.59-.1-.18c-.15-.2-.17-.37,0-.46s.42.15.51.39l.46-.26.11-.07a2.8,2.8,0,0,0,.06-.28A1.85,1.85,0,0,1,78.27,106Z"/><path class="cls-4" d="M73.42,109.05c-.15-.06-.25-.26-.43-.19a2.18,2.18,0,0,0-.38.44c0,.09,0,.16,0,.25l.92-.39A.26.26,0,0,0,73.42,109.05Z"/><path class="cls-4" d="M34.33,110.12l.24.09-.1-.16Z"/><path class="cls-4" d="M36.17,110.26c0-.36-.43-.81-.84-.38a.81.81,0,0,0,.6.51Z"/><path class="cls-4" d="M38.19,110.29l.36.64a.91.91,0,0,0,.38-.64C38.77,110,38.49,110.06,38.19,110.29Z"/><path class="cls-4" d="M13.36,92.24c-.14-.29-.07-.73-.38-.85a1.43,1.43,0,0,0-1,.33,1,1,0,0,0,.86.58l.08,0C13.11,92.17,13.18,92.42,13.36,92.24Z"/><path class="cls-4" d="M32.8,106.94c.1.2.27.17.39.31.32-.09,1.17.42.42.73l-.08,0c.08.16-.23.21-.1.38.22.34.62,0,1-.13,0-.26.38-.43.44-.69a3.06,3.06,0,0,0-.47-.49l-1.15-.47A.61.61,0,0,0,32.8,106.94Z"/><path class="cls-4" d="M16,97.38a8.21,8.21,0,0,1-.88.29s0,0,0,0l.22.23c.13,0,.28.07.37.26A.66.66,0,0,0,16,97.38Z"/><path class="cls-4" d="M29.44,99.22c-.07,0-.12,0-.2,0a2.75,2.75,0,0,0-.5.11c.3.2.61.38.93.57A.9.9,0,0,0,29.44,99.22Z"/><path class="cls-4" d="M19.72,89.57a.34.34,0,0,0,.22,0c-.06-.07-.11-.14-.17-.2A1,1,0,0,1,19.72,89.57Z"/><path class="cls-4" d="M36.08,102.92c.32-.36.71-.33,1.19-.68-.23-.63-.73-.27-1.09-.44a1.34,1.34,0,0,1-.61.77l.14.24a.64.64,0,0,0,0,.07l.25.1Z"/><path class="cls-4" d="M26.3,96.84c-.13.12,0,.88.29.69L27,97.3c-.14-.14-.31-.16-.46-.26S26.36,96.94,26.3,96.84Z"/><path class="cls-4" d="M16,96.3c-.08-.25.21-.39,0-.67-.11.06-.17,0-.29.06-.27.08-.24.25-.43.35a.47.47,0,0,0,.28.49Z"/><path class="cls-4" d="M15.06,94.48l-.08,0c-.05.22-.17.61.09.71.17-.06.29,0,.48-.07C16.05,95,15.31,94.25,15.06,94.48Z"/><path class="cls-4" d="M13.69,92.26c.2.28.31.88.69.47l-.17-.29L14,92.17A.43.43,0,0,0,13.69,92.26Z"/><path class="cls-4" d="M24,102.22l0-.08a1.47,1.47,0,0,0,.1-.59l-.37-.26a.37.37,0,0,1-.16-.09h0l-.92-.68a1,1,0,0,0-.45.18c-.09.2.35.55.09.7-.26,0-1-.15-1,.34.25.07.43.42.69.46.09.09.21,0,.3.15.1,0,.17,0,.28,0s.27.53.48.47a3.67,3.67,0,0,1,.83-.58l.05.08Z"/><path class="cls-4" d="M17.92,90a.33.33,0,0,0,0-.39.66.66,0,0,1-.37,0Z"/><path class="cls-4" d="M20.72,92.42l.08,0a.31.31,0,1,0,0-.62c-.24.12-.61.06-.68.28a.38.38,0,0,0-.22-.2c-.07,0-.12,0-.17-.12a.65.65,0,0,1-.16.09c.21.22.41.44.62.65a.1.1,0,0,1,0,0C20.34,92.51,20.55,92.39,20.72,92.42Z"/><path class="cls-4" d="M18.71,90.91l.23.25a4.57,4.57,0,0,0,.39-.62c.16-.18.42-.33.29-.6C19,89.79,19,90.48,18.71,90.91Z"/><path class="cls-4" d="M24.71,96.46c.14-.14.58-.2.51-.4a2.09,2.09,0,0,1-.89-.45.77.77,0,0,0-.56.18l.45.36a.83.83,0,0,1,.17-.26Z"/><path class="cls-4" d="M35.26,108.85c-.11-.35-.36-.18-.51-.35-.2.18-.51,1,0,.87.28-.08.24-.24.43-.35C35.11,108.94,35.21,108.9,35.26,108.85Z"/><path class="cls-4" d="M28.87,97.84c-.09-.21-.05-.38-.25-.62-.17.15-.26,0-.44.15C27.82,97.83,29,98.62,28.87,97.84Z"/><path class="cls-4" d="M30.11,98.73c.12.34.32.33.45.6.42-.15.15-.5.2-.76-.12.05-.19-.12-.3-.15C30.2,98.34,30.07,98.43,30.11,98.73Z"/><path class="cls-4" d="M36.29,107.8l-1.09-.39-.11,0c0,.42.62.64.95.74A.68.68,0,0,0,36.29,107.8Z"/><path class="cls-4" d="M38.42,108.49l-.66-.2s0,.07,0,.11c-.29,0-.78-.11-1,.33.24.17.43.56.69.68l.05.08A1.33,1.33,0,0,0,38.42,108.49Z"/><path class="cls-4" d="M45.67,103.81c.24.16.44.44.72.4l.39-.23Z"/><path class="cls-4" d="M18.35,96.88c-.12-.11-.23-.21-.34-.33-.06.17-.15.3-.34.29-.27.22-.15.55,0,.87.29-.15.49,0,.78-.12,0-.16-.13-.39-.25-.61Z"/><path class="cls-4" d="M20.23,101.7c.41,0,.25-.54.16-.84C19.76,101,19.83,101.64,20.23,101.7Z"/><path class="cls-4" d="M44.82,105.32c.29.07.49-.26.59-.44a4.7,4.7,0,0,0-1.44.06.8.8,0,0,0-.52.2l0,.09.6.12c.1-.12.19-.24.25-.3C44.44,105.4,44.67,105.22,44.82,105.32Z"/><path class="cls-4" d="M29.21,97.79c.12.16.3.11.48,0l-.58-.37A.4.4,0,0,0,29.21,97.79Z"/><path class="cls-4" d="M40.72,111.41a.91.91,0,0,0-.77.45l.78.19A.4.4,0,0,0,40.72,111.41Z"/><path class="cls-4" d="M45.36,112.72l.08,0a.87.87,0,0,0-.89-.45.71.71,0,0,0,0,.57c.2,0,.4.07.6.09C45.13,112.81,45.2,112.75,45.36,112.72Z"/><path class="cls-4" d="M45.54,111c.2,0,.33.29.52.35l.08,0c.27-.72-.69-1.07-1.35-.51a1.8,1.8,0,0,0,.29.69C45.34,111.36,45.56,111.21,45.54,111Z"/><path class="cls-4" d="M47.31,110.42a.62.62,0,0,0,0-.13l-1-.12a.59.59,0,0,1-.06.14A.81.81,0,0,0,47.31,110.42Z"/><path class="cls-4" d="M52.46,111.88l-.05-.08c-.25.2-.82.31-.7.61s.18.18.26.28C52.17,112.43,52.7,112.26,52.46,111.88Z"/><path class="cls-4" d="M50.15,111.16c.4,0,.51-.43.84-.37a.64.64,0,0,0,.45-.21l-1.1,0A.72.72,0,0,0,50.15,111.16Z"/><path class="cls-4" d="M44.53,110a.94.94,0,0,0,.88.25.57.57,0,0,1,.11-.16l-1-.15Z"/><path class="cls-4" d="M41.69,111.82c.19.31.39.55.69.46a2.55,2.55,0,0,0-.18-.86C42,111.54,41.73,111.65,41.69,111.82Z"/><path class="cls-4" d="M53.33,111.59c.16-.09.23.16.41,0-.14-.29-.06-.73-.38-.85a1.4,1.4,0,0,0-1,.33,1,1,0,0,0,.86.58Z"/><path class="cls-4" d="M54.76,112.06l-.32-.57c-.13,0-.22,0-.37.1C54.27,111.87,54.38,112.47,54.76,112.06Z"/><path class="cls-4" d="M56.63,111.1c0,.15.07.33.2.53.31-.26.48,0,.77-.12-.05-.13,0-.21,0-.34a5.17,5.17,0,0,1-.72-.33A.46.46,0,0,0,56.63,111.1Z"/><path class="cls-4" d="M56.38,113.06c.18.25.49,0,.78-.12a1.65,1.65,0,0,0-1.56-1.25c0,.12.2.28.1.36.11.15,0,.23.11.37.24-.15.39.07.65-.15C56.59,112.57,56.37,112.78,56.38,113.06Z"/><path class="cls-4" d="M44.29,111.4c-.3.1-.12.45.08.49C44.71,112.09,44.48,110.94,44.29,111.4Z"/><path class="cls-4" d="M44.09,9.16,44,9c-.08,0-.13,0-.17-.12-.45.24-.44.6-.4,1l.8-.46Z"/><path class="cls-4" d="M52.92,15.29h-.5a3.56,3.56,0,0,1,.13.39C52.82,15.65,52.93,15.49,52.92,15.29Z"/><path class="cls-4" d="M55.42,16.29c-.34-.28-.59.34-.75.53.11.1.24.14.34.23C55.21,16.81,55.44,16.59,55.42,16.29Z"/><path class="cls-4" d="M54.1,15.65l.48-.28,0,0-.64,0A2.26,2.26,0,0,0,54.1,15.65Z"/><path class="cls-4" d="M60.12,11.44l0-.06-.06,0Z"/><path class="cls-4" d="M67.41,19.64a.53.53,0,0,0,.06-.49s-.1,0-.13,0l-.16.09-.31.18s0,.05,0,.07Z"/><path class="cls-4" d="M66.25,9.81a3.3,3.3,0,0,1-.85.56c.2.37.12.36.37.65.54-.3.37-.73,1.06-.72a.37.37,0,0,0,.08-.31Z"/><path class="cls-4" d="M70.79,12.43c-.19-.13-.37-.32-.56-.43l-.16.09c.16.26.05.43.29.7l.47-.28Z"/><path class="cls-4" d="M74.15,15c0-.36-.35-.77-.73-.55C73.39,14.84,73.65,15.41,74.15,15Z"/><path class="cls-4" d="M74.69,15c-.21.18-.41.7-.08.8l.08-.05.4-.23c-.07-.24.29-.57-.09-.7Z"/><path class="cls-4" d="M39.73,10.37a8.36,8.36,0,0,1-.89.29c.15.37.45.18.61.51A.66.66,0,0,0,39.73,10.37Z"/><path class="cls-4" d="M44.77,17.8a.92.92,0,0,0-.28.05Z"/><path class="cls-4" d="M44,10.49c-.12.33.2.61.46.81.39-.3.38-.65-.09-.7A.46.46,0,0,1,44,10.49Z"/><path class="cls-4" d="M46.26,11.13c.31-.23.53-.11.81-.25-.09-.36,0-.48-.33-.77l-.19-.32c-.09,0-.18,0-.25-.07-.23.19-.4.15-.6.23-.05.24.12.54.13.79-.25.15-.65.26-.42.56l.05.08h0l.83-.11A.32.32,0,0,0,46.26,11.13Z"/><path class="cls-4" d="M59.33,17.05l.39-.22c0-.11.11-.16.2-.22-.14-.26-.43-.57-.09-.7l0,0-.41-.06C59.65,16.26,58.74,16.7,59.33,17.05Z"/><path class="cls-4" d="M56.87,17.17c.35,0,1-.17.78-.66,0-.29.64-.13.67-.49l-.09-.16a14.91,14.91,0,0,1-1.73.66l-.08.05c-.3.19-.47-.1-.74,0s.22.14.23.4c-.22.09-.46.21-.64.15,0,0,0,0,0,0q.79,0,1.59.12A.37.37,0,0,0,56.87,17.17Z"/><path class="cls-4" d="M50.73,10.29c-.14-.14-.31-.16-.47-.27s-.15-.09-.22-.19c-.12.12,0,.88.29.69Z"/><path class="cls-4" d="M62.52,18.21l.49.11a.73.73,0,0,1,.62-.19c.19-.22-.22-.16-.27-.28-.08-.28-.3,0-.39-.31C62.58,17.69,62.41,17.91,62.52,18.21Z"/><path class="cls-4" d="M73.62,12.42l0-.05-.34-.14C73.4,12.36,73.49,12.47,73.62,12.42Z"/><path class="cls-4" d="M46.8,15.75l.11-.09-.25,0A.13.13,0,0,0,46.8,15.75Z"/><path class="cls-4" d="M49,9.05a2.23,2.23,0,0,1-.89-.46c-.69,0-.93.69-1.37,1.11.12.15.31,0,.42.18l.08,0c.23-.09.38.1.62,0,.06-.32,0-.67.31-.93l.32.57C48.6,9.31,49,9.25,49,9.05Z"/><path class="cls-4" d="M52.61,10.82a1.64,1.64,0,0,0-.24-.61c-.17.14-.26-.05-.44.15a.4.4,0,0,0,.06.52c.21,0,.42,0,.63,0C52.61,10.86,52.62,10.84,52.61,10.82Z"/><path class="cls-4" d="M64.21,12.23a.88.88,0,0,1,.24,0c0-.26.11-.46,0-.75-.15.08-.21-.23-.38-.1-.14,0-.33.07-.52.19,0,.18.18.4.15.57Z"/><path class="cls-4" d="M68.16,13.18l-.16.09v0l.36.12C68.32,13.22,68.25,13.08,68.16,13.18Z"/><path class="cls-4" d="M69.13,13.59l-.1,0,1.27.46.13-.06a1,1,0,0,0-.66-.8C69.47,13.14,69.39,13.47,69.13,13.59Z"/><path class="cls-4" d="M41.42,9.83c-.28.21-.15.54,0,.87.29-.15.49,0,.77-.12.05-.17-.12-.39-.24-.61.35-.25.6-.13.79-.45a.56.56,0,0,0-.15-.45l0-.06-.7.14C41.79,9.47,41.74,9.84,41.42,9.83Z"/><path class="cls-4" d="M60.55,8.71c-.06.21-.17.61.08.7s.3.06.49-.06c.34-.14.1-.51-.16-.66l-.29,0,0,0Z"/><path class="cls-4" d="M60.3,16.92a1.28,1.28,0,0,0,0,.75c.47.13.52-.31.83-.58C60.92,16.8,60.56,17.06,60.3,16.92Z"/><path class="cls-4" d="M67.2,18.12l.09.17c.21.64.64-.09.81-.25.08.35.31.16.47.27a.33.33,0,0,0,.26,0l-1-.35-.16,0C67.57,17.89,67.39,18,67.2,18.12Z"/><path class="cls-4" d="M69.27,19.72c-.26,0-.56.26-.77.12a.49.49,0,0,0,0,.18l.94.38,0,0C69.21,20.11,69.43,20,69.27,19.72Z"/><path class="cls-4" d="M50.86,8.23c0,.18.17.45.29.69.23-.14.55-.26.59-.45C51.7,8.09,51.29,7.87,50.86,8.23Z"/><path class="cls-4" d="M52.8,8.3c-.13.43-.83.71-.66,1.23l0,.08c.35-.11.61.09,1,0-.08-.5.34-.85-.09-1.45C52.91,8.19,52.85,8.14,52.8,8.3Z"/><path class="cls-4" d="M54.29,9.8a.58.58,0,0,0-.35.31,1.36,1.36,0,0,0,.63.18C54.6,10.2,54.49,9.73,54.29,9.8Z"/><path class="cls-4" d="M53.61,8h-.49a.3.3,0,0,0,0,.17Z"/><path class="cls-4" d="M54.46,8.63c.15.22-.52.21-.38.43s.09.17,0,.21l.23.41a8.71,8.71,0,0,1,.86-.17.88.88,0,0,0-.11-1.11C54.86,8.41,54.54,8.35,54.46,8.63Z"/><path class="cls-4" d="M55.6,8.41a.34.34,0,0,0,.5.14c.16.33-.09.83.38.86.24-.19.08-1.12.36-.85l0,.08c.22.09.41.32.67.26a.28.28,0,0,1,.07-.25l.16-.1a.24.24,0,0,0,.33,0c.18.06.25-.08.17-.25-.46-.05-.93-.1-1.39-.13a1.31,1.31,0,0,1-.45.05l-.05-.09-.37,0C55.83,8.18,55.62,8.18,55.6,8.41Z"/><path class="cls-4" d="M53.82,10.82l.08,0c0-.22,0-.55-.24-.61s-.25-.26-.43-.19a1.89,1.89,0,0,0-.38.43c0,.12,0,.22.11.37a.2.2,0,0,0,.15.09h.14a3.67,3.67,0,0,1,.52-.14Z"/><path class="cls-4" d="M83.1,47.8c-.07-.36.35-.58.18-1,0,0-.1,0-.12,0l-.16.09-.32.18a1.08,1.08,0,0,1,0,.18l.27.48A.51.51,0,0,1,83.1,47.8Z"/><path class="cls-4" d="M82,37.54l.52-.14a.52.52,0,0,0-.18-.1A3.33,3.33,0,0,0,82,37.54Z"/><path class="cls-4" d="M72.38,20.2a2.57,2.57,0,0,0,.06-.4l-.38-.17a.83.83,0,0,0-.43.35A1.77,1.77,0,0,0,72.38,20.2Z"/><path class="cls-4" d="M74.5,21.34c.15.29.43.11.6.3a1.37,1.37,0,0,0-.11.92c.32-.16.31-.41.5-.61-.22-.24-.39-.42-.16-.63L74.77,21A.72.72,0,0,1,74.5,21.34Z"/><path class="cls-4" d="M79.85,36.59c.17.06.59,0,.48-.27l0-.07c-.21.07-.42.16-.64.25A.27.27,0,0,1,79.85,36.59Z"/><path class="cls-4" d="M75.08,22.72l0,.08c0,.12-.16.21-.31.29l.53.31a.56.56,0,0,1,.55-.18c.13,0,.19,0,.23-.14s0-.12,0-.2A.79.79,0,0,0,75.08,22.72Z"/><path class="cls-4" d="M71.27,21.23l.65.3a.66.66,0,0,0,0-.44C71.8,20.81,71.45,21,71.27,21.23Z"/><path class="cls-4" d="M74.24,22.35c-.45,0-1-.87-1.4-.35.51.26,1,.53,1.51.81.12-.11.25-.22.27-.36A.46.46,0,0,1,74.24,22.35Z"/><path class="cls-4" d="M90.32,38.54l.32.53a1.74,1.74,0,0,0,.1.19,1.16,1.16,0,0,0-.26-.82Z"/><path class="cls-4" d="M86.08,44.81l-.21.07H86Z"/><path class="cls-4" d="M85.17,31.52l.69.78,0,0c.22.07.28-.15.1-.38l-.14-.24c-.14-.2-.17-.37,0-.46.37-.07.62.45.54.76.13-.05.21.06.33,0a3.45,3.45,0,0,0,.27-1,1.77,1.77,0,0,1-.75-.22c-.19.06-.18.18-.27.27-.26-.3-.5-.66-.86-.59.3.38.13.63.35,1C85.38,31.58,85.29,31.49,85.17,31.52Z"/><path class="cls-4" d="M92.4,40.13a4.21,4.21,0,0,0-.47.48c.24.47.56.62,1,.41Z"/><path class="cls-4" d="M76.26,24l.82.53-.18.1.1,0,.08,0c.16-.09.23.16.41,0-.14-.29-.07-.73-.38-.86A1.34,1.34,0,0,0,76.26,24Z"/><path class="cls-4" d="M78.51,25.05l-.33-.57c-.12,0-.21,0-.36.1C78,24.86,78.13,25.46,78.51,25.05Z"/><path class="cls-4" d="M80.13,26.05c.18.25.49,0,.77-.12a1.66,1.66,0,0,0-1.55-1.26c.05.13.19.29.1.37.11.14,0,.23.11.37.24-.16.38.06.64-.16C80.33,25.56,80.12,25.77,80.13,26.05Z"/><path class="cls-4" d="M83.91,45.73c.09.35.32.16.47.27.3.07.49-.26.59-.45a3.65,3.65,0,0,0-.74,0c-.35.15-.71.33-1.09.52C83.36,46.55,83.75,45.88,83.91,45.73Z"/><path class="cls-4" d="M84.91,35.31a2.41,2.41,0,0,1-.54,0c0,.21.18.5.09.7s.2.3.42.18S84.87,35.59,84.91,35.31Z"/><path class="cls-4" d="M90.23,37.63c.11.19,0,.31.19.53l.64-.37-.51-.88-.4.22C90.05,37.26,90.38,37.51,90.23,37.63Z"/><path class="cls-4" d="M16.4,25l-.09-.16c-.08,0-.13,0-.17-.12-.45.23-.44.6-.4,1l.8-.45Z"/><path class="cls-4" d="M36,20.3c0-.39-.45-.6-.88-.25,0,.16.11.38.24.6.19-.09.38-.16.57-.24A.34.34,0,0,0,36,20.3Z"/><path class="cls-4" d="M32.7,13l-.05-.08c-.25.2-.82.31-.7.61s.18.19.26.28C32.41,13.54,33,13.38,32.7,13Z"/><path class="cls-4" d="M17.31,34.31l.16-.09c-.06-.18.05-.3-.07-.5s-.92.05-1.06.18l.05.08c-.05.16.1.46.31.36S17.05,34.51,17.31,34.31Z"/><path class="cls-4" d="M16.32,26.31a.41.41,0,0,0,0,.31l.2-.21A.58.58,0,0,1,16.32,26.31Z"/><path class="cls-4" d="M23.24,27.92l-.23-.4c-.29,0-.67.3-.9.08a.5.5,0,0,0-.62.57c.26.2.65-.08.84.38,0,.23.26.26.51.33.26-.25.53-.5.81-.74a.49.49,0,0,0,0-.11A.46.46,0,0,1,23.24,27.92Z"/><path class="cls-4" d="M22.19,28.85a.62.62,0,0,0-.36.3c-.12.29-.67.47-.88.29-.1.25-.68.35-.58.65.13.12.24.32.39.32-.11-.17.26-.2.35-.31a1.79,1.79,0,0,1,.26.23c.34-.36.69-.71,1.05-1.06A1,1,0,0,1,22.19,28.85Z"/><path class="cls-4" d="M18.63,31.09c.21,0,.26.53.48.48a3.19,3.19,0,0,1,.83-.58l0,.08.08-.05,0-.08c.12-.21.06-.48.12-.71-.17-.16-.39-.07-.55-.22.2-.19.47-.37.26-.68-.55.58-1.08,1.16-1.59,1.76a.16.16,0,0,1,.08.06C18.45,31.09,18.51,31.19,18.63,31.09Z"/><path class="cls-4" d="M28.39,16.3c.11.08.25.05.41,0a.55.55,0,0,0,.36-.1c.26-.22-.2-.31-.29-.69C28.46,15.51,28.5,16,28.39,16.3Z"/><path class="cls-4" d="M25.81,17.13c.37-.12,1-.33.81-.79-.22.09-.37-.1-.61,0A1.83,1.83,0,0,0,25.81,17.13Z"/><path class="cls-4" d="M26.81,17.41l-.31.18c.09.19.19.37.29.54l1.08-.64.12-.22c.16-.18.42-.33.3-.59-.82-.19-.61.84-1.12,1.17C27,17.73,27,17.32,26.81,17.41Z"/><path class="cls-4" d="M24.24,26.17c-.36.46.78,1.25.68.47-.08-.2-.05-.38-.24-.61C24.51,26.17,24.42,26,24.24,26.17Z"/><path class="cls-4" d="M32.21,20.25l-.08,0c.08.16-.23.21-.1.38.22.34.62,0,1-.13,0-.26.39-.43.45-.69l-.17-.2-.8.38C32.45,20.11,32.36,20.18,32.21,20.25Z"/><path class="cls-4" d="M33.75,21.29c0-.08.06-.12.11-.17-.11-.35-.36-.18-.51-.35-.19.17-.47.86-.1.88l.3-.16A.76.76,0,0,1,33.75,21.29Z"/><path class="cls-4" d="M34.76,19.75c-.4.16-.65-.26-1.07,0,0,.42.62.64,1,.74C34.83,20.27,35,20.07,34.76,19.75Z"/><path class="cls-4" d="M38.4,19.47c0-.08,0-.13,0-.2a1.67,1.67,0,0,1,.68-.28c-.18-.1-.32-.33-.48-.48-.48-.22-.65.31-1,.34l-.47.27c.2.22,0,.32.19.53a.25.25,0,0,1,.06.19Z"/><path class="cls-4" d="M13.73,25.65c-.28.21-.15.54,0,.87.29-.15.49,0,.77-.12,0-.17-.12-.4-.24-.61.35-.25.6-.14.79-.46a.57.57,0,0,0-.15-.45c-.14-.31-.39-.19-.6-.23l-.1.11C14.11,25.1,14.12,25.66,13.73,25.65Z"/><path class="cls-4" d="M29.89,21.72a1,1,0,0,0,.86.59l.08,0c.16-.09.23.16.41,0-.15-.28-.07-.73-.38-.85A1.43,1.43,0,0,0,29.89,21.72Z"/><path class="cls-4" d="M32,22.29l-.07-.12c-.12,0-.21,0-.36.1a1,1,0,0,1,.11.2Z"/><path class="cls-4" d="M33.58,12.7c.15-.09.22.17.4,0-.14-.28-.06-.73-.38-.85a1.41,1.41,0,0,0-1,.34,1,1,0,0,0,.86.58Z"/><path class="cls-4" d="M35,13.17l-.32-.56c-.12,0-.22,0-.37.1C34.51,13,34.62,13.58,35,13.17Z"/><path class="cls-4" d="M37.84,12.62c0-.13,0-.21,0-.33a5.23,5.23,0,0,1-.72-.34.53.53,0,0,0-.27.26c0,.15.07.34.2.53C37.38,12.49,37.55,12.77,37.84,12.62Z"/><path class="cls-4" d="M37.05,13.38a1.83,1.83,0,0,0-1.21-.58c.06.13.2.28.11.37.1.14,0,.23.1.37.24-.16.39.06.65-.16l0,.11Z"/><path class="cls-4" d="M27.36,15.07a.62.62,0,0,0-.47.28c.17,0,.27.35.43.39s.28.31.54,0C27.73,15.48,27.71,15,27.36,15.07Z"/><path class="cls-4" d="M24.45,25.35l0,.08c.35-.12.61.08,1,0-.07-.4.18-.7.07-1.11-.37.27-.73.55-1.09.83A.49.49,0,0,0,24.45,25.35Z"/><path class="cls-4" d="M26.6,25.62a.6.6,0,0,0-.35.3s0,0,.06,0l.41-.3S26.64,25.6,26.6,25.62Z"/><path class="cls-4" d="M27.37,24.21c-.2,0-.52,0-.6.24.15.22-.52.21-.38.43s.09.16,0,.21l.23.4a1.42,1.42,0,0,0,.4-.08l.58-.4A.84.84,0,0,0,27.37,24.21Z"/><path class="cls-4" d="M30.53,23.12c-.25-.29-.49-.63-.83-.55.27.34.16.57.29.87Z"/><path class="cls-4" d="M29,24.05a.85.85,0,0,1-.27,0l-.14-.24c-.22.23-.68.06-.71.41a.35.35,0,0,0,.5.14.14.14,0,0,1,0,.06Z"/><path class="cls-4" d="M30.89,22.91l-.06,0a.4.4,0,0,0-.22.2Z"/><path class="cls-4" d="M26,26c-.14-.06-.25-.26-.43-.19a2.18,2.18,0,0,0-.38.44c0,.12,0,.22.11.37a.28.28,0,0,0,.11.08c.24-.2.49-.39.74-.58A.3.3,0,0,0,26,26Z"/><path class="cls-4" d="M2.84,54.67c-.33.16-.59.33-.62.57s0,.22.11.37l.18.32a3.53,3.53,0,0,0,.61-.29c0-.13,0-.27,0-.4Z"/><path class="cls-4" d="M4.58,43.72l0,.08c.07.15.19.14.33,0s.15-.1.11-.18L4.7,43C4.4,43.17,4.75,43.52,4.58,43.72Z"/><path class="cls-4" d="M5.82,43.82l0-.06A.09.09,0,0,0,5.82,43.82Z"/><path class="cls-4" d="M11.45,41.93a.33.33,0,0,0,.06-.36l-.16.37Z"/><path class="cls-4" d="M7.46,35.86c0,.19.17.46.29.7.22-.15.55-.26.59-.45C8.3,35.72,7.89,35.51,7.46,35.86Z"/><path class="cls-4" d="M7.71,33.36l0,0,0,.07S7.69,33.38,7.71,33.36Z"/><path class="cls-4" d="M1.33,55.53c-.15.07-.64.09-.5-.14-.21-.2-.24-.69-.37-.65L.33,55c0,.26-.06.51-.08.76a2.7,2.7,0,0,0,1,.49C1.64,56.43,1.67,55.94,1.33,55.53Z"/><path class="cls-4" d="M2,52.6l-.08,0c.08.16-.23.21-.1.38.23.34.63,0,1-.13,0-.26.39-.43.45-.69-.51-.66-1.6-1.41-2.05-.64.1.2.27.17.39.31C1.87,51.78,2.73,52.29,2,52.6Z"/><path class="cls-4" d="M4.45,47.54a1,1,0,0,1,.25-.21c.08-.29.16-.58.25-.86a.88.88,0,0,1-.4,0,1.38,1.38,0,0,1-.61.77l.14.24c.2.46-.73.91-.13,1.25l.39-.22c0-.07,0-.11.1-.16a.83.83,0,0,0,0-.15C4.34,47.91,4.15,47.65,4.45,47.54Z"/><path class="cls-4" d="M1.49,48.8c.35,0,1-.17.78-.66,0-.29.64-.12.67-.49l-.09-.16L1.58,48c-.1.4-.2.8-.29,1.2A.52.52,0,0,0,1.49,48.8Z"/><path class="cls-4" d="M3.88,50.22,4,50.3A2.38,2.38,0,0,0,4,50C4,50.1,3.89,50.15,3.88,50.22Z"/><path class="cls-4" d="M5.53,44.66l-.19,0s0,.1,0,.12c-.14.19-.36.35-.17.63l.09.15C5.32,45.27,5.43,45,5.53,44.66Z"/><path class="cls-4" d="M14.24,38.52c.17-.05.28.15.49-.06s-.21-.31-.36-.44l-.09-.16C14.06,38,13.94,38.42,14.24,38.52Z"/><path class="cls-4" d="M3.12,53.12c-.2.17-.51,1,0,.87a.45.45,0,0,0,.26-.18c0-.19,0-.38.08-.57C3.32,53.21,3.2,53.22,3.12,53.12Z"/><path class="cls-4" d="M3.46,52.07a.54.54,0,0,0,.11.27L3.63,52A.44.44,0,0,0,3.46,52.07Z"/><path class="cls-4" d="M5.63,37.46c.28-.08.24-.25.43-.35,0-.08.06-.12.11-.17-.07-.25-.22-.24-.35-.27l-.38.76A.26.26,0,0,0,5.63,37.46Z"/><path class="cls-4" d="M7,36.28c.19-.2.38-.39.12-.71-.24.09-.42,0-.63-.08l-.22.42A2.1,2.1,0,0,0,7,36.28Z"/><path class="cls-4" d="M3.45,43.4c-.13.12-.1.29-.3.39a.37.37,0,0,0,.06.28l0,.09c.13.64.47-.39.63-.57l0-.08c-.08-.11-.21-.07-.3-.16Z"/><path class="cls-4" d="M9.4,35.94c-.14.43-.84.71-.67,1.23l0,0c.25-.47.5-.93.77-1.39C9.47,35.82,9.43,35.83,9.4,35.94Z"/><path class="cls-4" d="M10.38,34.39c-.15.11-.28.26-.45.28l-.47.27c.19.21,0,.31.19.53a.16.16,0,0,1,0,.07C9.91,35.15,10.14,34.77,10.38,34.39Z"/><path class="cls-4" d="M14.71,36.22c.23.07.28-.15.1-.38l-.05-.1-.32.49A.24.24,0,0,0,14.71,36.22Z"/><path class="cls-4" d="M15.27,35.9c.12,0,.21.06.33,0a3.2,3.2,0,0,0,.26-1,1.67,1.67,0,0,1-.48-.11l-.3.46A.79.79,0,0,1,15.27,35.9Z"/><path class="cls-4" d="M5.25,40.3l-.08,0c0,.21-.17.61.08.7s.3.06.49-.06C6.24,40.78,5.5,40.07,5.25,40.3Z"/><path class="cls-4" d="M6.44,37.59c0,.14.07.33.19.52.32-.25.49,0,.78-.12,0-.12,0-.21,0-.33a3.94,3.94,0,0,1-.72-.34C6.56,37.4,6.47,37.48,6.44,37.59Z"/><path class="cls-4" d="M6.19,39.55c.18.25.49,0,.77-.12A1.66,1.66,0,0,0,5.4,38.17c.06.13.2.29.11.37.1.14,0,.23.1.37.25-.16.39.06.65-.16C6.39,39.06,6.18,39.27,6.19,39.55Z"/><path class="cls-4" d="M10.36,46.09l.32-.18c-.1-.51-.34-.69-.66-.72,0,.1-.07.21-.11.31C10.16,45.59,10.25,46.1,10.36,46.09Z"/><path class="cls-4" d="M9.77,45.9c-.09.26-.18.52-.26.78a.58.58,0,0,0,.32.14C10.07,46.59,9.83,46.22,9.77,45.9Z"/><path class="cls-4" d="M13.71,39.25a2.34,2.34,0,0,1-.53,0c0,.21.17.5.08.7s.21.3.42.19C13.81,39.87,13.67,39.54,13.71,39.25Z"/><path class="cls-4" d="M8.58,57.17c.35-.41,1-.65.51-1.14C8.33,56,7.83,57.14,8.58,57.17Z"/><path class="cls-4" d="M9.07,58.39h0c0-.07,0-.15,0-.23A.55.55,0,0,0,9.07,58.39Z"/><path class="cls-4" d="M8.08,57a1.6,1.6,0,0,1-.64-.17l-.06.83.54,0A.5.5,0,0,0,8.08,57Z"/><path class="cls-4" d="M15.9,84.9c-.06-.31.14-.55-.24-.61-.16.09-.23-.17-.41,0a1,1,0,0,0,.21.73C15.64,84.85,15.73,85,15.9,84.9Z"/><path class="cls-4" d="M4.47,77.4l0,.09c0,.16.1.46.31.35s.36.18.62,0l.15-.09c0-.17.06-.3-.07-.49S4.6,77.28,4.47,77.4Z"/><path class="cls-4" d="M1.48,67.76c-.27.1-.17.39.06.29.41.24,1.15-.26.94-.75a.45.45,0,0,0-.38-.11C1.73,67.12,1.57,67.54,1.48,67.76Z"/><path class="cls-4" d="M9.24,73.61c.25.16.44.52.73.54a1.37,1.37,0,0,1,1-.67c0-.18-.11-.36-.16-.54a.89.89,0,0,1-.47-.59.58.58,0,0,0-.35.31.7.7,0,0,1-.88.29.37.37,0,0,1-.12.13c.06.2.12.4.17.6A.35.35,0,0,0,9.24,73.61Z"/><path class="cls-4" d="M9.61,71.68c.26.2.65-.09.85.37a.21.21,0,0,0,.13.21c-.1-.37-.2-.74-.29-1.11l-.07,0C10,71,9.51,71.34,9.61,71.68Z"/><path class="cls-4" d="M8.23,58.76a.76.76,0,0,0-.86,0c0,.5.18.53.54.76C8,59.23,8.44,59.1,8.23,58.76Z"/><path class="cls-4" d="M8.48,84.43,8.8,85c.1,0,.2,0,.3-.08-.15-.26-.29-.52-.43-.78A.61.61,0,0,0,8.48,84.43Z"/><path class="cls-4" d="M6.42,79.72c0,.19-.48.27-.34.51.14-.13.5-.21.57-.36a1.12,1.12,0,0,0-.05-.13A.19.19,0,0,0,6.42,79.72Z"/><path class="cls-4" d="M.43,64.08c0,.14.07.33.2.53.31-.26.48,0,.77-.12,0-.13.05-.21,0-.34a5.17,5.17,0,0,1-.72-.33A.46.46,0,0,0,.43,64.08Z"/><path class="cls-4" d="M2.14,61.92c-.22.09-.37-.1-.61,0a1.83,1.83,0,0,0-.2.76C1.7,62.59,2.37,62.38,2.14,61.92Z"/><path class="cls-4" d="M2.8,63.8l.13-.13c0-.16,0-.32,0-.48a.73.73,0,0,1-.22.24c-.13-.12-.18-.53-.36-.44L2,63.17a6.13,6.13,0,0,0,1,1.48c0-.25,0-.49,0-.73Z"/><path class="cls-4" d="M8.26,69.13c.07-.32,0-.66.31-.93l.33.57c.13-.14.58-.2.51-.4a2.09,2.09,0,0,1-.89-.45.82.82,0,0,0-.65.25c0,.34.11.67.18,1A.36.36,0,0,0,8.26,69.13Z"/><path class="cls-4" d="M7.55,62.9c0-.07,0-.12,0-.2-.15-.24-.07-.4-.24-.64,0,.27,0,.54,0,.81A.63.63,0,0,0,7.55,62.9Z"/><path class="cls-4" d="M1.83,70c.28-.15.49,0,.77-.12,0-.16-.12-.39-.24-.61.35-.25.6-.13.79-.45A.64.64,0,0,0,3,68.39c-.16-.35-.45-.16-.67-.26-.11.31,0,1-.47,1C1.58,69.37,1.7,69.7,1.83,70Z"/><path class="cls-4" d="M4.42,74a.2.2,0,0,0,.2-.06c-.07-.24-.13-.48-.19-.72C4,73.43,4.05,74,4.42,74Z"/><path class="cls-4" d="M1,65.92a1.6,1.6,0,0,0-.8-1l0,.4.07,0a.69.69,0,0,1,0,.51c0,.12,0,.24,0,.36C.45,66.23.71,66,1,65.92Z"/><path class="cls-4" d="M7.78,60c-.18,0-.3-.06-.49.06a.79.79,0,0,1,0,.17v.29a.31.31,0,0,0,.13.12C7.68,60.46,8.16,60.35,7.78,60Z"/><path class="cls-4" d="M103.15,48.45c-.45.23-.44.6-.39,1l.79-.45-.14-.25-.09-.16C103.25,48.58,103.19,48.55,103.15,48.45Z"/><path class="cls-4" d="M107.47,37.41c.35-.41,1-.65.5-1.14C107.21,36.25,106.71,37.38,107.47,37.41Z"/><path class="cls-4" d="M119.28,51.65l0,.08c.07.15.19.14.33,0s.16-.1.11-.18l-.36-.64C119.1,51.1,119.45,51.45,119.28,51.65Z"/><path class="cls-4" d="M120.56,51.67c-.08.07,0,.18.06.3l.15-.22A.29.29,0,0,1,120.56,51.67Z"/><path class="cls-4" d="M95.94,44.85l.08,0c.16-.09.23.16.41,0-.14-.28-.07-.73-.38-.85a1.43,1.43,0,0,0-1,.33A1,1,0,0,0,95.94,44.85Z"/><path class="cls-4" d="M122.89,48.2c.11.27.33.09.47.27s.58.05.47-.28l-.09-.16c-.21-.12-.45-.15-.67-.26C122.77,47.85,123,48.08,122.89,48.2Z"/><path class="cls-4" d="M119.76,36.85l-.77.48c.07.12.16.14.24.22C119.4,37.31,119.85,37.16,119.76,36.85Z"/><path class="cls-4" d="M111.35,33.16v0l0,0Z"/><path class="cls-4" d="M107,37.27a1,1,0,0,1-.42-.08c-.18.24-.37.49-.58.74a5.81,5.81,0,0,0,.83,0A.5.5,0,0,0,107,37.27Z"/><path class="cls-4" d="M103.35,57.64l.05.09c-.05.16.1.46.31.35s.36.18.61,0l.16-.09c0-.17,0-.3-.07-.49S103.49,57.52,103.35,57.64Z"/><path class="cls-4" d="M103.71,50.16a.47.47,0,0,1-.38-.1c-.12.33.2.6.46.8C104.18,50.56,104.17,50.21,103.71,50.16Z"/><path class="cls-4" d="M101.37,47.54a.49.49,0,0,0-.38-.11.47.47,0,0,0-.21,0c.07.27.15.54.22.81A.59.59,0,0,0,101.37,47.54Z"/><path class="cls-4" d="M105,51.22a.72.72,0,0,1-.11.42c.24.11.62-.32.91-.42a.47.47,0,0,1-.13-.33Z"/><path class="cls-4" d="M102.79,42.12a.4.4,0,0,0,.41,0,.56.56,0,0,0,.37-.1c.25-.22-.2-.31-.29-.69C102.87,41.33,102.91,41.81,102.79,42.12Z"/><path class="cls-4" d="M115.23,56.53l-.06,0-.44.41c.16.18.41.36.52.51.4,0,1-.38.94-.75.35,0,1-.17.78-.66,0-.29.64-.12.67-.48l-.09-.17a15.11,15.11,0,0,1-1.73.67l-.08,0a.34.34,0,0,1-.22.07l-.29.3Z"/><path class="cls-4" d="M109.66,50.08l.39-.22c-.14-.15-.31-.17-.46-.27s-.16-.1-.22-.2C109.24,49.51,109.35,50.27,109.66,50.08Z"/><path class="cls-4" d="M107.12,39a.76.76,0,0,0-.87,0c0,.49.18.53.52.75l0-.05C106.92,39.44,107.31,39.31,107.12,39Z"/><path class="cls-4" d="M108.94,36.68l0,.08.21-.34A.51.51,0,0,0,108.94,36.68Z"/><path class="cls-4" d="M120.22,52.59l-.18,0s0,.1,0,.12c-.12.17-.31.31-.22.54C119.93,53,120.07,52.81,120.22,52.59Z"/><path class="cls-4" d="M105,60.47a3.13,3.13,0,0,1,.45-.24V60a.14.14,0,0,0-.11,0C105.28,60.15,104.83,60.23,105,60.47Z"/><path class="cls-4" d="M96.76,44.81c.1.14.17.36.27.5l.38-.1-.29-.49C97,44.75,96.91,44.69,96.76,44.81Z"/><path class="cls-4" d="M99.32,44.32a.41.41,0,0,0,0,.26l.47-.19c0,.12.08.25.12.37a.51.51,0,0,0,.34,0c-.05-.13,0-.21,0-.33a5.93,5.93,0,0,1-.72-.34A.46.46,0,0,0,99.32,44.32Z"/><path class="cls-4" d="M104.37,54.28c.25.07.43.42.69.46l0,0c0-.28-.07-.57-.11-.85C104.69,53.9,104.35,54,104.37,54.28Z"/><path class="cls-4" d="M101,42.16c-.22.09-.38-.1-.61,0a1.83,1.83,0,0,0-.2.76C100.59,42.83,101.26,42.62,101,42.16Z"/><path class="cls-4" d="M102.76,44.28c-.45.29-.77,0-1.08-.24a2.85,2.85,0,0,0,.72-.95c.16-.18.42-.33.29-.59-.81-.19-.6.84-1.11,1.17-.13-.12-.18-.53-.36-.44l-.32.18c.6,1.16,1.25,2.08,2.18,2a.15.15,0,0,0,0-.07c-.09-.31-.19-.62-.29-.93A.21.21,0,0,1,102.76,44.28Z"/><path class="cls-4" d="M115.81,40a.54.54,0,0,0,.36-.1c.13-.12.08-.2,0-.3l-.41.42Z"/><path class="cls-4" d="M115.76,42.52a.42.42,0,0,0-.22-.2c-.07,0-.13,0-.17-.12-.46.29-.77,0-1.08-.24A3,3,0,0,0,115,41c.13-.16.35-.3.32-.5a17.66,17.66,0,0,0-1.3,1.72,2,2,0,0,0,1.44,1.06c.22-.33.45-.66.7-1C116,42.35,115.8,42.37,115.76,42.52Z"/><path class="cls-4" d="M112.44,45.39c.41-.1.44-.22.42-.57a.57.57,0,0,0-.15-.44h0c-.13.21-.26.42-.4.63A.88.88,0,0,0,112.44,45.39Z"/><path class="cls-4" d="M125.86,45.86c0-.1-.08-.55-.27-.49a.58.58,0,0,0-.35.31A1.35,1.35,0,0,0,125.86,45.86Z"/><path class="cls-4" d="M126.61,44.68l-1,.53,0,0c.27,0,.59-.19.85-.17A1.19,1.19,0,0,0,126.61,44.68Z"/><path class="cls-4" d="M127.45,44.29c0,.31-.07.66.33.69.24-.19.08-1.12.36-.85l.05.08c.22.09.41.32.67.26a.25.25,0,0,1,.07-.25l.15-.1a.24.24,0,0,0,.33,0c.23.07.29-.15.1-.38l-.12-.22C128.78,43.75,128.13,44,127.45,44.29Z"/><path class="cls-4" d="M129.91,43.4a.74.74,0,0,1,.06.43c.12,0,.21.06.33,0a2.69,2.69,0,0,0,.19-.61Z"/><path class="cls-4" d="M102,49.08a.65.65,0,0,0-.15-.45c-.16-.34-.46-.16-.68-.26a2.51,2.51,0,0,0-.07.45c0,.22.11.45.16.68C101.62,49.3,101.85,49.38,102,49.08Z"/><path class="cls-4" d="M101.45,50.16l0,0a.68.68,0,0,0-.14-.43C101.38,49.86,101.42,50,101.45,50.16Z"/><path class="cls-4" d="M103.46,53.41c-.63.15-.56.78-.16.84S103.55,53.72,103.46,53.41Z"/><path class="cls-4" d="M98.28,44.91l0,.05.08,0Z"/><path class="cls-4" d="M120.51,36.5l.08,0c.16-.09.22.16.41,0a1,1,0,0,1-.08-.24l-.52.28Z"/><path class="cls-4" d="M121.33,36.46c.19.27.3.87.68.46l-.32-.56C121.57,36.39,121.47,36.33,121.33,36.46Z"/><path class="cls-4" d="M124.08,36.49c.31-.26.49,0,.77-.12,0-.13.06-.21,0-.33a7.79,7.79,0,0,1-.72-.34.53.53,0,0,0-.27.26A.86.86,0,0,0,124.08,36.49Z"/><path class="cls-4" d="M122.85,36.55c.06.13.2.28.11.37a.39.39,0,0,1,.06.22c.24-.11.48-.22.71-.31A2.28,2.28,0,0,0,122.85,36.55Z"/><path class="cls-4" d="M106.17,40.32l0,0,0,0Z"/><path class="cls-4" d="M124.25,46.35c.2.26.55,0,.82,0l.05.08.08,0c0-.22,0-.55-.25-.62a.34.34,0,0,1-.11-.07l-.68.42A.36.36,0,0,0,124.25,46.35Z"/><path class="cls-4" d="M110.19,47.79c-.06.19.16.45.29.69.22-.14.54-.25.59-.44C111,47.65,110.62,47.44,110.19,47.79Z"/><path class="cls-4" d="M112.36,47.72c-.13,0-.19,0-.24.14-.12.39-.68.65-.68,1.08.36-.37.69-.73,1-1.09Z"/><path class="cls-4" d="M112.66,46.59l-.48.27c.2.22,0,.32.2.53s0,.23.11.37h0a17.88,17.88,0,0,0,1.1-1.5C113.15,46.05,113,46.56,112.66,46.59Z"/><path class="cls-4" d="M93.56,78.65l.37.65a.91.91,0,0,0,.38-.64C94.15,78.32,93.87,78.43,93.56,78.65Z"/><path class="cls-4" d="M97,65.75c.2.38.12.36.37.65a1.29,1.29,0,0,0,.44-.43c0-.27.07-.54.1-.82A4,4,0,0,1,97,65.75Z"/><path class="cls-4" d="M102.47,67.9l0-.09a3.75,3.75,0,0,1-.33-.26c0,.2,0,.4-.08.61Z"/><path class="cls-4" d="M102.48,66.07c.09.13.24.1.4,0l-.18-.32C102.45,65.79,102.63,66,102.48,66.07Z"/><path class="cls-4" d="M96.14,64l-.09-.16c-.21-.12-.45-.16-.67-.26-.3.08,0,.3-.18.43.11.27.33.09.47.26S96.25,64.33,96.14,64Z"/><path class="cls-4" d="M94.33,73.91v0c.34-.24.54-.49.92-.42.2-.22-.22-.16-.27-.28-.08-.27-.28,0-.37-.28C94.52,73.27,94.43,73.59,94.33,73.91Z"/><path class="cls-4" d="M101.23,61.66c-.18.19-.25.51,0,.61.17-.05.28.15.49-.07s-.2-.3-.36-.43l-.06-.11Z"/><path class="cls-4" d="M104.19,65.2c-.19.33.1.79-.22,1.09a.26.26,0,0,0-.25-.07c-.13-.38-.07-.7-.19-1.07l-.16.09-.24.13c.19.53.08,1,.22,1.49.15.34.54-.2.8-.25.11.28.31.2.4.52l.1.16c.13,0,.21.18.31.33,0-.34.09-.67.13-1l-.07,0-.08,0a.43.43,0,0,1-.41,0c.29-.19.16-.5.45-.69a.68.68,0,0,0,.14.24c0-.13,0-.26,0-.39a2.71,2.71,0,0,0-.89-.73Z"/><path class="cls-4" d="M87.71,55.86c.11.08.25,0,.41,0a.49.49,0,0,0,.36-.1c.26-.22-.2-.31-.29-.69C87.79,55.08,87.82,55.55,87.71,55.86Z"/><path class="cls-4" d="M94,76.14l.07,0c-.06-.21-.07-.51-.32-.57h0c-.28.78-.58,1.54-.9,2.29l0,0C93.7,77.66,93.82,76.72,94,76.14Z"/><path class="cls-4" d="M96.08,67.58c0-.26.11-.46,0-.75a.11.11,0,0,1-.13,0c0,.27-.08.54-.13.82A.76.76,0,0,1,96.08,67.58Z"/><path class="cls-4" d="M101.58,71.5a.76.76,0,0,1-.21,0c-.05.25-.11.51-.17.76.18.15.35.32.57.28l.64-.36c-.13-.24-.35-.5-.29-.69C101.94,71.49,101.73,71.61,101.58,71.5Z"/><path class="cls-4" d="M102.07,69.41a.78.78,0,0,0-.2-.44l-.09.58Z"/><path class="cls-4" d="M103.1,72.14a1.36,1.36,0,0,0,.58-.65c-.29.07-.48-.24-.76-.22.2.22-.13.28.07.5S102.85,72.06,103.1,72.14Z"/><path class="cls-4" d="M102.69,70.12c-.15.21-.09.48-.37.64l.18.33c.06.1.18,0,.25.07.26.06.29-.32.46-.48C103.45,70.34,103,70.05,102.69,70.12Z"/><path class="cls-4" d="M96.74,61c-.08-.5.33-.86-.09-1.45-.14,0-.19,0-.24.13a.31.31,0,0,1,0,.1c0,.41,0,.81,0,1.22A.92.92,0,0,0,96.74,61Z"/><path class="cls-4" d="M97.9,61.19a.6.6,0,0,0-.35.3,1.23,1.23,0,0,0,.59.18c0-.08,0-.15,0-.23S98,61.15,97.9,61.19Z"/><path class="cls-4" d="M97,58.41l-.48.28c.2.21,0,.31.2.53s0,.22.1.36c.29-.12.82-.22,1-.54,0-.08,0-.13,0-.21a1.15,1.15,0,0,1,.4-.2c0-.12,0-.24,0-.35l-.19-.2C97.43,57.86,97.26,58.38,97,58.41Z"/><path class="cls-4" d="M97.69,60.45c0,.07.09.16,0,.21l.23.4.22,0c0-.38,0-.76,0-1.15a.47.47,0,0,0-.08.14C98.22,60.24,97.54,60.23,97.69,60.45Z"/><path class="cls-4" d="M102.61,59.67a3.45,3.45,0,0,0,.27-1l-.36-.06c0,.35,0,.71,0,1.07Z"/><path class="cls-4" d="M92.68,64.76l.07,0c.34-.14.11-.51-.16-.66l-.23.13Z"/><path class="cls-4" d="M95,54.49l-.08,0s0,.1,0,.16l.62,0C95.35,54.48,95.12,54.38,95,54.49Z"/><path class="cls-4" d="M97.16,52.18c0-.12.06-.21,0-.33a4.68,4.68,0,0,1-.72-.34.57.57,0,0,0-.27.26.86.86,0,0,0,.2.53C96.7,52.05,96.88,52.34,97.16,52.18Z"/><path class="cls-4" d="M95.32,52.87a.42.42,0,0,0,.05.23c.25-.16.39.06.65-.16.13.31-.09.52-.07.8.17.25.48,0,.77-.12a1.54,1.54,0,0,0-1.13-1.16c0,.13.06.26.08.39Z"/><path class="cls-4" d="M95.27,75c-.18-.53-.56-.26-.85-.37C94,75.15,94.85,75.31,95.27,75Z"/><path class="cls-4" d="M97.38,69.06c-.46-.33-1.26.1-1.84.12-.05.25-.11.51-.16.76a.55.55,0,0,0,.39-.15c.38.16.65.74,1.07.78.36-.35-.38-1,.08-1.33.16.06.26.29.33.45C97.29,69.48,97.34,69.27,97.38,69.06Z"/><path class="cls-4" d="M100.9,75.1c-.16,0-.34.12-.5.15l-.15.47a1,1,0,0,0,.82,0C100.85,75.49,101.06,75.35,100.9,75.1Z"/><path class="cls-4" d="M97.51,62.16c-.05-.21,0-.54-.25-.61s-.24-.26-.42-.19a2.18,2.18,0,0,0-.38.44c0,.12,0,.22.1.37s.55,0,.82,0l.05.08Z"/><path class="cls-4" d="M100.29,63.49l.45,0a2.36,2.36,0,0,1,0-.46,1.87,1.87,0,0,1-.53,0A1.59,1.59,0,0,0,100.29,63.49Z"/></g></g></g></svg>