<svg xmlns="http://www.w3.org/2000/svg" viewBox="0 0 186.33 15.27"><defs><style>.cls-1{fill:#fff;}</style></defs><g id="Layer_2" data-name="Layer 2"><g id="layout"><path class="cls-1" d="M27,6.18V1.09h1.9V13.78H27V7.92H21.3v5.86H19.39V1.09H21.3V6.18Z"/><path class="cls-1" d="M33.6,10.36l-1.21,3.42H30.26L35,1.09h2.55l4.75,12.69H40.18L39,10.36Zm4.77-1.65-2.09-5.8-2.09,5.8Z"/><path class="cls-1" d="M54,13.11A8.33,8.33,0,0,1,50,14c-4.45,0-6.79-3-6.79-6.58A6.44,6.44,0,0,1,50,.83,7,7,0,0,1,54,2l-.63,1.75A4.88,4.88,0,0,0,50,2.56a4.64,4.64,0,0,0-4.84,4.88,4.65,4.65,0,0,0,5,4.87A6.12,6.12,0,0,0,54,11Z"/><path class="cls-1" d="M66.12,13.11A8.33,8.33,0,0,1,62.2,14c-4.45,0-6.79-3-6.79-6.58A6.44,6.44,0,0,1,62.16.83a7,7,0,0,1,4,1.17l-.63,1.75a4.88,4.88,0,0,0-3.34-1.19,4.63,4.63,0,0,0-4.83,4.88,4.64,4.64,0,0,0,5,4.87A6.12,6.12,0,0,0,66.12,11Z"/><path class="cls-1" d="M71.83,1.09c2.41,0,4.11,1.33,4.11,3.87,0,3.11-2.29,3.83-4.43,3.83H69.92v5H68V1.09Zm-.48,6c1.09,0,2.7,0,2.7-2.08s-1.57-2.14-2.7-2.14H69.92V7Z"/><path class="cls-1" d="M80.59,3.76a11.74,11.74,0,0,1-1.76,2.53l-1.47-.94A10.35,10.35,0,0,0,80.05.29L81.7.66a12.3,12.3,0,0,1-.43,1.52H84v-2h1.71v2h5.84V3.76H85.75V6.48h6.53V8.05H87.57v4.84c0,.43.29.43.42.43h1.9c.53,0,.64-.08.8-2.16l1.59.25c-.16,2.85-.67,3.51-1.7,3.51h-3.3a1.24,1.24,0,0,1-1.36-1.35V8.05H83.27c0,3.65-1.8,6.08-5.43,7.22l-.91-1.55c3.82-1,4.69-3.22,4.69-5.67H77.14V6.48H84V3.76Z"/><path class="cls-1" d="M96.29,5.06a9.53,9.53,0,0,1-1.92,2.58L93.12,6.4c.64-.64,2.13-2.16,3-5.94l1.73.32A17.42,17.42,0,0,1,97,3.44h3V.18h1.73V3.44h6V5.06h-6V8h5.41V9.67h-5.41V13h6.58v1.65h-15V13h6.67V9.67H94.61V8h5.47v-3Z"/><path class="cls-1" d="M113,1.26a33,33,0,0,0-.68,7.3,28.25,28.25,0,0,0,.46,5.67l-1.91.14a32.63,32.63,0,0,1-.4-5.52,40.88,40.88,0,0,1,.64-7.73Zm4.1,6.9a3.84,3.84,0,0,0-.78,2.07c0,1.34,1.58,1.49,3.12,1.49a33.32,33.32,0,0,0,3.7-.2v1.86c-.87.07-1.83.15-3,.15-2.62,0-5.52-.26-5.52-3.09a5.32,5.32,0,0,1,.83-2.74Zm5.72-5.82V4.1h-7.69V2.34Z"/><path class="cls-1" d="M138.29,5.92v6.9h-2.72a11.39,11.39,0,0,0,4.28.95l-.66,1.42a11.16,11.16,0,0,1-4.85-1.42l.82-.95h-5.7l.9,1a13.44,13.44,0,0,1-4.89,1.36l-.6-1.37a12.7,12.7,0,0,0,4.25-.95h-2.73V6.08a3.69,3.69,0,0,1-.47.51l-1.13-1.07a4,4,0,0,0,1.15-2.69V.61A21.46,21.46,0,0,0,131.7.05l.45,1.26a20.53,20.53,0,0,1-4.71.43v.72h4.8V3.62h-2V5.54h-1.52V3.62h-1.38a5.3,5.3,0,0,1-.83,2.3Zm-1.6,1.22H128v.8h8.67Zm0,1.73H128v.86h8.67Zm0,1.81H128v.92h8.67Zm-2.24-8.22h5.4V3.62h-2.32V5.54h-1.48V3.62h-1.82A3.87,3.87,0,0,1,133,5.78l-1.17-1.09A2.77,2.77,0,0,0,133,2.27V.58A24,24,0,0,0,139,0l.55,1.25a26.69,26.69,0,0,1-5.08.54Z"/><path class="cls-1" d="M141.51.83h6.11v6.1h-4.55v8.29h-1.56Zm1.6,1.31V3.3h2.94V2.14Zm0,2.25V5.63h2.94V4.39ZM152,8.13v5.41h-7.05V8.13Zm-5.52,1.38v2.62h4V9.51Zm7.41-2.58H149.2V.83h6.26v13c0,1.34-.68,1.37-1.21,1.37H151.7l-.19-1.6h2c.37,0,.39-.21.39-.4Zm-3.09-4.79V3.3h3.09V2.14Zm0,2.25V5.63h3.09V4.39Z"/><path class="cls-1" d="M171.29,2.43V4.08h-4.15V7.31a8,8,0,0,1,.29,2.17c0,4.49-4.29,5-6.64,5.1L160.23,13c4.65.05,5.26-1.57,5.44-2.75a2.23,2.23,0,0,1-2.19,1.21,3,3,0,0,1-3-3.15A3.15,3.15,0,0,1,163.8,5a2.39,2.39,0,0,1,1.6.51l0-1.44h-7.67V2.43h7.64l0-1.69h1.82V2.43Zm-5.85,5.33a1.47,1.47,0,0,0-1.58-1.34A1.68,1.68,0,0,0,162.1,8.2,1.67,1.67,0,0,0,163.73,10a1.62,1.62,0,0,0,1.71-1.65Z"/><path class="cls-1" d="M183.77,2.64c-1.28.95-2.81,2.18-4.2,3.27A7.76,7.76,0,0,1,182,5.47c2.24,0,4.34,1.24,4.34,4.12,0,3.14-2.63,4.85-5.8,4.85-2.75,0-4.21-1.25-4.21-2.74a2.58,2.58,0,0,1,2.84-2.37A4,4,0,0,1,183,12.28a2.94,2.94,0,0,0,1.55-2.64c0-1.17-.59-2.71-3.23-2.71s-4.69,1.59-6.92,3.67l-1-1.51c.46-.33,3.37-2.56,7.5-6.21-1.9.15-3.13.19-5.81.26V1.39c3.7,0,5.24,0,8.7-.19Zm-4.66,8.1c-.85,0-1.23.53-1.23.9,0,.68.83,1.39,2.52,1.39a7.32,7.32,0,0,0,1.14-.13A2.53,2.53,0,0,0,179.11,10.74Z"/><g id="g4139"><path id="path35019" class="cls-1" d="M6.21,1.16a7.13,7.13,0,0,0-4.34,1.4A4.39,4.39,0,0,0,0,6a4.84,4.84,0,0,0,3.26,4.24,2.91,2.91,0,0,1-.68,1.37,5.21,5.21,0,0,1-.8.79.49.49,0,0,0-.08.69.47.47,0,0,0,.38.19,5.78,5.78,0,0,0,4.49-2.43h.26a4.86,4.86,0,0,1-.83-.8l-.07.07a6.4,6.4,0,0,1-2.44,1.91A3.27,3.27,0,0,0,4.29,10,.5.5,0,0,0,4,9.56,4,4,0,0,1,1,6,3.44,3.44,0,0,1,2.47,3.33,6.18,6.18,0,0,1,6.21,2.15,6.24,6.24,0,0,1,10,3.33l0,0q.33,0,.66,0a6.19,6.19,0,0,1,.75,0,5.87,5.87,0,0,0-.85-.8,7.14,7.14,0,0,0-4.35-1.4Z"/><path id="path4927" class="cls-1" d="M10.89,4C8.22,4,6.07,5.69,6.07,7.74c0,1.83,1.74,3.35,4,3.64a4.55,4.55,0,0,0,3.31,2.21c.16,0,.17-.12.12-.16a3.3,3.3,0,0,1-1.08-2.18c1.91-.49,3.27-1.88,3.27-3.51,0-2-2.15-3.71-4.82-3.71Z"/></g></g></g></svg>