<svg xmlns="http://www.w3.org/2000/svg" xmlns:xlink="http://www.w3.org/1999/xlink" viewBox="0 0 413.24 116.27"><defs><style>.cls-1,.cls-5{fill:none;}.cls-2,.cls-6{fill:#00abbf;}.cls-3{opacity:0.3;}.cls-4{clip-path:url(#clip-path);}.cls-5{stroke:#66cdd9;stroke-width:0.85px;}.cls-5,.cls-6{stroke-miterlimit:10;}.cls-6{stroke:#fff;stroke-width:0.79px;}.cls-7{fill:#f4e75e;}.cls-8{fill:#fff;}.cls-9{fill:#86cdd5;}.cls-10{fill:#d9f2f5;}</style><clipPath id="clip-path" transform="translate(82.31 26.46)"><polygon class="cls-1" points="223.67 0 0 0 0 78.95 240 78.95 240 16.33 223.67 0"/></clipPath></defs><g id="Layer_2" data-name="Layer 2"><g id="layout"><polygon class="cls-2" points="305.99 26.46 82.31 26.46 82.31 105.41 322.31 105.41 322.31 42.79 305.99 26.46"/><g class="cls-3"><g class="cls-4"><line class="cls-5" x1="109.42" y1="0.29" x2="0.31" y2="115.98"/><line class="cls-5" x1="116.17" y1="0.29" x2="7.06" y2="115.98"/><line class="cls-5" x1="122.91" y1="0.29" x2="13.8" y2="115.98"/><line class="cls-5" x1="129.66" y1="0.29" x2="20.54" y2="115.98"/><line class="cls-5" x1="136.4" y1="0.29" x2="27.29" y2="115.98"/><line class="cls-5" x1="143.14" y1="0.29" x2="34.03" y2="115.98"/><line class="cls-5" x1="149.89" y1="0.29" x2="40.78" y2="115.98"/><line class="cls-5" x1="156.63" y1="0.29" x2="47.52" y2="115.98"/><line class="cls-5" x1="163.38" y1="0.29" x2="54.27" y2="115.98"/><line class="cls-5" x1="170.12" y1="0.29" x2="61.01" y2="115.98"/><line class="cls-5" x1="176.87" y1="0.29" x2="67.76" y2="115.98"/><line class="cls-5" x1="183.61" y1="0.29" x2="74.5" y2="115.98"/><line class="cls-5" x1="190.36" y1="0.29" x2="81.25" y2="115.98"/><line class="cls-5" x1="197.1" y1="0.29" x2="87.99" y2="115.98"/><line class="cls-5" x1="203.85" y1="0.29" x2="94.74" y2="115.98"/><line class="cls-5" x1="210.59" y1="0.29" x2="101.48" y2="115.98"/><line class="cls-5" x1="217.34" y1="0.29" x2="108.22" y2="115.98"/><line class="cls-5" x1="224.08" y1="0.29" x2="114.97" y2="115.98"/><line class="cls-5" x1="230.82" y1="0.29" x2="121.71" y2="115.98"/><line class="cls-5" x1="237.57" y1="0.29" x2="128.46" y2="115.98"/><line class="cls-5" x1="244.31" y1="0.29" x2="135.2" y2="115.98"/><line class="cls-5" x1="251.06" y1="0.29" x2="141.95" y2="115.98"/><line class="cls-5" x1="257.8" y1="0.29" x2="148.69" y2="115.98"/><line class="cls-5" x1="264.55" y1="0.29" x2="155.44" y2="115.98"/><line class="cls-5" x1="271.29" y1="0.29" x2="162.18" y2="115.98"/><line class="cls-5" x1="278.04" y1="0.29" x2="168.93" y2="115.98"/><line class="cls-5" x1="284.78" y1="0.29" x2="175.67" y2="115.98"/><line class="cls-5" x1="291.53" y1="0.29" x2="182.42" y2="115.98"/><line class="cls-5" x1="298.27" y1="0.29" x2="189.16" y2="115.98"/><line class="cls-5" x1="305.02" y1="0.29" x2="195.9" y2="115.98"/><line class="cls-5" x1="311.76" y1="0.29" x2="202.65" y2="115.98"/><line class="cls-5" x1="318.5" y1="0.29" x2="209.39" y2="115.98"/><line class="cls-5" x1="325.25" y1="0.29" x2="216.14" y2="115.98"/><line class="cls-5" x1="331.99" y1="0.29" x2="222.88" y2="115.98"/><line class="cls-5" x1="338.74" y1="0.29" x2="229.63" y2="115.98"/><line class="cls-5" x1="345.48" y1="0.29" x2="236.37" y2="115.98"/><line class="cls-5" x1="352.23" y1="0.29" x2="243.12" y2="115.98"/><line class="cls-5" x1="358.97" y1="0.29" x2="249.86" y2="115.98"/><line class="cls-5" x1="365.72" y1="0.29" x2="256.61" y2="115.98"/><line class="cls-5" x1="372.46" y1="0.29" x2="263.35" y2="115.98"/><line class="cls-5" x1="379.21" y1="0.29" x2="270.09" y2="115.98"/><line class="cls-5" x1="385.95" y1="0.29" x2="276.84" y2="115.98"/><line class="cls-5" x1="392.69" y1="0.29" x2="283.58" y2="115.98"/><line class="cls-5" x1="399.44" y1="0.29" x2="290.33" y2="115.98"/><line class="cls-5" x1="406.18" y1="0.29" x2="297.07" y2="115.98"/><line class="cls-5" x1="412.93" y1="0.29" x2="303.82" y2="115.98"/></g></g><rect class="cls-6" x="267.05" y="59.43" width="43.16" height="33.49"/><rect class="cls-6" x="223.89" y="59.43" width="43.16" height="33.49"/><rect class="cls-6" x="180.73" y="59.43" width="43.16" height="33.49"/><rect class="cls-6" x="137.58" y="59.43" width="43.16" height="33.49"/><rect class="cls-6" x="94.42" y="59.43" width="43.16" height="33.49"/><path class="cls-7" d="M28.05,41.75c0-1.12-.05-1.81-.12-2.67,3.18.28,3.73.47,3.73.81s-.26.5-1,.79v3h.84c.45-.57,1-1.17,1.46-1.67,2.2,2,2.34,2.25,2.34,2.44s-.14.52-.38.52H33.38a.66.66,0,0,1-.52.31,21.46,21.46,0,0,1-1.53,6,14.58,14.58,0,0,1,1.84,1.67c1.07,1.15,1.36,1.82,1.36,2.63,0,1-.53,1.58-1.32,1.58-.54,0-1.05-.24-1.57-1.24a24.15,24.15,0,0,0-1.44-2.37,16.82,16.82,0,0,1-4.13,4.86,19.84,19.84,0,0,1-1.8,1.24L24,59.38a20.24,20.24,0,0,0,3-3.88,23.06,23.06,0,0,0,1.75-3.82,20.72,20.72,0,0,0-3.61-3.33l.19-.31a22.47,22.47,0,0,1,4,1.87A35.16,35.16,0,0,0,30.27,45H26.33l-2.27.12V43.57l2.27.12h1.72Zm7,6.63c2.68.72,4.16,2.1,4.16,3.58a1.38,1.38,0,0,1-1.36,1.53,1.25,1.25,0,0,1-1.32-1.14,6.74,6.74,0,0,0-1.72-3.71Zm5.47-5.65c0-1.88,0-3-.09-3.84,3.18.26,3.58.47,3.58.76s-.23.5-.95.77v3.94h.14c.41-.57.72-1,1.15-1.63,1.77,1.85,1.91,2.2,1.91,2.4s-.14.52-.38.52H43c0,9.71.17,11.6.17,12.39,0,1.67-1.2,2.7-3.4,2.7-.45,0-.5-.05-.6-.5-.24-1.17-.81-1.72-2.34-2.25l0-.36a18,18,0,0,0,2.71.19c.76,0,.9-.14.9-.93V45.65H37.85l-2.27.12V44.24l2.27.12h2.63Z" transform="translate(82.31 26.46)"/><path class="cls-7" d="M70.21,44a23,23,0,0,1-3.06,1.29L67,45a23.37,23.37,0,0,0,6.72-6.65c3.32.65,3.46.79,3.46,1.1s-.36.5-1.12.5c-.14.15-.31.29-.46.43H79.2c.41-.76.65-1,.91-1s.67.12,1.6.75,1.15.83,1.15,1.21-.19.6-1.24.72c-.67.46-1.34.86-2,1.24h4.24c.36-.74.57-.93.83-.93s.63.12,1.44.72,1,.81,1,1-.22.52-.79.83v.51c0,1.17.07,1.77.07,2.1,0,.74-.76,1.08-1.86,1.08-.34,0-.58-.12-.62-.41H80.4a14.73,14.73,0,0,0,2.15,3.68,20.64,20.64,0,0,0,3.71-3.3c2.29,1.68,2.49,2,2.49,2.27s-.27.44-.89.44a3.51,3.51,0,0,1-.53,0,31.69,31.69,0,0,1-4.3,1.2,14.31,14.31,0,0,0,2.42,2.1,17.48,17.48,0,0,0,4,2.06l-.14.33a3.19,3.19,0,0,0-2,1.39c-.21.33-.31.48-.47.48a1.22,1.22,0,0,1-.51-.22,19,19,0,0,1-1.84-1.36,14.82,14.82,0,0,1-3.32-4.52,16.72,16.72,0,0,1-1.36-4.52h-.94a19.46,19.46,0,0,1-2,1.32,8.15,8.15,0,0,1,3.73,6.76c0,2.94-1.29,4.35-3.25,4.66a1.2,1.2,0,0,1-.31,0c-.36,0-.43-.14-.6-.67-.26-.81-.74-1.22-2-1.56l0-.35a18.63,18.63,0,0,0,2,.12c1.15,0,1.72-.48,1.72-2.37v-.22a31.52,31.52,0,0,1-11.07,3.26l-.1-.34a32.86,32.86,0,0,0,10.93-5.16c-.09-.39-.19-.77-.31-1.13a28.55,28.55,0,0,1-10.19,3.21l-.09-.34a33.44,33.44,0,0,0,6.07-2.58,26.29,26.29,0,0,0,3.3-2.2c-.19-.29-.38-.53-.57-.79a22.75,22.75,0,0,1-8,2.49L68.13,52a25.73,25.73,0,0,0,4.38-1.89,17.09,17.09,0,0,0,2.85-1.91h-2.8a2.06,2.06,0,0,1-1.77.65.59.59,0,0,1-.67-.63c0-.43.09-1.65.09-3.53Zm7.78-.7a19.55,19.55,0,0,0,1-1.74h-4.8c-.7.53-1.44,1-2.18,1.46.26.09.53.17.79.28Zm-5.34,1.27V47h4.21V44.48H72.72Zm6.87-.07a.75.75,0,0,1-.32.29V47h4.69V44.48Z" transform="translate(82.31 26.46)"/><path class="cls-8" d="M113.72,50.94l-2.39.12V49.62l2.39.12h6.14V48.33h-3.49c-.12.41-.83.77-1.86.77a.51.51,0,0,1-.58-.55c0-.36.07-1.32.07-3.18,0-.7,0-1.3,0-2.06,1.1.29,1.81.48,2.25.62h3.65V42.76h-7l-2.4.12V41.44l2.4.12h7c0-1.14-.07-2-.12-2.82,2.94.29,3.49.46,3.49.77s-.21.45-.88.74v1.31h5.5c.48-.62,1-1.22,1.55-1.89,2.49,2,2.68,2.28,2.68,2.54s-.17.55-.38.55h-9.35v1.17h3.85c.36-.6.57-.67.79-.67s.48.05,1.39.65c.74.5.81.79.81,1s-.26.5-.72.72v.57c0,.67.07,1.29.07,1.72s-.57.79-1.62.79c-.55,0-.77-.12-.82-.38h-3.73v1.41h4.57c.36-.74.57-.86.79-.86s.5,0,1.43.69,1,.82,1,1-.17.48-.67.74v1.25h.19c.41-.6.77-1.1,1.17-1.65,1.77,1.86,1.85,2.15,1.85,2.34s-.15.5-.39.5h-2.82c.05,1.22.12,2.58.12,3.09,0,.74-.84,1.1-2,1.1a.57.57,0,0,1-.65-.63v-.69h-4.47c0,1.1.05,1.77.05,2.15,0,1.27-1.24,2.27-3.13,2.27-.43,0-.48,0-.6-.47-.26-1-.84-1.56-2.34-2l0-.36a24.09,24.09,0,0,0,2.42.17c.81,0,1-.1,1-.94v-.81h-6l-2.39.12V55.34l2.39.12h6V53.78h-7.55l-2.44.12V52.47l2.44.12h7.55V50.94Zm6.14-3.81v-2h-3.42l0,0v2Zm2.51,0h3.71v-2h-3.73Zm0,3.81c0,.55,0,1.1,0,1.65H127V50.94Zm.07,4.52H127V53.78h-4.51Z" transform="translate(82.31 26.46)"/><path class="cls-8" d="M168.17,43.09a29.47,29.47,0,0,0,1.1-3.85c2.85,1.06,3,1.27,3,1.56s-.26.5-1.08.62a17,17,0,0,1-1.86,1.67h1.89c.48-.62.88-1.14,1.48-1.79,2.34,1.91,2.51,2.18,2.51,2.44s-.12.55-.38.55h-7.22c1.5.5,1.62.67,1.62.91s-.26.5-1,.57a12.25,12.25,0,0,1-1.41,1.29H170c.45-.57.91-1.12,1.46-1.72,2.22,2,2.34,2.18,2.34,2.42s-.12.5-.36.5h-7.72a.56.56,0,0,1-.36.29V50h3.18c.45-.57.88-1,1.43-1.62,2.16,1.81,2.35,2,2.35,2.32s-.1.45-.29.5c2.25,1.91,2.39,2.1,2.39,2.37s-.12.5-.36.5H166c2.32,1.77,5.21,2.77,9.35,3.32l-.08.36a3.33,3.33,0,0,0-1.91,1.67c-.21.41-.31.55-.52.55a1.26,1.26,0,0,1-.44-.09,12,12,0,0,1-7-5.43c0,3.71.1,5,.1,5.55s-.93,1-2.11,1c-.45,0-.64-.16-.64-.52s0-1.58.09-4.5a22.34,22.34,0,0,1-9.54,4.26l-.12-.33a23.91,23.91,0,0,0,8.11-5.79h-4.76l-2.39.12V52.75l2.39.12h6.34V51.2h-4.38l-2.39.12V49.88l2.39.12h4.38V48.26h-5.57l-2.39.12V46.94l2.39.12h3.35a1.32,1.32,0,0,1-.24-.52,3.52,3.52,0,0,0-1.18-2.2l0-.05h-3.37l-2.39.12V43l2.39.12H158a1.2,1.2,0,0,1-.57-.79,4.31,4.31,0,0,0-1.34-2.43l.19-.32c2.54.27,3.66,1.2,3.66,2.32a1.25,1.25,0,0,1-.76,1.22H161V41.66c0-1.12,0-1.94-.07-2.87,3.11.26,3.25.43,3.25.72s-.17.43-.84.69v2.89h1.65V41.73c0-1.12,0-1.94-.07-2.87,3.06.26,3.26.43,3.26.72s-.17.43-.84.69v2.82Zm-2.68,4a27.11,27.11,0,0,0,.77-2.77H161c1.32.41,1.91,1.1,1.91,1.89a1.22,1.22,0,0,1-.31.88Zm-.09,5.81h5.07c.43-.55.83-1,1.41-1.67H165.4Z" transform="translate(82.31 26.46)"/><path class="cls-8" d="M208,42.3c.45-.57.84-1,1.41-1.62a19.37,19.37,0,0,1,2.06,1.84,32.75,32.75,0,0,0,2.17-3c2.75,1.22,2.92,1.41,2.92,1.79s-.22.46-1.22.53a38.17,38.17,0,0,1-4.16,4.4h2.94c.55-.69,1-1.2,1.63-2,2.46,1.86,2.72,2.29,2.72,2.56s-.14.6-.38.6h-8.3a42.73,42.73,0,0,1-3.92,2.86h6.22c.48-.93.69-1.05,1-1.05s.62.1,1.55.82,1,1,1,1.17-.22.57-.89.86v1.17c0,3.75.15,5.19.15,5.91,0,.88-.7,1.33-2.08,1.33-.48,0-.75-.16-.75-.57V59.3h-7.31V60c0,.53-.72,1-1.94,1-.53,0-.84-.19-.84-.6,0-.62.1-1.94.1-7.79v-.08a40.49,40.49,0,0,1-5.79,2.37l-.14-.33A46.39,46.39,0,0,0,202,51.08c0-.67,0-1.17-.08-1.7.72.19,1.3.36,1.75.5,1-.78,2-1.57,3-2.43h-8l-2.39.12V46.13l2.39.12h6.16V43.5h-4.44l-2.39.12V42.19l2.39.11h4.44v-.69c0-1.12,0-2.06-.11-2.92,3.18.29,3.68.48,3.68.82s-.27.5-1,.79v2Zm-3.18,9.21-.07.07V54H212V51.51Zm-.07,3.68v2.92H212V55.19Zm2.75-11.69v2.75h.5c.91-.88,1.82-1.79,2.65-2.75Z" transform="translate(82.31 26.46)"/><polygon class="cls-9" points="305.99 42.79 322.31 42.79 305.99 26.46 305.99 42.79"/><path class="cls-8" d="M48.62,24.87H45.81v-6H41.65v6H38.83v-14h2.82v5.65h4.16V10.91h2.81Z" transform="translate(82.31 26.46)"/><path class="cls-8" d="M62.63,22H58.79L58,24.87h-3l4.36-14H62l4.39,14h-3ZM59.4,19.66H62l-1.3-5Z" transform="translate(82.31 26.46)"/><path class="cls-8" d="M81.88,20.22a5.22,5.22,0,0,1-1.35,3.62A4.73,4.73,0,0,1,77,25.07a4.39,4.39,0,0,1-3.63-1.56,6.94,6.94,0,0,1-1.26-4.45V16.71a6.74,6.74,0,0,1,1.31-4.44,4.44,4.44,0,0,1,3.62-1.56A4.51,4.51,0,0,1,80.55,12a5.8,5.8,0,0,1,1.35,3.66H79.07a3.75,3.75,0,0,0-.46-2,1.79,1.79,0,0,0-1.53-.56,1.7,1.7,0,0,0-1.6.79,5.54,5.54,0,0,0-.5,2.6v2.64A6,6,0,0,0,75.45,22a1.69,1.69,0,0,0,1.59.77,1.86,1.86,0,0,0,1.54-.54,3.58,3.58,0,0,0,.48-2Z" transform="translate(82.31 26.46)"/><path class="cls-8" d="M98,20.22a5.26,5.26,0,0,1-1.34,3.62,4.75,4.75,0,0,1-3.49,1.23,4.39,4.39,0,0,1-3.63-1.56,6.94,6.94,0,0,1-1.26-4.45V16.71a6.74,6.74,0,0,1,1.3-4.44A5.15,5.15,0,0,1,96.66,12,5.8,5.8,0,0,1,98,15.65H95.18a3.76,3.76,0,0,0-.45-2,1.79,1.79,0,0,0-1.53-.56,1.72,1.72,0,0,0-1.61.79,5.43,5.43,0,0,0-.49,2.6v2.64A6.11,6.11,0,0,0,91.56,22a1.7,1.7,0,0,0,1.6.77,1.84,1.84,0,0,0,1.53-.54,3.58,3.58,0,0,0,.48-2Z" transform="translate(82.31 26.46)"/><path class="cls-8" d="M107.46,20v4.91h-2.82v-14h4.76a4.38,4.38,0,0,1,3.3,1.28,4.64,4.64,0,0,1,1.24,3.34,4.32,4.32,0,0,1-1.22,3.24A4.62,4.62,0,0,1,109.34,20Zm0-2.35h1.94a1.5,1.5,0,0,0,1.24-.53,2.29,2.29,0,0,0,.45-1.53,2.8,2.8,0,0,0-.45-1.67,1.44,1.44,0,0,0-1.21-.62h-2Z" transform="translate(82.31 26.46)"/><circle class="cls-10" cx="212.78" cy="44.35" r="10.29"/><circle class="cls-10" cx="238.86" cy="44.35" r="10.29"/><circle class="cls-10" cx="264.94" cy="44.35" r="10.29"/><path class="cls-2" d="M129.15,22.25a10.09,10.09,0,0,0,2.77-.85,8.87,8.87,0,0,1-.64-1.67h-2.81v.63l1.9-.17,0,1.07a14.46,14.46,0,0,1-1.95.23v1c0,.8-.42,1-1.16,1h-1.78l-.28-1.3h1.36c.28,0,.34-.05.34-.27v-.34l-2.44.11-.1-1.16,2.54-.09v-.7h-2.48V18.61H127v-.5l-2,0-.11-.92a27.1,27.1,0,0,0,5-.27l.41.95c-.61.07-1.11.13-1.74.17v.55H131a11.39,11.39,0,0,1-.13-1.66h1.52a7.41,7.41,0,0,0,.13,1.66h1.93a11,11,0,0,0-1.38-1.13l.8-.73h-9.42V15.69h5.08v-.56h-4.27v-.9h4.27v-.56h-4.64V12.6h2.48c0-.11-.32-.68-.39-.81l1.68-.16c.23.48.25.54.43,1h2.66a8.61,8.61,0,0,0,.33-1l1.77.16a8.54,8.54,0,0,1-.35.81h2.29v1.07h-4.67v.56h4.3v.9h-4.3v.56h5.1v1.06h-2a10.45,10.45,0,0,1,1.43,1.06l-.82.8h1.42v1.12h-3.43a6.77,6.77,0,0,0,.34.92,6,6,0,0,0,.85-.76l1.16.54a7.39,7.39,0,0,1-1.36,1.33c.06.09.34.47.6.47s.58-.25,1.06-1.46l1,.83c-.4,1.13-1,2-1.94,2a2.61,2.61,0,0,1-1.93-1.13,12.53,12.53,0,0,1-2.86,1Z" transform="translate(82.31 26.46)"/><path class="cls-2" d="M150.94,20.06a9,9,0,0,0,2.14-2.83h-1.89V15.84h2.5a9.61,9.61,0,0,0-1.77-1.36l1-1a7.61,7.61,0,0,1,1.18.78,4.3,4.3,0,0,0,.77-.86h-3.45V12.06h5.08v1.36A10.84,10.84,0,0,1,155,15a4.86,4.86,0,0,1,.39.42l-.4.39h1.84v.81a7,7,0,0,0,2-.77,9,9,0,0,1-1-1.15,6,6,0,0,1-.74.67l-1-1a5.77,5.77,0,0,0,2.06-2.78l1.49.19a5.34,5.34,0,0,1-.28.72H163v1.32h-.73a5,5,0,0,1-1.26,2,7.57,7.57,0,0,0,2.16.77l-.65,1.39a12.33,12.33,0,0,1-2.66-1.25A9.76,9.76,0,0,1,157.17,18l-.39-.71a9.25,9.25,0,0,1-.91,2.23l-1-.68a7.54,7.54,0,0,0,.74-1.62h-.85v5.13c0,.6,0,1.22-1.24,1.22H152l-.28-1.44h1.17c.4,0,.48-.1.48-.41V19a10.07,10.07,0,0,1-1.83,2.55Zm7.31-1.45a6.55,6.55,0,0,0,0-.89h1.47c0,.38,0,.62,0,.89h2.94c-.05,5-.76,5-2.08,5H159.2l-.33-1.41h1.32c.59,0,.85,0,1-2.21h-1.66a5.38,5.38,0,0,1-3.11,3.63l-1-1.27A4.23,4.23,0,0,0,158,20h-1.57V18.61Zm.38-4.76a6.92,6.92,0,0,0,1.2,1.25,4,4,0,0,0,.92-1.25Z" transform="translate(82.31 26.46)"/><path class="cls-2" d="M178.28,17.48a6.53,6.53,0,0,1-.88,1l-.7-1.92a10.5,10.5,0,0,0,2.6-4.88l1.55.16a12.39,12.39,0,0,1-1,2.91v8.81h-1.6Zm5.61-5.8v4.24a14.62,14.62,0,0,0,3.82-2.15l1,1.31a17.38,17.38,0,0,1-4.82,2.44v3.79c0,.29,0,.47.49.47h2.32c.3,0,.36-.09.4-.19a14.38,14.38,0,0,0,.17-2l1.57.42c0,3.18-.63,3.39-1.61,3.39H183.6c-.66,0-1.33-.13-1.33-1.19V11.68Z" transform="translate(82.31 26.46)"/><path class="cls-8" d="M203.81,22.32c1.35-.12,4.21-.59,4.21-4a3.38,3.38,0,0,0-3.46-3.68c-.4,5.7-2.1,8.08-3.87,8.08-1.49,0-2.44-1.71-2.44-3.68,0-3.6,2.67-5.76,6-5.76,4,0,5.31,2.67,5.31,5.08,0,4.84-4.34,5.28-5.25,5.37Zm-4.17-3.26c0,.74.27,2.1,1.1,2.1.49,0,.85-.44,1.16-1a13.69,13.69,0,0,0,1.26-5.48A4.22,4.22,0,0,0,199.64,19.06Z" transform="translate(82.31 26.46)"/><path class="cls-7" d="M26.09,9.17c.36.21,1.9-.28,1.25-.78C27,8.26,25.38,8.76,26.09,9.17Z" transform="translate(82.31 26.46)"/><path class="cls-7" d="M29.36,12.73c-.33-.24-1.44.12-1,.6C28.73,13.65,29.84,13.19,29.36,12.73Z" transform="translate(82.31 26.46)"/><path class="cls-7" d="M15.24,20.39c.12-.21.23-.64-.11-.68s-.43.26-.55.37C14.05,20.68,14.89,21,15.24,20.39Z" transform="translate(82.31 26.46)"/><path class="cls-7" d="M13.54,10.25c.35-.09.33-.35,0-.55a2.18,2.18,0,0,0-1.21-.37c-.4.12-.15.44.07.58A1.8,1.8,0,0,0,13.54,10.25Z" transform="translate(82.31 26.46)"/><path class="cls-7" d="M22.23,5.82c.11-.22.45-.67.37-.93s-.32-.25-.5-.12a1.24,1.24,0,0,0-.38.91C21.78,6,22,6.07,22.23,5.82Z" transform="translate(82.31 26.46)"/><path class="cls-7" d="M17.35,6.37a2.31,2.31,0,0,0-.24-1.09c-.63-.57-.56.85-.36,1.14S17.29,6.82,17.35,6.37Z" transform="translate(82.31 26.46)"/><path class="cls-7" d="M16.89,18.79a5.62,5.62,0,0,0,2.26,1.41,25.58,25.58,0,0,0,2.6.87,4,4,0,0,1,1.38.51c.2.14.84.56.87.82s-.43.43-.39.83.31.61.55.9a8.33,8.33,0,0,0,.76,1,4.79,4.79,0,0,0,1.12.73,4.42,4.42,0,0,0,.61.13c.21.05.38.16.58.22a2.36,2.36,0,0,0,1,0,1.91,1.91,0,0,0,1.71-1.62,6,6,0,0,0,0-1.12c0-.34.22-.55.29-.87.16-.68-.39-1-.86-1.28s-.23-.56-.45-.92-.57-.36-.89-.54c-.64-.35-1-1.64-1.19-2.31a14.11,14.11,0,0,1-.41-2.82,6.31,6.31,0,0,0-2.65-4.51,5.56,5.56,0,0,0-2.55-1.31,4.13,4.13,0,0,0-2.63.58,5.93,5.93,0,0,0-3.05,4.85A5.89,5.89,0,0,0,16.89,18.79Zm11.33,1.65c.37.26.46.42.32.84s-.09.49.4.47a1.48,1.48,0,0,1-.47,1.14c-.18.15-.81.25-.63.61s.77-.15.93-.3a2.16,2.16,0,0,0,.39-.51c.1-.18.12-.5.29-.62.38.54.24.8-.15,1.33a4.64,4.64,0,0,1-2,1.42,4.2,4.2,0,0,0-.6.3c-.07.05-.27.27-.38.24-.31-.07-.2-.5-.57-.6s-.6,0-.71-.44c-.07-.24,0-.35-.18-.54s-.3-.09-.39-.31C26.21,23.21,27.26,21.82,28.22,20.44Zm-6.4-4.19a7.33,7.33,0,0,1-.73-1.11c-.17-.38,0-.64.32-.3s.26.74.46,1.08.52.72.81.46-.25-.77-.39-1-.44-1.08.13-1c.26,0,.63.68.77.88.27.4,1.37,2,.8,2.42a2.74,2.74,0,0,1-1.18.92c-.39.08-.66-.27-.91-.51-.58-.55-1.52-1.28-1.55-2.15,0-.52.27-.41.46,0s.52,1,.94,1.07S22,16.46,21.82,16.25Zm1.63,2.67c.05-.15.4-.33.52-.43a5.1,5.1,0,0,1,.47-.46c.61-.36,1,1.23,1.19,1.65s.43.94.66,1.4c.06.12.31.47.23.62s-.26.15-.39,0c-.4-.4-.71-.86-1.13-1.24s-.78-.68-1.19-1C23.58,19.29,23.36,19.2,23.45,18.92ZM16,14.15a5.52,5.52,0,0,1,3-4.23,3.53,3.53,0,0,1,2.84-.2,7.62,7.62,0,0,1,2.75,1.91,5.29,5.29,0,0,1,1.39,2.52c.22,1.06.08,2.15.37,3.2a12.88,12.88,0,0,0,.54,1.51,8.11,8.11,0,0,1,.59,1.36c.07.32-.08,1.11-.55.83a2.72,2.72,0,0,1-.64-1.12c-.19-.48-.4-1-.64-1.43-.12-.24-.3-.47-.4-.72s-.08-.39-.17-.55-.38-.37-.52-.59a2.69,2.69,0,0,1-.26-.54c-.15-.38-.24-.77-.4-1.15s-.52-.67-1-1a.78.78,0,0,0-.8-.14c-.4.16-.41.38-.86.27s-.42-.07-.59.23a2.86,2.86,0,0,1-.39.68c-.17.18-.26.2-.32.46a2.53,2.53,0,0,0,0,.55c0,.2-.09.44-.08.63,0,.38.56.72.83,1,.42.39.84.76,1.28,1.13a32.67,32.67,0,0,1,2.66,2.17c.3.29,1,.81,1.07,1.24s-.52.5-.85.64c-.83-2.38-4.14-2.52-6.11-3.35A5,5,0,0,1,16,14.15Z" transform="translate(82.31 26.46)"/><path class="cls-7" d="M19.09,22.48c-.59,0-.45,1.11-.13,1.37.18.07.3.32.48.06.07-.1,0-.41,0-.51C19.43,23.08,19.55,22.48,19.09,22.48Z" transform="translate(82.31 26.46)"/><path class="cls-7" d="M12.77,15.17c-.17-.34-1.12,0-1.33.21C11,15.92,13.16,16,12.77,15.17Z" transform="translate(82.31 26.46)"/></g></g></svg>