<svg xmlns="http://www.w3.org/2000/svg" viewBox="0 0 195.29 78.22"><defs><style>.cls-1{fill:#ececeb;stroke-width:0.9px;}.cls-1,.cls-2,.cls-3{stroke:#3e3428;stroke-miterlimit:10;}.cls-2,.cls-3,.cls-5{fill:#3e3428;}.cls-2{stroke-width:0.45px;}.cls-3{stroke-width:0.6px;}.cls-4{fill:#f4e75e;}</style></defs><g id="Layer_2" data-name="Layer 2"><g id="layout"><path class="cls-1" d="M160.67,77.6c-10.42-3.47-34.14,0-34.14,0V44s20.25-5.78,34.14,0Z"/><path class="cls-1" d="M160.71,77.6c10.41-3.47,34.13,0,34.13,0V44s-20.25-5.78-34.13,0Z"/><path class="cls-2" d="M21.34,75.59H15.28V62.71h-9V75.59H.23V45.49H6.3V57.67h9V45.49h6.06Z"/><path class="cls-2" d="M41.39,69.43H33.1l-1.61,6.16H25.05l9.41-30.1H40l9.47,30.1H43Zm-7-5.06h5.63L37.23,53.64Z"/><path class="cls-2" d="M71.87,65.57c-.16,3.43-1.12,6-2.9,7.79S64.68,76,61.45,76q-5.12,0-7.83-3.36T50.9,63.07V58q0-6.21,2.81-9.56a9.65,9.65,0,0,1,7.82-3.36c3.28,0,5.77.91,7.47,2.75s2.67,4.46,2.91,7.9h-6.1c-.06-2.13-.38-3.59-1-4.4a3.9,3.9,0,0,0-3.3-1.21,3.67,3.67,0,0,0-3.45,1.71A11.85,11.85,0,0,0,57,57.44v5.69q0,4.49,1,6.16A3.68,3.68,0,0,0,61.45,71a4,4,0,0,0,3.3-1.16,7.64,7.64,0,0,0,1-4.23Z"/><path class="cls-2" d="M96.73,65.57c-.16,3.43-1.12,6-2.9,7.79S89.54,76,86.31,76q-5.11,0-7.83-3.36t-2.72-9.58V58q0-6.21,2.81-9.56a9.65,9.65,0,0,1,7.82-3.36c3.28,0,5.77.91,7.47,2.75s2.67,4.46,2.91,7.9h-6.1c-.06-2.13-.38-3.59-1-4.4a3.9,3.9,0,0,0-3.3-1.21,3.67,3.67,0,0,0-3.45,1.71,11.85,11.85,0,0,0-1.08,5.61v5.69q0,4.49,1,6.16A3.68,3.68,0,0,0,86.31,71a4,4,0,0,0,3.3-1.16,7.64,7.64,0,0,0,1-4.23Z"/><path class="cls-2" d="M107,65V75.59h-6.08V45.49h10.26a9.38,9.38,0,0,1,7.12,2.77,10,10,0,0,1,2.66,7.2,9.33,9.33,0,0,1-2.63,7A10,10,0,0,1,111,65Zm0-5.07h4.18a3.3,3.3,0,0,0,2.68-1.13,5,5,0,0,0,1-3.31,6,6,0,0,0-1-3.59,3.08,3.08,0,0,0-2.6-1.35H107Z"/><path class="cls-3" d="M135.72,57.12l-2.42-1.78A15.47,15.47,0,0,0,137,48l2.88.56c-.14.63-.28,1.26-.53,2.11h3.29V47.84h3V50.7h8v3h-8v3.43h8.91v3H148v6.51c0,.44.16.64.57.64h2.2c.57,0,.89,0,1-3.19l2.76.56c-.23,3.94-.69,5.66-2.44,5.66h-5a1.9,1.9,0,0,1-2-2.09V60.1h-3.13c-.11,4.09-1.41,8.7-7.74,10.74l-1.58-2.94c4.8-1.26,6.33-3.59,6.42-7.8h-6.08v-3Zm6.9,0V53.69h-4.5a16.4,16.4,0,0,1-2.19,3.43Z"/><path class="cls-3" d="M172,55.27a15.07,15.07,0,0,1-2.6,3.89l-2.17-2.24c.78-.87,2.76-3.13,4.11-8.82l2.88.49a35.21,35.21,0,0,1-1.05,3.77h3.72V47.79h2.93v4.57h8.13v2.91h-8.13v4.15h7.6v2.89h-7.6v4.62h9.13v3H167.56v-3h9.32V62.31h-7.74V59.42h7.74V55.27Z"/><path class="cls-4" d="M50.29,34.2l-.94-8.84c19.74-2,51.92-3.16,89.66-2.53l-1.12,7.36C103.59,30.34,67.7,32.37,50.29,34.2Z"/><path class="cls-5" d="M62.67,27.25A23,23,0,0,0,71,21.17a15.85,15.85,0,0,0,1.7-2.36A30.72,30.72,0,0,1,71.44,11a25.81,25.81,0,0,1-4,4.87l-.34-.24A33.2,33.2,0,0,0,70,9.35H64.15A32.12,32.12,0,0,1,61.61,12h2.21c.66-1,.9-1.24,1.3-1.24s.75.21,1.78,1c.82.64,1,1.06,1,1.31s-.33.6-1.36.78a29.62,29.62,0,0,1-3.69,2.39c.78.15,1,.3,1,.51,0,.4-.28.55-1.09.91v1.09c2.21-.27,4.41-.66,6.62-1.06l.12.46c-1.45.57-2.9,1.12-4.38,1.63-.79.27-1.58.51-2.36.79.06,2.11.18,4,.18,4.68,0,1.55-1.45,2.76-3.6,2.76-.54,0-.61-.07-.76-.64-.3-1.15-.87-1.69-2.72-2.3l0-.45a23.14,23.14,0,0,0,2.81.21c.94,0,1.12-.12,1.12-1.15V21.47c-1.42.4-2.84.76-4.23,1.09-.18.73-.42,1-.76,1s-.72-.45-1.81-3.72c2.33-.18,4.6-.39,6.8-.67a32.43,32.43,0,0,0-.15-3.29l1.94.21a29.55,29.55,0,0,0,1.81-2.51H59.91a35.73,35.73,0,0,1-6.59,4.2l-.24-.39a39.43,39.43,0,0,0,4.51-3.78l-2.36.12V11.89l3,.15h.82c.78-.85,1.51-1.76,2.21-2.69H56.16l-3,.15V7.68l3,.15h2.3V5.14h-1.9l-2.36.15V3.48l2.36.15h1.9c0-1.48-.09-2.63-.15-3.63,3.72.36,4.36.57,4.36,1s-.28.57-1.12.94V3.63h.39c.42-.58.79-1.06,1.3-1.69a22.84,22.84,0,0,1,1.51,1.84C65.36,2.6,65.9,1.39,66.42.15c3.32,1.09,3.69,1.39,3.69,1.76s-.28.6-1.42.78a46.23,46.23,0,0,1-3.33,5.14h.82c.48-.63.93-1.18,1.6-1.93a15.6,15.6,0,0,1,2.54,2.45A57.11,57.11,0,0,0,72.22.06c3.69.79,4.3,1.18,4.3,1.54s-.24.58-1.33.82a29.75,29.75,0,0,1-1.67,4.75h3.21c.6-.76,1.09-1.39,1.75-2.18,2.63,2.18,3,2.72,3,3s-.15.64-.46.64h-1.3A.94.94,0,0,1,79.3,9a25,25,0,0,1-3.69,10.35A16.06,16.06,0,0,0,77,21.14a22.94,22.94,0,0,0,4.66,3.69l-.12.42A4,4,0,0,0,79,27c-.24.36-.39.54-.58.54s-.33-.15-.6-.42a21,21,0,0,1-4-5.45,9.81,9.81,0,0,1-.79.79,21.29,21.29,0,0,1-10.19,5.26ZM62.33,7.83C62.94,7,63.48,6.05,64,5.14H61.55V7.83Zm10.47.85c-.21.39-.43.79-.64,1.15a23.91,23.91,0,0,0,1.76,6.62,30.22,30.22,0,0,0,2.2-7.77Z"/><path class="cls-5" d="M94,13.49c-1.76.67-3.31,1.19-4.31,1.63-.47.2-.88.46-1.32.67a2.07,2.07,0,0,1-.7.18,2.48,2.48,0,0,1-1.21-.65,2,2,0,0,1-.7-1.49,2.6,2.6,0,0,1,.9-1.84,21.86,21.86,0,0,1,5.45-4,4.67,4.67,0,0,1-2.45-3.41l.39-.18c.77,1.19,2,1.65,4,1.89A3.87,3.87,0,0,1,95.93,7a1.56,1.56,0,0,1,.6,1.19,1,1,0,0,1-1.06,1.14,7.57,7.57,0,0,1-1.22-.13s-.23,0-.38,0a5.82,5.82,0,0,0-1.5.26,9.28,9.28,0,0,0-4.1,2.38A2.25,2.25,0,0,0,87.54,13c0,.44.26.55.6.55a6.32,6.32,0,0,0,1-.18c1-.24,2.74-.75,4-1.17a3.64,3.64,0,0,0,1.48-.77.84.84,0,0,1,.64-.31,3.41,3.41,0,0,1,1.5.72c1,.73,1.26,1.09,1.26,1.45s-.13.41-.51.59a4.1,4.1,0,0,0-1.24.73c-1.24,1-2.58,2.4-4.73,4.54a3.75,3.75,0,0,1,1-.16c1.41,0,2.24,1,3,2.74s1.39,2,2.71,2a6.76,6.76,0,0,0,2.09-.23,5.89,5.89,0,0,1,1.5-.31c1.39,0,2.06.69,2.06,1.57A1.16,1.16,0,0,1,103,26a14.45,14.45,0,0,1-3.39.31,8.54,8.54,0,0,1-3.38-.46c-1.08-.52-1.73-1.11-2.45-3.46-.62-2-1.19-2.46-1.83-2.46s-1.11.39-1.79,1.11c-.9,1-2.11,2.59-3.33,4-.77.9-1.06,1.16-1.67,1.16S84,25.6,84,24.69a2.31,2.31,0,0,1,.93-1.6c1.68-1.52,3-2.71,4.83-4.62,1.49-1.55,3-3.22,4.33-4.85Z"/><path class="cls-5" d="M103.47,10c.88.93,1.32,1.11,1.83,1.11l.29,0a22,22,0,0,0,3.07-.49c3.38-.75,6.71-1.53,8.62-2a11.75,11.75,0,0,0,2.56-.83,3.83,3.83,0,0,1,1.68-.51,5.23,5.23,0,0,1,2.14.46,1.47,1.47,0,0,1,1,1.45c0,.7-.33,1-1.78,1a15.48,15.48,0,0,0-4.78.6c-3.58,1.26-5.47,3.92-5.47,6.84a4.86,4.86,0,0,0,3.92,4.75,9.81,9.81,0,0,0,2,.28l.36,0a8.19,8.19,0,0,1,.83-.05c1.68,0,2.61,1,2.61,1.91s-.41,1.31-1.89,1.31a14,14,0,0,1-5.55-1.23,6.88,6.88,0,0,1-4-6.3c0-2.28,1-5.09,4.16-7.47-2.17.75-4,1.3-6.74,2.17a5.76,5.76,0,0,0-1.57.7,1.22,1.22,0,0,1-.75.26,1.77,1.77,0,0,1-1.09-.41,4.63,4.63,0,0,1-1.8-2.48,3.42,3.42,0,0,1-.06-.62v-.36Z"/><path class="cls-5" d="M132.09,23.08a1.81,1.81,0,1,1-1.45-2.2A1.89,1.89,0,0,1,132.09,23.08ZM130.51,19a26.66,26.66,0,0,0,.54-8.58,10.73,10.73,0,0,1,0-2.57,1.87,1.87,0,1,1,3.66.65,10,10,0,0,1-.87,2.42,24.7,24.7,0,0,0-2.28,7.56l-.12.69Z"/></g></g></svg>