<svg xmlns="http://www.w3.org/2000/svg" viewBox="0 0 79.09 47.42"><defs><style>.cls-1{fill:#3e3428;}.cls-2{fill:#f2f2f2;}</style></defs><g id="Layer_2" data-name="Layer 2"><g id="layout"><path class="cls-1" d="M40.47.13l37.4,14.56a1.92,1.92,0,0,1-.06,3.6L40,31.61a1.9,1.9,0,0,1-1.33,0L1.22,17a1.91,1.91,0,0,1,.06-3.59L39.14.11A1.9,1.9,0,0,1,40.47.13Z"/><path class="cls-1" d="M58.7,47.42l-39.22-.64a3.9,3.9,0,0,1-3.83-4l.27-19.09a3.89,3.89,0,0,1,4-3.84l39.21.64a3.9,3.9,0,0,1,3.84,3.95l-.27,19.09A3.89,3.89,0,0,1,58.7,47.42Z"/><path class="cls-2" d="M26.33,18.58v4.25H23.89V10.75H28a3.77,3.77,0,0,1,2.86,1.11,4,4,0,0,1,1.07,2.89,3.73,3.73,0,0,1-1.05,2.8,4,4,0,0,1-2.93,1Zm0-2H28a1.3,1.3,0,0,0,1.08-.46,2,2,0,0,0,.38-1.33,2.41,2.41,0,0,0-.39-1.44,1.24,1.24,0,0,0-1-.54h-1.7Z"/><path class="cls-2" d="M36.61,22.83H34.17V10.75h2.44Z"/><path class="cls-2" d="M47.37,18.81a4.47,4.47,0,0,1-1.17,3.12,4.09,4.09,0,0,1-3,1.07A3.81,3.81,0,0,1,40,21.65,6,6,0,0,1,39,17.8v-2a5.84,5.84,0,0,1,1.13-3.84,3.87,3.87,0,0,1,3.14-1.35,3.93,3.93,0,0,1,3,1.1,5,5,0,0,1,1.16,3.17H44.94a3.31,3.31,0,0,0-.4-1.76,1.56,1.56,0,0,0-1.32-.49,1.48,1.48,0,0,0-1.39.69,4.86,4.86,0,0,0-.43,2.25v2.29a5.24,5.24,0,0,0,.4,2.47,1.48,1.48,0,0,0,1.38.67,1.58,1.58,0,0,0,1.33-.47,3.16,3.16,0,0,0,.42-1.69Z"/><path class="cls-2" d="M52.78,18.17l-1,1.21v3.45H49.38V10.75h2.44V16l.77-1.31,2.25-4h3l-3.46,5.31,3.52,6.77H55Z"/><path class="cls-2" d="M39.25,27.75v8.36a3.92,3.92,0,0,1-1,2.89,4,4,0,0,1-2.93,1,4.05,4.05,0,0,1-3-1,3.94,3.94,0,0,1-1-2.93v-8.3h2.46v8.31a2.49,2.49,0,0,0,.33,1.47,1.4,1.4,0,0,0,1.2.44,1.42,1.42,0,0,0,1.2-.43,2.58,2.58,0,0,0,.33-1.44V27.75Z"/><path class="cls-2" d="M44.05,35.58v4.25H41.61V27.75h4.12a3.79,3.79,0,0,1,2.86,1.11,4,4,0,0,1,1.06,2.89,3.73,3.73,0,0,1-1,2.8,4,4,0,0,1-2.92,1Zm0-2h1.68a1.33,1.33,0,0,0,1.08-.46,2,2,0,0,0,.38-1.33,2.41,2.41,0,0,0-.39-1.44,1.25,1.25,0,0,0-1-.54h-1.7Z"/></g></g></svg>