<svg xmlns="http://www.w3.org/2000/svg" viewBox="0 0 410 52.18"><defs><style>.cls-1{fill:#ececeb;stroke-width:1.29px;}.cls-1,.cls-2,.cls-3{stroke:#3e3428;stroke-miterlimit:10;}.cls-2,.cls-3,.cls-5{fill:#3e3428;}.cls-2{stroke-width:0.64px;}.cls-3{stroke-width:0.85px;}.cls-4{fill:#f4e75e;}</style></defs><g id="Layer_2" data-name="Layer 2"><g id="layout"><path class="cls-1" d="M361.44,51.29c-14.6-4.87-47.86,0-47.86,0v-47s28.39-8.11,47.86,0Z"/><path class="cls-1" d="M361.5,51.29c14.6-4.87,47.85,0,47.85,0v-47S381-3.86,361.5,4.25Z"/><path class="cls-2" d="M166.09,48.48H157.6V30.42H145V48.48H136.5V6.28H145V23.35H157.6V6.28h8.49Z"/><path class="cls-2" d="M194.21,39.84H182.58l-2.26,8.64h-9L184.5,6.28h7.79l13.28,42.2h-9.1Zm-9.77-7.1h7.88l-3.94-15Z"/><path class="cls-2" d="M236.94,34.42q-.33,7.23-4.06,10.93t-10.55,3.71q-7.17,0-11-4.71t-3.82-13.43V23.81q0-8.68,4-13.4c2.62-3.14,6.28-4.71,10.95-4.71s8.1,1.28,10.48,3.85,3.75,6.26,4.07,11.08h-8.55q-.1-4.47-1.37-6.16c-.84-1.13-2.39-1.7-4.63-1.7a5.18,5.18,0,0,0-4.84,2.39c-.94,1.6-1.45,4.22-1.5,7.87v8c0,4.2.46,7.08,1.4,8.64S220.05,42,222.33,42s3.79-.55,4.63-1.64,1.34-3.07,1.45-5.93Z"/><path class="cls-2" d="M271.79,34.42q-.32,7.23-4.06,10.93t-10.55,3.71q-7.16,0-11-4.71T242.4,30.92V23.81q0-8.68,3.94-13.4t11-4.71q6.9,0,10.48,3.85t4.07,11.08H263.3q-.12-4.47-1.38-6.16t-4.62-1.7c-2.28,0-3.9.8-4.84,2.39S251,19.38,251,23v8q0,6.3,1.41,8.64T257.18,42q3.36,0,4.64-1.64t1.45-5.93Z"/><path class="cls-2" d="M286.15,33.64V48.48h-8.52V6.28H292a13.2,13.2,0,0,1,10,3.88,14,14,0,0,1,3.72,10.09q0,6.2-3.68,9.8t-10.2,3.59Zm0-7.1H292a4.63,4.63,0,0,0,3.77-1.6,7,7,0,0,0,1.33-4.63,8.34,8.34,0,0,0-1.36-5,4.37,4.37,0,0,0-3.65-1.9h-6Z"/><path class="cls-3" d="M326.47,22.58l-3.39-2.49a21.6,21.6,0,0,0,5.15-10.25l4,.78c-.19.89-.39,1.77-.74,3h4.61v-4h4.17v4h11.17v4.19H340.31v4.81H352.8v4.18h-9.1v9.13c0,.62.23.89.8.89h3.08c.8,0,1.25,0,1.44-4.46l3.87.78c-.32,5.52-1,7.93-3.42,7.93h-7a2.65,2.65,0,0,1-2.75-2.92V26.76h-4.39c-.16,5.73-2,12.2-10.86,15.06l-2.21-4.12c6.73-1.77,8.88-5,9-10.94h-8.52V22.58Zm9.67,0V17.77h-6.31a22.49,22.49,0,0,1-3.07,4.81Z"/><path class="cls-3" d="M377.32,20a21.31,21.31,0,0,1-3.65,5.45l-3-3.14c1.09-1.22,3.87-4.39,5.76-12.36l4,.68A44.42,44.42,0,0,1,379,15.9h5.22V9.5h4.1v6.4h11.41V20H388.27v5.82h10.67v4.05H388.27v6.47h12.81v4.16h-30V36.33h13.06V29.86H373.32V25.81h10.85V20Z"/><path class="cls-4" d="M1.32,51.78,0,39.38C27.67,36.53,72.79,35,125.7,35.84l-1.56,10.31C76,46.36,25.73,49.21,1.32,51.78Z"/><path class="cls-5" d="M18.66,42a32.22,32.22,0,0,0,11.7-8.52,22.06,22.06,0,0,0,2.38-3.31A43.5,43.5,0,0,1,31,19.26a36.54,36.54,0,0,1-5.55,6.83l-.47-.34a45.61,45.61,0,0,0,4-8.82H20.74a40.83,40.83,0,0,1-3.56,3.77h3.1C21.21,19.31,21.55,19,22.1,19s1.06.29,2.5,1.4c1.14.89,1.44,1.48,1.44,1.82,0,.51-.47.85-1.91,1.1A41.24,41.24,0,0,1,19,26.64c1.1.21,1.36.42,1.36.72,0,.55-.38.76-1.53,1.27v1.53c3.1-.38,6.19-.93,9.29-1.49l.17.64c-2,.81-4.07,1.57-6.15,2.29-1.1.38-2.21.72-3.31,1.1.09,3,.26,5.6.26,6.57,0,2.16-2,3.86-5.05,3.86-.76,0-.85-.09-1.06-.89-.42-1.61-1.23-2.38-3.81-3.22l0-.64a32,32,0,0,0,3.94.3c1.32,0,1.57-.17,1.57-1.61V33.93c-2,.55-4,1.06-5.93,1.53-.26,1-.6,1.35-1.06,1.35s-1-.63-2.55-5.21c3.27-.26,6.45-.55,9.54-.93a44.42,44.42,0,0,0-.21-4.62l2.71.29a39.76,39.76,0,0,0,2.54-3.52H14.81a50.28,50.28,0,0,1-9.24,5.9l-.34-.55a54.82,54.82,0,0,0,6.31-5.3L8.24,23V20.49l4.24.21h1.14a41.88,41.88,0,0,0,3.09-3.77H9.55l-4.15.21V14.6l4.15.21h3.22V11H10.1l-3.3.21V8.71l3.3.21h2.67c0-2.08-.12-3.69-.21-5.09,5.21.51,6.1.81,6.1,1.36S18.28,6,17.1,6.5V8.92h.55c.59-.8,1.1-1.48,1.82-2.37,1.1,1.27,1.74,2,2.12,2.58.85-1.65,1.61-3.35,2.33-5.08,4.66,1.52,5.17,2,5.17,2.45s-.38.85-2,1.11a65.82,65.82,0,0,1-4.66,7.2h1.14c.68-.89,1.32-1.65,2.25-2.71a22.34,22.34,0,0,1,3.56,3.43A78.32,78.32,0,0,0,32.06,3.92c5.17,1.1,6,1.65,6,2.16s-.34.81-1.87,1.15a40.67,40.67,0,0,1-2.33,6.65h4.5c.84-1.06,1.52-2,2.45-3.05,3.69,3.05,4.2,3.81,4.2,4.28s-.21.89-.63.89H42.57a1.34,1.34,0,0,1-.59.47A35.13,35.13,0,0,1,36.81,31a21.6,21.6,0,0,0,2,2.5,31.88,31.88,0,0,0,6.53,5.18l-.17.59A5.58,5.58,0,0,0,41.6,41.6c-.34.51-.55.77-.81.77s-.46-.22-.85-.6a29.83,29.83,0,0,1-5.63-7.63,11.53,11.53,0,0,1-1.11,1.1,29.88,29.88,0,0,1-14.28,7.38ZM18.2,14.81c.85-1.23,1.61-2.5,2.37-3.77H17.1v3.77ZM32.87,16c-.3.55-.6,1.1-.89,1.61a33.3,33.3,0,0,0,2.45,9.28A42.34,42.34,0,0,0,37.53,16Z"/><path class="cls-5" d="M62.59,22.74c-2.46.94-4.63,1.66-6,2.28-.65.29-1.23.65-1.85.94a2.83,2.83,0,0,1-1,.25,3.54,3.54,0,0,1-1.7-.9,2.9,2.9,0,0,1-1-2.1,3.61,3.61,0,0,1,1.26-2.57A30.55,30.55,0,0,1,60,15a6.54,6.54,0,0,1-3.44-4.78l.54-.25c1.09,1.66,2.79,2.31,5.58,2.64a5.58,5.58,0,0,1,2.68,1,2.17,2.17,0,0,1,.83,1.66,1.42,1.42,0,0,1-1.48,1.59A9.44,9.44,0,0,1,63,16.69c-.07,0-.32,0-.54,0a8.25,8.25,0,0,0-2.1.36,12.9,12.9,0,0,0-5.75,3.33,3.12,3.12,0,0,0-1,1.74c0,.61.37.76.84.76a8.18,8.18,0,0,0,1.41-.26c1.34-.32,3.83-1.05,5.54-1.63a5.09,5.09,0,0,0,2.06-1.08,1.23,1.23,0,0,1,.9-.44,4.77,4.77,0,0,1,2.1,1c1.38,1,1.78,1.52,1.78,2s-.18.58-.73.84a5.66,5.66,0,0,0-1.74,1C64,25.78,62.09,27.7,59.08,30.7a5.21,5.21,0,0,1,1.45-.22c2,0,3.15,1.42,4.23,3.84,1,2.24,2,2.79,3.8,2.79a9.23,9.23,0,0,0,2.94-.33,8.36,8.36,0,0,1,2.09-.43c2,0,2.9,1,2.9,2.2a1.64,1.64,0,0,1-1.34,1.74,19.69,19.69,0,0,1-4.74.44,11.75,11.75,0,0,1-4.74-.66c-1.52-.72-2.43-1.55-3.44-4.85-.87-2.85-1.66-3.43-2.57-3.43s-1.56.54-2.5,1.55C55.9,34.72,54.2,37,52.49,39c-1.08,1.27-1.48,1.63-2.35,1.63s-1.59-.87-1.59-2.13a3.21,3.21,0,0,1,1.3-2.25c2.35-2.13,4.2-3.8,6.77-6.48,2.1-2.17,4.2-4.52,6.08-6.8Z"/><path class="cls-5" d="M75.87,17.85c1.24,1.3,1.85,1.56,2.57,1.56.15,0,.29,0,.4,0a29.27,29.27,0,0,0,4.31-.69c4.74-1.05,9.41-2.13,12.09-2.78a17.18,17.18,0,0,0,3.58-1.16,5.35,5.35,0,0,1,2.35-.72,7.25,7.25,0,0,1,3,.65,2.06,2.06,0,0,1,1.45,2c0,1-.47,1.41-2.5,1.41a21.86,21.86,0,0,0-6.7.84c-5,1.77-7.67,5.5-7.67,9.59a6.81,6.81,0,0,0,5.5,6.66,14.15,14.15,0,0,0,2.79.4c.18,0,.4,0,.5,0,.4,0,.8-.07,1.16-.07,2.36,0,3.66,1.34,3.66,2.68S101.79,40,99.73,40A19.48,19.48,0,0,1,92,38.27a9.64,9.64,0,0,1-5.54-8.84c0-3.18,1.37-7.13,5.82-10.46-3,1.05-5.68,1.81-9.44,3a8.64,8.64,0,0,0-2.21,1,1.73,1.73,0,0,1-1,.36A2.43,2.43,0,0,1,78,22.77a6.46,6.46,0,0,1-2.53-3.47,5.07,5.07,0,0,1-.08-.87v-.51Z"/><path class="cls-5" d="M116,36.18a2.54,2.54,0,1,1-2-3.08A2.65,2.65,0,0,1,116,36.18Zm-2.21-5.76c1-5.77,1.14-7.73.76-12a14.57,14.57,0,0,1,0-3.6,2.62,2.62,0,1,1,5.13.91,14,14,0,0,1-1.22,3.38,35,35,0,0,0-3.2,10.61l-.17,1Z"/></g></g></svg>