<svg xmlns="http://www.w3.org/2000/svg" viewBox="0 0 266.26 138.34"><defs><style>.cls-1{fill:#00abbf;}.cls-2,.cls-7{fill:none;stroke-miterlimit:10;}.cls-2{stroke:#fff;opacity:0.6;}.cls-3{fill:#f4e75e;}.cls-4{opacity:0.2;}.cls-5{fill:#f9f9f9;}.cls-6{fill:#96dde5;}.cls-7{stroke:#f9f9f9;}.cls-8{fill:#fff;}</style></defs><g id="Layer_2" data-name="Layer 2"><g id="layout"><rect class="cls-1" width="233" height="138.34"/><rect class="cls-2" x="54.33" y="-40.33" width="124.34" height="219" transform="translate(185.67 -47.33) rotate(90)"/><path class="cls-3" d="M137.37,57.92a11.37,11.37,0,0,0-.33,1.4,21.39,21.39,0,0,1-1.17,4.29,38.52,38.52,0,0,1,4.06,2.49L138.78,68A31.46,31.46,0,0,0,135,65.51,18.41,18.41,0,0,1,130.51,71l-1.95-1.16a16,16,0,0,0,4.61-5.33,39.14,39.14,0,0,0-4.39-2l.94-1.72c1.29.48,3,1.2,4.31,1.83a15.53,15.53,0,0,0,.9-3.73,10.7,10.7,0,0,0,.09-1.39Z"/><path class="cls-3" d="M140.74,61.3c.53-.06,1.59-.23,2.34-.38l7.72-1.54c.66-.13,1.29-.32,1.66-.42l.45,2.26c-.35.05-1.09.14-1.69.26L143.49,63c-.82.17-1.77.39-2.3.54Z"/><path class="cls-3" d="M155.16,64.79a6.89,6.89,0,0,0,1.76-3.92,26,26,0,0,0-.72-5.78,5.63,5.63,0,0,0-.39-1.28l2.11-.42a9.6,9.6,0,0,0,.16,1.31,32.15,32.15,0,0,1,.8,6.27,8.59,8.59,0,0,1-1.73,4.64Zm6.7-1.11a5.65,5.65,0,0,0-.1-1.09l-1.67-8.38a7,7,0,0,0-.36-1.22l2.14-.42a7,7,0,0,0,.15,1.27l1.5,7.52a9.44,9.44,0,0,0,2.95-3.74L167.89,59a16.2,16.2,0,0,1-4.09,4.9,3.54,3.54,0,0,0-.55.55Z"/><path class="cls-3" d="M168.74,52.33c1.17-.33,3.49-1,6-1.77,1.45-.41,3-.8,4-1.05l.38,1.84a15.3,15.3,0,0,0-2.71.73,4.44,4.44,0,0,0-2.21,4.59c.47,2.34,2.82,2.75,5.26,2.39l-.27,2.1c-3,.41-6.16-.64-6.78-3.73a5.78,5.78,0,0,1,1.22-4.81c-1.21.38-4.14,1.29-5.72,2l-.57-1.92C167.93,52.56,168.47,52.42,168.74,52.33ZM179,54.86l-1,.7a11.1,11.1,0,0,0-1.52-1.77l1-.66A18.26,18.26,0,0,1,179,54.86Zm1.53-1-1,.73a12.3,12.3,0,0,0-1.57-1.7l1-.7A23,23,0,0,1,180.49,53.82Z"/><path class="cls-3" d="M142,72.51a27.73,27.73,0,0,1,1.87,2.11l-1.29.89-.67-.86.41,2.07c-1.18.32-3.3.87-4.93,1.2-1.81.36-3.32.57-4.74.74l-.45-2.29a47.29,47.29,0,0,0,4.71-.73c1.66-.33,3.53-.81,4.83-1.19a12.64,12.64,0,0,0-1-1.11Zm-6.9,10.87a7.11,7.11,0,0,0,.06,1.8c.22,1.09,1.41,1.69,3.89,1.19A24.9,24.9,0,0,0,145,84.49l.5,2.43a28.23,28.23,0,0,1-5.86,1.76c-3.95.79-6.18-.14-6.65-2.5a12.14,12.14,0,0,1-.17-2.56Zm8.8-12.06a19.63,19.63,0,0,1,1.88,2.08l-1.26.87a19,19,0,0,0-1.88-2.12Z"/><path class="cls-3" d="M152.64,76.74c.74.54,2.57,2,3,2.4l-.85,1.93c-.37-.51-1-1.22-1.68-1.91l1.44,7.23-2,.4-1.37-6.87A15.15,15.15,0,0,1,150,84.23a10.09,10.09,0,0,0-1.36-1.76,17.28,17.28,0,0,0,1.54-6.34l-2.25.44-.38-1.94,2.48-.5-.71-3.56,2-.4.72,3.56,2.17-.43.39,2-2.18.43Zm9.81-7.81,3,15-2.09.41-.17-.88-4.09.81.2,1-2,.4-3-15.15Zm-5.79,3.18.43,2.15,4.09-.81-.43-2.16Zm.81,4,.44,2.21,4.08-.81-.44-2.21Zm5.34,5.5-.44-2.23-4.09.82.44,2.23Z"/><path class="cls-3" d="M173.22,70.48l-6.61,1.32-.32-1.63,6.61-1.32Zm-1.1-2.27-5.12,1-.31-1.56,5.12-1Zm1,4.75L167.9,74l-.31-1.59,5.21-1Zm-5.06,1.84,5.22-1,.31,1.55-5.22,1Zm6.76,6.61-3.54.71.13.68-1.74.34-1.18-5.93,5.29-1Zm-4.27-2.91.4,2,1.79-.36-.39-2Zm5.07-11.75a6.29,6.29,0,0,1-.73,3.49l-1.75-.37a5.83,5.83,0,0,0,.73-3.13Zm6.52,5.66a27.38,27.38,0,0,0-4-1.83A6.64,6.64,0,0,1,175,74a5.24,5.24,0,0,0-1.48-1.41c3.4-1.85,3.28-3.89,2.73-7.36l2-.4a18.45,18.45,0,0,1,.32,3.88,36.88,36.88,0,0,1,4.66,1.87Zm-7.89,5.25a5.66,5.66,0,0,0,.91-3.37H177a6.84,6.84,0,0,1-.91,3.87Zm6.53-1.45A6,6,0,0,0,185,78.54a17.09,17.09,0,0,0-.83,2,6.59,6.59,0,0,1-4.52-3.07,7.09,7.09,0,0,1-3.37,4.65,8.47,8.47,0,0,0-1.47-1.46c3.09-1.83,3.52-4.29,3.29-5.45l-.53-2.63,2.11-.42.52,2.63a3.9,3.9,0,0,0,.62,1.39,18.22,18.22,0,0,0,.78-3.28l2.16.22a34.33,34.33,0,0,1-1.23,3.36Zm1.28-10.56c-.38,1.12-.79,2.31-1.13,3.13l-1.65-.28a15.58,15.58,0,0,0,.69-3.08Z"/><path class="cls-3" d="M136.54,101.59l-1.93.38-.75-3.77,2.49-.5a11.26,11.26,0,0,0-1.18-1.62l1.46-.75c-.86.23-1.74.44-2.57.62a6.94,6.94,0,0,0-.82-1.66A99.45,99.45,0,0,0,146,90.52l1.72,1.39c-1.81.73-4,1.45-6.26,2.12a9.57,9.57,0,0,1,1.23,2.09l-1.23.57,3-.61a22.13,22.13,0,0,0,.61-2.83l2.31.08c-.26.81-.57,1.61-.84,2.34l2.47-.49.75,3.77-2,.4-.4-2-11.21,2.24Zm11.15-2.1a10.36,10.36,0,0,1-2.53,4.72,23.87,23.87,0,0,0,6,0,10.48,10.48,0,0,0-.88,2.18,21,21,0,0,1-7-.5,23.13,23.13,0,0,1-6.4,3.21,7.17,7.17,0,0,0-1.58-1.58A24.56,24.56,0,0,0,141,105.1a11.64,11.64,0,0,1-3.29-2.18l.52-.36-.81.17-.38-1.9,8.78-1.75.36-.16Zm-6.38-5.43c-1.43.43-2.92.83-4.39,1.2A9.68,9.68,0,0,1,138.29,97l-.85.45,3.32-.67a10.6,10.6,0,0,0-1.09-2Zm-1.51,8.18a10.44,10.44,0,0,0,3,1.49,8.77,8.77,0,0,0,2-2.49Z"/><path class="cls-3" d="M157.7,89.05a31.16,31.16,0,0,1-.95,3.84l2.38,12-2.12.42-1.74-8.71a16.64,16.64,0,0,1-.94,1.63,16.81,16.81,0,0,0-1.64-1.91,18.61,18.61,0,0,0,2.83-7.47Zm11.12,3.06-1.92.38,1.58,7.9c.27,1.34.06,1.94-.71,2.42a12.77,12.77,0,0,1-4,1.16,8.21,8.21,0,0,0-1.21-1.89c1.35-.22,2.88-.52,3.28-.62s.56-.26.48-.64l-1.57-7.9-6.63,1.33-.41-2.09,6.62-1.32-.71-3.55,2.16-.43.71,3.55L168.4,90Zm-6.42,7.81a44.56,44.56,0,0,0-3.07-3.73L161,95c1,1.12,2.45,2.61,3.18,3.54Z"/><path class="cls-3" d="M186.44,85.67l1.73,8.68-2.17.43-.18-.87-3.93.78,1.08,5.43-2.19.44-1.08-5.43-3.91.78.19,1-2.09.41-1.75-8.76,6-1.2-.6-3,2.19-.43.6,3Zm-7.15,7.43-.74-3.74-3.91.78.74,3.74Zm6.13-1.23-.75-3.73-3.93.78.75,3.74Z"/><g class="cls-4"><path class="cls-5" d="M265.38,45.37a18,18,0,0,0-7.28,7.29,17.72,17.72,0,0,1-15.76,9,19.53,19.53,0,0,0-17.25,9.86,16.33,16.33,0,0,1-6.63,6.67,16,16,0,0,1-6,2.15,51.83,51.83,0,0,0-.52-8.24,23.3,23.3,0,0,0,2.4-1.2,18,18,0,0,0,7.27-7.29,17.72,17.72,0,0,1,15.76-9,17.89,17.89,0,0,0,10-2.56,18,18,0,0,0,7.28-7.29,16.19,16.19,0,0,1,6.64-6.67l-.89-1.55a18,18,0,0,0-7.27,7.29,16.25,16.25,0,0,1-6.64,6.67,16.18,16.18,0,0,1-9.12,2.33,19.46,19.46,0,0,0-17.25,9.85,16.26,16.26,0,0,1-6.64,6.68c-.64.36-1.23.66-1.8.92a52.41,52.41,0,0,0-2.2-8.3,18,18,0,0,0,7.12-7.2,17.69,17.69,0,0,1,15.75-9,17.94,17.94,0,0,0,10-2.56,18,18,0,0,0,7.27-7.29,16.25,16.25,0,0,1,6.64-6.67l-.88-1.55A18,18,0,0,0,248,35a16.19,16.19,0,0,1-6.64,6.67A16.16,16.16,0,0,1,232.25,44,19.46,19.46,0,0,0,215,53.85a16.28,16.28,0,0,1-6.24,6.44,51.9,51.9,0,0,0-3.27-6.82c-.14-.25-.29-.5-.44-.74A17.83,17.83,0,0,0,211.48,46a17.72,17.72,0,0,1,15.76-9,17.89,17.89,0,0,0,10-2.56,18,18,0,0,0,7.28-7.29,16.19,16.19,0,0,1,6.64-6.67l-.89-1.55A18,18,0,0,0,243,26.17a16.25,16.25,0,0,1-6.64,6.67,16.18,16.18,0,0,1-9.12,2.33A19.49,19.49,0,0,0,210,45a16.15,16.15,0,0,1-5.83,6.19,52.75,52.75,0,1,0,8.24,30.93,17.51,17.51,0,0,0,7-2.41,18,18,0,0,0,7.27-7.28,17.71,17.71,0,0,1,15.76-9,19.46,19.46,0,0,0,17.25-9.85,16.19,16.19,0,0,1,6.64-6.67ZM203,54.88a49.11,49.11,0,0,1,3.21,6.72,14.76,14.76,0,0,1-4.31,1.13,46.63,46.63,0,0,0-2.73-5.66c-.3-.53-.62-1-.94-1.57a16.6,16.6,0,0,0,4.31-1.4C202.72,54.36,202.87,54.62,203,54.88ZM195.2,75.79A15.55,15.55,0,0,1,203,73.5c.07.53.14,1,.19,1.58l.16,2q.12,2.13,0,4.26a20.33,20.33,0,0,0-4,1.78l.89,1.55a19,19,0,0,1,3-1.41,43.63,43.63,0,0,1-63.15,35.38,1.07,1.07,0,0,1-.42,0c-1-.32-5.91-3.85-5.91-3.85a43.61,43.61,0,0,1-17.46-30.56l-.15-2a43.66,43.66,0,0,1,68-38.82l1.61,1.13A43.45,43.45,0,0,1,195.1,54l-.9,0a18,18,0,0,0-10,2.57l.88,1.54a16.35,16.35,0,0,1,9.12-2.33c.68,0,1.35,0,2.05-.06.47.72.93,1.46,1.36,2.21a44.21,44.21,0,0,1,2.4,4.89h-.79a18,18,0,0,0-10,2.57l.88,1.54a16.24,16.24,0,0,1,9.12-2.32l1.45,0a42.34,42.34,0,0,1,1.94,7.13,17.2,17.2,0,0,0-8.35,2.52Zm-10.75,47.13a49.87,49.87,0,1,1,17.17-70.35,14.47,14.47,0,0,1-4.44,1.29,45.51,45.51,0,1,0,7.87,28.83,19.88,19.88,0,0,1,4.32-.39h.13A49.85,49.85,0,0,1,184.45,122.92Zm25.12-42.41h-.23a23.11,23.11,0,0,0-4.19.33,44.67,44.67,0,0,0-.4-7.39,20.84,20.84,0,0,0,4.4-.46A49.78,49.78,0,0,1,209.57,80.51Zm-.69-9.28a18.63,18.63,0,0,1-4.4.45,44.58,44.58,0,0,0-1.91-7.23,16.09,16.09,0,0,0,4.27-1.18A49,49,0,0,1,208.88,71.23Z"/><path class="cls-6" d="M260.55,37.47c.14.36.42.2.58.47l-.31-.55Z"/><path class="cls-6" d="M245,25.24c.22-.27,0-.59-.29-.69a8.68,8.68,0,0,1-1.14.76c.2.37.12.35.37.64C244.51,25.66,244.34,25.23,245,25.24Z"/><path class="cls-6" d="M252.35,30a.46.46,0,0,0,0-.2l-.37.31A.44.44,0,0,0,252.35,30Z"/><path class="cls-6" d="M253.29,30.48c-.07-.24.29-.57-.09-.7l-.31.18c-.21.17-.41.69-.08.79l.08,0Z"/><path class="cls-6" d="M234.75,34.86c.1.21.27.18.39.31a.65.65,0,0,1,.41.08l.66-.32C235.69,34.53,235.06,34.33,234.75,34.86Z"/><path class="cls-6" d="M238.23,33.41c-.07-.15-.19-.12-.26-.28-.21.12-.47.23-.51.4.16.1.29.35.46.44l.32-.21A.34.34,0,0,0,238.23,33.41Z"/><path class="cls-6" d="M247.82,21.83c.17,0,.28.15.49-.07s-.21-.3-.36-.44l-.09-.16C247.64,21.33,247.52,21.72,247.82,21.83Z"/><path class="cls-6" d="M224.43,35.4a.28.28,0,0,0-.25-.07c0,.2-.47.27-.34.51C224,35.69,224.48,35.62,224.43,35.4Z"/><path class="cls-6" d="M242.33,27.2a.79.79,0,0,1,.32-.06,2.15,2.15,0,0,1,0-.51Z"/><path class="cls-6" d="M255.29,28.27l-.24-.42-.53.32A.61.61,0,0,0,255.29,28.27Z"/><path class="cls-6" d="M238.5,31.86a1.28,1.28,0,0,0,0,.75c.47.12.52-.31.83-.58C239.12,31.74,238.76,32,238.5,31.86Z"/><path class="cls-6" d="M241.25,29.11c.08.28.27.16.36.44.06-.05.09,0,.12,0,.23-.18.37,0,.6-.24a1.38,1.38,0,0,1,.44.34c.3-.4.58-.8.84-1.19a13.33,13.33,0,0,0-1.52.24C241.78,29,241.56,28.86,241.25,29.11Z"/><path class="cls-6" d="M247.29,22.56a1.87,1.87,0,0,1-.53,0c0,.22.17.5.08.7s.1.26.27.24l.19-.2C247.34,23.05,247.26,22.79,247.29,22.56Z"/><path class="cls-6" d="M246.74,38.72a1.65,1.65,0,0,0,.29.69l.1,0c.24-.28.47-.56.68-.84A1,1,0,0,0,246.74,38.72Z"/><path class="cls-6" d="M248.64,36.89c-.52,0-.37.63-.41,1.06.21-.29.4-.58.59-.87l-.14-.11Z"/><path class="cls-6" d="M247.44,36.07c0,.13-.06.21,0,.34s.05.1,0,.12c.21.26.54-.13.68-.28a.46.46,0,0,0-.22-.2l0-.08C247.68,36,247.58,35.94,247.44,36.07Z"/><path class="cls-6" d="M259.42,53c.16.3.14.35.25.51.24-.39.48-.78.73-1.16A5.38,5.38,0,0,1,259.42,53Z"/><path class="cls-6" d="M249.83,34.92a2,2,0,0,0,.26.11l.33-.51A.87.87,0,0,0,249.83,34.92Z"/><path class="cls-6" d="M254.37,45.1l.21-.34v0a3.38,3.38,0,0,0-.27.26A.37.37,0,0,0,254.37,45.1Z"/><path class="cls-6" d="M254.3,44c.18.06.32.31.51.34.12-.2.25-.4.38-.6a0,0,0,0,0,0,0c-.08-.09-.21,0-.29-.16C254.66,43.73,254.34,43.85,254.3,44Z"/><path class="cls-6" d="M247.68,37.43c-.09-.14-.29.1-.41,0-.27.28-.4,0-.64.16s-.06.21-.15.29a.93.93,0,0,0,.88.25C247.46,37.91,247.89,37.76,247.68,37.43Z"/><path class="cls-6" d="M243.75,41.6c-.37.1-.19-.4-.49-.68a1.11,1.11,0,0,0-.61.78c.13-.06.18.15.27.27.19.41.5.36.8.35l.33-.24a1.09,1.09,0,0,0-.08-.28A.46.46,0,0,0,243.75,41.6Z"/><path class="cls-6" d="M233.76,53.06l-.32,0-.58.19c.15.37.45.18.61.51A.65.65,0,0,0,233.76,53.06Z"/><path class="cls-6" d="M238.4,53.23a.48.48,0,0,1-.38-.11c-.11.33.21.61.47.81C238.88,53.63,238.86,53.28,238.4,53.23Z"/><path class="cls-6" d="M240.48,54.29c-.2-.22-.09-.34-.2-.53.31-.24.53-.12.81-.25-.09-.36,0-.48-.34-.77l-.07-.12-1,.11c0,.21.12.43.13.63-.25.16-.66.27-.42.56l0,.08c.22,0,.23.32.17.52l.49,0A1.31,1.31,0,0,1,240.48,54.29Z"/><path class="cls-6" d="M238,44.37c-.41,0-.37.51-.48.81,0,0,0,0,.06,0,.25-.07.51-.14.78-.23C238.4,44.81,238.05,44.7,238,44.37Z"/><path class="cls-6" d="M253.85,58.54c.31-.37.7-.33,1.19-.68-.19-.49-.52-.39-.83-.4l-.5.4a1.56,1.56,0,0,1-.38.33l.14.24c.2.46-.72.9-.13,1.25l.4-.23c0-.1.11-.15.19-.21C253.8,59,253.5,58.66,253.85,58.54Z"/><path class="cls-6" d="M250.89,59.8c.33,0,.89-.16.79-.59l-.22.12a19.59,19.59,0,0,1-1.81.93,2.1,2.1,0,0,1,.3.29C250.35,60.51,250.92,60.16,250.89,59.8Z"/><path class="cls-6" d="M244.35,53.15l.4-.23a2.48,2.48,0,0,0-.47-.27c-.05-.14-.15-.1-.22-.2C243.94,52.58,244,53.33,244.35,53.15Z"/><path class="cls-6" d="M241.49,42.79c0-.26.53-.39.32-.72a.73.73,0,0,0-.86,0C241,42.53,241.13,42.56,241.49,42.79Z"/><path class="cls-6" d="M244.33,40.21a1.61,1.61,0,0,0-.08-.52l-.41.34A.46.46,0,0,0,244.33,40.21Z"/><path class="cls-6" d="M256.12,56.06a.36.36,0,0,1,.28-.05,1.11,1.11,0,0,0-.43-.27c-.27.31-.56.62-.88.93C255.47,56.48,255.54,56.19,256.12,56.06Z"/><path class="cls-6" d="M239.66,63.54c.16-.16.63-.23.59-.45A.29.29,0,0,0,240,63C240,63.22,239.52,63.29,239.66,63.54Z"/><path class="cls-6" d="M235.71,45.57a.31.31,0,0,0,0-.35c-.22.09-.37-.1-.61,0a2.26,2.26,0,0,0-.15.41Q235.34,45.63,235.71,45.57Z"/><path class="cls-6" d="M241.85,52.39l-.34.07a.39.39,0,0,0,.33,0A.11.11,0,0,0,241.85,52.39Z"/><path class="cls-6" d="M253.11,46c.1.2.27.18.39.31h.09c.13-.19.25-.38.37-.57A.65.65,0,0,0,253.11,46Z"/><path class="cls-6" d="M256.9,55.4c.71.2.91-.58,1.56-.57,0-.26.12-.47,0-.75-.16.08-.21-.23-.38-.1a.72.72,0,0,0-.52.19c0,.23.28.53.08.7a4.52,4.52,0,0,0-.83-.17l-.05,0-.08.11C256.81,55,256.69,55.17,256.9,55.4Z"/><path class="cls-6" d="M264.66,46.9c.13,0,.21.05.33,0a3.51,3.51,0,0,0,.27-1,1.76,1.76,0,0,1-.56-.13l-.56.35C264.5,46.08,264.74,46.59,264.66,46.9Z"/><path class="cls-6" d="M264,46.22a19.58,19.58,0,0,0-1.84,1.38c0,.23,0,.42.32.44.23-.19.07-1.12.35-.85l.05.08c.22.1.41.32.67.26a.29.29,0,0,1,.07-.25l.16-.09a.25.25,0,0,0,.33,0c.22.07.28-.14.1-.38l-.14-.24C264,46.45,263.92,46.32,264,46.22Z"/><path class="cls-6" d="M236.09,52.86l-.81,0a1.9,1.9,0,0,0,.13.43c.28-.15.49,0,.77-.12A.5.5,0,0,0,236.09,52.86Z"/><path class="cls-6" d="M251.6,48.54c0,.06.07.11.1.16.14-.15.28-.29.41-.44A2.62,2.62,0,0,0,251.6,48.54Z"/><path class="cls-6" d="M256.71,40l-.32-.55-.27.26C256.27,40,256.4,40.32,256.71,40Z"/><path class="cls-6" d="M258.58,39c0,.15.07.34.2.53a.38.38,0,0,1,.34-.1l.45-.32v0a5.23,5.23,0,0,1-.72-.34A.49.49,0,0,0,258.58,39Z"/><path class="cls-6" d="M257.55,39.61c.05.13.19.28.1.37.11.14,0,.23.11.37a.48.48,0,0,1,.32-.06l.41-.35A2.24,2.24,0,0,0,257.55,39.61Z"/><path class="cls-6" d="M241.35,43.29c-.17.06-.29-.06-.48.07,0,.26-.17.37.08.55l.47-.24C241.52,43.58,241.54,43.47,241.35,43.29Z"/><path class="cls-6" d="M254.32,59.55s0,.05,0,.08l.08-.06Z"/><path class="cls-6" d="M246.24,39.33c-.31.09-.12.44.07.49C246.66,40,246.43,38.86,246.24,39.33Z"/><path class="cls-6" d="M257.07,56.8a.3.3,0,0,0,.15.21l.35-.41A1.07,1.07,0,0,0,257.07,56.8Z"/><path class="cls-6" d="M245.76,51.1a.48.48,0,0,0-.07-.2c-.23.13-.46.24-.69.35l.17.29C245.39,51.4,245.72,51.29,245.76,51.1Z"/><path class="cls-6" d="M247.05,50.79c-.13,0-.18,0-.23.14-.14.43-.84.71-.67,1.23l0,.08a1.73,1.73,0,0,1,.72,0l.22-.12C247.12,51.69,247.45,51.34,247.05,50.79Z"/><path class="cls-6" d="M247.07,50.46c.11.14,0,.23.11.37.29-.13.82-.23.95-.55,0-.08,0-.13,0-.21a1.67,1.67,0,0,1,.68-.28,3.53,3.53,0,0,1-.48-.47h0c-.4.29-.84.57-1.31.86A.36.36,0,0,0,247.07,50.46Z"/><path class="cls-6" d="M248.48,51.26a.07.07,0,0,1,0,.06l.44-.29C248.75,51,248.54,51,248.48,51.26Z"/><path class="cls-6" d="M248.14,51.55h0Z"/><path class="cls-6" d="M114,105.87c.19-.31.34-.06.67-.28a1.15,1.15,0,0,0-.25-.82l-.64.36c-.19-.23-.38-.47-.57-.69.23.45.48.89.73,1.33Z"/><path class="cls-6" d="M110.4,98.27v0c.12,0,.2,0,.32,0a3.45,3.45,0,0,0,.27-1,1.85,1.85,0,0,1-.76-.22.43.43,0,0,0-.21.18c0,.12.09.23.13.34A.76.76,0,0,1,110.4,98.27Z"/><path class="cls-6" d="M116.84,107.35l-.51-.89a4.08,4.08,0,0,0-.46.48C116.1,107.41,116.42,107.56,116.84,107.35Z"/><path class="cls-6" d="M114.16,104c.11.19,0,.32.2.53l.63-.36-.5-.89-.4.23C114,103.59,114.31,103.84,114.16,104Z"/><path class="cls-6" d="M193.94,40.61l.77-.44-.51-.44A.84.84,0,0,0,193.94,40.61Z"/><path class="cls-6" d="M215.87,53l.08,0,.48-.28-.28-.48c0,.12-.16.2-.31.29l-.07.12C215.88,52.79,215.74,52.87,215.87,53Z"/><path class="cls-6" d="M212.5,43.07c-.12-.15-.3,0-.42-.18l-.08,0c-.1,0-.17,0-.25-.07-.16.14.19.42.24.61C212.2,43.35,212.46,43.24,212.5,43.07Z"/><path class="cls-6" d="M217.42,50.76s.06.09.12,0a.28.28,0,0,1,.25.07c-.06-.35.35-.57.19-1,0,0-.07,0-.1,0l-.53.58A.49.49,0,0,0,217.42,50.76Z"/><path class="cls-6" d="M224.66,45.76a.9.9,0,0,0-.11-.34l-.53.24C224.13,45.89,224.35,46,224.66,45.76Z"/><path class="cls-6" d="M225.6,46.3c-.07-.25.29-.58-.09-.7l-.31.18c-.21.17-.41.69-.08.79l.08,0Z"/><path class="cls-6" d="M186.27,35.46a1,1,0,0,0,.86.58l.08,0c.16-.09.22.16.41,0-.15-.28-.07-.73-.38-.85A1.43,1.43,0,0,0,186.27,35.46Z"/><path class="cls-6" d="M214.55,39.66c.16.05.58.05.47-.28l-.08-.15-.48.36A.28.28,0,0,1,214.55,39.66Z"/><path class="cls-6" d="M205.32,55.74a1.08,1.08,0,0,0,.21.74c.19-.2.27,0,.44-.15-.05-.31.15-.55-.24-.61C205.57,55.81,205.5,55.56,205.32,55.74Z"/><path class="cls-6" d="M206,54.79a1.46,1.46,0,0,0,.32.25l-.29-.52A2.48,2.48,0,0,0,206,54.79Z"/><path class="cls-6" d="M207.06,50.68c.1.2.27.18.39.31h0c.21-.18.4-.36.59-.54A.71.71,0,0,0,207.06,50.68Z"/><path class="cls-6" d="M194.52,41.25c-.12.33.2.6.46.8.39-.3.38-.65-.09-.7A.46.46,0,0,1,194.52,41.25Z"/><path class="cls-6" d="M191.56,39.19c-.27.1-.18.39.05.29.41.24,1.16-.26.94-.75a.46.46,0,0,0-.37-.11C191.81,38.55,191.65,39,191.56,39.19Z"/><path class="cls-6" d="M195.92,42.05l.05.08c.3,0,.21.55.08.7.25.11.63-.32.92-.42a.43.43,0,0,1-.12-.23l-.64-.62C196,41.69,195.73,41.8,195.92,42.05Z"/><path class="cls-6" d="M199.31,45c.23.15.42.46.66.53-.3-.36-.61-.72-.92-1.07-.19.17-.56.29-.48.53s.24.31.39.31C198.85,45.18,199.22,45.15,199.31,45Z"/><path class="cls-6" d="M210.44,45.54a1.31,1.31,0,0,1-.61.77l.14.25c.2.45-.73.9-.13,1.25l.39-.23c0-.1.11-.15.2-.22-.14-.26-.43-.57-.09-.7.29-.33.64-.33,1.08-.6l.06-.11,0,0C211.25,45.39,210.78,45.7,210.44,45.54Z"/><path class="cls-6" d="M208.71,47a.22.22,0,0,0,.11-.15Z"/><path class="cls-6" d="M211.23,43.8c0,.05,0,.1,0,.12-.14.19-.36.35-.17.63s.17.55.39.32c.53-.19.53-.53,1.19-.68l.13-.18A2.06,2.06,0,0,0,211.23,43.8Z"/><path class="cls-6" d="M220.13,37.64c.17,0,.28.15.49-.06s-.21-.31-.36-.44l-.09-.16C220,37.14,219.83,37.54,220.13,37.64Z"/><path class="cls-6" d="M200,54.92l0-.08c-.05-.38.83-.49.39-1-.64.28-.78.69-1.21,1,0,.09,0,.18-.07.25a1.18,1.18,0,0,1-.17.24l.4-.09a1,1,0,0,1,0-.16,2.53,2.53,0,0,0,.49,0l.19,0a.28.28,0,0,0,.09-.1Z"/><path class="cls-6" d="M190.14,40.1l.11-.06c-.07-.25.22-.39,0-.66-.1,0-.16,0-.28,0s-.25.2-.36.3Z"/><path class="cls-6" d="M189.32,39c.17,0,.3.06.49-.07.5-.19-.24-.91-.49-.68l-.08.05C189.18,38.48,189.07,38.88,189.32,39Z"/><path class="cls-6" d="M188.63,36.47l-.32-.56c-.12,0-.22,0-.36.09C188.14,36.28,188.26,36.88,188.63,36.47Z"/><path class="cls-6" d="M196.83,46c.21,0,.26.53.48.47a4,4,0,0,1,.83-.58l0,.08.08,0,0-.08c.12-.22.06-.48.12-.71-.16-.16-.39-.07-.55-.23.22-.2.53-.39.2-.75-.59.34-.94-.2-1.55.24-.09.2.35.55.09.7a1.64,1.64,0,0,0-.76,0c.29.3.57.61.85.92C196.69,46.07,196.75,46.1,196.83,46Z"/><path class="cls-6" d="M217.24,51.93c-.05-.2-.4-.48-.24-.61s.07-.25.22-.35a.25.25,0,0,0-.09-.21c-.36.43-.68.86-1,1.29l0,.05C216.53,52.09,216.9,51.94,217.24,51.93Z"/><path class="cls-6" d="M213.61,42.88l-.3-.05-.16.09c.12.15.09.25.12.38Z"/><path class="cls-6" d="M214.05,42.29a.19.19,0,0,0,0,.08l.18-.19Z"/><path class="cls-6" d="M220.65,48l.63-.37-.17-.3c-.29.19-.56.37-.82.56A.53.53,0,0,0,220.65,48Z"/><path class="cls-6" d="M221.87,47.14c0,.19-.15.3.11.37a1.29,1.29,0,0,0,.57-.65c-.19,0-.34-.08-.51-.15l-.18.1C221.85,46.92,221.73,47,221.87,47.14Z"/><path class="cls-6" d="M191.9,41.46c.29-.15.49,0,.78-.12,0-.17-.13-.4-.25-.62.35-.25.6-.13.8-.45a.62.62,0,0,0-.16-.45c-.15-.34-.45-.16-.67-.26-.11.31,0,1-.47,1C191.65,40.8,191.78,41.13,191.9,41.46Z"/><path class="cls-6" d="M189.58,36.47c.1.14,0,.23.1.36.24-.15.39.06.64-.14l-.84-.59C189.53,36.23,189.67,36.38,189.58,36.47Z"/><path class="cls-6" d="M190.26,37.47c.18.26.49,0,.77-.12a1.31,1.31,0,0,0-.08-.21l-.61-.44C190.45,37,190.25,37.2,190.26,37.47Z"/><path class="cls-6" d="M219.08,49.06c.29.08.48-.26.58-.44a2,2,0,0,0-.35,0c-.17.14-.34.28-.5.43A.61.61,0,0,1,219.08,49.06Z"/><path class="cls-6" d="M219,50.6a.35.35,0,0,0,.18.52c.19-.2.39-.4.61-.6,0,0,0,0,0,0C219.53,50.51,219.22,50.73,219,50.6Z"/><path class="cls-6" d="M219.13,38.74l.47-.23a.66.66,0,0,1,0-.14,2.34,2.34,0,0,1-.53,0A1.07,1.07,0,0,0,219.13,38.74Z"/><path class="cls-6" d="M198.54,111.11l-.06-.12-.6.74a.25.25,0,0,0,0,.08l.79-.46Z"/><path class="cls-6" d="M206.14,102.49c-.11-.21-.21-.4-.36-.44a.4.4,0,0,0,0,.62Z"/><path class="cls-6" d="M207.38,100.6c.31-.16-.15-.53.37-.64l.08,0c-.26-.33-.54-.54-.9-.46C206.73,99.73,206.94,100.58,207.38,100.6Z"/><path class="cls-6" d="M207.17,98a1.89,1.89,0,0,0,.29.69c.26-.13.49-.27.47-.48.19,0,.32.29.51.35l.08,0C208.79,97.84,207.84,97.48,207.17,98Z"/><path class="cls-6" d="M209.12,96.29l-.05-.08c-.65.06-.24,1-.49,1.35a1.16,1.16,0,0,0,.58.28c.13-.35.25-.69.37-1A1,1,0,0,0,209.12,96.29Z"/><path class="cls-6" d="M207.87,95.4c0,.12-.05.21,0,.33s0,.1,0,.13c.2.25.53-.14.68-.29a.44.44,0,0,0-.22-.19l-.05-.08C208.11,95.33,208,95.27,207.87,95.4Z"/><path class="cls-6" d="M210.26,94.24l.07,0,.06-.19A.46.46,0,0,0,210.26,94.24Z"/><path class="cls-6" d="M208.12,96.75c-.1-.14-.3.11-.41,0-.27.28-.41,0-.65.16s-.05.21-.14.3a.92.92,0,0,0,.88.24C207.89,97.23,208.33,97.08,208.12,96.75Z"/><path class="cls-6" d="M207.06,96.18a.74.74,0,0,0-.21-.32l-.18.49A.38.38,0,0,0,207.06,96.18Z"/><path class="cls-6" d="M204.5,101.52l-.07.15a.19.19,0,0,1,.1,0Z"/><path class="cls-6" d="M200.06,99.22l-.32.18c.24.29.19.5.34.77l.15,0,.27-.55C200.36,99.48,200.23,99.26,200.06,99.22Z"/><path class="cls-6" d="M198.46,112.44c-.12.33.21.61.46.81.39-.3.38-.65-.08-.7A.48.48,0,0,1,198.46,112.44Z"/><path class="cls-6" d="M201.24,112.11l-.05,0-.19-.32c-.09,0-.18,0-.25-.07-.23.19-.4.15-.6.23,0,.24.12.53.13.79-.24.15-.65.26-.41.55l0,.09a.21.21,0,0,1,.19.19Q200.69,112.82,201.24,112.11Z"/><path class="cls-6" d="M198.22,103.76a.51.51,0,0,0-.18.28Z"/><path class="cls-6" d="M209.83,95.88v0c0-.17.11-.35.17-.52C209.84,95.54,209.74,95.75,209.83,95.88Z"/><path class="cls-6" d="M193.26,109.42l-.08,0c-.05.21-.17.61.09.7h.13c.15-.16.29-.33.43-.49C193.69,109.45,193.4,109.29,193.26,109.42Z"/><path class="cls-6" d="M194.64,107.23c.32-.25.49,0,.78-.12,0-.12.05-.21,0-.33a3.94,3.94,0,0,1-.72-.34.49.49,0,0,0-.27.26C194.41,106.85,194.52,107,194.64,107.23Z"/><path class="cls-6" d="M195.35,105.33c.37-.11,1-.32.81-.78-.22.08-.37-.11-.61,0h0A1.82,1.82,0,0,0,195.35,105.33Z"/><path class="cls-6" d="M197.06,105.53l.43-.64C197.25,105,197.16,105.25,197.06,105.53Z"/><path class="cls-6" d="M196.35,105.62l-.32.18c.12.23.24.45.37.65l.3-.41C196.58,105.91,196.53,105.53,196.35,105.62Z"/><path class="cls-6" d="M201.16,111.65c.09.11.23.07.34.12l.9-1.22C201.82,110.61,201.58,111.26,201.16,111.65Z"/><path class="cls-6" d="M193.49,107.31l0,0c.06.11.15.23.07.3.11.14,0,.23.11.37.24-.16.38.06.64-.16.13.31-.08.52-.07.8s.26.12.43,0,.19-.22.28-.34A1.6,1.6,0,0,0,193.49,107.31Z"/><path class="cls-6" d="M206.68,98.65c-.31.1-.12.44.07.49C207.1,99.33,206.86,98.19,206.68,98.65Z"/><path class="cls-6" d="M189.89,122.69c.23-.14.55-.25.59-.44,0-.39-.45-.6-.88-.25C189.55,122.19,189.77,122.45,189.89,122.69Z"/><path class="cls-6" d="M189.86,119.5l-.06-.1-.21.16A.49.49,0,0,0,189.86,119.5Z"/><path class="cls-6" d="M186.4,115.47c.07.19.18.19.27.28.19-.26.73-.42.48-.81l0-.08C186.85,115.06,186.28,115.17,186.4,115.47Z"/><path class="cls-6" d="M170.77,128.26c-.12.33.21.6.46.8.39-.29.38-.64-.08-.7A.47.47,0,0,1,170.77,128.26Z"/><path class="cls-6" d="M172.46,127.84c0,.21.12.45.13.66-.24.16-.65.27-.41.56l0,.08c.31.05.21.55.09.7.24.11.62-.31.92-.42-.2-.21-.09-.34-.2-.52.31-.24.52-.12.81-.25-.1-.36,0-.48-.34-.77l-.16-.28Z"/><path class="cls-6" d="M176.56,129.55a.48.48,0,0,0-.55.21l.58-.19Z"/><path class="cls-6" d="M177.1,128.28l.4-.22a2.83,2.83,0,0,0-.47-.27c-.06-.14-.16-.1-.22-.2C176.68,127.72,176.79,128.47,177.1,128.28Z"/><path class="cls-6" d="M164.89,123.48l-.27-.47-.4,0C164.41,123.34,164.52,123.88,164.89,123.48Z"/><path class="cls-6" d="M167,123.05c.31-.25.48,0,.77-.12,0-.13.05-.21,0-.33l-.1,0-.87.16A1.84,1.84,0,0,0,167,123.05Z"/><path class="cls-6" d="M170.52,123.58c.15-.11,0-.3.18-.42.15.1.36,0,.54,0l.07-.05c.58-.08.28-.68,0-.62s-.62.06-.69.28a.42.42,0,0,0-.21-.19c-.08,0-.13,0-.17-.12-.45.28-.76,0-1.06-.22l-.39.08C169.25,123.13,169.8,123.67,170.52,123.58Z"/><path class="cls-6" d="M182.84,118.25a.41.41,0,0,0,.41,0,.52.52,0,0,0,.36-.1c.26-.22-.2-.32-.29-.7C182.92,117.46,183,117.94,182.84,118.25Z"/><path class="cls-6" d="M180.26,119.08c.38-.12,1.05-.33.82-.79-.23.09-.38-.1-.62,0A1.83,1.83,0,0,0,180.26,119.08Z"/><path class="cls-6" d="M182,119.24l.27-.15.51-.3a.28.28,0,0,0,0-.17C182.23,118.51,182.12,118.87,182,119.24Z"/><path class="cls-6" d="M181.27,119.36l-.32.18.11.21.41-.23C181.42,119.41,181.36,119.31,181.27,119.36Z"/><path class="cls-6" d="M175.73,126.85l-.6.2.09.16C175.35,127.08,175.75,127,175.73,126.85Z"/><path class="cls-6" d="M173.9,127.65l.08,0c.22-.09.37.1.61,0l.06-.38q-.54.18-1.08.33C173.68,127.57,173.81,127.53,173.9,127.65Z"/><path class="cls-6" d="M173.87,121.35c0-.08,0-.13,0-.21a.51.51,0,0,1-.08-.17l-.5.16A1.13,1.13,0,0,0,173.87,121.35Z"/><path class="cls-6" d="M179.13,128c-.17.14-.25,0-.44.14a.48.48,0,0,0,.16.63l.51-.21A1.28,1.28,0,0,0,179.13,128Z"/><path class="cls-6" d="M186.66,122.2l-.08,0c.08.16-.23.21-.1.38.23.34.62,0,1-.13,0-.26.38-.43.45-.69a3.11,3.11,0,0,0-.64-.61c-.19.13-.39.25-.59.37C187,121.72,187.15,122,186.66,122.2Z"/><path class="cls-6" d="M188.84,120.1c.12.14.24.25.41.19l0-.08a.35.35,0,0,0,.14-.48Z"/><path class="cls-6" d="M187.8,122.72c-.2.18-.51,1,0,.87.28-.08.25-.24.43-.35,0-.08.06-.12.12-.17C188.21,122.72,188,122.89,187.8,122.72Z"/><path class="cls-6" d="M188.15,121.67c0,.42.62.64.95.74.19-.2.38-.39.12-.71C188.81,121.86,188.57,121.43,188.15,121.67Z"/><path class="cls-6" d="M192.08,120.8l-.48.27c.17.18.05.28.13.44.45-.34.89-.69,1.32-1h0C192.57,120.24,192.39,120.77,192.08,120.8Z"/><path class="cls-6" d="M165.73,123.11c.05.13.19.28.1.37.11.14,0,.23.11.37.24-.16.38.06.64-.16.13.31-.08.52-.07.79a.23.23,0,0,0,.07.07l.49-.08.21-.11A1.63,1.63,0,0,0,165.73,123.11Z"/><path class="cls-6" d="M185.2,124.25l.08,0c.16-.09.23.16.41,0-.14-.28-.06-.73-.38-.85a1.43,1.43,0,0,0-1,.33A1,1,0,0,0,185.2,124.25Z"/><path class="cls-6" d="M186.71,124.68l-.32-.56c-.13,0-.22,0-.37.09C186.22,124.49,186.33,125.09,186.71,124.68Z"/><path class="cls-6" d="M188.58,123.72h0l.36-.23-.09,0A.49.49,0,0,0,188.58,123.72Z"/><path class="cls-6" d="M187.58,124.37l.07,0-.1,0Z"/><path class="cls-6" d="M187.09,114.12a1.05,1.05,0,0,0,.86.58l.08,0c.16-.09.22.16.41,0-.15-.28-.07-.73-.38-.85A1.45,1.45,0,0,0,187.09,114.12Z"/><path class="cls-6" d="M181.78,117.69c.17,0,.28.31.53,0a3,3,0,0,0-.23-.57l-.55.32C181.61,117.55,181.68,117.67,181.78,117.69Z"/><path class="cls-6" d="M178.51,126.24a.5.5,0,0,0-.2-.35l-.67.27a3.82,3.82,0,0,0,.28.52C178.14,126.54,178.46,126.43,178.51,126.24Z"/><path class="cls-6" d="M179.8,125.93c-.13,0-.19,0-.24.13-.13.44-.83.72-.66,1.24l0,.08c.34-.12.6.08.94,0C179.81,126.88,180.23,126.52,179.8,125.93Z"/><path class="cls-6" d="M181.05,127.57a.67.67,0,0,0-.35.3.75.75,0,0,0,.13.06l.44-.2C181.22,127.62,181.15,127.54,181.05,127.57Z"/><path class="cls-6" d="M179.82,125.59c.11.15,0,.23.11.37.29-.12.81-.22.95-.54,0-.08,0-.13,0-.21a1.67,1.67,0,0,1,.68-.28,1.37,1.37,0,0,1-.33-.31l-1.5.68A.34.34,0,0,0,179.82,125.59Z"/><path class="cls-6" d="M181.23,126.4c.14.22-.53.21-.39.43s.09.16,0,.21l.23.4c.27,0,.59-.19.85-.16a.89.89,0,0,0-.11-1.12C181.63,126.18,181.3,126.11,181.23,126.4Z"/><path class="cls-6" d="M185.28,124.83c-.19.06-.18.18-.27.27-.26-.3-.5-.66-.86-.59.3.38.14.63.35,1-.19.2-.27,0-.44.15-.07.31-.65.4-.84.37l-.14-.24c-.23.23-.69.06-.72.41a.36.36,0,0,0,.51.14,2.7,2.7,0,0,1,.08.62c.15-.07.3-.14.44-.22,0-.28,0-.56.21-.4l.05.09.18.09,1.12-.59-.11-.18c-.14-.2-.17-.37,0-.46s.43.15.51.39l.47-.26.11-.07a2.74,2.74,0,0,0,.05-.28A1.85,1.85,0,0,1,185.28,124.83Z"/><path class="cls-6" d="M180.42,127.93c-.14-.06-.25-.26-.42-.19a2.62,2.62,0,0,0-.39.44c0,.09,0,.16,0,.25l.91-.39A.23.23,0,0,0,180.42,127.93Z"/><path class="cls-6" d="M141.34,129l.23.09-.09-.16Z"/><path class="cls-6" d="M143.18,129.14a.49.49,0,0,0-.85-.38.81.81,0,0,0,.61.51Z"/><path class="cls-6" d="M145.19,129.17l.37.64a.93.93,0,0,0,.37-.64C145.77,128.83,145.5,128.94,145.19,129.17Z"/><path class="cls-6" d="M120.36,111.12c-.14-.29-.06-.73-.38-.85a1.4,1.4,0,0,0-1,.33,1,1,0,0,0,.86.58l.08,0C120.11,111.05,120.18,111.3,120.36,111.12Z"/><path class="cls-6" d="M139.81,125.82c.1.2.26.17.38.31.32-.09,1.17.42.42.73l-.08,0c.08.16-.23.21-.1.38.23.34.63,0,1-.13,0-.26.38-.43.45-.69a3.15,3.15,0,0,0-.48-.49l-1.14-.47A.61.61,0,0,0,139.81,125.82Z"/><path class="cls-6" d="M123,116.26a9.17,9.17,0,0,1-.89.29s0,0,0,0l.23.23a.54.54,0,0,1,.37.26A.66.66,0,0,0,123,116.26Z"/><path class="cls-6" d="M136.45,118.1c-.07,0-.13,0-.21,0a3,3,0,0,0-.5.11l.93.57A.85.85,0,0,0,136.45,118.1Z"/><path class="cls-6" d="M126.73,108.45a.33.33,0,0,0,.22,0l-.18-.2A.94.94,0,0,1,126.73,108.45Z"/><path class="cls-6" d="M143.09,121.8c.31-.36.7-.33,1.19-.68-.24-.63-.74-.27-1.1-.44a1.3,1.3,0,0,1-.61.77l.14.24a.14.14,0,0,1,0,.07l.26.1A.29.29,0,0,1,143.09,121.8Z"/><path class="cls-6" d="M133.3,115.72c-.12.12,0,.88.29.69l.4-.23c-.14-.14-.32-.16-.47-.26S133.37,115.82,133.3,115.72Z"/><path class="cls-6" d="M123,115.18c-.08-.25.22-.39,0-.67-.1.06-.17,0-.28.06-.28.08-.25.25-.43.35a.48.48,0,0,0,.27.49Z"/><path class="cls-6" d="M122.06,113.36l-.07,0c-.06.22-.17.61.08.71.17-.06.3,0,.49-.07C123.06,113.85,122.31,113.13,122.06,113.36Z"/><path class="cls-6" d="M120.69,111.14c.2.28.31.88.69.47l-.17-.29-.21-.27A.45.45,0,0,0,120.69,111.14Z"/><path class="cls-6" d="M131,121.1l0-.08a1.67,1.67,0,0,0,.11-.59l-.37-.26a.32.32,0,0,1-.16-.09h0l-.91-.68a.93.93,0,0,0-.45.18c-.1.2.35.55.08.7-.25,0-1-.15-1,.34.25.07.43.42.68.46.09.09.22.05.3.15s.17,0,.29,0,.26.53.48.47a3.59,3.59,0,0,1,.82-.58l.05.08Z"/><path class="cls-6" d="M124.93,108.88a.36.36,0,0,0,0-.39.66.66,0,0,1-.37,0Z"/><path class="cls-6" d="M127.73,111.3l.08,0a.31.31,0,1,0,0-.62c-.24.12-.62.06-.68.28a.42.42,0,0,0-.22-.2c-.07,0-.13,0-.17-.12l-.16.09c.2.22.41.44.62.65,0,0,0,0,0,0S127.56,111.27,127.73,111.3Z"/><path class="cls-6" d="M125.71,109.79l.23.25a4.66,4.66,0,0,0,.4-.62c.15-.18.41-.34.29-.6C126,108.67,126,109.36,125.71,109.79Z"/><path class="cls-6" d="M131.72,115.34c.14-.14.58-.2.51-.4a2.09,2.09,0,0,1-.89-.45.76.76,0,0,0-.56.18l.44.36a.83.83,0,0,1,.17-.26Z"/><path class="cls-6" d="M142.27,127.73c-.11-.35-.36-.18-.52-.35-.2.18-.5,1,0,.87.27-.08.24-.24.42-.35C142.11,127.82,142.21,127.78,142.27,127.73Z"/><path class="cls-6" d="M135.87,116.72a1.61,1.61,0,0,0-.24-.62c-.18.15-.26,0-.45.15C134.83,116.71,136,117.5,135.87,116.72Z"/><path class="cls-6" d="M137.12,117.61c.11.34.31.33.45.6.41-.15.15-.5.19-.76-.12,0-.19-.12-.29-.15C137.2,117.22,137.07,117.31,137.12,117.61Z"/><path class="cls-6" d="M143.29,126.68l-1.09-.39-.1,0c0,.42.62.64,1,.74A.71.71,0,0,0,143.29,126.68Z"/><path class="cls-6" d="M145.43,127.37l-.66-.2,0,.11c-.29,0-.78-.11-1,.33.25.17.44.56.7.68l.05.08A1.34,1.34,0,0,0,145.43,127.37Z"/><path class="cls-6" d="M152.68,122.69c.23.16.43.44.72.4l.39-.23Z"/><path class="cls-6" d="M125.35,115.76c-.11-.11-.23-.21-.34-.33-.05.17-.15.3-.33.29-.28.22-.16.55,0,.87.28-.15.49,0,.77-.12,0-.16-.12-.39-.24-.61Z"/><path class="cls-6" d="M127.24,120.58c.4,0,.25-.54.15-.84C126.77,119.89,126.84,120.52,127.24,120.58Z"/><path class="cls-6" d="M151.82,124.2c.3.07.49-.26.59-.44a4.63,4.63,0,0,0-1.43.06.76.76,0,0,0-.52.2l0,.08.59.13.25-.3C151.44,124.28,151.67,124.1,151.82,124.2Z"/><path class="cls-6" d="M136.21,116.67c.13.16.31.11.49,0l-.59-.37C136.13,116.45,136.1,116.54,136.21,116.67Z"/><path class="cls-6" d="M147.73,130.29a.93.93,0,0,0-.78.45l.78.19A.41.41,0,0,0,147.73,130.29Z"/><path class="cls-6" d="M152.37,131.6l.08,0a.88.88,0,0,0-.89-.45.7.7,0,0,0-.05.57c.2,0,.4.07.61.09C152.14,131.69,152.2,131.63,152.37,131.6Z"/><path class="cls-6" d="M152.55,129.89c.19,0,.32.29.51.35l.08-.05c.27-.72-.68-1.07-1.35-.51a2,2,0,0,0,.29.69C152.34,130.24,152.56,130.09,152.55,129.89Z"/><path class="cls-6" d="M154.32,129.3a.53.53,0,0,1,0-.13l-1.05-.12a.35.35,0,0,1-.06.14A.82.82,0,0,0,154.32,129.3Z"/><path class="cls-6" d="M159.46,130.76l0-.08c-.26.2-.83.31-.71.61s.18.18.27.28C159.17,131.31,159.71,131.14,159.46,130.76Z"/><path class="cls-6" d="M157.16,130c.4,0,.5-.43.84-.37a.64.64,0,0,0,.44-.21l-1.1,0A.69.69,0,0,0,157.16,130Z"/><path class="cls-6" d="M151.54,128.86a.92.92,0,0,0,.88.25.42.42,0,0,1,.11-.16l-.95-.15Z"/><path class="cls-6" d="M148.69,130.7c.19.31.4.55.69.46a2.79,2.79,0,0,0-.17-.86C149,130.42,148.74,130.53,148.69,130.7Z"/><path class="cls-6" d="M160.34,130.47c.16-.09.22.16.41,0-.15-.29-.07-.73-.38-.85a1.42,1.42,0,0,0-1,.33,1,1,0,0,0,.86.58Z"/><path class="cls-6" d="M161.76,130.94l-.32-.57c-.12,0-.22,0-.36.1C161.27,130.75,161.39,131.35,161.76,130.94Z"/><path class="cls-6" d="M163.63,130a.88.88,0,0,0,.2.53c.32-.26.49,0,.77-.12,0-.13.06-.21,0-.34a5.05,5.05,0,0,1-.71-.33A.48.48,0,0,0,163.63,130Z"/><path class="cls-6" d="M163.39,131.94c.18.25.49,0,.77-.12a1.64,1.64,0,0,0-1.56-1.25c.06.12.2.28.11.36.1.15,0,.23.1.37.25-.15.39.07.65-.15C163.59,131.45,163.38,131.66,163.39,131.94Z"/><path class="cls-6" d="M151.3,130.28c-.31.1-.12.45.07.49C151.72,131,151.48,129.82,151.3,130.28Z"/><path class="cls-6" d="M151.09,28l-.09-.16c-.07,0-.13,0-.17-.12-.45.24-.44.6-.39,1l.79-.46Z"/><path class="cls-6" d="M159.93,34.17h-.5a3.43,3.43,0,0,1,.12.39A.37.37,0,0,0,159.93,34.17Z"/><path class="cls-6" d="M162.42,35.17c-.33-.28-.58.34-.74.53a4,4,0,0,0,.34.23C162.21,35.69,162.44,35.47,162.42,35.17Z"/><path class="cls-6" d="M161.11,34.53l.47-.28,0,0-.64,0A2.37,2.37,0,0,0,161.11,34.53Z"/><path class="cls-6" d="M167.12,30.32l0-.06s0,0-.06,0Z"/><path class="cls-6" d="M174.42,38.52a.56.56,0,0,0,.05-.49c-.05,0-.1,0-.12,0l-.16.09-.32.18v.07Z"/><path class="cls-6" d="M173.26,28.69a3.69,3.69,0,0,1-.85.56c.19.37.11.36.36.65.54-.3.37-.73,1.07-.72a.37.37,0,0,0,.08-.31Z"/><path class="cls-6" d="M177.79,31.31c-.19-.13-.36-.32-.56-.43l-.16.09c.17.26.06.43.29.7l.48-.28Z"/><path class="cls-6" d="M181.16,33.89c0-.36-.36-.77-.74-.55C180.39,33.72,180.65,34.29,181.16,33.89Z"/><path class="cls-6" d="M181.69,33.9c-.2.18-.41.7-.07.8l.08-.05.39-.23c-.06-.24.3-.57-.08-.7Z"/><path class="cls-6" d="M146.73,29.25a8.21,8.21,0,0,1-.88.29c.15.37.44.18.6.51A.64.64,0,0,0,146.73,29.25Z"/><path class="cls-6" d="M151.77,36.68a.86.86,0,0,0-.27,0Z"/><path class="cls-6" d="M151,29.37c-.12.33.21.61.46.81.39-.3.38-.65-.08-.7A.48.48,0,0,1,151,29.37Z"/><path class="cls-6" d="M153.27,30c.31-.23.52-.11.81-.25-.09-.36,0-.48-.34-.77l-.18-.32c-.1,0-.19,0-.26-.07-.23.19-.4.15-.6.23,0,.24.12.54.13.79-.24.15-.65.26-.41.56l0,.08h0l.82-.11A.44.44,0,0,0,153.27,30Z"/><path class="cls-6" d="M166.33,35.93l.4-.22c0-.11.1-.16.19-.22-.14-.26-.43-.57-.08-.7a.08.08,0,0,1,0,0l-.42-.06C166.66,35.14,165.74,35.58,166.33,35.93Z"/><path class="cls-6" d="M163.87,36.05c.36,0,1-.17.78-.66,0-.29.64-.13.67-.49l-.09-.16a15.54,15.54,0,0,1-1.72.66l-.08.05c-.3.19-.47-.1-.74,0s.22.14.23.4a1.1,1.1,0,0,1-.65.15v0l1.59.12A.2.2,0,0,0,163.87,36.05Z"/><path class="cls-6" d="M157.74,29.17c-.15-.14-.32-.16-.47-.27s-.16-.09-.22-.19c-.12.12,0,.88.29.69Z"/><path class="cls-6" d="M169.53,37.09l.49.11a.71.71,0,0,1,.61-.19c.2-.22-.21-.16-.26-.28-.09-.28-.31,0-.39-.31C169.58,36.57,169.42,36.79,169.53,37.09Z"/><path class="cls-6" d="M180.63,31.3l0-.05-.33-.14C180.41,31.24,180.5,31.35,180.63,31.3Z"/><path class="cls-6" d="M153.8,34.63l.12-.09-.26,0A.14.14,0,0,0,153.8,34.63Z"/><path class="cls-6" d="M156,27.93a2.23,2.23,0,0,1-.89-.46c-.68,0-.92.69-1.36,1.11.11.15.3,0,.42.18l.08,0c.22-.09.37.1.61,0,.07-.32,0-.67.31-.93l.32.57C155.6,28.19,156,28.13,156,27.93Z"/><path class="cls-6" d="M159.62,29.7c-.09-.2-.05-.37-.25-.61-.17.14-.25-.05-.44.15a.43.43,0,0,0,.06.52c.21,0,.42,0,.63,0Z"/><path class="cls-6" d="M171.22,31.11a.85.85,0,0,1,.23,0c0-.26.12-.46,0-.75-.16.08-.21-.23-.38-.1-.15,0-.33.07-.52.19,0,.18.17.4.15.57Z"/><path class="cls-6" d="M175.17,32.06l-.16.09v0l.35.12C175.33,32.1,175.25,32,175.17,32.06Z"/><path class="cls-6" d="M176.14,32.47l-.1,0,1.27.46.13-.06a1.05,1.05,0,0,0-.67-.8C176.48,32,176.39,32.35,176.14,32.47Z"/><path class="cls-6" d="M148.42,28.71c-.27.21-.15.54,0,.87.28-.15.48,0,.77-.12.05-.17-.12-.39-.24-.61.35-.25.6-.13.79-.45a.64.64,0,0,0-.15-.45s0,0,0-.06l-.7.14C148.79,28.35,148.75,28.72,148.42,28.71Z"/><path class="cls-6" d="M167.55,27.59c-.05.21-.16.61.09.7s.3.06.49-.06c.34-.14.1-.51-.17-.66l-.29-.05,0,0Z"/><path class="cls-6" d="M167.31,35.8a1.2,1.2,0,0,0,0,.75c.48.13.53-.31.83-.58C167.93,35.68,167.57,35.94,167.31,35.8Z"/><path class="cls-6" d="M174.2,37l.1.17c.21.64.63-.09.8-.25.09.35.32.16.47.27a.36.36,0,0,0,.27,0l-1-.35-.16,0C174.58,36.77,174.39,36.88,174.2,37Z"/><path class="cls-6" d="M176.28,38.6c-.26,0-.57.26-.78.12a.83.83,0,0,0-.05.18l1,.38,0,0C176.22,39,176.43,38.85,176.28,38.6Z"/><path class="cls-6" d="M157.87,27.11c-.06.18.17.45.29.69.22-.14.54-.26.59-.45C158.71,27,158.3,26.75,157.87,27.11Z"/><path class="cls-6" d="M159.8,27.18c-.13.43-.83.71-.66,1.23l.05.08c.34-.11.61.09.94,0-.08-.5.34-.85-.09-1.45C159.91,27.07,159.85,27,159.8,27.18Z"/><path class="cls-6" d="M161.3,28.68a.63.63,0,0,0-.36.31,1.43,1.43,0,0,0,.63.18C161.6,29.08,161.49,28.61,161.3,28.68Z"/><path class="cls-6" d="M160.62,26.91h-.5a.25.25,0,0,0,0,.17Z"/><path class="cls-6" d="M161.47,27.51c.14.22-.53.21-.39.43s.09.17,0,.21l.23.41c.27,0,.59-.19.85-.17a.87.87,0,0,0-.11-1.11C161.87,27.29,161.54,27.23,161.47,27.51Z"/><path class="cls-6" d="M162.61,27.29a.34.34,0,0,0,.5.14c.15.33-.09.83.38.86.23-.19.07-1.12.36-.85l0,.08c.22.09.41.32.68.26a.25.25,0,0,1,.06-.25l.16-.1a.24.24,0,0,0,.33,0c.18.06.25-.08.18-.25-.47-.05-.93-.1-1.4-.13a1.27,1.27,0,0,1-.44.05l-.05-.09L163,27C162.83,27.06,162.63,27.06,162.61,27.29Z"/><path class="cls-6" d="M160.83,29.7l.07,0c0-.22,0-.55-.24-.61s-.25-.26-.42-.19a2.23,2.23,0,0,0-.39.43c0,.12,0,.22.11.37a.2.2,0,0,0,.15.09h.15a3.67,3.67,0,0,1,.52-.14Z"/><path class="cls-6" d="M190.1,66.68c-.06-.36.35-.58.19-1,0,0-.1,0-.13,0l-.16.09-.31.18a1.09,1.09,0,0,1,0,.18l.27.48A.41.41,0,0,1,190.1,66.68Z"/><path class="cls-6" d="M189,56.42l.52-.14a.59.59,0,0,0-.17-.1Z"/><path class="cls-6" d="M179.38,39.08a1.39,1.39,0,0,0,.06-.4l-.37-.17a.82.82,0,0,0-.44.35A1.85,1.85,0,0,0,179.38,39.08Z"/><path class="cls-6" d="M181.51,40.22c.15.29.42.11.59.3a1.31,1.31,0,0,0-.1.92c.32-.16.31-.41.49-.61-.21-.24-.38-.42-.16-.63-.18-.11-.37-.21-.56-.31A.7.7,0,0,1,181.51,40.22Z"/><path class="cls-6" d="M186.86,55.47c.16.06.58.05.47-.27l0-.07c-.21.07-.42.16-.63.25A.28.28,0,0,1,186.86,55.47Z"/><path class="cls-6" d="M182.09,41.6l0,.08c0,.12-.17.21-.32.29l.53.31a.56.56,0,0,1,.55-.18c.13,0,.19,0,.24-.14s0-.12,0-.2A.79.79,0,0,0,182.09,41.6Z"/><path class="cls-6" d="M178.28,40.11c.21.1.43.19.64.3a.65.65,0,0,0,0-.44C178.81,39.69,178.46,39.86,178.28,40.11Z"/><path class="cls-6" d="M181.24,41.23c-.44,0-1-.87-1.4-.35.51.26,1,.53,1.51.81.12-.11.26-.22.27-.36A.47.47,0,0,1,181.24,41.23Z"/><path class="cls-6" d="M197.32,57.42c.11.18.22.35.32.53a1.74,1.74,0,0,1,.1.19,1.15,1.15,0,0,0-.25-.82Z"/><path class="cls-6" d="M193.08,63.69l-.2.07a.22.22,0,0,0,.08,0Z"/><path class="cls-6" d="M192.18,50.4c.23.26.46.51.68.78l0,0c.23.07.28-.15.1-.38l-.13-.24c-.15-.2-.18-.37.05-.46s.61.45.54.76c.12-.05.21.06.33,0a3.14,3.14,0,0,0,.26-1,1.85,1.85,0,0,1-.75-.22c-.18.06-.18.18-.27.27-.26-.3-.5-.66-.86-.59.3.38.14.63.35,1C192.38,50.46,192.3,50.37,192.18,50.4Z"/><path class="cls-6" d="M199.4,59a4.08,4.08,0,0,0-.46.48c.23.47.55.62,1,.41Z"/><path class="cls-6" d="M183.26,42.85c.28.17.55.35.82.53l-.18.1.11,0,.08,0c.15-.09.22.16.4,0-.14-.29-.06-.73-.38-.86A1.36,1.36,0,0,0,183.26,42.85Z"/><path class="cls-6" d="M185.51,43.93l-.32-.57c-.12,0-.22,0-.37.1C185,43.74,185.13,44.34,185.51,43.93Z"/><path class="cls-6" d="M187.13,44.93c.18.25.49,0,.78-.12a1.67,1.67,0,0,0-1.56-1.26c.06.13.2.29.11.37.1.14,0,.23.1.37.24-.16.39.06.65-.16C187.34,44.44,187.12,44.65,187.13,44.93Z"/><path class="cls-6" d="M190.92,64.61c.08.35.31.16.47.27s.48-.26.58-.45a3.54,3.54,0,0,0-.73,0c-.36.15-.72.33-1.09.52C190.37,65.43,190.76,64.76,190.92,64.61Z"/><path class="cls-6" d="M191.91,54.19a2.34,2.34,0,0,1-.53,0c0,.21.17.5.08.7s.21.3.42.18S191.87,54.47,191.91,54.19Z"/><path class="cls-6" d="M197.23,56.51c.11.19,0,.31.2.53l.63-.37-.5-.88-.4.22C197.05,56.14,197.38,56.39,197.23,56.51Z"/><path class="cls-6" d="M123.4,43.86l-.09-.16c-.07,0-.13,0-.17-.12-.45.23-.44.6-.39,1l.79-.45Z"/><path class="cls-6" d="M143,39.18c0-.39-.45-.6-.88-.25,0,.16.12.38.24.6.19-.09.38-.16.58-.24A.3.3,0,0,0,143,39.18Z"/><path class="cls-6" d="M139.7,31.87l0-.08c-.25.2-.82.31-.7.61s.17.19.26.28C139.41,32.42,140,32.26,139.7,31.87Z"/><path class="cls-6" d="M124.31,53.19l.16-.09c0-.18.06-.3-.07-.5s-.92,0-1.06.18l0,.08c0,.16.1.46.31.36S124.06,53.39,124.31,53.19Z"/><path class="cls-6" d="M123.32,45.19a.41.41,0,0,0,0,.31l.2-.21A.62.62,0,0,1,123.32,45.19Z"/><path class="cls-6" d="M130.24,46.8l-.23-.4c-.28,0-.66.3-.9.08s-.73.23-.62.57.65-.08.85.38c0,.23.26.26.5.33l.81-.74,0-.11A.48.48,0,0,1,130.24,46.8Z"/><path class="cls-6" d="M129.19,47.73a.54.54,0,0,0-.35.3.7.7,0,0,1-.89.29c-.1.25-.68.35-.57.65.12.12.23.32.39.32-.12-.17.26-.2.35-.31a1.34,1.34,0,0,1,.25.23c.35-.36.7-.71,1.06-1.06A1.06,1.06,0,0,1,129.19,47.73Z"/><path class="cls-6" d="M125.63,50c.21,0,.27.53.48.48a3.38,3.38,0,0,1,.83-.58l0,.08.08-.05,0-.08a2.4,2.4,0,0,0,.12-.71c-.16-.16-.39-.07-.55-.22.2-.19.48-.37.26-.68-.54.58-1.07,1.16-1.58,1.76a.21.21,0,0,1,.08.06C125.45,50,125.52,50.07,125.63,50Z"/><path class="cls-6" d="M135.39,35.18a.4.4,0,0,0,.41,0,.56.56,0,0,0,.37-.1c.25-.22-.21-.31-.29-.69C135.47,34.39,135.5,34.87,135.39,35.18Z"/><path class="cls-6" d="M132.82,36c.37-.12,1-.33.81-.79-.23.09-.38-.1-.62,0A2,2,0,0,0,132.82,36Z"/><path class="cls-6" d="M133.82,36.29l-.32.18q.15.28.3.54c.35-.22.71-.43,1.07-.64a2.53,2.53,0,0,0,.13-.22c.15-.18.42-.33.29-.59-.81-.19-.6.84-1.12,1.17C134.05,36.61,134,36.2,133.82,36.29Z"/><path class="cls-6" d="M131.24,45.05c-.36.46.79,1.25.69.47-.09-.2-.05-.38-.25-.61C131.51,45.05,131.43,44.86,131.24,45.05Z"/><path class="cls-6" d="M139.21,39.13l-.08,0c.08.16-.23.21-.1.38.23.34.63,0,1-.13,0-.26.38-.43.45-.69l-.18-.2-.79.38A.51.51,0,0,1,139.21,39.13Z"/><path class="cls-6" d="M140.75,40.17c0-.08.07-.12.12-.17-.11-.35-.36-.18-.52-.35-.19.17-.47.86-.1.88l.31-.16A.59.59,0,0,1,140.75,40.17Z"/><path class="cls-6" d="M141.77,38.63c-.4.16-.65-.26-1.07,0,0,.42.62.64,1,.74C141.84,39.15,142,39,141.77,38.63Z"/><path class="cls-6" d="M145.4,38.35c0-.08,0-.13,0-.2a1.78,1.78,0,0,1,.68-.28,3.62,3.62,0,0,1-.48-.48c-.47-.22-.65.31-1,.34l-.48.27c.2.22,0,.32.2.53a.38.38,0,0,1,.06.19Z"/><path class="cls-6" d="M120.73,44.53c-.27.21-.15.54,0,.87.28-.15.48,0,.77-.12,0-.17-.12-.4-.24-.61.35-.25.6-.14.79-.46a.65.65,0,0,0-.15-.45c-.14-.31-.39-.19-.6-.23a1.14,1.14,0,0,0-.11.11C121.11,44,121.13,44.54,120.73,44.53Z"/><path class="cls-6" d="M136.9,40.6a1,1,0,0,0,.86.59l.07,0c.16-.09.23.16.41,0-.14-.28-.06-.73-.38-.85A1.4,1.4,0,0,0,136.9,40.6Z"/><path class="cls-6" d="M139,41.17l-.07-.12c-.13,0-.22,0-.37.1a1.17,1.17,0,0,1,.12.2Z"/><path class="cls-6" d="M140.58,31.58c.16-.09.23.17.41,0-.14-.28-.07-.73-.38-.85a1.45,1.45,0,0,0-1,.34,1.05,1.05,0,0,0,.86.58Z"/><path class="cls-6" d="M142,32.05l-.32-.56c-.12,0-.21,0-.36.1C141.52,31.87,141.63,32.46,142,32.05Z"/><path class="cls-6" d="M144.85,31.5c0-.13.05-.21,0-.33a4.74,4.74,0,0,1-.72-.34.46.46,0,0,0-.27.26c0,.15.07.34.19.53C144.39,31.37,144.56,31.65,144.85,31.5Z"/><path class="cls-6" d="M144.05,32.26a1.81,1.81,0,0,0-1.21-.58c.06.13.2.28.11.37.1.14,0,.23.1.37.25-.16.39.06.65-.16a.23.23,0,0,1,0,.11Z"/><path class="cls-6" d="M134.37,34a.64.64,0,0,0-.48.28c.17,0,.27.35.44.39s.28.31.53,0C134.73,34.36,134.72,33.91,134.37,34Z"/><path class="cls-6" d="M131.45,44.23l.05.08c.34-.12.61.08.94,0-.06-.4.18-.7.08-1.11-.37.27-.73.55-1.09.83A.47.47,0,0,0,131.45,44.23Z"/><path class="cls-6" d="M133.61,44.5a.66.66,0,0,0-.36.3s.05,0,.07,0l.4-.3A.09.09,0,0,0,133.61,44.5Z"/><path class="cls-6" d="M134.38,43.09c-.2,0-.53,0-.6.24.14.22-.53.21-.39.43s.09.16,0,.21l.23.4a1.49,1.49,0,0,0,.4-.08l.58-.41A.85.85,0,0,0,134.38,43.09Z"/><path class="cls-6" d="M137.54,42c-.25-.29-.49-.63-.84-.55.27.34.17.57.3.87Z"/><path class="cls-6" d="M136,42.93a.79.79,0,0,1-.26,0l-.14-.24c-.22.23-.68.06-.71.41a.35.35,0,0,0,.5.14s0,0,0,.06Z"/><path class="cls-6" d="M137.89,41.79s0,0-.06,0a.4.4,0,0,0-.22.2Z"/><path class="cls-6" d="M133,44.86c-.14-.06-.25-.26-.42-.19a2.62,2.62,0,0,0-.39.44c0,.12,0,.22.11.37a.28.28,0,0,0,.11.08l.74-.58A.26.26,0,0,0,133,44.86Z"/><path class="cls-6" d="M109.85,73.55c-.33.16-.59.33-.62.57s0,.22.1.37l.18.32a3.69,3.69,0,0,0,.62-.29c0-.13,0-.27,0-.4Z"/><path class="cls-6" d="M111.59,62.6l0,.08c.08.15.19.14.33,0s.16-.1.12-.18l-.37-.64C111.4,62.05,111.75,62.4,111.59,62.6Z"/><path class="cls-6" d="M112.83,62.7l0-.06A.07.07,0,0,0,112.83,62.7Z"/><path class="cls-6" d="M118.46,60.81a.37.37,0,0,0,.06-.36c-.06.12-.11.25-.17.37Z"/><path class="cls-6" d="M114.46,54.74c0,.19.17.46.29.7.23-.15.55-.26.59-.45C115.3,54.6,114.89,54.39,114.46,54.74Z"/><path class="cls-6" d="M114.72,52.24l0,0,0,.07Z"/><path class="cls-6" d="M108.34,74.41c-.16.07-.64.09-.5-.14-.21-.2-.25-.69-.37-.65l-.14.25c0,.26,0,.51-.08.76a2.78,2.78,0,0,0,1,.49C108.65,75.31,108.68,74.82,108.34,74.41Z"/><path class="cls-6" d="M109,71.48l-.08,0c.08.16-.23.21-.1.38.22.34.62,0,1-.13,0-.26.38-.43.45-.69-.51-.66-1.6-1.41-2.06-.64.11.2.27.17.39.31C108.88,70.66,109.73,71.17,109,71.48Z"/><path class="cls-6" d="M111.46,66.42a.82.82,0,0,1,.25-.21l.24-.86a.88.88,0,0,1-.4,0,1.34,1.34,0,0,1-.61.77l.14.24c.2.46-.72.91-.13,1.25l.4-.22c0-.07,0-.11.1-.16a.83.83,0,0,1,0-.15C111.34,66.79,111.15,66.53,111.46,66.42Z"/><path class="cls-6" d="M108.5,67.68c.35,0,1-.17.78-.66,0-.29.63-.12.66-.49l-.09-.16c-.44.19-.87.37-1.27.52-.1.4-.19.8-.28,1.2A.56.56,0,0,0,108.5,67.68Z"/><path class="cls-6" d="M110.88,69.1l.1.08a2.38,2.38,0,0,1,0-.26A.41.41,0,0,0,110.88,69.1Z"/><path class="cls-6" d="M112.54,63.54l-.19,0s0,.1,0,.12c-.13.19-.36.35-.16.63a1,1,0,0,1,.08.15C112.33,64.15,112.43,63.84,112.54,63.54Z"/><path class="cls-6" d="M121.24,57.4c.18,0,.28.15.49-.06s-.2-.31-.35-.44l-.09-.16C121.06,56.9,121,57.3,121.24,57.4Z"/><path class="cls-6" d="M110.12,72c-.2.17-.51,1,0,.87a.41.41,0,0,0,.26-.18c0-.19.05-.38.08-.57C110.33,72.09,110.21,72.1,110.12,72Z"/><path class="cls-6" d="M110.47,71a.4.4,0,0,0,.11.27l.06-.33A.39.39,0,0,0,110.47,71Z"/><path class="cls-6" d="M112.64,56.34c.27-.08.24-.25.42-.35,0-.08.07-.12.12-.17-.08-.25-.22-.24-.35-.27-.13.25-.26.5-.38.76A.26.26,0,0,0,112.64,56.34Z"/><path class="cls-6" d="M114,55.16c.19-.2.38-.39.12-.71a.9.9,0,0,1-.63-.08l-.23.42A2.14,2.14,0,0,0,114,55.16Z"/><path class="cls-6" d="M110.46,62.28c-.13.12-.1.29-.31.39a.49.49,0,0,0,.06.28l.05.09c.12.64.47-.39.62-.57l0-.08c-.09-.11-.21-.07-.3-.16Z"/><path class="cls-6" d="M116.4,54.82c-.13.43-.83.71-.66,1.23l0,0c.25-.47.51-.93.77-1.39C116.47,54.7,116.43,54.71,116.4,54.82Z"/><path class="cls-6" d="M117.38,53.27c-.15.11-.28.26-.44.28l-.48.27c.2.21,0,.31.2.53,0,0,0,0,0,.07Z"/><path class="cls-6" d="M121.72,55.1c.22.07.28-.15.1-.38l-.06-.1-.32.49A.26.26,0,0,0,121.72,55.1Z"/><path class="cls-6" d="M122.27,54.78c.13,0,.21.06.33,0a3.51,3.51,0,0,0,.27-1,1.53,1.53,0,0,1-.48-.11c-.11.15-.21.3-.31.46A.73.73,0,0,1,122.27,54.78Z"/><path class="cls-6" d="M112.25,59.18l-.08,0c0,.21-.16.61.09.7s.3.06.49-.06C113.24,59.66,112.5,59,112.25,59.18Z"/><path class="cls-6" d="M113.44,56.47c0,.14.07.33.2.52.31-.25.48,0,.77-.12,0-.12,0-.21,0-.33a4.28,4.28,0,0,1-.72-.34C113.57,56.28,113.47,56.36,113.44,56.47Z"/><path class="cls-6" d="M113.19,58.43c.18.25.49,0,.78-.12a1.67,1.67,0,0,0-1.56-1.26c0,.13.2.29.1.37.11.14,0,.23.11.37.24-.16.39.06.65-.16C113.4,57.94,113.18,58.15,113.19,58.43Z"/><path class="cls-6" d="M117.36,65l.32-.18c-.09-.51-.34-.69-.65-.72a2.83,2.83,0,0,0-.11.31C117.16,64.47,117.25,65,117.36,65Z"/><path class="cls-6" d="M116.78,64.78l-.27.78a.61.61,0,0,0,.32.14C117.07,65.47,116.83,65.1,116.78,64.78Z"/><path class="cls-6" d="M120.71,58.13a2.34,2.34,0,0,1-.53,0c0,.21.18.5.08.7s.21.3.43.19S120.67,58.42,120.71,58.13Z"/><path class="cls-6" d="M115.59,76.05c.35-.41,1-.65.5-1.14C115.33,74.89,114.83,76,115.59,76.05Z"/><path class="cls-6" d="M116.08,77.27h0c0-.07,0-.15,0-.23A.53.53,0,0,0,116.08,77.27Z"/><path class="cls-6" d="M115.09,75.91a1.56,1.56,0,0,1-.64-.17c0,.27,0,.55-.07.83a4.89,4.89,0,0,0,.54,0A.5.5,0,0,0,115.09,75.91Z"/><path class="cls-6" d="M122.91,103.78c-.06-.31.14-.55-.25-.61-.16.09-.23-.17-.41,0a1.06,1.06,0,0,0,.21.73C122.65,103.73,122.73,103.92,122.91,103.78Z"/><path class="cls-6" d="M111.47,96.28l0,.08c0,.17.1.47.31.36s.35.18.61,0l.16-.09c-.06-.17.05-.3-.07-.49S111.61,96.15,111.47,96.28Z"/><path class="cls-6" d="M108.49,86.64c-.27.1-.18.39.05.29.41.24,1.16-.26.94-.75a.43.43,0,0,0-.37-.11C108.74,86,108.58,86.42,108.49,86.64Z"/><path class="cls-6" d="M116.24,92.49c.25.16.45.52.74.54a1.33,1.33,0,0,1,1-.67c0-.18-.11-.36-.16-.54a.88.88,0,0,1-.46-.59.58.58,0,0,0-.35.31.72.72,0,0,1-.89.29A.33.33,0,0,1,116,92c0,.2.11.4.17.6Z"/><path class="cls-6" d="M116.62,90.56c.26.2.65-.09.84.37a.21.21,0,0,0,.13.21c-.1-.37-.19-.74-.29-1.11l-.06,0C117,89.84,116.51,90.22,116.62,90.56Z"/><path class="cls-6" d="M115.24,77.64a.78.78,0,0,0-.87,0c0,.5.19.53.54.76C115,78.11,115.45,78,115.24,77.64Z"/><path class="cls-6" d="M115.48,103.31l.32.56c.11,0,.2-.05.3-.08-.14-.26-.29-.52-.43-.79A.93.93,0,0,0,115.48,103.31Z"/><path class="cls-6" d="M113.42,98.6c0,.19-.47.27-.34.51.14-.13.5-.21.58-.36a.5.5,0,0,1,0-.13A.21.21,0,0,0,113.42,98.6Z"/><path class="cls-6" d="M107.43,83a.9.9,0,0,0,.2.53c.32-.26.49,0,.78-.12,0-.13,0-.21,0-.34a3.94,3.94,0,0,1-.72-.34A.53.53,0,0,0,107.43,83Z"/><path class="cls-6" d="M109.15,80.8c-.23.09-.38-.1-.62,0a2,2,0,0,0-.19.76C108.71,81.47,109.38,81.26,109.15,80.8Z"/><path class="cls-6" d="M109.8,82.68l.14-.13,0-.48a.56.56,0,0,1-.22.24c-.12-.12-.17-.53-.35-.44l-.32.18a5.87,5.87,0,0,0,1,1.47c0-.24,0-.48,0-.72Z"/><path class="cls-6" d="M115.27,88c.06-.32,0-.66.31-.93l.32.57c.14-.14.58-.2.51-.4a2.21,2.21,0,0,1-.89-.45.84.84,0,0,0-.65.25l.18,1A.37.37,0,0,0,115.27,88Z"/><path class="cls-6" d="M114.55,81.78c0-.07,0-.12,0-.2-.16-.24-.08-.4-.25-.64l0,.81A.58.58,0,0,0,114.55,81.78Z"/><path class="cls-6" d="M108.83,88.9c.29-.15.49,0,.78-.12,0-.16-.13-.39-.25-.61.35-.25.6-.13.8-.45a.61.61,0,0,0-.16-.45c-.15-.35-.45-.16-.67-.26-.1.31,0,1-.47,1C108.58,88.25,108.71,88.58,108.83,88.9Z"/><path class="cls-6" d="M111.42,92.88a.19.19,0,0,0,.2-.06c-.07-.24-.13-.48-.19-.72C111,92.31,111.06,92.84,111.42,92.88Z"/><path class="cls-6" d="M108,84.8a1.59,1.59,0,0,0-.79-1l0,.4.06,0a.69.69,0,0,1,0,.51l0,.36C107.46,85.1,107.72,84.92,108,84.8Z"/><path class="cls-6" d="M114.78,78.87c-.17,0-.3-.06-.49.06a.46.46,0,0,1,0,.17c0,.09,0,.19,0,.29a.6.6,0,0,0,.14.12C114.69,79.34,115.16,79.23,114.78,78.87Z"/><path class="cls-6" d="M210.15,67.33c-.45.23-.43.6-.39,1l.79-.45-.13-.25-.1-.16C210.25,67.46,210.19,67.43,210.15,67.33Z"/><path class="cls-6" d="M214.47,56.29c.35-.41,1-.65.51-1.14C214.22,55.13,213.72,56.26,214.47,56.29Z"/><path class="cls-6" d="M226.29,70.53l.05.08c.07.15.18.14.32,0s.16-.1.12-.18l-.37-.64C226.11,70,226.46,70.33,226.29,70.53Z"/><path class="cls-6" d="M227.56,70.55c-.08.07,0,.18.06.3l.16-.22A.32.32,0,0,1,227.56,70.55Z"/><path class="cls-6" d="M203,63.73l.07,0c.16-.09.23.16.41,0-.14-.28-.06-.73-.38-.85a1.4,1.4,0,0,0-1,.33A1,1,0,0,0,203,63.73Z"/><path class="cls-6" d="M229.89,67.08c.11.27.34.09.47.27s.59.05.48-.28l-.09-.16c-.22-.12-.46-.15-.68-.26C229.78,66.73,230,67,229.89,67.08Z"/><path class="cls-6" d="M226.76,55.73l-.76.48c.06.12.16.14.23.22C226.4,56.19,226.85,56,226.76,55.73Z"/><path class="cls-6" d="M218.36,52v0l0-.05Z"/><path class="cls-6" d="M214,56.15a1,1,0,0,1-.41-.08c-.19.24-.38.49-.59.74a6,6,0,0,0,.84,0A.5.5,0,0,0,214,56.15Z"/><path class="cls-6" d="M210.36,76.52l0,.09c-.05.16.11.46.31.35s.36.18.62,0l.15-.09c0-.17.06-.3-.07-.49S210.49,76.4,210.36,76.52Z"/><path class="cls-6" d="M210.71,69a.47.47,0,0,1-.38-.1c-.11.33.21.6.47.8C211.19,69.44,211.17,69.09,210.71,69Z"/><path class="cls-6" d="M208.37,66.42a.48.48,0,0,0-.38-.11.47.47,0,0,0-.21,0c.08.27.16.54.23.81A.58.58,0,0,0,208.37,66.42Z"/><path class="cls-6" d="M212,70.1a.72.72,0,0,1-.12.42c.24.11.62-.32.92-.42a.49.49,0,0,1-.14-.33Z"/><path class="cls-6" d="M209.8,61c.11.08.25,0,.41,0a.54.54,0,0,0,.36-.1c.26-.22-.2-.31-.29-.69C209.87,60.21,209.91,60.69,209.8,61Z"/><path class="cls-6" d="M222.24,75.41l-.07,0-.43.41c.15.18.4.36.52.51.4,0,1-.38.94-.75.35,0,1-.17.78-.66,0-.29.64-.12.67-.48l-.1-.17a15,15,0,0,1-1.72.67l-.08,0a.36.36,0,0,1-.23.07l-.29.3S222.24,75.4,222.24,75.41Z"/><path class="cls-6" d="M216.66,69l.4-.22c-.14-.15-.32-.17-.47-.27s-.15-.1-.22-.2C216.25,68.39,216.35,69.15,216.66,69Z"/><path class="cls-6" d="M214.12,57.89a.74.74,0,0,0-.86,0c0,.49.17.53.51.75,0,0,0,0,0-.05C213.93,58.32,214.32,58.19,214.12,57.89Z"/><path class="cls-6" d="M216,55.56l.05.08.21-.34C216.08,55.37,216,55.45,216,55.56Z"/><path class="cls-6" d="M227.22,71.47l-.17,0c0,.05,0,.1,0,.12-.12.17-.3.31-.21.54Z"/><path class="cls-6" d="M212,79.35a3.13,3.13,0,0,1,.45-.24v-.27a.14.14,0,0,0-.11,0C212.28,79,211.83,79.11,212,79.35Z"/><path class="cls-6" d="M203.76,63.69c.1.14.18.36.28.5l.37-.1-.28-.5C204,63.63,203.91,63.57,203.76,63.69Z"/><path class="cls-6" d="M206.32,63.2a.36.36,0,0,0,.05.26l.47-.19.12.37a.49.49,0,0,0,.33,0c0-.13.05-.21,0-.33a6.74,6.74,0,0,1-.72-.34A.53.53,0,0,0,206.32,63.2Z"/><path class="cls-6" d="M211.38,73.16c.25.07.43.42.68.46l0,0c0-.28-.07-.57-.1-.85C211.69,72.78,211.36,72.83,211.38,73.16Z"/><path class="cls-6" d="M208,61c-.22.09-.37-.1-.61,0a1.83,1.83,0,0,0-.2.76C207.59,61.71,208.26,61.5,208,61Z"/><path class="cls-6" d="M209.77,63.16c-.46.29-.77,0-1.08-.24a3.15,3.15,0,0,0,.72-1c.15-.18.41-.33.29-.59-.81-.19-.61.84-1.12,1.17-.13-.12-.18-.53-.36-.44l-.31.18c.59,1.16,1.25,2.08,2.17,2,0,0,0-.05.06-.07l-.3-.93A.2.2,0,0,1,209.77,63.16Z"/><path class="cls-6" d="M222.81,58.91a.56.56,0,0,0,.37-.1c.13-.12.07-.2,0-.3l-.4.42Z"/><path class="cls-6" d="M222.76,61.4a.44.44,0,0,0-.21-.2c-.08,0-.13,0-.18-.12-.45.29-.77,0-1.08-.24a2.72,2.72,0,0,0,.72-.94c.14-.16.36-.3.32-.5A17.52,17.52,0,0,0,221,61.12a2,2,0,0,0,1.43,1.06c.22-.33.45-.66.7-1C223,61.23,222.81,61.25,222.76,61.4Z"/><path class="cls-6" d="M219.45,64.27c.41-.1.43-.22.42-.57a.61.61,0,0,0-.15-.44h0c-.14.21-.27.42-.4.63A.77.77,0,0,0,219.45,64.27Z"/><path class="cls-6" d="M232.87,64.74c0-.1-.08-.55-.28-.49a.61.61,0,0,0-.35.31A1.43,1.43,0,0,0,232.87,64.74Z"/><path class="cls-6" d="M233.62,63.56c-.33.16-.67.34-1,.53l0,0c.27,0,.59-.19.85-.17A1.47,1.47,0,0,0,233.62,63.56Z"/><path class="cls-6" d="M234.45,63.17c.05.31-.06.66.34.69.23-.19.07-1.12.35-.85l.05.08c.22.09.41.32.67.26a.28.28,0,0,1,.07-.25l.16-.1a.24.24,0,0,0,.33,0c.22.07.28-.15.1-.38l-.12-.22C235.78,62.63,235.14,62.87,234.45,63.17Z"/><path class="cls-6" d="M236.92,62.28a.72.72,0,0,1,.05.43c.13,0,.21.06.33,0a3.35,3.35,0,0,0,.2-.61Z"/><path class="cls-6" d="M209,68a.6.6,0,0,0-.15-.45c-.16-.34-.45-.16-.67-.26a2.44,2.44,0,0,0-.08.45c.06.22.11.45.16.68C208.62,68.18,208.86,68.26,209,68Z"/><path class="cls-6" d="M208.46,69l0,0c0-.12,0-.27-.14-.43C208.39,68.74,208.43,68.89,208.46,69Z"/><path class="cls-6" d="M210.46,72.29c-.62.15-.55.78-.15.84S210.55,72.6,210.46,72.29Z"/><path class="cls-6" d="M205.29,63.79a.08.08,0,0,1,0,.05l.09,0Z"/><path class="cls-6" d="M227.51,55.38l.08-.05c.16-.09.23.16.41,0a1,1,0,0,1-.08-.24l-.52.28Z"/><path class="cls-6" d="M228.33,55.34c.2.27.31.87.69.46l-.33-.56C228.57,55.27,228.48,55.21,228.33,55.34Z"/><path class="cls-6" d="M231.09,55.37c.31-.26.48,0,.77-.12-.05-.13,0-.21,0-.33a6.74,6.74,0,0,1-.72-.34.49.49,0,0,0-.27.26C230.85,55,231,55.18,231.09,55.37Z"/><path class="cls-6" d="M229.86,55.43c0,.13.19.28.1.37A.31.31,0,0,1,230,56l.71-.3A2.23,2.23,0,0,0,229.86,55.43Z"/><path class="cls-6" d="M213.18,59.2l0,0a.05.05,0,0,0,0,0Z"/><path class="cls-6" d="M231.26,65.23c.2.26.54,0,.82,0l0,.08.08,0c0-.22,0-.55-.24-.62a.37.37,0,0,1-.12-.07l-.67.42A.36.36,0,0,0,231.26,65.23Z"/><path class="cls-6" d="M217.19,66.67c-.05.19.17.45.29.69.22-.14.55-.25.59-.44C218,66.53,217.62,66.32,217.19,66.67Z"/><path class="cls-6" d="M219.36,66.6c-.13,0-.18,0-.23.14-.12.39-.69.65-.69,1.08.37-.37.7-.73,1-1.09C219.41,66.69,219.4,66.65,219.36,66.6Z"/><path class="cls-6" d="M219.66,65.47l-.47.27c.2.22,0,.32.19.53s0,.23.11.37h0a17.88,17.88,0,0,0,1.1-1.5C220.15,64.93,220,65.44,219.66,65.47Z"/><path class="cls-6" d="M200.57,97.53l.37.65a.93.93,0,0,0,.37-.64C201.15,97.2,200.88,97.31,200.57,97.53Z"/><path class="cls-6" d="M204,84.63c.2.38.11.36.37.65a1.38,1.38,0,0,0,.44-.43l.09-.82A3.91,3.91,0,0,1,204,84.63Z"/><path class="cls-6" d="M209.47,86.78l-.05-.09a3.65,3.65,0,0,1-.32-.26L209,87Z"/><path class="cls-6" d="M209.48,85c.1.13.24.1.41,0l-.19-.32C209.45,84.67,209.64,84.86,209.48,85Z"/><path class="cls-6" d="M203.15,82.89l-.09-.16c-.22-.12-.46-.16-.68-.26-.29.08,0,.3-.18.43.11.27.34.09.47.26S203.26,83.21,203.15,82.89Z"/><path class="cls-6" d="M201.33,92.79v0c.34-.24.55-.49.92-.42.2-.22-.21-.16-.26-.28s-.29,0-.38-.28C201.53,92.15,201.43,92.47,201.33,92.79Z"/><path class="cls-6" d="M208.24,80.54c-.18.19-.25.51,0,.61.17-.05.27.15.49-.07.07-.26-.21-.3-.36-.43l-.06-.11Z"/><path class="cls-6" d="M211.19,84.08c-.19.33.1.79-.22,1.09a.26.26,0,0,0-.25-.07c-.12-.38-.07-.7-.19-1.07l-.16.09-.24.13c.19.53.08,1,.22,1.49.16.34.55-.2.81-.25.1.28.3.2.4.52l.09.16c.13,0,.22.18.31.33,0-.34.09-.67.13-1l-.07,0-.08,0a.43.43,0,0,1-.41,0c.29-.19.16-.5.45-.69a.93.93,0,0,0,.15.24l0-.39a2.52,2.52,0,0,0-.89-.73Z"/><path class="cls-6" d="M194.71,74.74a.4.4,0,0,0,.41,0,.51.51,0,0,0,.37-.1c.25-.22-.2-.31-.29-.69C194.79,74,194.83,74.43,194.71,74.74Z"/><path class="cls-6" d="M201,95l.08,0c-.07-.21-.08-.51-.32-.57h0c-.27.78-.57,1.54-.89,2.29v0C200.71,96.54,200.83,95.6,201,95Z"/><path class="cls-6" d="M203.08,86.46c0-.26.12-.46,0-.75a.12.12,0,0,1-.14,0c0,.27-.08.54-.12.82A.71.71,0,0,1,203.08,86.46Z"/><path class="cls-6" d="M208.59,90.38a.5.5,0,0,1-.21,0c-.06.26-.11.52-.17.77.17.15.34.32.57.28l.63-.36c-.12-.24-.34-.5-.29-.69C209,90.37,208.74,90.49,208.59,90.38Z"/><path class="cls-6" d="M209.07,88.29a.83.83,0,0,0-.19-.44c0,.19-.06.39-.1.58Z"/><path class="cls-6" d="M210.1,91a1.36,1.36,0,0,0,.58-.65c-.29.07-.48-.24-.75-.22.2.22-.13.28.07.5S209.85,90.94,210.1,91Z"/><path class="cls-6" d="M209.69,89c-.14.21-.08.48-.37.64l.18.33c.07.1.19,0,.26.07.26.06.28-.32.46-.48C210.45,89.22,210,88.93,209.69,89Z"/><path class="cls-6" d="M203.74,79.88c-.08-.5.34-.86-.09-1.45-.13,0-.19,0-.24.13a1,1,0,0,1,0,.1c0,.41,0,.81,0,1.22A.87.87,0,0,0,203.74,79.88Z"/><path class="cls-6" d="M204.9,80.07a.63.63,0,0,0-.35.3,1.31,1.31,0,0,0,.6.18v-.23C205.11,80.18,205,80,204.9,80.07Z"/><path class="cls-6" d="M204,77.29l-.48.28c.2.21,0,.31.2.53s0,.22.11.36c.29-.12.81-.22.95-.54,0-.08,0-.13,0-.21a1.35,1.35,0,0,1,.4-.2c0-.12,0-.24,0-.35a1.8,1.8,0,0,0-.19-.2C204.44,76.74,204.27,77.26,204,77.29Z"/><path class="cls-6" d="M204.69,79.33c0,.07.09.16,0,.21l.23.4a.76.76,0,0,0,.21,0c0-.38,0-.76,0-1.15a.31.31,0,0,0-.07.14C205.22,79.12,204.55,79.11,204.69,79.33Z"/><path class="cls-6" d="M209.61,78.55a3.16,3.16,0,0,0,.27-1,2,2,0,0,1-.35-.06c0,.35,0,.71,0,1.07Z"/><path class="cls-6" d="M199.68,83.64l.08,0c.34-.14.1-.51-.16-.66l-.24.13Z"/><path class="cls-6" d="M202,73.37l-.08,0a1.24,1.24,0,0,1,0,.16l.62,0C202.35,73.36,202.13,73.26,202,73.37Z"/><path class="cls-6" d="M204.17,71.06c0-.12.05-.21,0-.33a4.28,4.28,0,0,1-.72-.34.53.53,0,0,0-.27.26c0,.15.07.34.2.53C203.71,70.93,203.88,71.22,204.17,71.06Z"/><path class="cls-6" d="M202.32,71.75a.44.44,0,0,0,.06.23c.24-.16.39.06.64-.16.13.31-.08.52-.07.8.18.25.49,0,.77-.12a1.54,1.54,0,0,0-1.13-1.16c0,.13.06.26.08.39Z"/><path class="cls-6" d="M202.27,93.88c-.17-.53-.56-.26-.84-.37C201,94,201.85,94.19,202.27,93.88Z"/><path class="cls-6" d="M204.38,87.94c-.45-.33-1.26.1-1.84.12,0,.25-.1.51-.16.76a.54.54,0,0,0,.39-.15c.39.15.66.74,1.08.78.35-.35-.38-1,.08-1.33.16.06.25.29.33.45Z"/><path class="cls-6" d="M207.91,94c-.16,0-.34.12-.51.15s-.09.31-.14.47a.93.93,0,0,0,.81,0C207.85,94.37,208.07,94.23,207.91,94Z"/><path class="cls-6" d="M204.51,81c0-.21,0-.54-.24-.61s-.25-.26-.42-.19a2,2,0,0,0-.39.44c0,.12,0,.22.11.37s.55,0,.82,0l0,.08Z"/><path class="cls-6" d="M207.29,82.37l.46,0a1.78,1.78,0,0,1,0-.46,1.94,1.94,0,0,1-.54,0A1.92,1.92,0,0,0,207.29,82.37Z"/></g><path class="cls-5" d="M35.2,57.51a16.64,16.64,0,0,1-1.45,1.28,26,26,0,0,0-2.39-1.92A15.14,15.14,0,0,0,36.46,51l2.85.84a12.71,12.71,0,0,1-1,1.72H53.11v2.58H50.8v3.15H54v2.61H50.8V65h2.85v2.61H32.27V65H35.2V61.89H31.91V59.28H35.2ZM31.66,72.86a12.08,12.08,0,0,0,2.75-4.72l2.83.69A13.49,13.49,0,0,1,34.44,74Zm6.12-13.58h1.78V56.13H37.78Zm0,5.73h1.78V61.89H37.78Zm3.77,3.67a33.32,33.32,0,0,1,.59,4.6l-2.86.42a31.25,31.25,0,0,0-.46-4.7Zm2.26-9.4V56.13H42v3.15ZM42,61.89V65h1.82V61.89Zm4.45,6.69a27.22,27.22,0,0,1,1.43,4.58l-2.93.56a26.45,26.45,0,0,0-1.25-4.67Zm1.67-12.45H46.25v3.15h1.86Zm0,5.76H46.25V65h1.86ZM51.36,68A32.84,32.84,0,0,1,54.46,73l-3,1a32.12,32.12,0,0,0-2.9-5Z"/><path class="cls-5" d="M76.44,68.46a31.2,31.2,0,0,0-1.77-3.2v8.63H72V65.21a25.49,25.49,0,0,1-2.83,6.05,18,18,0,0,0-1.33-3,23.08,23.08,0,0,0,3.25-6.37H68.25V59.14H72v-8h2.7v8h3.64v2.73H74.67V62c.72.71,3,3.47,3.57,4.15Zm-7.11-9.79A24.7,24.7,0,0,0,68.23,53l2-.54a24.48,24.48,0,0,1,1.25,5.63Zm9.43-5.78c-.64,2-1.36,4.3-2,5.73l-1.85-.52a42.72,42.72,0,0,0,1.36-5.75ZM88.3,67.3v6.64H85.54V67.79L78.68,69l-.44-2.73,7.3-1.3V51H88.3V64.5L90.81,64l.44,2.73Zm-8.41-8.93A22.35,22.35,0,0,1,84,61.2l-1.48,2.34a20.16,20.16,0,0,0-4-3Zm3.56-.88a19.75,19.75,0,0,0-3.81-3.2l1.4-2a18.19,18.19,0,0,1,3.91,3Z"/><path class="cls-5" d="M38.13,95.7c.86.94,2.95,3.47,3.44,4.09l-1.67,2.38c-.37-.78-1.08-1.94-1.77-3v10.23H35.32V99.64a21.11,21.11,0,0,1-2.77,5.53,15.05,15.05,0,0,0-1.38-2.75A23.93,23.93,0,0,0,35,94.2H31.81V91.45h3.51v-5h2.81v5H41.2V94.2H38.13Zm15.47-8V109h-3v-1.25H44.87v1.4H42.06V87.73Zm-8.73,2.76v3.05h5.78V90.49Zm0,5.68v3.12h5.78V96.17Zm5.78,8.93V102H44.87v3.15Z"/><path class="cls-5" d="M77.43,92.78H68.08V90.46h9.35Zm-.79,15.3h-5v1H69.16v-8.38h7.48Zm0-12H69.24V93.88h7.37Zm-7.37,1.13h7.37v2.19H69.24Zm7.3-7.87H69.31V87.17h7.23ZM71.62,103v2.83h2.54V103Zm14.54-.34a8.38,8.38,0,0,0,5,4.3,23.4,23.4,0,0,0-1.67,2.48A9.06,9.06,0,0,1,84.22,104a9.81,9.81,0,0,1-5.86,5.41,12,12,0,0,0-1.6-2.38c4.7-1.65,6-4.87,6-6.52V96.79h3v3.71a5.24,5.24,0,0,0,.47,2.07,26.4,26.4,0,0,0,1.94-4.26L91,99.2a48,48,0,0,1-2.58,4.23Zm-9.27.19A7.84,7.84,0,0,0,79,98.48l2.55.52a9.45,9.45,0,0,1-2.28,5Zm12.15-5a36.63,36.63,0,0,0-4.92-3.57A9.25,9.25,0,0,1,78.85,98a7,7,0,0,0-1.62-2.32c5.12-1.6,5.51-4.4,5.71-9.27h2.83a26.61,26.61,0,0,1-.62,5.36A51.9,51.9,0,0,1,91,95.6Zm-7.33-9.47a8.81,8.81,0,0,1-1.95,4.55l-2.28-1a8,8,0,0,0,1.84-4.06Zm9.05.24c-.81,1.43-1.7,2.93-2.39,4l-2.16-.83a21.73,21.73,0,0,0,1.77-4Z"/><rect class="cls-7" x="22.91" y="44.24" width="38.36" height="35.9"/><rect class="cls-7" x="61.27" y="44.24" width="38.36" height="35.9"/><rect class="cls-7" x="22.91" y="80.14" width="38.36" height="35.9"/><rect class="cls-7" x="61.27" y="80.14" width="38.36" height="35.9"/><path class="cls-8" d="M50.31,27.91V22.82h1.9v12.7h-1.9V29.66H44.66v5.86H42.75V22.82h1.91v5.09Z"/><path class="cls-8" d="M57,32.09l-1.22,3.43H53.61l4.76-12.7h2.54l4.76,12.7H63.54l-1.22-3.43Zm4.77-1.65-2.1-5.79-2.08,5.79Z"/><path class="cls-8" d="M77.31,34.85a8.32,8.32,0,0,1-3.92.92c-4.45,0-6.78-3-6.78-6.57a6.43,6.43,0,0,1,6.75-6.63,6.91,6.91,0,0,1,4,1.17l-.62,1.74a5,5,0,0,0-3.35-1.18,4.63,4.63,0,0,0-4.83,4.88,4.64,4.64,0,0,0,5,4.87,6.1,6.1,0,0,0,3.81-1.27Z"/><path class="cls-8" d="M89.47,34.85a8.32,8.32,0,0,1-3.92.92c-4.45,0-6.78-3-6.78-6.57a6.43,6.43,0,0,1,6.75-6.63,6.91,6.91,0,0,1,4,1.17l-.62,1.74A5,5,0,0,0,85.5,24.3a4.63,4.63,0,0,0-4.83,4.88,4.64,4.64,0,0,0,5,4.87,6.1,6.1,0,0,0,3.81-1.27Z"/><path class="cls-8" d="M95.18,22.82c2.42,0,4.12,1.33,4.12,3.88,0,3.1-2.29,3.82-4.44,3.82H93.28v5H91.37V22.82Zm-.48,6c1.09,0,2.71,0,2.71-2.08s-1.57-2.15-2.71-2.15H93.28v4.23Z"/><path class="cls-8" d="M104,25.5A11.74,11.74,0,0,1,102.19,28l-1.47-1A10.39,10.39,0,0,0,103.41,22l1.65.37a12,12,0,0,1-.44,1.52h2.77v-2h1.71v2H115V25.5H109.1v2.72h6.54v1.57h-4.71v4.83c0,.43.29.43.42.43h1.9c.53,0,.64-.08.8-2.16l1.59.26c-.16,2.85-.68,3.5-1.7,3.5h-3.3a1.24,1.24,0,0,1-1.36-1.34V29.79h-2.66c0,3.65-1.79,6.08-5.42,7.22l-.92-1.56c3.83-1,4.7-3.21,4.7-5.66h-4.49V28.22h6.9V25.5Z"/><path class="cls-8" d="M119.65,26.79a9.57,9.57,0,0,1-1.92,2.58l-1.25-1.23c.64-.64,2.13-2.16,3-5.94l1.73.32a17.42,17.42,0,0,1-.82,2.66h3V21.91h1.73v3.27h6v1.61h-6v3h5.41V31.4h-5.41v3.32h6.58v1.65h-15V34.72h6.67V31.4H118V29.77h5.47v-3Z"/><path class="cls-8" d="M136.32,23a32.6,32.6,0,0,0-.69,7.3A27.6,27.6,0,0,0,136.1,36l-1.91.14a32.63,32.63,0,0,1-.4-5.52,39.94,39.94,0,0,1,.64-7.73Zm4.1,6.9a3.83,3.83,0,0,0-.79,2.06c0,1.35,1.59,1.49,3.12,1.49a33.27,33.27,0,0,0,3.7-.19v1.86c-.86.06-1.82.14-3,.14-2.63,0-5.52-.25-5.52-3.09a5.19,5.19,0,0,1,.83-2.73Zm5.71-5.83v1.76h-7.68V24.07Z"/><path class="cls-8" d="M161.65,27.66v6.9h-2.72a11.32,11.32,0,0,0,4.27.94l-.65,1.43a11.22,11.22,0,0,1-4.85-1.43l.81-.94h-5.69l.89,1a13.58,13.58,0,0,1-4.88,1.36l-.61-1.38a12.74,12.74,0,0,0,4.26-.94h-2.74V27.82a4.24,4.24,0,0,1-.46.51l-1.14-1.07a4,4,0,0,0,1.15-2.69V22.34a21.09,21.09,0,0,0,5.77-.56l.44,1.27a20.35,20.35,0,0,1-4.7.43v.72h4.8v1.15h-2v1.92h-1.52V25.35h-1.37a5.33,5.33,0,0,1-.84,2.31Zm-1.6,1.22h-8.68v.8h8.68Zm0,1.72h-8.68v.87h8.68Zm0,1.81h-8.68v.93h8.68Zm-2.24-8.21h5.39v1.15h-2.32v1.92h-1.47V25.35h-1.82a3.86,3.86,0,0,1-1.28,2.16l-1.17-1.08A2.79,2.79,0,0,0,156.31,24v-1.7a24,24,0,0,0,6-.57l.54,1.24a25.73,25.73,0,0,1-5.07.55Z"/><path class="cls-8" d="M164.86,22.57H171v6.1h-4.55V37h-1.57Zm1.6,1.31V25h2.95V23.88Zm0,2.24v1.25h2.95V26.12Zm8.85,3.75v5.41h-7V29.87Zm-5.52,1.37v2.63h4V31.24Zm7.41-2.57h-4.64v-6.1h6.26v13c0,1.35-.69,1.38-1.22,1.38h-2.54l-.19-1.6h1.95c.37,0,.38-.21.38-.4Zm-3.09-4.79V25h3.09V23.88Zm0,2.24v1.25h3.09V26.12Z"/><path class="cls-8" d="M194.64,24.17v1.65H190.5v3.23a7.86,7.86,0,0,1,.29,2.16c0,4.5-4.29,5-6.65,5.11l-.56-1.63c4.66,0,5.27-1.57,5.44-2.76a2.21,2.21,0,0,1-2.19,1.22,3,3,0,0,1-3-3.15,3.16,3.16,0,0,1,3.33-3.25,2.37,2.37,0,0,1,1.6.51V25.82h-7.67V24.17h7.63l0-1.7h1.83v1.7ZM188.8,29.5a1.48,1.48,0,0,0-1.58-1.35,1.68,1.68,0,0,0-1.76,1.78,1.66,1.66,0,0,0,1.63,1.84,1.62,1.62,0,0,0,1.71-1.65Z"/><path class="cls-8" d="M207.12,24.38c-1.28.94-2.8,2.17-4.19,3.26a8,8,0,0,1,2.42-.43c2.24,0,4.33,1.23,4.33,4.11,0,3.14-2.62,4.85-5.79,4.85-2.75,0-4.21-1.24-4.21-2.73a2.57,2.57,0,0,1,2.83-2.37A4,4,0,0,1,206.35,34a2.92,2.92,0,0,0,1.56-2.64c0-1.17-.6-2.7-3.24-2.7s-4.69,1.58-6.91,3.66l-1-1.5c.47-.34,3.38-2.56,7.51-6.21-1.9.14-3.14.19-5.81.25V23.13c3.7,0,5.23,0,8.69-.19Zm-4.66,8.1c-.84,0-1.23.52-1.23.89,0,.69.83,1.4,2.53,1.4a7.46,7.46,0,0,0,1.14-.13A2.54,2.54,0,0,0,202.46,32.48Z"/><g id="g4139"><path id="path35019" class="cls-8" d="M29.57,22.9a7.22,7.22,0,0,0-4.35,1.39,4.43,4.43,0,0,0-1.86,3.49A4.82,4.82,0,0,0,26.61,32a2.92,2.92,0,0,1-.67,1.38,5.78,5.78,0,0,1-.8.79.48.48,0,0,0-.08.69.5.5,0,0,0,.38.19,5.78,5.78,0,0,0,4.49-2.43h.26a4.62,4.62,0,0,1-.84-.81l-.07.07a6.22,6.22,0,0,1-2.44,1.91,3.23,3.23,0,0,0,.81-2.05.49.49,0,0,0-.32-.44c-1.81-.65-3-2-3-3.52a3.44,3.44,0,0,1,1.49-2.71,6.56,6.56,0,0,1,7.51,0l0,0c.22,0,.43,0,.66,0a6,6,0,0,1,.74,0,5,5,0,0,0-.84-.81,7.22,7.22,0,0,0-4.35-1.39Z"/><path id="path4927" class="cls-8" d="M34.25,25.77c-2.67,0-4.82,1.66-4.82,3.7,0,1.84,1.73,3.35,4,3.65a4.61,4.61,0,0,0,3.32,2.21c.16,0,.17-.12.11-.16A3.37,3.37,0,0,1,35.8,33c1.9-.5,3.27-1.89,3.27-3.52,0-2-2.16-3.7-4.82-3.7Z"/></g></g></g></svg>