<svg xmlns="http://www.w3.org/2000/svg" viewBox="0 0 192.18 47.42"><defs><style>.cls-1,.cls-3{fill:#3e3428;}.cls-2{fill:#f2f2f2;}.cls-3,.cls-4{stroke:#3e3428;stroke-linecap:round;stroke-linejoin:round;stroke-width:1.57px;}.cls-4{fill:#040000;}</style></defs><g id="Layer_2" data-name="Layer 2"><g id="layout"><path class="cls-1" d="M40.47.13l37.4,14.56a1.92,1.92,0,0,1-.06,3.6L40,31.61a1.9,1.9,0,0,1-1.33,0L1.22,17a1.91,1.91,0,0,1,.06-3.59L39.14.11A1.9,1.9,0,0,1,40.47.13Z"/><path class="cls-1" d="M58.7,47.42l-39.22-.64a3.9,3.9,0,0,1-3.83-4l.27-19.09a3.89,3.89,0,0,1,4-3.84l39.21.64a3.9,3.9,0,0,1,3.84,3.95l-.27,19.09A3.89,3.89,0,0,1,58.7,47.42Z"/><path class="cls-1" d="M96.43,11.68a6.27,6.27,0,0,1,2.29.42A2,2,0,0,1,100.28,14a1,1,0,0,1-1.12,1.09c-.24,0-.55-.11-.93-.89A4.58,4.58,0,0,0,96.32,12Zm14-.88c-2.16,3.72-5.18,6.48-9.23,9.21-.2.13-.43.33-.62.47a1,1,0,0,1-.6.28,1.73,1.73,0,0,1-1.28-.66c-.72-.7-1-1.15-1-1.61a2.68,2.68,0,0,1,0-.39,1.42,1.42,0,0,1,0-.29l.31-.07c.39.49.81.82,1.08.82a2.94,2.94,0,0,0,1.18-.36,37.31,37.31,0,0,0,9.94-7.66Zm-11.53-3a7.34,7.34,0,0,1,2.36.57,2,2,0,0,1,1.39,1.7,1.06,1.06,0,0,1-1.06,1.21c-.55,0-.82-.44-1-.88a4.75,4.75,0,0,0-1.79-2.27Zm7.34-.73a5.07,5.07,0,0,1,2.31.77A1.48,1.48,0,0,1,109.18,9a.72.72,0,0,1-.75.8c-.37,0-.59-.25-.84-.77a4.61,4.61,0,0,0-1.47-1.66ZM108,5.74a4.77,4.77,0,0,1,2.29.65,1.4,1.4,0,0,1,.73,1.2.71.71,0,0,1-.75.74c-.26,0-.49-.11-.77-.66A3.86,3.86,0,0,0,107.88,6Z"/><path class="cls-1" d="M112.86,14.41a2,2,0,0,0,1,.31,4.87,4.87,0,0,0,.82-.11c.79-.17,1.65-.35,2.49-.57-.16-.68-.33-1.47-.57-2.25-.11-.41-.23-.53-.45-.55a3.28,3.28,0,0,0-.64,0l-.08-.24a2.19,2.19,0,0,1,1.34-.6,3,3,0,0,1,1.08.24c.55.23.66.44.66.58a1.09,1.09,0,0,1-.11.44.8.8,0,0,0-.09.39,2.23,2.23,0,0,0,0,.33c.06.34.17.82.28,1.31,1.12-.27,2.1-.53,3.09-.78a1.2,1.2,0,0,0,.7-.41.77.77,0,0,1,.46-.22,2.41,2.41,0,0,1,1.08.48c.64.4.89.7.89,1s-.16.38-.49.48a2.2,2.2,0,0,0-.86.44,22.4,22.4,0,0,1-2.93,2.1l-.22-.26a15.45,15.45,0,0,0,1.78-2.61l-.06-.1c-1.1.28-2,.61-3.17.94.52,2.05,1,3.75,1.43,5.27a3.37,3.37,0,0,1,.24,1.14.78.78,0,0,1-.81.62c-.56,0-.82-.29-1-1-.36-1.63-.86-3.83-1.32-5.66-.93.29-1.51.48-2,.7a3,3,0,0,0-.6.29,1,1,0,0,1-.48.18,1.62,1.62,0,0,1-1.09-.71,3,3,0,0,1-.59-1Z"/><path class="cls-1" d="M128,8.67a7.11,7.11,0,0,1,2.16.48c1.1.44,1.87,1.15,1.87,2.09a1.2,1.2,0,0,1-1.1,1.33c-.81,0-1-.55-1.21-1.13A4.71,4.71,0,0,0,128,9Zm13.11,1.08c-2.07,3.79-4.82,6.38-9.23,9.34a3.47,3.47,0,0,0-.73.59,1,1,0,0,1-.72.31c-.51,0-1.33-.62-2.05-1.61a2.17,2.17,0,0,1-.25-1.23l.25-.09a2,2,0,0,0,1.17.64,2.58,2.58,0,0,0,1.12-.33,37.38,37.38,0,0,0,10.16-7.82Z"/><path class="cls-1" d="M142.7,19.39a10.24,10.24,0,0,0,3.3-3.57,10,10,0,0,0,1.41-4.27.85.85,0,0,0-.2-.59,1.52,1.52,0,0,0-.75-.49l0-.31a2.59,2.59,0,0,1,.81-.11,3.18,3.18,0,0,1,1.9.93c.33.33.37.5.37.59a1.15,1.15,0,0,1-.15.58,3.24,3.24,0,0,0-.23.55,11.27,11.27,0,0,1-2.09,4,9.53,9.53,0,0,1-4.19,2.93Zm16.76-6.32a17.07,17.07,0,0,1-5.88,5.22,4.2,4.2,0,0,0-.64.45.54.54,0,0,1-.4.22.94.94,0,0,1-.59-.22,5.86,5.86,0,0,1-1.19-1.11.81.81,0,0,1-.22-.46,1.27,1.27,0,0,1,.09-.42,1.84,1.84,0,0,0,.11-.7c0-1.44.08-3.13.09-4.85a5.87,5.87,0,0,0-.1-1.5c-.1-.28-.5-.46-1.07-.55l0-.31a2.48,2.48,0,0,1,1.08-.35,4.46,4.46,0,0,1,2,.75.8.8,0,0,1,.42.57.75.75,0,0,1-.14.49,1.31,1.31,0,0,0-.31.83,11,11,0,0,0-.11,1.37c0,1-.1,2.4-.1,3.81a.25.25,0,0,0,.26.24.3.3,0,0,0,.13,0,23,23,0,0,0,6.37-3.64Z"/><path class="cls-1" d="M167.77,6.44c.24-.55.4-.71.59-.71s.46.07,1.13.56.77.7.77.86-.11.43-.62.7v.6c0,1.32.09,2.29.09,2.77s-.62.84-1.45.84c-.31,0-.49-.14-.49-.47v0h-1.23a.51.51,0,0,1-.25.2,18.85,18.85,0,0,1-.24,2.6h1.74c.29-.6.49-.77.68-.77s.45.13,1.09.57.79.64.79.86-.18.42-.64.66a22.3,22.3,0,0,1-.55,4,2.66,2.66,0,0,1-2.65,2.4h-.24c-.28,0-.31-.11-.48-.49a2.56,2.56,0,0,0-1.72-1.34l0-.27c.69.07,1.3.11,1.83.11.86,0,1.17-.15,1.41-1a18.4,18.4,0,0,0,.51-3.84h-2a10.21,10.21,0,0,1-2.68,5,11.6,11.6,0,0,1-2.08,1.55l-.21-.18a12.09,12.09,0,0,0,2.79-5,19.92,19.92,0,0,0,.69-5.07h-.47v.18c0,.39-.5.77-1.47.77-.33,0-.51-.16-.51-.48s.09-1.64.09-4c0-1,0-1.66-.07-2.2a18.73,18.73,0,0,1,2,.59Zm-3.84,1v3.22h3.86V7.36H164ZM173.38,10c0,4.61.1,6.61.1,7.28,0,.5-.6.83-1.48.83-.38,0-.58-.19-.58-.48,0-.73.12-2.82.12-7.69,0-1.45,0-2.32-.09-3.08,2.27.22,2.64.37,2.64.61s-.18.37-.71.58Zm-1.18,9.85a17,17,0,0,0,2.15.16c.69,0,.82-.11.82-.8v-10c0-1.56,0-2.47-.09-3.26,2.38.22,2.78.38,2.78.64s-.22.4-.79.62V9.3c0,7.93.17,9.85.17,11s-.92,2-2.58,2c-.33,0-.39,0-.46-.37-.22-.88-.68-1.3-2-1.76Z"/><path class="cls-1" d="M89.35,40.23a4.5,4.5,0,0,0,3,.86c1.39,0,2.16-.7,2.16-2s-1.06-1.83-2.29-1.83a7.78,7.78,0,0,0-3.81,1.52c0,1.15.2,2.36.2,3.18a4.1,4.1,0,0,1-.24,1.45c-.13.38-.51.86-1,.84s-.49-.2-.6-.53a2.54,2.54,0,0,0-.64-1.1c-.3-.33-.66-.68-1.17-1.15a4.67,4.67,0,0,0-.65.73.64.64,0,0,1-.55.22,1.69,1.69,0,0,1-1.15-.51,1.17,1.17,0,0,1-.47-1,1.58,1.58,0,0,1,.14-.62c0-.06.08-.11.13-.11s.11,0,.18.16a.73.73,0,0,0,.52.33c.14,0,.25-.05.56-.24,1-.6,2.18-1.33,3.39-2.12,0-1.17,0-2.23,0-3.22a9.26,9.26,0,0,1-1.87.29c-.73,0-1.51-.44-1.94-2.09l.22-.14a2,2,0,0,0,1.72.78A8.59,8.59,0,0,0,87,33.6c0-.63,0-1.1,0-1.67a2.18,2.18,0,0,0-.15-1,.7.7,0,0,0-.51-.37,2.84,2.84,0,0,0-.7-.09l0-.27a1.83,1.83,0,0,1,1.19-.44c.75,0,2.3.64,2.3,1.28a.77.77,0,0,1-.18.51,1.91,1.91,0,0,0-.33.75c0,.17,0,.35-.07.79a7.81,7.81,0,0,0,1.13-.59,1.94,1.94,0,0,1,.77-.29,1.18,1.18,0,0,1,.7.17.6.6,0,0,1,.33.58.74.74,0,0,1-.46.61c-.66.34-1.41.64-2.58,1.11,0,.77,0,1.49,0,2.18v.77a8.52,8.52,0,0,1,4.12-1.12c2.27,0,3.77,1.27,3.77,3.17a2.89,2.89,0,0,1-3.17,2.8,4.82,4.82,0,0,1-3.91-2.08Zm-4.14,1a4.68,4.68,0,0,0,1.5.45c.19,0,.33,0,.33-.42V39.55C86.36,40.15,85.65,40.76,85.21,41.2Zm6.79-7a3.53,3.53,0,0,1,2.64-1.34,3.85,3.85,0,0,1,2.91,1.3,2.32,2.32,0,0,1,.64,1.38c0,.71-.42,1-.75,1a1.34,1.34,0,0,1-.79-.26.92.92,0,0,0-.53-.16,1.06,1.06,0,0,0-.25,0,7.19,7.19,0,0,0-1.32.31l-.13-.22a11.3,11.3,0,0,0,1.25-.95.5.5,0,0,0,.18-.33.62.62,0,0,0-.15-.37,2.29,2.29,0,0,0-1.85-.79,3.4,3.4,0,0,0-1.68.57Z"/><path class="cls-1" d="M107.55,29.28a2.76,2.76,0,0,1,1.37-.52,4.18,4.18,0,0,1,1.92.81.71.71,0,0,1,.31.6.92.92,0,0,1-.18.57,1.6,1.6,0,0,0-.25.71,11.5,11.5,0,0,0-.12,1.18l3-.26a3.15,3.15,0,0,0,.82-.18A1.68,1.68,0,0,1,115,32a4,4,0,0,1,1.83.64.88.88,0,0,1,.48.77c0,.4-.26.64-.71.64s-1.23-.22-1.91-.31a15.13,15.13,0,0,0-1.83-.11c-.73,0-1.5,0-2.25.11,0,.71,0,2.12,0,3.64a5.1,5.1,0,0,1,.35,1.83c0,3.41-2.38,5.37-6.86,6.07L104,45c2.64-.86,4.47-2.36,5-4.56a1.78,1.78,0,0,1-1,.3c-1.43,0-2.2-.88-2.2-2.42a2.27,2.27,0,0,1,3.26-2.09c0-.34,0-.67,0-1s0-.77,0-1.25a44,44,0,0,0-4.53.88,4.16,4.16,0,0,0-1.09.41,1.29,1.29,0,0,1-.7.2,1.71,1.71,0,0,1-.93-.33,3.4,3.4,0,0,1-1-1,2,2,0,0,1-.24-1l.22-.11a2.29,2.29,0,0,0,.81.51,2.06,2.06,0,0,0,.71.11,10.38,10.38,0,0,0,1.21-.11l5.55-.75c0-.88,0-1.5,0-2s0-.71-.16-.95-.55-.33-1.29-.38Zm-.77,8.88A1.16,1.16,0,0,0,108,39.47a1.26,1.26,0,0,0,1.1-1.37,1.29,1.29,0,0,0-1.1-1.43A1.34,1.34,0,0,0,106.78,38.16Z"/><path class="cls-1" d="M126.44,29.28a2.82,2.82,0,0,1,1.38-.52,4.18,4.18,0,0,1,1.92.81.71.71,0,0,1,.31.6.92.92,0,0,1-.18.57,1.62,1.62,0,0,0-.26.71c-.05.41-.09.76-.11,1.18,1.15-.11,1.94-.17,3-.26a3.14,3.14,0,0,0,.83-.18,1.61,1.61,0,0,1,.53-.15,4,4,0,0,1,1.83.64.88.88,0,0,1,.48.77c0,.4-.26.64-.72.64s-1.22-.22-1.9-.31a15.13,15.13,0,0,0-1.83-.11c-.74,0-1.5,0-2.25.11,0,.71,0,2.12,0,3.64a5.32,5.32,0,0,1,.35,1.83c0,3.41-2.38,5.37-6.87,6.07l-.07-.32c2.64-.86,4.47-2.36,5-4.56a1.81,1.81,0,0,1-1,.3c-1.43,0-2.2-.88-2.2-2.42A2.32,2.32,0,0,1,126.81,36a2.26,2.26,0,0,1,1.15.22c0-.34,0-.67,0-1s0-.77,0-1.25a44.3,44.3,0,0,0-4.52.88,4.4,4.4,0,0,0-1.1.41,1.28,1.28,0,0,1-.69.2,1.76,1.76,0,0,1-.94-.33,3.47,3.47,0,0,1-1-1,2,2,0,0,1-.24-1l.22-.11a2.24,2.24,0,0,0,.8.51,2.17,2.17,0,0,0,.72.11,10.38,10.38,0,0,0,1.21-.11l5.54-.75c0-.88,0-1.5,0-2s0-.71-.17-.95-.55-.33-1.28-.38Zm-.77,8.88a1.16,1.16,0,0,0,1.19,1.31A1.25,1.25,0,0,0,128,38.1c0-.79-.47-1.43-1.1-1.43A1.34,1.34,0,0,0,125.67,38.16Z"/><path class="cls-1" d="M140.27,31.09a3.06,3.06,0,0,1,2.14,2.05,15.79,15.79,0,0,1,.37,1.63,12.54,12.54,0,0,1,3.75-1.34,19.79,19.79,0,0,0,.84-1.92,1.42,1.42,0,0,0,.08-.42c0-.11-.13-.22-.35-.29a1.42,1.42,0,0,0-.55-.08l-.4,0-.08-.31a2.32,2.32,0,0,1,1.49-.53,3.74,3.74,0,0,1,1.68.55c.39.24.5.49.5.66a.75.75,0,0,1-.24.53,3.59,3.59,0,0,0-.44.51c-.29.46-.5.73-.81,1.19a1.84,1.84,0,0,1,.31,0c3.43,0,5.24,2.31,5.24,4.49,0,4.08-4.34,5.66-8.39,6.1l0-.32c3.52-1.19,6.39-3.09,6.39-6.11a3.24,3.24,0,0,0-3.41-3.41,2.76,2.76,0,0,0-.45,0A56.09,56.09,0,0,1,144.65,39a9.16,9.16,0,0,0,.71.68.87.87,0,0,1,.33.75.72.72,0,0,1-.79.75,1.94,1.94,0,0,1-1.41-.75c-1,1-2,1.88-3.17,1.87a1.72,1.72,0,0,1-1.59-2c0-1.53,1-3.25,2.86-4.83-.17-.9-.24-1.28-.39-2a3.25,3.25,0,0,0-1.11-2.13Zm1.52,5.42a4.72,4.72,0,0,0-1.7,3.26c0,.49.2.86.56.86s1.23-.4,2.13-1.38A12.21,12.21,0,0,1,141.79,36.51Zm1.19-.92a10,10,0,0,0,.86,2.44,25.43,25.43,0,0,0,2.31-3.77A9.62,9.62,0,0,0,143,35.59Z"/><path class="cls-1" d="M167.79,31.71a21.16,21.16,0,0,0,.84-2.95c2.18.81,2.33,1,2.33,1.19s-.2.39-.83.48a12.07,12.07,0,0,1-1.42,1.28h1.44a16.86,16.86,0,0,1,1.14-1.37c1.79,1.46,1.92,1.66,1.92,1.87s-.09.42-.29.42h-5.53c1.15.38,1.24.51,1.24.69s-.2.39-.78.44a11.1,11.1,0,0,1-1.08,1h2.45c.35-.44.69-.86,1.12-1.32,1.7,1.52,1.79,1.67,1.79,1.85s-.09.39-.27.39h-5.92a.43.43,0,0,1-.27.22V37h2.43c.35-.44.68-.78,1.1-1.24,1.65,1.39,1.79,1.55,1.79,1.77s-.07.35-.22.39c1.73,1.46,1.84,1.61,1.84,1.81s-.1.39-.28.39h-6.21a14.5,14.5,0,0,0,7.16,2.54l-.05.28a2.52,2.52,0,0,0-1.47,1.28c-.16.31-.23.42-.4.42a.86.86,0,0,1-.33-.08,9.09,9.09,0,0,1-5.34-4.15c0,2.84.07,3.83.07,4.25s-.72.73-1.61.73c-.35,0-.5-.13-.5-.4s0-1.21.08-3.45a17.18,17.18,0,0,1-7.31,3.26l-.09-.25a18.33,18.33,0,0,0,6.21-4.43h-3.65l-1.83.09v-1.1l1.83.09h4.85V37.92h-3.35l-1.83.09v-1.1l1.83.09h3.35V35.67h-4.26l-1.83.09v-1.1l1.83.09H162a1.34,1.34,0,0,1-.18-.4,2.71,2.71,0,0,0-.9-1.69l0,0H158.4l-1.83.09v-1.1l1.83.09H160a.9.9,0,0,1-.44-.6,3.35,3.35,0,0,0-1-1.87l.15-.24c1.94.2,2.8.92,2.8,1.78a1,1,0,0,1-.59.93h1.34v-1.1c0-.86,0-1.48,0-2.2,2.38.21,2.49.33,2.49.55s-.13.33-.64.54v2.21h1.26v-1c0-.86,0-1.49-.06-2.2,2.35.2,2.49.33,2.49.55s-.12.33-.64.53v2.16Zm-2,3c.24-.7.42-1.41.59-2.12h-4.07c1,.31,1.47.84,1.47,1.44a1,1,0,0,1-.24.68Zm-.07,4.45h3.88c.33-.42.64-.81,1.08-1.28h-5Z"/><path class="cls-1" d="M184.16,31.11c.35-.44.64-.77,1.08-1.25a16.05,16.05,0,0,1,1.58,1.41A26.47,26.47,0,0,0,188.48,29c2.11.94,2.24,1.08,2.24,1.38s-.17.34-.94.4a28.76,28.76,0,0,1-3.18,3.37h2.25c.42-.53.73-.92,1.24-1.5,1.89,1.42,2.09,1.75,2.09,2s-.11.45-.29.45h-6.36a32.53,32.53,0,0,1-3,2.2h4.76c.37-.71.53-.81.75-.81s.48.08,1.19.63.77.73.77.89-.16.44-.68.66v.9c0,2.88.11,4,.11,4.52s-.53,1-1.59,1c-.36,0-.57-.13-.57-.44v-.49h-5.6v.51c0,.4-.55.77-1.48.77-.41,0-.64-.15-.64-.46,0-.48.07-1.48.07-6v0a33,33,0,0,1-4.43,1.81l-.11-.26a35.19,35.19,0,0,0,4.52-2.65c0-.52,0-.9,0-1.3.55.14,1,.27,1.33.38.79-.6,1.56-1.21,2.29-1.87h-6.1l-1.83.09V34l1.83.09h4.73V32h-3.41l-1.83.09V31l1.83.1h3.41v-.53c0-.87,0-1.58-.09-2.24,2.43.22,2.82.37,2.82.62s-.2.39-.75.61v1.54Zm-2.43,7-.06.05v1.85h5.6v-1.9ZM181.67,41v2.23h5.6V41Zm2.11-9v2.11h.38c.7-.68,1.39-1.38,2-2.11Z"/><path class="cls-2" d="M26.33,18.58v4.25H23.89V10.75H28a3.77,3.77,0,0,1,2.86,1.11,4,4,0,0,1,1.07,2.89,3.73,3.73,0,0,1-1.05,2.8,4,4,0,0,1-2.93,1Zm0-2H28a1.3,1.3,0,0,0,1.08-.46,2,2,0,0,0,.38-1.33,2.41,2.41,0,0,0-.39-1.44,1.24,1.24,0,0,0-1-.54h-1.7Z"/><path class="cls-2" d="M36.61,22.83H34.17V10.75h2.44Z"/><path class="cls-2" d="M47.37,18.81a4.47,4.47,0,0,1-1.17,3.12,4.09,4.09,0,0,1-3,1.07A3.81,3.81,0,0,1,40,21.65,6,6,0,0,1,39,17.8v-2a5.84,5.84,0,0,1,1.13-3.84,3.87,3.87,0,0,1,3.14-1.35,3.93,3.93,0,0,1,3,1.1,5,5,0,0,1,1.16,3.17H44.94a3.31,3.31,0,0,0-.4-1.76,1.56,1.56,0,0,0-1.32-.49,1.48,1.48,0,0,0-1.39.69,4.86,4.86,0,0,0-.43,2.25v2.29a5.24,5.24,0,0,0,.4,2.47,1.48,1.48,0,0,0,1.38.67,1.58,1.58,0,0,0,1.33-.47,3.16,3.16,0,0,0,.42-1.69Z"/><path class="cls-2" d="M52.78,18.17l-1,1.21v3.45H49.38V10.75h2.44V16l.77-1.31,2.25-4h3l-3.46,5.31,3.52,6.77H55Z"/><path class="cls-2" d="M39.25,27.75v8.36a3.92,3.92,0,0,1-1,2.89,4,4,0,0,1-2.93,1,4.05,4.05,0,0,1-3-1,3.94,3.94,0,0,1-1-2.93v-8.3h2.46v8.31a2.49,2.49,0,0,0,.33,1.47,1.4,1.4,0,0,0,1.2.44,1.42,1.42,0,0,0,1.2-.43,2.58,2.58,0,0,0,.33-1.44V27.75Z"/><path class="cls-2" d="M44.05,35.58v4.25H41.61V27.75h4.12a3.79,3.79,0,0,1,2.86,1.11,4,4,0,0,1,1.06,2.89,3.73,3.73,0,0,1-1,2.8,4,4,0,0,1-2.92,1Zm0-2h1.68a1.33,1.33,0,0,0,1.08-.46,2,2,0,0,0,.38-1.33,2.41,2.41,0,0,0-.39-1.44,1.25,1.25,0,0,0-1-.54h-1.7Z"/><path class="cls-3" d="M73.5,36.35c0,1-1.11,1.87-2.53,1.9s-2.57-.79-2.58-1.82,1.11-1.88,2.52-1.9S73.48,35.32,73.5,36.35Z"/><line class="cls-4" x1="70.8" y1="17.93" x2="70.91" y2="34.2"/><rect class="cls-3" x="69.36" y="36.82" width="3.24" height="2.86" transform="translate(-0.61 1.14) rotate(-0.92)"/></g></g></svg>