<svg xmlns="http://www.w3.org/2000/svg" xmlns:xlink="http://www.w3.org/1999/xlink" viewBox="0 0 219.81 114.29"><defs><style>.cls-1,.cls-5{fill:none;}.cls-2{fill:#f4e75e;}.cls-3{opacity:0.7;}.cls-4{clip-path:url(#clip-path);}.cls-5{stroke:#fff;stroke-miterlimit:10;stroke-width:0.27px;}.cls-6{fill:#e45b58;}</style><clipPath id="clip-path" transform="translate(54.87 23.38)"><path class="cls-1" d="M40.44,0c-1.35-.31-6,3.49-7.37,3.49s-6-3.8-7.36-3.49-3.87,5.74-5.12,6.34-7.07-.76-8.15.11-1,6.78-1.87,7.86S3.85,16.71,3.25,18s2.05,6.6,1.74,8-5,5-5,6.41,4.72,5,5,6.39-2.35,6.7-1.75,7.95,6.48,2.53,7.35,3.61.8,7,1.88,7.9,6.89-.57,8.14,0,3.75,6,5.1,6.34,6-3.49,7.37-3.5,6,3.8,7.36,3.49,3.87-5.73,5.12-6.33,7.07.75,8.15-.11,1-6.85,1.87-7.93,6.72-2.32,7.32-3.57-2-6.6-1.74-7.95,5-5,5-6.41-4.72-5-5-6.39,2.35-6.7,1.75-7.94-6.48-2.54-7.35-3.62-.8-7-1.88-7.9-6.89.58-8.14,0S41.79.32,40.44,0Z"/></clipPath></defs><g id="Layer_2" data-name="Layer 2"><g id="layout"><path class="cls-2" d="M40.44,0c-1.35-.31-6,3.49-7.37,3.49s-6-3.8-7.36-3.49-3.87,5.74-5.12,6.34-7.07-.76-8.15.11-1,6.78-1.87,7.86S3.85,16.71,3.25,18s2.05,6.6,1.74,8-5,5-5,6.41,4.72,5,5,6.39-2.35,6.7-1.75,7.95,6.48,2.53,7.35,3.61.8,7,1.88,7.9,6.89-.57,8.14,0,3.75,6,5.1,6.34,6-3.49,7.37-3.5,6,3.8,7.36,3.49,3.87-5.73,5.12-6.33,7.07.75,8.15-.11,1-6.85,1.87-7.93,6.72-2.32,7.32-3.57-2-6.6-1.74-7.95,5-5,5-6.41-4.72-5-5-6.39,2.35-6.7,1.75-7.94-6.48-2.54-7.35-3.62-.8-7-1.88-7.9-6.89.58-8.14,0S41.79.32,40.44,0Z" transform="translate(54.87 23.38)"/><g class="cls-3"><g class="cls-4"><line class="cls-5" x1="89.11" y1="0.08" x2="0.11" y2="114.21"/><line class="cls-5" x1="92.29" y1="0.08" x2="3.29" y2="114.21"/><line class="cls-5" x1="95.48" y1="0.08" x2="6.48" y2="114.21"/><line class="cls-5" x1="98.66" y1="0.08" x2="9.66" y2="114.21"/><line class="cls-5" x1="101.85" y1="0.08" x2="12.85" y2="114.21"/><line class="cls-5" x1="105.03" y1="0.08" x2="16.03" y2="114.21"/><line class="cls-5" x1="108.22" y1="0.08" x2="19.22" y2="114.21"/><line class="cls-5" x1="111.4" y1="0.08" x2="22.4" y2="114.21"/><line class="cls-5" x1="114.59" y1="0.08" x2="25.59" y2="114.21"/><line class="cls-5" x1="117.78" y1="0.08" x2="28.77" y2="114.21"/><line class="cls-5" x1="120.96" y1="0.08" x2="31.96" y2="114.21"/><line class="cls-5" x1="124.15" y1="0.08" x2="35.14" y2="114.21"/><line class="cls-5" x1="127.33" y1="0.08" x2="38.33" y2="114.21"/><line class="cls-5" x1="130.52" y1="0.08" x2="41.51" y2="114.21"/><line class="cls-5" x1="133.7" y1="0.08" x2="44.7" y2="114.21"/><line class="cls-5" x1="136.89" y1="0.08" x2="47.88" y2="114.21"/><line class="cls-5" x1="140.07" y1="0.08" x2="51.07" y2="114.21"/><line class="cls-5" x1="143.26" y1="0.08" x2="54.25" y2="114.21"/><line class="cls-5" x1="146.44" y1="0.08" x2="57.44" y2="114.21"/><line class="cls-5" x1="149.63" y1="0.08" x2="60.62" y2="114.21"/><line class="cls-5" x1="152.81" y1="0.08" x2="63.81" y2="114.21"/><line class="cls-5" x1="156" y1="0.08" x2="67" y2="114.21"/><line class="cls-5" x1="159.18" y1="0.08" x2="70.18" y2="114.21"/><line class="cls-5" x1="162.37" y1="0.08" x2="73.37" y2="114.21"/><line class="cls-5" x1="165.55" y1="0.08" x2="76.55" y2="114.21"/><line class="cls-5" x1="168.74" y1="0.08" x2="79.74" y2="114.21"/><line class="cls-5" x1="171.92" y1="0.08" x2="82.92" y2="114.21"/><line class="cls-5" x1="175.11" y1="0.08" x2="86.11" y2="114.21"/><line class="cls-5" x1="178.29" y1="0.08" x2="89.29" y2="114.21"/><line class="cls-5" x1="181.48" y1="0.08" x2="92.48" y2="114.21"/><line class="cls-5" x1="184.67" y1="0.08" x2="95.66" y2="114.21"/><line class="cls-5" x1="187.85" y1="0.08" x2="98.85" y2="114.21"/><line class="cls-5" x1="191.04" y1="0.08" x2="102.03" y2="114.21"/><line class="cls-5" x1="194.22" y1="0.08" x2="105.22" y2="114.21"/><line class="cls-5" x1="197.41" y1="0.08" x2="108.4" y2="114.21"/><line class="cls-5" x1="200.59" y1="0.08" x2="111.59" y2="114.21"/><line class="cls-5" x1="203.78" y1="0.08" x2="114.77" y2="114.21"/><line class="cls-5" x1="206.96" y1="0.08" x2="117.96" y2="114.21"/><line class="cls-5" x1="210.15" y1="0.08" x2="121.14" y2="114.21"/><line class="cls-5" x1="213.33" y1="0.08" x2="124.33" y2="114.21"/><line class="cls-5" x1="216.52" y1="0.08" x2="127.51" y2="114.21"/><line class="cls-5" x1="219.7" y1="0.08" x2="130.7" y2="114.21"/></g></g><path class="cls-6" d="M18,30.26V23.35h-.49l-.35-1.59h.35a.46.46,0,0,0,.47-.35L18.4,20h-.93l-.35-1.6h.41a.45.45,0,0,0,.47-.36l.47-1.78h2l-.78,2.84a1.45,1.45,0,0,1-.51.67h1.29l-.78,2.68a1.44,1.44,0,0,1-.35.54h.78v7.25Zm12.29-.12a1.41,1.41,0,0,1-1.47-1.09l-.22-.75-.21.93a1.42,1.42,0,0,1-1.52.91H26.2l-.29-1.43v.06a1.25,1.25,0,0,1-1.42,1.4H23.7l-.31-1.31h.22c.24,0,.35-.11.35-.36v-.66h-1v2.42H21v-8h4.94v6.15h.29a.46.46,0,0,0,.5-.35l.84-3.61-1.07-3.93h1.88l.08.25.42-1.8h-.57V19c-.15.64-.65,1-1.52,1H26.2l-.32-1.38H23.62l-.88,1.54H24c.29,0,.45-.05.45-.19v0l-.23-.63h1.41l.3,1.19c0,.05,0,.09,0,.15,0,.62-.48.93-1.47.93H20.92V19.82l.82-1.18H20.62V17.17h1.71v-.89h2.11v.89H26v1.37h.31c.17,0,.26-.11.32-.31l.53-1.95H29l-.27,1h2.5V19h-.33l-1.34,5.54,1.08,3.64c.06.17.21.26.46.26h.19v1.71ZM24,23.53h-1v.94h1Zm0,2.19h-1v.87h1Z" transform="translate(54.87 23.38)"/><path class="cls-6" d="M38.12,18.87v9.87a1.24,1.24,0,0,1-1.4,1.4h-1.1l-.33-1.71h.37a.32.32,0,0,0,.36-.35V17.17h6v-.83h2.12v.83h5.2v1.7Zm.72,11.27V28.43h5.52v1.71Zm8.35,0a1.4,1.4,0,0,1-1.47-1l-1-4.66H41.35v1.12a.31.31,0,0,0,.36.36H44v1.64H40.64a1.24,1.24,0,0,1-1.4-1.39V20h7.35a.31.31,0,0,0,.35-.35v-.27h2v.87a1.24,1.24,0,0,1-1.41,1.4H46.25l.26,1.19h2.86v1.72H46.88l.8,3.52a.51.51,0,0,0,.56.4h1.13v1.71ZM44.07,21.6H41.35v1.19h3Z" transform="translate(54.87 23.38)"/><path class="cls-6" d="M19.37,48.27A1.24,1.24,0,0,1,18,46.87V34.47h2.1v2.2h3.65v1.7H20.06v7.84c0,.23.12.35.37.35h3.46v1.71Zm7.13,0a1.25,1.25,0,0,1-1.42-1.4V34.41H27.2v2.31H31v1.71H27.2v7.78a.32.32,0,0,0,.36.35h3.63v1.71Z" transform="translate(54.87 23.38)"/><path class="cls-6" d="M39.86,47.3v1.09H37.74V47.3H35.4V45.71h2.34v-.89H35.69V37.59h2.05v-.88H35.46V35.12h2.28v-.71h2.12v.71h2.27v1.59H39.86v.88H42v5.82a1.24,1.24,0,0,1-1.4,1.41h-.69v.89h2.27V47.3Zm-2.12-8.23h-.8v1.39h.8Zm0,2.88h-.8v1.39h.8Zm3-2.88h-.84v1.39h.84Zm0,2.88h-.84v1.39h.48A.31.31,0,0,0,40.7,43Zm1.9-1.15-.34-1.72h.57a.44.44,0,0,0,.49-.35l.29-1.27h2L45,39.88a1.41,1.41,0,0,1-1.5.92Zm5.55,7.47a2,2,0,0,1-1.84-1l-.36-.6-.3.54a1.84,1.84,0,0,1-1.73,1.05H42.66l-.34-1.71h.88a.68.68,0,0,0,.62-.4l.93-1.53-2-3.25H45l.85,1.35.84-1.35h2.22l-1.87,3.27,1,1.66a.5.5,0,0,0,.43.25h.84v1.71ZM42.46,37V35.31h2.36v-.9h2.11v.9h2.44V37Zm5.85,3.88a1.35,1.35,0,0,1-1.44-1.14l-.5-2.25h2l.35,1.38a.41.41,0,0,0,.46.3h.19v1.71Z" transform="translate(54.87 23.38)"/></g></g></svg>