<svg xmlns="http://www.w3.org/2000/svg" xmlns:xlink="http://www.w3.org/1999/xlink" viewBox="0 0 223.29 114.29"><defs><style>.cls-1,.cls-6{fill:none;}.cls-2{fill:#fff;}.cls-3{fill:#f4e75e;}.cls-4{opacity:0.7;}.cls-5{clip-path:url(#clip-path);}.cls-6{stroke:#fff;stroke-miterlimit:10;stroke-width:0.27px;}.cls-7{fill:#e45b58;}</style><clipPath id="clip-path" transform="translate(54.87 23.38)"><path class="cls-1" d="M40.44,0c-1.35-.31-6,3.49-7.37,3.49s-6-3.8-7.36-3.49-3.87,5.74-5.12,6.34-7.07-.76-8.15.11-1,6.78-1.87,7.86S3.85,16.71,3.25,18s2.05,6.6,1.74,8-5,5-5,6.41,4.72,5,5,6.39-2.35,6.7-1.75,7.95,6.48,2.53,7.35,3.61.8,7,1.88,7.9,6.89-.57,8.14,0,3.75,6,5.1,6.34,6-3.49,7.37-3.5,6,3.8,7.36,3.49,3.87-5.73,5.12-6.33,7.07.75,8.15-.11,1-6.85,1.87-7.93,6.72-2.32,7.32-3.57-2-6.6-1.74-7.95,5-5,5-6.41-4.72-5-5-6.39,2.35-6.7,1.75-7.94-6.48-2.54-7.35-3.62-.8-7-1.88-7.9-6.89.58-8.14,0S41.79.32,40.44,0Z"/></clipPath></defs><g id="Layer_2" data-name="Layer 2"><g id="layout"><path class="cls-2" d="M81.11,19.76A5.93,5.93,0,0,0,85,20.91c1.85,0,2.88-.93,2.88-2.64s-1.42-2.44-3-2.44a10.37,10.37,0,0,0-5.08,2c.07,1.54.27,3.15.27,4.25A5.56,5.56,0,0,1,79.74,24c-.17.51-.68,1.14-1.29,1.12-.44,0-.66-.27-.81-.71A3.29,3.29,0,0,0,76.79,23a21.37,21.37,0,0,0-1.57-1.54,6.83,6.83,0,0,0-.85,1,.87.87,0,0,1-.73.3A2.22,2.22,0,0,1,72.1,22a1.53,1.53,0,0,1-.64-1.31,2,2,0,0,1,.2-.83c0-.08.1-.15.17-.15s.15.07.24.22a1,1,0,0,0,.69.44c.19,0,.34-.07.75-.32,1.32-.8,2.91-1.78,4.52-2.83,0-1.56,0-3,0-4.3a11.64,11.64,0,0,1-2.49.39c-1,0-2-.58-2.59-2.78l.29-.2a2.57,2.57,0,0,0,2.3,1.05A11.28,11.28,0,0,0,78,10.93c0-.83,0-1.47,0-2.23a3,3,0,0,0-.2-1.29.89.89,0,0,0-.68-.49,3.56,3.56,0,0,0-.93-.12l-.07-.37a2.46,2.46,0,0,1,1.58-.58c1,0,3.08.85,3.08,1.71a1,1,0,0,1-.24.68,2.41,2.41,0,0,0-.44,1,7.88,7.88,0,0,0-.1,1,10.45,10.45,0,0,0,1.51-.78,2.4,2.4,0,0,1,1-.39,1.56,1.56,0,0,1,.93.22.82.82,0,0,1,.44.78,1,1,0,0,1-.61.81c-.88.46-1.88.85-3.45,1.49,0,1,0,2,0,2.9v1a11.27,11.27,0,0,1,5.5-1.49c3,0,5,1.68,5,4.22,0,2.3-1.88,3.74-4.23,3.74A6.4,6.4,0,0,1,80.84,20Zm-5.52,1.3a6.42,6.42,0,0,0,2,.61c.25,0,.44-.08.44-.56V18.86C77.13,19.67,76.18,20.47,75.59,21.06Zm9.06-9.3A4.67,4.67,0,0,1,88.16,10,5.1,5.1,0,0,1,92,11.71a3.14,3.14,0,0,1,.86,1.83c0,1-.56,1.39-1,1.39a1.8,1.8,0,0,1-1.05-.34,1.26,1.26,0,0,0-.71-.22,1.94,1.94,0,0,0-.34,0,11.47,11.47,0,0,0-1.76.42l-.17-.3a12.3,12.3,0,0,0,1.66-1.26.65.65,0,0,0,.24-.44.75.75,0,0,0-.19-.49,3,3,0,0,0-2.47-1.05,4.52,4.52,0,0,0-2.24.75Z" transform="translate(54.87 23.38)"/><path class="cls-2" d="M105.37,5.16a3.8,3.8,0,0,1,1.84-.68,5.59,5.59,0,0,1,2.56,1.07,1,1,0,0,1,.41.81,1.21,1.21,0,0,1-.24.76,2.1,2.1,0,0,0-.34,1c-.07.54-.12,1-.15,1.56l4-.34a3.85,3.85,0,0,0,1.09-.24,2.22,2.22,0,0,1,.71-.2,5.21,5.21,0,0,1,2.44.86,1.14,1.14,0,0,1,.64,1c0,.54-.34.86-1,.86s-1.64-.3-2.54-.42a18.92,18.92,0,0,0-2.44-.15c-1,0-2,.05-3,.15,0,.95,0,2.83,0,4.86a7,7,0,0,1,.47,2.44c0,4.54-3.18,7.15-9.16,8.08l-.1-.41c3.52-1.15,6-3.15,6.72-6.08a2.41,2.41,0,0,1-1.39.39c-1.91,0-2.93-1.17-2.93-3.23a3.08,3.08,0,0,1,2.8-3.07,3,3,0,0,1,1.54.29c0-.46,0-.9,0-1.39s0-1,0-1.66a57.25,57.25,0,0,0-6,1.17,5.7,5.7,0,0,0-1.46.54,1.7,1.7,0,0,1-.93.27,2.29,2.29,0,0,1-1.25-.44,4.67,4.67,0,0,1-1.34-1.32,2.72,2.72,0,0,1-.32-1.27l.3-.15a3,3,0,0,0,1.07.69,3.08,3.08,0,0,0,1,.14,14.1,14.1,0,0,0,1.61-.14l7.4-1c0-1.18,0-2-.05-2.67s0-1-.22-1.26-.73-.44-1.71-.52Zm-1,11.85a1.54,1.54,0,0,0,1.59,1.75,1.68,1.68,0,0,0,1.46-1.83c0-1-.63-1.9-1.46-1.9A1.78,1.78,0,0,0,104.35,17Z" transform="translate(54.87 23.38)"/><path class="cls-2" d="M130.57,5.16a3.8,3.8,0,0,1,1.83-.68A5.59,5.59,0,0,1,135,5.55a1,1,0,0,1,.42.81,1.27,1.27,0,0,1-.24.76,2.12,2.12,0,0,0-.35,1c-.07.54-.12,1-.14,1.56l4-.34a3.92,3.92,0,0,0,1.1-.24,2.22,2.22,0,0,1,.71-.2,5.28,5.28,0,0,1,2.44.86,1.14,1.14,0,0,1,.63,1c0,.54-.34.86-.95.86s-1.63-.3-2.54-.42A18.69,18.69,0,0,0,137.6,11c-1,0-2,.05-3,.15,0,.95,0,2.83.05,4.86a7,7,0,0,1,.46,2.44c0,4.54-3.17,7.15-9.15,8.08l-.1-.41c3.51-1.15,6-3.15,6.71-6.08a2.37,2.37,0,0,1-1.39.39c-1.9,0-2.93-1.17-2.93-3.23a3.08,3.08,0,0,1,2.81-3.07,3,3,0,0,1,1.54.29c0-.46,0-.9,0-1.39s0-1,0-1.66a56.26,56.26,0,0,0-6,1.17,5.79,5.79,0,0,0-1.47.54,1.67,1.67,0,0,1-.93.27,2.26,2.26,0,0,1-1.24-.44,4.42,4.42,0,0,1-1.34-1.32,2.72,2.72,0,0,1-.32-1.27l.29-.15a3,3,0,0,0,1.08.69,3.08,3.08,0,0,0,1,.14,14.1,14.1,0,0,0,1.61-.14l7.4-1c0-1.18,0-2,0-2.67s0-1-.22-1.26-.73-.44-1.71-.52Zm-1,11.85a1.55,1.55,0,0,0,1.59,1.75,1.68,1.68,0,0,0,1.47-1.83,1.71,1.71,0,0,0-1.47-1.9A1.78,1.78,0,0,0,129.54,17Z" transform="translate(54.87 23.38)"/><path class="cls-2" d="M149,7.58c2.05.81,2.57,1.83,2.86,2.74.19.63.34,1.41.49,2.17a16.66,16.66,0,0,1,5-1.78c.49-1,.78-1.66,1.13-2.57a2.43,2.43,0,0,0,.09-.56c0-.15-.17-.29-.46-.39a2.14,2.14,0,0,0-.73-.1c-.15,0-.35,0-.54,0l-.1-.42a3.12,3.12,0,0,1,2-.71,5.23,5.23,0,0,1,2.25.74,1.12,1.12,0,0,1,.65.88,1,1,0,0,1-.31.7,4.56,4.56,0,0,0-.59.69c-.39.61-.66,1-1.07,1.58a3.18,3.18,0,0,1,.41,0c4.57,0,7,3.08,7,6,0,5.45-5.78,7.55-11.18,8.13l-.07-.41c4.69-1.59,8.52-4.13,8.52-8.16a4.31,4.31,0,0,0-4.54-4.54,3.4,3.4,0,0,0-.61,0,75,75,0,0,1-4.32,6.51c.32.35.61.59.95.91a1.16,1.16,0,0,1,.44,1,1,1,0,0,1-1,1,2.57,2.57,0,0,1-1.88-1c-1.29,1.37-2.69,2.51-4.22,2.49-1.2,0-2.13-1-2.13-2.59,0-2.05,1.27-4.35,3.81-6.45-.22-1.19-.32-1.7-.51-2.7a4.35,4.35,0,0,0-1.49-2.84Zm2,7.23a6.28,6.28,0,0,0-2.27,4.34c0,.66.27,1.15.76,1.15.65,0,1.63-.54,2.83-1.83A16.45,16.45,0,0,1,151,14.81Zm1.59-1.22a13.57,13.57,0,0,0,1.14,3.24,32,32,0,0,0,3.08-5A12.88,12.88,0,0,0,152.62,13.59Z" transform="translate(54.87 23.38)"/><path class="cls-2" d="M86.42,38.93A30.72,30.72,0,0,0,87.54,35c2.91,1.07,3.1,1.29,3.1,1.58s-.27.52-1.1.64a17.78,17.78,0,0,1-1.9,1.71h1.93a21.43,21.43,0,0,1,1.51-1.83c2.39,1.95,2.56,2.22,2.56,2.49s-.12.56-.39.56H85.88c1.54.51,1.66.68,1.66.93s-.27.51-1.05.58A13.73,13.73,0,0,1,85.05,43h3.27c.46-.58.93-1.15,1.49-1.76,2.27,2,2.39,2.23,2.39,2.47s-.12.51-.36.51H84a.54.54,0,0,1-.37.3V46h3.25c.47-.58.91-1,1.47-1.66,2.19,1.86,2.39,2.08,2.39,2.37s-.1.47-.29.51c2.29,2,2.44,2.15,2.44,2.42s-.12.51-.37.51H84.2c2.36,1.81,5.32,2.84,9.54,3.4l-.07.36a3.46,3.46,0,0,0-2,1.71c-.22.42-.31.56-.53.56a1.22,1.22,0,0,1-.44-.09,12.23,12.23,0,0,1-7.13-5.54c0,3.78.1,5.1.1,5.66s-1,1-2.15,1c-.47,0-.66-.17-.66-.54S81,55,81,52a22.89,22.89,0,0,1-9.74,4.34L71.13,56a24.2,24.2,0,0,0,8.28-5.91H74.55l-2.44.13V48.79l2.44.12H81V47.2H76.55l-2.44.13V45.86l2.44.12H81V44.2H75.33l-2.44.12V42.86l2.44.12h3.42a1.58,1.58,0,0,1-.24-.54,3.57,3.57,0,0,0-1.2-2.24l0-.05H73.89l-2.44.12V38.81l2.44.12h2.18a1.2,1.2,0,0,1-.59-.81,4.42,4.42,0,0,0-1.37-2.49l.2-.31c2.59.26,3.73,1.22,3.73,2.36a1.28,1.28,0,0,1-.78,1.25H79V37.46c0-1.14,0-2-.07-2.93,3.17.27,3.32.44,3.32.74s-.17.44-.85.7v3h1.68V37.54c0-1.15,0-2-.07-2.93,3.12.27,3.32.44,3.32.73s-.17.44-.86.71v2.88Zm-2.74,4a28.26,28.26,0,0,0,.78-2.83H79c1.35.41,2,1.12,2,1.93a1.33,1.33,0,0,1-.32.9Zm-.1,5.93h5.18c.44-.56.86-1.07,1.44-1.71H83.58Z" transform="translate(54.87 23.38)"/><path class="cls-2" d="M108.24,38.12c.47-.58.86-1,1.44-1.66a20.27,20.27,0,0,1,2.1,1.88A32.29,32.29,0,0,0,114,35.29c2.81,1.25,3,1.44,3,1.83s-.22.47-1.24.54a38.17,38.17,0,0,1-4.25,4.49h3c.56-.71,1-1.22,1.66-2,2.52,1.9,2.79,2.34,2.79,2.61s-.15.61-.39.61h-8.48a42.74,42.74,0,0,1-4,2.93h6.35c.49-.95.71-1.07,1-1.07s.63.1,1.59.83,1,1,1,1.19-.22.59-.9.88v1.2c0,3.83.14,5.3.14,6,0,.9-.7,1.37-2.12,1.37-.49,0-.76-.17-.76-.59v-.66h-7.47v.68c0,.54-.73,1-2,1-.54,0-.86-.19-.86-.61,0-.63.1-2,.1-8v-.07A42.13,42.13,0,0,1,96.28,51l-.15-.34a44.68,44.68,0,0,0,6-3.54c0-.68,0-1.19-.07-1.73.73.19,1.32.37,1.78.51,1-.8,2.08-1.61,3-2.49H98.79l-2.44.12V42l2.44.12h6.3V39.34h-4.54l-2.44.13V38l2.44.12h4.54v-.71c0-1.14,0-2.09-.12-3,3.25.29,3.76.48,3.76.83s-.27.51-1,.8v2ZM105,47.52l-.08.08v2.46h7.47V47.52Zm-.08,3.76v3h7.47v-3Zm2.81-11.94v2.81h.51c.93-.9,1.86-1.83,2.71-2.81Z" transform="translate(54.87 23.38)"/><path class="cls-2" d="M144.23,54.21A3.1,3.1,0,0,0,143,55.87c-.2.64-.27.71-.9.76-1.59.12-3.45.17-6.43.17-6.12,0-8.05-.71-9.76-3.71a23.51,23.51,0,0,1-2.61,3c-.1.59-.27.88-.57.88s-.56-.39-1.7-2.83a30.13,30.13,0,0,0,3-1.27V47.06h-.75l-2,.12V45.72l2,.12H124c.46-1,.73-1.17,1-1.17s.56,0,1.49.78,1,1,1,1.22-.17.51-.88.85v5.23c1.56,1.32,3.81,1.63,9,1.63a68.31,68.31,0,0,0,8.67-.53ZM122.48,35.63c2.54.32,3.93,1.39,3.93,2.74A1.35,1.35,0,0,1,125,39.88a1.18,1.18,0,0,1-1.17-1A4.53,4.53,0,0,0,122.33,36Zm7.34,3.81,0,.05V41c0,.44.17.54,1.44.54,1.58,0,1.88-.14,2.17-.54a7.5,7.5,0,0,0,.63-1.19l.37.07v1.1c0,.32.68.42.68,1,0,.83-.83,1.34-4.12,1.34-3,0-3.37-.39-3.37-1.41,0-.47,0-1.47,0-2.64,0-.68,0-1.07,0-1.66a21.13,21.13,0,0,1,2.15.66H132V36.54h-2.63l-2.2.12V35.19l2.2.13H132c.34-.71.51-.83.76-.83s.51.07,1.29.68.88.76.88,1-.22.49-.78.71v.51c0,.59.07,1.25.07,1.66s-.58.83-1.63.83c-.37,0-.56-.12-.59-.44ZM129.51,50l-2.2.12V48.65l2.2.12h1.85V46.72h-.9l-2.2.12V45.37l2.2.13h.9c0-.74,0-1.3-.05-2,2.81.25,3,.42,3,.64s-.15.41-.71.61v.71h2.76c0-.74,0-1.3-.05-2,2.81.25,3,.42,3,.64s-.17.41-.74.61v.71h.69c.46-.59.8-1,1.36-1.59,2.06,1.73,2.25,2,2.25,2.29s-.12.52-.37.52h-3.93v2.05H140c.47-.59,1-1.1,1.51-1.71,2.15,1.88,2.37,2.12,2.37,2.42s-.12.51-.36.51H132.56c2.1,1.15,2.44,1.37,2.44,1.68s-.29.47-1.05.47h-.15a18.72,18.72,0,0,1-5.54,1.46l-.12-.32A14.55,14.55,0,0,0,132.49,50Zm4.1-1.22h2.76V46.72h-2.76Zm4.49-9.33,0,.05V41c0,.44.34.54,1.93.54s1.81-.14,2.1-.54a6.13,6.13,0,0,0,.68-1.46l.37.07c0,.56,0,1,0,1.37s.69.42.69,1-.54,1.34-3.89,1.34c-3.59,0-4-.39-4-1.41,0-.47,0-1.27,0-2.64,0-.68,0-1,0-1.61.95.27,1.58.46,2,.61h2.44V36.54h-2.64l-2.2.12V35.19l2.2.13h2.64c.34-.71.51-.83.76-.83s.51.07,1.29.68.88.76.88,1-.22.49-.78.71v.51c0,.83.05,1.37.05,1.71s-.57.78-1.62.78c-.36,0-.56-.12-.58-.44ZM136,50a11,11,0,0,1,4.63.88c1,.49,1.54,1,1.54,1.71a1.12,1.12,0,0,1-1.14,1.22,1.57,1.57,0,0,1-1.37-.68,8.3,8.3,0,0,0-3.76-2.81Z" transform="translate(54.87 23.38)"/><path class="cls-2" d="M160.88,42c.07,1.27.1,2.39.1,3.42,0,3.88-.52,6-1.69,7.93a6.27,6.27,0,0,1-5.54,2.88c-3.12,0-5.32-2.27-5.32-6.12,0-2.59.83-5.4,2.85-9.09a6.09,6.09,0,0,1-1.22.1c-1,0-2.07-.66-2.58-2.32l.31-.19a2.26,2.26,0,0,0,1.81.8,6.44,6.44,0,0,0,2.64-.68,3.24,3.24,0,0,0,.95-.66,1.49,1.49,0,0,1,1.07-.34c1.13,0,2,.51,2,1.19s-.37.81-.83,1a4.53,4.53,0,0,0-1.71,1.29c-2.52,2.93-3.84,5.76-3.84,8.52s1.42,4.15,3.67,4.15A5,5,0,0,0,158.17,51c1.22-2.19,2-5,2-9.47a6.66,6.66,0,0,0-.27-2,3.39,3.39,0,0,1-.19-1.1c0-.27.27-.54.8-.54s1.37.27,1.42,1.1a7.16,7.16,0,0,0,.24,1.56,10.15,10.15,0,0,0,3.74,4.89,4.52,4.52,0,0,1,1.29,1.24,2.56,2.56,0,0,1,.49,1.61.9.9,0,0,1-.95,1,2.28,2.28,0,0,1-1.34-.61c-.66-.51-1.35-.9-3.54-.92l0-.32a13,13,0,0,0,1.91-.76A17,17,0,0,1,161,42Zm1.2-5.93a6.82,6.82,0,0,1,3.07,1,2,2,0,0,1,.86,1.49,1,1,0,0,1-1,1.08c-.49,0-.79-.35-1.13-1a6,6,0,0,0-1.95-2.22Zm2.32-1.78a6.39,6.39,0,0,1,3,.85,1.87,1.87,0,0,1,1,1.61.94.94,0,0,1-1,1c-.34,0-.66-.15-1-.88a5.22,5.22,0,0,0-2.13-2.22Z" transform="translate(54.87 23.38)"/><path class="cls-3" d="M40.44,0c-1.35-.31-6,3.49-7.37,3.49s-6-3.8-7.36-3.49-3.87,5.74-5.12,6.34-7.07-.76-8.15.11-1,6.78-1.87,7.86S3.85,16.71,3.25,18s2.05,6.6,1.74,8-5,5-5,6.41,4.72,5,5,6.39-2.35,6.7-1.75,7.95,6.48,2.53,7.35,3.61.8,7,1.88,7.9,6.89-.57,8.14,0,3.75,6,5.1,6.34,6-3.49,7.37-3.5,6,3.8,7.36,3.49,3.87-5.73,5.12-6.33,7.07.75,8.15-.11,1-6.85,1.87-7.93,6.72-2.32,7.32-3.57-2-6.6-1.74-7.95,5-5,5-6.41-4.72-5-5-6.39,2.35-6.7,1.75-7.94-6.48-2.54-7.35-3.62-.8-7-1.88-7.9-6.89.58-8.14,0S41.79.32,40.44,0Z" transform="translate(54.87 23.38)"/><g class="cls-4"><g class="cls-5"><line class="cls-6" x1="89.11" y1="0.08" x2="0.11" y2="114.21"/><line class="cls-6" x1="92.29" y1="0.08" x2="3.29" y2="114.21"/><line class="cls-6" x1="95.48" y1="0.08" x2="6.48" y2="114.21"/><line class="cls-6" x1="98.66" y1="0.08" x2="9.66" y2="114.21"/><line class="cls-6" x1="101.85" y1="0.08" x2="12.85" y2="114.21"/><line class="cls-6" x1="105.03" y1="0.08" x2="16.03" y2="114.21"/><line class="cls-6" x1="108.22" y1="0.08" x2="19.22" y2="114.21"/><line class="cls-6" x1="111.4" y1="0.08" x2="22.4" y2="114.21"/><line class="cls-6" x1="114.59" y1="0.08" x2="25.59" y2="114.21"/><line class="cls-6" x1="117.78" y1="0.08" x2="28.77" y2="114.21"/><line class="cls-6" x1="120.96" y1="0.08" x2="31.96" y2="114.21"/><line class="cls-6" x1="124.15" y1="0.08" x2="35.14" y2="114.21"/><line class="cls-6" x1="127.33" y1="0.08" x2="38.33" y2="114.21"/><line class="cls-6" x1="130.52" y1="0.08" x2="41.51" y2="114.21"/><line class="cls-6" x1="133.7" y1="0.08" x2="44.7" y2="114.21"/><line class="cls-6" x1="136.89" y1="0.08" x2="47.88" y2="114.21"/><line class="cls-6" x1="140.07" y1="0.08" x2="51.07" y2="114.21"/><line class="cls-6" x1="143.26" y1="0.08" x2="54.25" y2="114.21"/><line class="cls-6" x1="146.44" y1="0.08" x2="57.44" y2="114.21"/><line class="cls-6" x1="149.63" y1="0.08" x2="60.62" y2="114.21"/><line class="cls-6" x1="152.81" y1="0.08" x2="63.81" y2="114.21"/><line class="cls-6" x1="156" y1="0.08" x2="67" y2="114.21"/><line class="cls-6" x1="159.18" y1="0.08" x2="70.18" y2="114.21"/><line class="cls-6" x1="162.37" y1="0.08" x2="73.37" y2="114.21"/><line class="cls-6" x1="165.55" y1="0.08" x2="76.55" y2="114.21"/><line class="cls-6" x1="168.74" y1="0.08" x2="79.74" y2="114.21"/><line class="cls-6" x1="171.92" y1="0.08" x2="82.92" y2="114.21"/><line class="cls-6" x1="175.11" y1="0.08" x2="86.11" y2="114.21"/><line class="cls-6" x1="178.29" y1="0.08" x2="89.29" y2="114.21"/><line class="cls-6" x1="181.48" y1="0.08" x2="92.48" y2="114.21"/><line class="cls-6" x1="184.67" y1="0.08" x2="95.66" y2="114.21"/><line class="cls-6" x1="187.85" y1="0.08" x2="98.85" y2="114.21"/><line class="cls-6" x1="191.04" y1="0.08" x2="102.03" y2="114.21"/><line class="cls-6" x1="194.22" y1="0.08" x2="105.22" y2="114.21"/><line class="cls-6" x1="197.41" y1="0.08" x2="108.4" y2="114.21"/><line class="cls-6" x1="200.59" y1="0.08" x2="111.59" y2="114.21"/><line class="cls-6" x1="203.78" y1="0.08" x2="114.77" y2="114.21"/><line class="cls-6" x1="206.96" y1="0.08" x2="117.96" y2="114.21"/><line class="cls-6" x1="210.15" y1="0.08" x2="121.14" y2="114.21"/><line class="cls-6" x1="213.33" y1="0.08" x2="124.33" y2="114.21"/><line class="cls-6" x1="216.52" y1="0.08" x2="127.51" y2="114.21"/><line class="cls-6" x1="219.7" y1="0.08" x2="130.7" y2="114.21"/></g></g><path class="cls-7" d="M18,30.26V23.35h-.49l-.35-1.59h.35a.46.46,0,0,0,.47-.35L18.4,20h-.93l-.35-1.6h.41a.45.45,0,0,0,.47-.36l.47-1.78h2l-.78,2.84a1.45,1.45,0,0,1-.51.67h1.29l-.78,2.68a1.44,1.44,0,0,1-.35.54h.78v7.25Zm12.29-.12a1.41,1.41,0,0,1-1.47-1.09l-.22-.75-.21.93a1.42,1.42,0,0,1-1.52.91H26.2l-.29-1.43v.06a1.25,1.25,0,0,1-1.42,1.4H23.7l-.31-1.31h.22c.24,0,.35-.11.35-.36v-.66h-1v2.42H21v-8h4.94v6.15h.29a.46.46,0,0,0,.5-.35l.84-3.61-1.07-3.93h1.88l.08.25.42-1.8h-.57V19c-.15.64-.65,1-1.52,1H26.2l-.32-1.38H23.62l-.88,1.54H24c.29,0,.45-.05.45-.19v0l-.23-.63h1.41l.3,1.19c0,.05,0,.09,0,.15,0,.62-.48.93-1.47.93H20.92V19.82l.82-1.18H20.62V17.17h1.71v-.89h2.11v.89H26v1.37h.31c.17,0,.26-.11.32-.31l.53-1.95H29l-.27,1h2.5V19h-.33l-1.34,5.54,1.08,3.64c.06.17.21.26.46.26h.19v1.71ZM24,23.53h-1v.94h1Zm0,2.19h-1v.87h1Z" transform="translate(54.87 23.38)"/><path class="cls-7" d="M38.12,18.87v9.87a1.24,1.24,0,0,1-1.4,1.4h-1.1l-.33-1.71h.37a.32.32,0,0,0,.36-.35V17.17h6v-.83h2.12v.83h5.2v1.7Zm.72,11.27V28.43h5.52v1.71Zm8.35,0a1.4,1.4,0,0,1-1.47-1l-1-4.66H41.35v1.12a.31.31,0,0,0,.36.36H44v1.64H40.64a1.24,1.24,0,0,1-1.4-1.39V20h7.35a.31.31,0,0,0,.35-.35v-.27h2v.87a1.24,1.24,0,0,1-1.41,1.4H46.25l.26,1.19h2.86v1.72H46.88l.8,3.52a.51.51,0,0,0,.56.4h1.13v1.71ZM44.07,21.6H41.35v1.19h3Z" transform="translate(54.87 23.38)"/><path class="cls-7" d="M19.37,48.27A1.24,1.24,0,0,1,18,46.87V34.47h2.1v2.2h3.65v1.7H20.06v7.84c0,.23.12.35.37.35h3.46v1.71Zm7.13,0a1.25,1.25,0,0,1-1.42-1.4V34.41H27.2v2.31H31v1.71H27.2v7.78a.32.32,0,0,0,.36.35h3.63v1.71Z" transform="translate(54.87 23.38)"/><path class="cls-7" d="M39.86,47.3v1.09H37.74V47.3H35.4V45.71h2.34v-.89H35.69V37.59h2.05v-.88H35.46V35.12h2.28v-.71h2.12v.71h2.27v1.59H39.86v.88H42v5.82a1.24,1.24,0,0,1-1.4,1.41h-.69v.89h2.27V47.3Zm-2.12-8.23h-.8v1.39h.8Zm0,2.88h-.8v1.39h.8Zm3-2.88h-.84v1.39h.84Zm0,2.88h-.84v1.39h.48A.31.31,0,0,0,40.7,43Zm1.9-1.15-.34-1.72h.57a.44.44,0,0,0,.49-.35l.29-1.27h2L45,39.88a1.41,1.41,0,0,1-1.5.92Zm5.55,7.47a2,2,0,0,1-1.84-1l-.36-.6-.3.54a1.84,1.84,0,0,1-1.73,1.05H42.66l-.34-1.71h.88a.68.68,0,0,0,.62-.4l.93-1.53-2-3.25H45l.85,1.35.84-1.35h2.22l-1.87,3.27,1,1.66a.5.5,0,0,0,.43.25h.84v1.71ZM42.46,37V35.31h2.36v-.9h2.11v.9h2.44V37Zm5.85,3.88a1.35,1.35,0,0,1-1.44-1.14l-.5-2.25h2l.35,1.38a.41.41,0,0,0,.46.3h.19v1.71Z" transform="translate(54.87 23.38)"/></g></g></svg>