<svg xmlns="http://www.w3.org/2000/svg" xmlns:xlink="http://www.w3.org/1999/xlink" viewBox="0 0 108.33 125.24"><defs><style>.cls-1,.cls-5{fill:none;}.cls-2{fill:#3e3428;stroke:#3e3428;}.cls-2,.cls-5{stroke-miterlimit:10;stroke-width:0.61px;}.cls-3{opacity:0.15;}.cls-4{clip-path:url(#clip-path);}.cls-5{stroke:#fff;}.cls-6{fill:#fff;}</style><clipPath id="clip-path" transform="translate(32.51 29.29)"><rect class="cls-1" x="2.12" y="2.12" width="34.38" height="34.38" transform="translate(38.61) rotate(90)"/></clipPath></defs><g id="Layer_2" data-name="Layer 2"><g id="layout"><rect class="cls-2" x="32.81" y="29.59" width="38" height="38"/><g class="cls-3"><g class="cls-4"><line class="cls-5" x1="60.59" y1="0.19" x2="0.24" y2="77.55"/><line class="cls-5" x1="62.85" y1="2.45" x2="2.5" y2="79.81"/><line class="cls-5" x1="65.11" y1="4.71" x2="4.77" y2="82.07"/><line class="cls-5" x1="67.38" y1="6.97" x2="7.03" y2="84.33"/><line class="cls-5" x1="69.64" y1="9.24" x2="9.29" y2="86.59"/><line class="cls-5" x1="71.9" y1="11.5" x2="11.55" y2="88.86"/><line class="cls-5" x1="74.16" y1="13.76" x2="13.81" y2="91.12"/><line class="cls-5" x1="76.42" y1="16.02" x2="16.08" y2="93.38"/><line class="cls-5" x1="78.68" y1="18.28" x2="18.34" y2="95.64"/><line class="cls-5" x1="80.95" y1="20.55" x2="20.6" y2="97.9"/><line class="cls-5" x1="83.21" y1="22.81" x2="22.86" y2="100.17"/><line class="cls-5" x1="85.47" y1="25.07" x2="25.12" y2="102.43"/><line class="cls-5" x1="87.73" y1="27.33" x2="27.39" y2="104.69"/><line class="cls-5" x1="89.99" y1="29.59" x2="29.65" y2="106.95"/><line class="cls-5" x1="92.26" y1="31.86" x2="31.91" y2="109.21"/><line class="cls-5" x1="94.52" y1="34.12" x2="34.17" y2="111.47"/><line class="cls-5" x1="96.78" y1="36.38" x2="36.43" y2="113.74"/><line class="cls-5" x1="99.04" y1="38.64" x2="38.69" y2="116"/><line class="cls-5" x1="101.3" y1="40.9" x2="40.96" y2="118.26"/><line class="cls-5" x1="103.57" y1="43.17" x2="43.22" y2="120.52"/><line class="cls-5" x1="105.83" y1="45.43" x2="45.48" y2="122.78"/><line class="cls-5" x1="108.09" y1="47.69" x2="47.74" y2="125.05"/></g></g><path class="cls-6" d="M15.69,11.26V14a.36.36,0,0,0,.15.3L22,19a.39.39,0,0,1,0,.61l-6.17,4.72a.37.37,0,0,0-.15.31v2.72a.38.38,0,0,0,.62.3l10.52-8a.37.37,0,0,0,0-.61L16.31,11A.39.39,0,0,0,15.69,11.26Z" transform="translate(32.51 29.29)"/></g></g></svg>