<svg xmlns="http://www.w3.org/2000/svg" viewBox="0 0 60.77 54.27"><defs><style>.cls-1{fill:#00abbf;}</style></defs><g id="Layer_2" data-name="Layer 2"><g id="layout"><path class="cls-1" d="M52.91,0h-45L2.68,15.78H58.09ZM14.6,13.37a.94.94,0,0,1-.91.75l-.18,0A.92.92,0,0,1,12.78,13L14.86,2.42a.93.93,0,0,1,1.83.36Zm11.15-.12a.93.93,0,0,1-.93.87h-.06a.93.93,0,0,1-.87-1l.7-10.58a.94.94,0,0,1,1-.87.92.92,0,0,1,.86,1ZM36,14.11H36a.93.93,0,0,1-.92-.87l-.7-10.59a.93.93,0,0,1,.87-1,.94.94,0,0,1,1,.87l.69,10.58A.92.92,0,0,1,36,14.11Zm11.26,0-.18,0a.94.94,0,0,1-.92-.75L44.09,2.78a.93.93,0,1,1,1.82-.36L48,13A.93.93,0,0,1,47.27,14.1Z"/><path class="cls-1" d="M6.27,25.48a4,4,0,0,0,.77.1,4.34,4.34,0,0,0,1.09-.09,4.84,4.84,0,0,0,3.92-4.42.92.92,0,0,1,.95-.88,1,1,0,0,1,.93.89,4.87,4.87,0,0,0,9.72,0,.94.94,0,0,1,1.88,0,4.87,4.87,0,0,0,9.71,0,.95.95,0,0,1,1.89,0,4.6,4.6,0,0,0,.34,1.43,5.58,5.58,0,0,0,.47.91,5,5,0,0,0,.75.89A4.8,4.8,0,0,0,45.58,24a5,5,0,0,0,.69-1,4.91,4.91,0,0,0,.57-1.91,1,1,0,0,1,.93-.89,1,1,0,0,1,.95.87,6.08,6.08,0,0,0,.15.87,5.61,5.61,0,0,0,.34.92,4.76,4.76,0,0,0,.58.9,4.86,4.86,0,0,0,2.86,1.74,5.64,5.64,0,0,0,.93.08h.15a4,4,0,0,0,.78-.1,5.09,5.09,0,0,0,3.94-5V17.64H2.32v2.83A5.1,5.1,0,0,0,6.27,25.48Z"/><path class="cls-1" d="M59.38,51.48H54.51V27.38a5.83,5.83,0,0,1-.72.06h-.21a7.26,7.26,0,0,1-.93-.06,6.71,6.71,0,0,1-4.87-3.24,6.69,6.69,0,0,1-10.66,1.21,6.39,6.39,0,0,1-.93-1.21h0a7.34,7.34,0,0,1-.93,1.21V51.48H8.59V27.28a6.25,6.25,0,0,1-2.79,0V51.48H1.39a1.4,1.4,0,0,0,0,2.79h58a1.4,1.4,0,0,0,0-2.79ZM40.31,37.77a1.73,1.73,0,0,1,.21-.17,1.41,1.41,0,0,1,.24-.13,1.38,1.38,0,0,1,.27-.08,1.63,1.63,0,0,1,.54,0,1.12,1.12,0,0,1,.26.08,1.19,1.19,0,0,1,.25.13l.21.17a1.41,1.41,0,0,1,.41,1,1.36,1.36,0,0,1-.11.53,1.52,1.52,0,0,1-.3.46,1.4,1.4,0,0,1-1,.4,1.27,1.27,0,0,1-.54-.11,1.38,1.38,0,0,1-.45-.29,1.4,1.4,0,0,1-.4-1A1.44,1.44,0,0,1,40.31,37.77Z"/><path class="cls-1" d="M14.73,45.93a.93.93,0,0,0,1.31,0l13-13a.93.93,0,1,0-1.32-1.32l-13,13A.91.91,0,0,0,14.73,45.93Z"/><path class="cls-1" d="M15.39,40.07a.9.9,0,0,0,.65-.28l6.9-6.89a.94.94,0,0,0,0-1.32.93.93,0,0,0-1.31,0l-6.9,6.9a.91.91,0,0,0,0,1.31A.9.9,0,0,0,15.39,40.07Z"/></g></g></svg>