<svg xmlns="http://www.w3.org/2000/svg" viewBox="0 0 72.62 63.66"><defs><style>.cls-1{fill:#53afcb;}</style></defs><g id="Layer_2" data-name="Layer 2"><g id="layout"><path class="cls-1" d="M31.81,51.32A6.17,6.17,0,1,0,38,57.49,6.17,6.17,0,0,0,31.81,51.32Zm0,9.11a2.94,2.94,0,1,1,2.94-2.94A2.94,2.94,0,0,1,31.81,60.43Z"/><path class="cls-1" d="M59.94,51.32a6.17,6.17,0,1,0,6.16,6.17A6.18,6.18,0,0,0,59.94,51.32Zm0,9.11a2.94,2.94,0,1,1,2.94-2.94A2.94,2.94,0,0,1,59.94,60.43Z"/><path class="cls-1" d="M65.63,36.8l6.86-22.94a3.16,3.16,0,0,0-.5-2.79A3.11,3.11,0,0,0,69.46,9.8H19.9L18.32,4.53A6.37,6.37,0,0,0,12.24,0H1.61a1.61,1.61,0,0,0,0,3.22H12.24a3.14,3.14,0,0,1,3,2.23L27.62,46.89a3.73,3.73,0,0,0,3.55,2.65H65a1.62,1.62,0,0,0,0-3.23H31.17a.48.48,0,0,1-.46-.34l-1.86-6.23H61.68A4.09,4.09,0,0,0,65.63,36.8Zm-6-20.65L57,33.86a1.6,1.6,0,0,1-1.59,1.37h-.24a1.62,1.62,0,0,1-1.36-1.84l2.65-17.7a1.61,1.61,0,1,1,3.19.47ZM47,15.92v17.7a1.61,1.61,0,0,1-3.22,0V15.92a1.61,1.61,0,1,1,3.22,0Zm-11.4,19.3h-.24a1.61,1.61,0,0,1-1.6-1.37L31.13,16.15a1.61,1.61,0,0,1,3.19-.47L37,33.38A1.62,1.62,0,0,1,35.61,35.22Z"/></g></g></svg>