<svg xmlns="http://www.w3.org/2000/svg" viewBox="0 0 85.54 42.64"><defs><style>.cls-1{fill:#42b28b;}</style></defs><g id="Layer_2" data-name="Layer 2"><g id="layout"><path class="cls-1" d="M82.92,16.32,76.66,8.64a4.84,4.84,0,0,0-3.77-1.79H61.58v28.9h4.36a7.62,7.62,0,0,1,15.17,0H84a1.54,1.54,0,0,0,1.54-1.54V23.68A11.68,11.68,0,0,0,82.92,16.32Zm-4.13,4.27H66.63a.8.8,0,0,1-.8-.8V11.93a.8.8,0,0,1,.8-.8h6a2.41,2.41,0,0,1,1.87.88l5.26,6.46A1.3,1.3,0,0,1,78.79,20.59Z"/><path class="cls-1" d="M57.72,0h-56a1.75,1.75,0,0,0,0,3.5H26a1.47,1.47,0,0,1,0,2.94H6.9a1.75,1.75,0,0,0,0,3.5H28a1.48,1.48,0,0,1,0,3H12.1a1.75,1.75,0,1,0,0,3.49H29.89a1.48,1.48,0,1,1,0,2.95H17.28a1.75,1.75,0,0,0,0,3.5h5V34.21a1.47,1.47,0,0,0,1.47,1.47h3.09a7.62,7.62,0,0,1,15.16,0H60V2.24A2.24,2.24,0,0,0,57.72,0Z"/><path class="cls-1" d="M34.4,30.34a6.15,6.15,0,0,0-6.09,5.34,5.32,5.32,0,0,0-.06.81h0a5.52,5.52,0,0,0,.06.81,6.14,6.14,0,0,0,12.18,0,5.52,5.52,0,0,0,.06-.81h0a5.32,5.32,0,0,0-.06-.81A6.15,6.15,0,0,0,34.4,30.34Zm2.51,6.15a2.52,2.52,0,0,1-.15.81,2.34,2.34,0,0,1-.59,1,2.49,2.49,0,0,1-3.54,0,1.91,1.91,0,0,1-.31-.38,2.34,2.34,0,0,1-.24-.44.57.57,0,0,1,0-.14,2.33,2.33,0,0,1-.1-.32,2.72,2.72,0,0,1-.05-.49h0a2.54,2.54,0,0,1,.05-.49,1.7,1.7,0,0,1,.1-.32.83.83,0,0,1,0-.15,2.7,2.7,0,0,1,.24-.44,2.24,2.24,0,0,1,.31-.38,2.58,2.58,0,0,1,3.54,0,2.38,2.38,0,0,1,.59,1,2.47,2.47,0,0,1,.15.81Z"/><path class="cls-1" d="M73.52,30.34a6.16,6.16,0,0,0-6.1,5.41,6,6,0,0,0,0,.74h0a5.84,5.84,0,0,0,0,.73,6.15,6.15,0,0,0,12.21,0,5.84,5.84,0,0,0,.05-.73h0a6,6,0,0,0-.05-.74A6.16,6.16,0,0,0,73.52,30.34ZM76,36.49a2.59,2.59,0,0,1-.12.73,2.49,2.49,0,0,1-.61,1,2.54,2.54,0,0,1-1.78.74A2.61,2.61,0,0,1,73,39a2.54,2.54,0,0,1-.47-.14,2.7,2.7,0,0,1-.44-.24,1.91,1.91,0,0,1-.38-.31,2.49,2.49,0,0,1-.61-1,2.29,2.29,0,0,1-.13-.73h0a2.35,2.35,0,0,1,.13-.74,2.49,2.49,0,0,1,.61-1,2.33,2.33,0,0,1,.38-.31,2.64,2.64,0,0,1,.44-.23A3.68,3.68,0,0,1,73,34a2.55,2.55,0,0,1,2.26.69,2.49,2.49,0,0,1,.61,1,2.66,2.66,0,0,1,.12.74Z"/></g></g></svg>