<svg xmlns="http://www.w3.org/2000/svg" viewBox="0 0 19.9 27.47"><defs><style>.cls-1{fill:#00abbf;}</style></defs><g id="Layer_2" data-name="Layer 2"><g id="layout"><g id="g19947"><path id="path13116" class="cls-1" d="M3.82,14.51,0,21.43l4.46.12,2,4.3,2.79-5-.95-3.56a1.81,1.81,0,0,1-1.12.06c-.91-.31-1.25-1.77-2-2.34a4.06,4.06,0,0,0-1.38-.54Zm12.66.26a3.34,3.34,0,0,0-1.2.42c-.78.55-1.13,2-2,2.3s-2.06-.73-3-.74a3,3,0,0,0-1.14.3l3,10.42L15,23.79l4.9,1.48Z"/></g><path class="cls-1" d="M18.77,8.27c0-.83-1.11-1.51-1.36-2.31s.26-2-.23-2.68-1.79-.62-2.46-1.12S13.78.38,13,.11s-1.8.58-2.63.57S8.54-.2,7.75,0,6.64,1.56,6,2s-1.64.37-2.23.8a.88.88,0,0,0-.22.21c-.5.67,0,1.89-.28,2.68S1.86,7.18,1.85,8s1.09,1.53,1.34,2.33-.26,2,.22,2.68,1.8.62,2.46,1.12,1,1.76,1.76,2,1.77-.56,2.61-.55,1.82.88,2.61.64,1.11-1.52,1.78-2,2-.34,2.46-1,0-1.89.28-2.68S18.76,9.1,18.77,8.27ZM10.3,11.63a3.52,3.52,0,1,1,3.52-3.52A3.53,3.53,0,0,1,10.3,11.63Z"/></g></g></svg>