<svg xmlns="http://www.w3.org/2000/svg" viewBox="0 0 23.13 19.01"><defs><style>.cls-1{fill:#f4e75e;fill-rule:evenodd;}</style></defs><g id="Layer_2" data-name="Layer 2"><g id="layout"><path class="cls-1" d="M15.76.92a2.52,2.52,0,0,1,.62.27l.09.71c.28.05.37.08.44.35H17l-.09.53H17l.18.8.26.09.09.18h.18v.09c.3.14.09-.13.35.17h.09v.18h.09v.27h.09v.26h.09c.11.22.17.41.26.62l.62.09c.09.94.8.83,1,1.59l1.06.18a5.25,5.25,0,0,0,.09,1,1,1,0,0,1,.44.27v.09h.18l.09.18h.18v.08c.42.17.54-.26.7.27.21.21.05.74,0,1l-.53.09a1.75,1.75,0,0,1-.35.71H22l-.18.18v.18H21.7l-.09.17-.71.09-.09.18-.35.09v.44l-.27.09v.09H20v.08l-.71.09v.09l-.26.18v.26H19v.36h-.09v.18c-.2.28-.39.05-.71.17v.09H18l-.09.27a.71.71,0,0,1-.53.35l-.09.8c-.24.14-.22.24-.62.26v.09h-.27c-.09.33-.18.24-.35.45h-.09v.44h-.09c-.23.27-.37,0-.44.53h.09v.27l-.27.17v.09h-.18v.09h-.17L14.7,18h-.09l-.09.88c-.1.17-.71.09-1,.09a1.67,1.67,0,0,1-.18-1l.62-.36v-.18h.09v-.17l.18-.09V17h.09c0-.45-.16-.39-.18-.88.32,0,.59.08.71,0s.06-.24.17-.54h.09l.09-.26A4.33,4.33,0,0,0,16.38,15V13.94l.18-.09.09-.26.26-.09c.12-.17,0-.4.09-.62h.09c.06-.15,0-.24.09-.36l.62-.17L18,12h.88v-.08H19l.26-.36.45-.09a4.92,4.92,0,0,1,.17-.71l.62-.17c.05-.12,0-.22.09-.36h.09V10l.44-.27V9.43s.15,0,.09-.18h-.09L21.08,9l-.89-.17c-.06-.11-.15-.13-.18-.18V8.45h-.09V8.27l-.17-.08-.09-.36-.18-.09-.09-.44a1.24,1.24,0,0,1-1-1L18,6.24,17.89,6H17.8c-.14-.29.13-.24-.27-.35V5.53L17,5.44l-.17-.53h-.09V4.2L16.12,4A3.73,3.73,0,0,0,15.85,3l-.71-.09c0-.37.12-.57,0-.88h-.09L15,1.63h-.09a.62.62,0,0,1-.18-.35l-.35-.09a2.84,2.84,0,0,1,.08-.71c.24-.14.72-.62,1-.44l.26.09A4.1,4.1,0,0,0,15.76.92ZM12.31,6.06a2.34,2.34,0,0,1,.35.09V6.06h.27L13,5.88h.53a2.59,2.59,0,0,1,.09.8c-.33.19-.31.35-.89.35-.38-.41-.63.06-1.15-.08a3.13,3.13,0,0,0-.8-.18c-.17,0-.37.2-.62.09L10,6.59,9.12,6.5V7H8.77l-.09-.17H8.41V6.77H8.32v.09H8.15L8,7.12H7.53l-.09-.26L6.46,7V7a.68.68,0,0,1-.53.09L5.84,7H5.67V6.86c-.35-.12-.39.15-.45.17a.86.86,0,0,1-.88-.26V6.68H4.07V6.59l-1,.27L3,7.12c-.11.12-.31.08-.53.09l-.09-.44L1.33,6.68c-.17.05-.38.27-.71.18V6.77L.09,6.68A1.26,1.26,0,0,1,0,6.15a1.16,1.16,0,0,1,.44-.09c.11.17.09.15.36.18a2.14,2.14,0,0,1,.09-.62l.44-.09v.09h.44V5.53h.36V5.44h.7v.09c.1,0,.32-.18.54-.09l.08.18,1.15.09v.08H5v.09l.44-.09c.1-.36.28-.28.71-.26.15.18.19.07.35.18l.09.17c.3.16.58,0,.89,0l.09-.35c.34,0,.9-.33,1.24-.18l.17.27h.18v.09a.23.23,0,0,0,.27-.09H10V5.53a.77.77,0,0,1,.35-.09l.09.27c.65,0,.81-.4,1.42-.45a.64.64,0,0,0,.35.27ZM5.14,11.82l.08.26H6.29V12l.88.09c.12-.27.14-.34.53-.35.16.23.25.18.62.18.09-.32.24-.28.62-.27.28.27.54,0,.89.18l.09.17h.18v.09L11,12v.09h.18v.09l.53.09v.09l.18.09.08.26h.18l.18-.53,1.33-.09v.8l-.89.18v.08c-.46.15-.73-.26-1-.17v.09c-.27.16-.17.15-.62.17-.23-.29-.35-.24-.71-.17-.16.61-.33.16-.8.35l-.09.18H9.12L9,13.23c-.23,0-.26-.1-.53,0v.09H8.32v.09c-.28.1-.66-.17-1.06-.18l-.09.45H6.91l-.09-.27H6.73c-.16-.18-.11-.22-.44-.27v-.08c-.13,0-.35.26-.36.26H4.87L4.69,13H4.52v-.09a1,1,0,0,0-.62.26v.18c-.07.08-.19.07-.27.18-.23-.05-.44-.23-.62-.27a1.26,1.26,0,0,1-.35.09l-.27-.09c-.18.09-.39.55-.8.36l-.26-.36L.27,13.14l-.09-.53.17-.09v-.08l.54-.09c.15-.55.24-.2.7-.36v-.08h.27v-.09H2v-.09h.44a1.72,1.72,0,0,1,1.06-.18v.09h.27v.09h.26l.18.26a.34.34,0,0,0,.44-.17Z"/></g></g></svg>