<svg xmlns="http://www.w3.org/2000/svg" xmlns:xlink="http://www.w3.org/1999/xlink" viewBox="0 0 108.33 125.24"><defs><style>.cls-1,.cls-5{fill:none;}.cls-2{fill:#3e3428;stroke:#3e3428;}.cls-2,.cls-5{stroke-miterlimit:10;stroke-width:0.61px;}.cls-3{opacity:0.15;}.cls-4{clip-path:url(#clip-path);}.cls-5{stroke:#fff;}.cls-6{fill:#fff;}</style><clipPath id="clip-path" transform="translate(37.21 29.29)"><rect class="cls-1" x="2.12" y="2.12" width="34.38" height="34.38" transform="translate(38.61 0) rotate(90)"/></clipPath></defs><g id="Layer_2" data-name="Layer 2"><g id="layout"><rect class="cls-2" x="0.31" y="0.31" width="38" height="38" transform="translate(75.83 67.9) rotate(-180)"/><g class="cls-3"><g class="cls-4"><line class="cls-5" x1="47.74" y1="0.19" x2="108.09" y2="77.55"/><line class="cls-5" x1="45.48" y1="2.45" x2="105.83" y2="79.81"/><line class="cls-5" x1="43.22" y1="4.71" x2="103.57" y2="82.07"/><line class="cls-5" x1="40.96" y1="6.97" x2="101.3" y2="84.33"/><line class="cls-5" x1="38.69" y1="9.24" x2="99.04" y2="86.59"/><line class="cls-5" x1="36.43" y1="11.5" x2="96.78" y2="88.86"/><line class="cls-5" x1="34.17" y1="13.76" x2="94.52" y2="91.12"/><line class="cls-5" x1="31.91" y1="16.02" x2="92.26" y2="93.38"/><line class="cls-5" x1="29.65" y1="18.28" x2="89.99" y2="95.64"/><line class="cls-5" x1="27.39" y1="20.55" x2="87.73" y2="97.9"/><line class="cls-5" x1="25.12" y1="22.81" x2="85.47" y2="100.17"/><line class="cls-5" x1="22.86" y1="25.07" x2="83.21" y2="102.43"/><line class="cls-5" x1="20.6" y1="27.33" x2="80.95" y2="104.69"/><line class="cls-5" x1="18.34" y1="29.59" x2="78.68" y2="106.95"/><line class="cls-5" x1="16.08" y1="31.86" x2="76.42" y2="109.21"/><line class="cls-5" x1="13.81" y1="34.12" x2="74.16" y2="111.47"/><line class="cls-5" x1="11.55" y1="36.38" x2="71.9" y2="113.74"/><line class="cls-5" x1="9.29" y1="38.64" x2="69.64" y2="116"/><line class="cls-5" x1="7.03" y1="40.9" x2="67.38" y2="118.26"/><line class="cls-5" x1="4.77" y1="43.17" x2="65.11" y2="120.52"/><line class="cls-5" x1="2.5" y1="45.43" x2="62.85" y2="122.78"/><line class="cls-5" x1="0.24" y1="47.69" x2="60.59" y2="125.05"/></g></g><path class="cls-6" d="M22.93,11.26V14a.38.38,0,0,1-.15.3L16.61,19a.39.39,0,0,0,0,.61l6.17,4.72a.4.4,0,0,1,.15.31v2.72a.38.38,0,0,1-.62.3l-10.53-8a.39.39,0,0,1,0-.61l10.53-8A.39.39,0,0,1,22.93,11.26Z" transform="translate(37.21 29.29)"/></g></g></svg>