<svg xmlns="http://www.w3.org/2000/svg" viewBox="0 0 16.36 23.26"><defs><style>.cls-1{fill:#00abbf;}</style></defs><g id="Layer_2" data-name="Layer 2"><g id="layout"><path class="cls-1" d="M12.15,8.63c-.6.12-1,.42-1.53,0-1.1-.76-1.73-2.54-2.1-3.75a10.61,10.61,0,0,1-.24-1.77,9.64,9.64,0,0,0-.65-1.87C6.78-.85,3.59.11,2.15,1A5,5,0,0,0,.05,3.49C-.29,4.65,1.12,5.66,1.8,6.43c1.27,1.43,2.6,4.67,1,6.27-.83.84-1.7,1.71-1.42,3a2.26,2.26,0,0,0,2.21,1.78A13.23,13.23,0,0,0,7.69,17c.73-.22.79-.16,1.17.52s.73,1.35,1.11,2A4.41,4.41,0,0,0,10.9,21c.44.33,1.08.45,1.56.77s1.69,2.45,2.37,1c.26-.55-.23-.61-.54-1a3.77,3.77,0,0,1-.49-1.54,21.74,21.74,0,0,0-1.55-3.81c-.3-.72-.26-.83.42-1.24s1.13-.6,1.65-1a5.68,5.68,0,0,0,2-2.76,2.77,2.77,0,0,0-1.93-2.76A4.63,4.63,0,0,0,12.15,8.63ZM7,3.94C6.64,4.72,5,5.11,4.22,5.41s-1.51.67-2-.16a12.56,12.56,0,0,0,3.21-.78c.44-.21.78-.54,1.19-.78S7.29,3.46,7,3.94ZM1,3.41c0-.5.9-1.08,1.26-1.37A4.38,4.38,0,0,1,5.89.9c1.48.42.86,1.86-.08,2.48a6.19,6.19,0,0,1-3.55,1C1.75,4.22.93,4.11,1,3.41Zm3.48,8.84c.17-.39.19-.25.2-.65a5,5,0,0,0-.21-1.06c-.1-.61-.17-1.22-.31-1.83a6.38,6.38,0,0,0-.26-.88c-.09-.25-.45-.7-.45-.94,0-.61.74-.7,1.27-.93s2.19-1.37,2.71-.71a12,12,0,0,1,.7,1.8A10.87,10.87,0,0,0,9.18,8.81a7.89,7.89,0,0,0,1.54,1.46c.27.2,1.13.56,1.18.92s-.79,1-1,1.24a7.49,7.49,0,0,1-1.91,1,16.09,16.09,0,0,1-4.28,1.07C3.38,14.46,4.13,13,4.46,12.25Zm7.28,5.32a11,11,0,0,1,.78,1.62c.14.49.16,1,.31,1.51a4.9,4.9,0,0,1-2.33-2.23c-.38-.68-1.55-1.91-.45-2.33S11.35,16.78,11.74,17.57Zm3.63-6c-.27,1.64-2.83,2.92-4.23,3.41a22.06,22.06,0,0,1-6.31,1.67c-1.68.07-3.1-.33-2.34-2.32.49,1.35,2.07,1.07,3.19.93a12.9,12.9,0,0,0,3.61-1A8.51,8.51,0,0,0,12.4,12c.22-.27.92-1.07.74-1.49s-.85-.29-1.07-.65C13.33,9,15.65,9.83,15.37,11.56Z"/></g></g></svg>