<svg xmlns="http://www.w3.org/2000/svg" viewBox="0 0 33.59 33.63"><defs><style>.cls-1{fill:#26b8c9;}.cls-1,.cls-2{stroke:#fff;stroke-linecap:round;stroke-linejoin:round;stroke-width:1.09px;}.cls-2{fill:none;}</style></defs><g id="Layer_2" data-name="Layer 2"><g id="layout"><polygon class="cls-1" points="2.85 3.06 30.74 3.06 30.74 22.92 2.85 22.92 2.85 3.06 2.85 3.06"/><line class="cls-2" x1="0.54" y1="2.97" x2="33.04" y2="2.97"/><line class="cls-2" x1="16.79" y1="22.92" x2="16.79" y2="31.58"/><line class="cls-2" x1="16.79" y1="2.97" x2="16.79" y2="0.54"/><line class="cls-2" x1="16.86" y1="27.4" x2="25.84" y2="33.09"/><line class="cls-2" x1="16.73" y1="27.4" x2="7.75" y2="33.09"/><line class="cls-2" x1="14.78" y1="8.42" x2="25.07" y2="8.42"/><polyline class="cls-2" points="8.51 7.8 9.81 9.5 11.3 7.55"/><line class="cls-2" x1="14.78" y1="12.76" x2="25.07" y2="12.76"/><polyline class="cls-2" points="8.51 12.15 9.81 13.85 11.3 11.9"/><line class="cls-2" x1="14.78" y1="17.11" x2="25.07" y2="17.11"/><polyline class="cls-2" points="8.51 16.49 9.81 18.19 11.3 16.24"/></g></g></svg>