<svg xmlns="http://www.w3.org/2000/svg" viewBox="0 0 16.33 17.14"><defs><style>.cls-1{fill:#3e3428;}</style></defs><g id="Layer_2" data-name="Layer 2"><g id="layout"><g id="g5728"><path class="cls-1" d="M14.78,0H3.08A1.55,1.55,0,0,0,1.53,1.56v.78h.78a1.56,1.56,0,0,1,0,3.11H1.53V7h.78a1.56,1.56,0,0,1,0,3.12H1.53v1.56h.78a1.54,1.54,0,0,1,1.55,1.55A1.59,1.59,0,0,1,2.31,14.8H1.53v.78a1.57,1.57,0,0,0,1.55,1.56h11.7a1.55,1.55,0,0,0,1.55-1.56v-14A1.55,1.55,0,0,0,14.78,0Zm-.92,12.28a.57.57,0,0,1-.62.32H6a.57.57,0,0,1-.62-.32c0-.2,0-1.06,0-1.26a1.09,1.09,0,0,1,.62-1.14A16.29,16.29,0,0,0,8.45,8.73a.7.7,0,0,0,.14-.6c-.16-.34-.32-.4-.46-.75a2.18,2.18,0,0,1-.21-.49,1.83,1.83,0,0,1-.16-.62c0-.38-.06-.4-.06-.55a3,3,0,0,1,0-.73,3.45,3.45,0,0,1,.2-.62,3.43,3.43,0,0,1,.41-.61,2.33,2.33,0,0,1,.5-.39,1.91,1.91,0,0,1,.59-.18h.47a2.08,2.08,0,0,1,.55.18,2.38,2.38,0,0,1,.47.38,3.34,3.34,0,0,1,.43.61,4.61,4.61,0,0,1,.2.63,3,3,0,0,1,0,.73c0,.15,0,.17-.06.55a1.83,1.83,0,0,1-.16.62,1.78,1.78,0,0,1-.19.47c-.12.26-.31.45-.48.8a.65.65,0,0,0,.15.57,7.39,7.39,0,0,0,1.42.7l1.09.45A1,1,0,0,1,13.89,11C13.88,11.21,13.91,12.08,13.86,12.28Z"/><path id="path5973" class="cls-1" d="M.83,3.12a.8.8,0,1,0,0,1.6H2.28a.8.8,0,1,0,0-1.6Z"/><path id="path5971" class="cls-1" d="M.83,7.79a.79.79,0,1,0,0,1.57H2.28a.79.79,0,1,0,0-1.57Z"/><path id="rect24004-41" class="cls-1" d="M.83,12.46a.8.8,0,1,0,0,1.59H2.28a.8.8,0,1,0,0-1.59Z"/></g></g></g></svg>