<svg xmlns="http://www.w3.org/2000/svg" viewBox="0 0 14.4 19.67"><defs><style>.cls-1{fill:#e45b58;}</style></defs><g id="Layer_2" data-name="Layer 2"><g id="layout"><path class="cls-1" d="M2.5,10.67,0,15.76l3.2-.07,1.61,3,1.83-3.65-.81-2.52a1.18,1.18,0,0,1-.8.08c-.66-.19-1-1.22-1.53-1.6a3,3,0,0,0-1-.34Zm9.08-.26a2.61,2.61,0,0,0-.85.34c-.54.43-.73,1.49-1.38,1.72s-1.5-.44-2.19-.42a2.43,2.43,0,0,0-.81.25l2.51,7.37,2-2.74,3.57.89ZM13,5.68c0-.6-.85-1-1.06-1.61s.12-1.44-.25-1.92-1.3-.37-1.8-.71S9.14.19,8.56,0,7.3.51,6.7.53,5.36,0,4.8.16s-.74,1.13-1.21,1.5S2.43,2,2,2.31a.57.57,0,0,0-.15.16c-.33.49,0,1.35-.11,1.93S.83,5.48.86,6.08s.83,1.06,1,1.62-.12,1.44.25,1.92,1.31.38,1.8.71.76,1.23,1.33,1.4,1.26-.47,1.85-.49,1.34.57,1.9.37.74-1.13,1.21-1.5S11.63,9.8,12,9.3s-.05-1.35.11-1.93S13,6.27,13,5.68ZM7,8.38a2.53,2.53,0,1,1,2.4-2.65A2.53,2.53,0,0,1,7,8.38Z"/></g></g></svg>