<svg xmlns="http://www.w3.org/2000/svg" viewBox="0 0 17.5 15.35"><defs><style>.cls-1{fill:#e73828;}</style></defs><g id="Layer_2" data-name="Layer 2"><g id="layout"><polygon class="cls-1" points="17.5 0.09 17.39 0 17.44 0.2 17.5 0.09"/><path class="cls-1" d="M16.65.71c0,.18,0,.38.2.6L16.78,1c.18.15.25.07.27-.06L17,1s-.12-.13-.12-.18c.2,0,0-.29.3-.22v0l0-.2c.06,0,.12.09.14.13,0-.17,0-.32.08-.41C17,0,17.37.63,17,.41v0C17,.6,16.67.52,16.65.71Z"/><path class="cls-1" d="M17.29.58h0S17.3.59,17.29.58Z"/><path class="cls-1" d="M12.57,4.34l0,0A.08.08,0,0,0,12.57,4.34Z"/><path class="cls-1" d="M14.48,3.67h0C14.52,3.74,14.51,3.72,14.48,3.67Z"/><path class="cls-1" d="M6.18,10.66v-.13C6.17,10.65,6.17,10.67,6.18,10.66Z"/><path class="cls-1" d="M4.88,9.37h0Z"/><path class="cls-1" d="M4.82,11.09l-.06.07Z"/><path class="cls-1" d="M4.12,10.68s0-.06,0-.07S4.09,10.68,4.12,10.68Z"/><path class="cls-1" d="M4.92,9.36h0Z"/><path class="cls-1" d="M5.87,12.27v.3C5.88,12.48,5.87,12.37,5.87,12.27Z"/><path class="cls-1" d="M3.85,10.68s0-.07,0-.09S3.84,10.66,3.85,10.68Z"/><path class="cls-1" d="M16.54.83a.15.15,0,0,0,0-.08S16.54.79,16.54.83Z"/><path class="cls-1" d="M9.74,9.5l0,.07S9.77,9.52,9.74,9.5Z"/><path class="cls-1" d="M7.84,11.31h0l0,0Z"/><path class="cls-1" d="M8.36,10.75l0,0Z"/><path class="cls-1" d="M7.46,12a.38.38,0,0,0,0,.1Z"/><path class="cls-1" d="M6.69,12.44c0,.06,0,.18,0,.3s.15-.13.2-.23.1-.17.23-.16l-.13,0c.06-.28.21-.48.44-.41V12c0-.13.1-.17.19-.2l.12-.05s0,0,0-.06a.21.21,0,0,1-.1-.08l0,0,0,0h0s0,0,0,0v-.1l0-.15.22.21,0-.16c-.11-.06.18,0,0-.25.12,0,.14.18.2.29,0-.11.09,0,0-.19l.23.14v-.26s0,0,.05,0c-.1-.21.23,0,0-.39l0,0c-.11-.19.1-.18.16-.18s-.15-.21-.22-.29c.23-.13.16-.09.1-.46.32.14.26.48.54.53a.5.5,0,0,1-.06-.44,1.58,1.58,0,0,1,.61,0l-.16-.15,0-.2.15.29c0-.07-.07-.23-.1-.34s.4.26.26-.06l.06,0c-.09-.15,0-.19.09-.33L10,9.4l-.1,0c.22.16.07-.13.14-.18s-.2-.26-.22-.35,0-.1.08-.06.23.23.3.33c-.15-.25-.11-.24-.09-.43a.46.46,0,0,1,.14.17.44.44,0,0,0-.1-.2l.15.08c.28.05-.24-.48,0-.56.07.14.1-.15.27-.06,0,.08.3.26.39.41.18,0-.18-.28-.14-.41l.21.28c0-.19-.11-.15-.1-.32,0,.1.11,0,.13.16.15-.09.09-.08.23-.16L11,7.88c0-.07.13,0,.18.06s0,0,0,.06c.24.17,0-.18.18,0-.08-.06-.2-.15-.17-.21.13.16.2.07.26.13-.12-.07.05-.14-.1-.3.16.06.1.13.17.21-.14-.22.15-.2.09-.34l0,0c-.06-.16,0-.28-.05-.54l.1.17c.16,0-.22-.35-.13-.43.17.21.13-.16.3.09a1.77,1.77,0,0,0-.18-.47c.16.06.17.36.29.35l0-.17.12.09c-.07-.08,0-.16-.08-.21a2.69,2.69,0,0,1,.34.27c0-.09.2,0,.13-.18l.06.06c-.18-.28.1-.19-.12-.45l.16.1c0-.1-.21-.33-.23-.42s0-.1.08-.11c.06.25.23.15.34.21a.23.23,0,0,0,0-.3c.08.16.2.24.13.33.28.19.07-.18.19-.23l.11.11c0-.2-.13-.39-.26-.64a.91.91,0,0,1,.27.34c.16,0,.21-.22.32-.3a.29.29,0,0,1,.17.22c0-.2.24-.2.07-.5.07.12.1,0,.18,0s-.11-.12-.09-.12c0-.16,0-.38.16-.36l0,.09c.21-.12-.13-.6.22-.6.08,0,.16.23.22.16s-.24-.3-.11-.33l.15.17-.1-.22c-.16-.1-.21,0-.29-.17.22.07-.07-.21.19-.13a.8.8,0,0,0,.13.27c.37,0,.11-.42.5-.41,0-.22.07-.36,0-.54a2,2,0,0,1,.37.47c.1-.06-.21-.46.07-.28-.17-.25.09-.36-.19-.68.07.06.09-.09.18.17,0-.21.4.12.45.07s-.22-.16-.16-.23,0,0,.07,0l0-.1c.09,0,.12.18.19.26s0-.32.07-.45l0,.07L16.16,2V1.79l.07.09s0-.1,0-.14l.08.11a.37.37,0,0,1,0-.41l.05,0-.07-.32c.17.05.14.32.2.12l.16.23c0-.17.13-.08.13-.2s-.16,0-.21-.14c.29.16,0-.17,0-.33,0,0-.05.06,0,.2S16.46.94,16.43,1l.06.16L16.34,1v.2c-.15-.17-.1.06-.23-.15,0,.13-.14.05,0,.27-.14-.06,0-.18-.11-.15a1.52,1.52,0,0,1-.71.79l0-.09a1.72,1.72,0,0,1,.1.26C15.15,2,14.82,2,15,2.33c0,0,0-.05-.05-.07s-.38.09-.48.24c.2.3-.34,0-.05.41l0-.1c.13.06.17.3.24.4-.26-.19-.17-.17-.42-.33l.13,0-.19-.18c.31.63-.5.07-.26.51l-.06-.07c-.16,0,0,.23,0,.34a1,1,0,0,1-.16-.27c-.18,0-.13.48-.4.45.08.17.18.15.23.29a.23.23,0,0,1-.21-.18c-.34-.12-.21.5-.58.45,0,.22.16.23.11.45-.05-.12-.32-.27-.26-.36l-.08-.1c-.15.11-.36.25-.17.59-.2-.2-.06,0-.22-.07,0,0,0,0,.06,0,.12.22-.08.07-.09.13l0,0,0,.22A.33.33,0,0,1,11.91,5l.13.14c0,.06-.2-.15-.22,0l.11.09c-.1,0,0,.18-.18,0s0,0,0,0c-.28-.16-.1.23-.27.2l.24.21c0,.15-.09,0-.17-.08s-.13,0-.22,0,.06.1.11.18h-.12l-.08-.17c.22.44-.3.22-.07.6-.1,0-.1-.18-.16-.19-.27,0-.07.49-.34.42s-.37.36-.66.43l.06.06L9.89,7c.1.18-.06.2,0,.42,0-.06-.12-.12-.15-.17s0,.21-.15.16l0-.07c-.16.08-.34.25-.29.43s-.14-.05-.22-.12-.07.18,0,.33L8.9,7.89,9,8.06S8.89,8,8.83,7.93c.06.29-.23.26-.3.35l.09.07c0,.09-.15,0-.18-.07-.25.07,0,.46-.26.64-.29-.25-.11.26-.44,0,0,.17-.19.1-.08.34,0,0,0,0,0-.05s-.18.12-.19.29l-.1-.09c.16.23-.05.33.11.56,0,0-.06-.1-.08-.15-.24-.14,0,.17-.1.19s-.12-.09-.14-.14c-.21,0-.29.15-.38.32a2.15,2.15,0,0,1-.14.26l0,.05,0,0H6.45s0,.07.07.13.08.12.05.13a1,1,0,0,1-.1-.18.48.48,0,0,0-.08-.12c.07.17,0,.15,0,.15s-.06-.15-.08-.22,0,0,0,.06,0,.09,0,0c0,.09,0,.15,0,.22s0,.11-.05,0,0-.19,0-.1a.16.16,0,0,0,0,.09h0a.9.9,0,0,1,0-.24,1.26,1.26,0,0,1,0,.26c0-.07,0-.14,0-.21s0,.17,0,.19v.13c0-.09,0,0,0,0s0,0,0-.16h0c0-.06,0-.12,0-.18,0,.14-.08.26-.09.2s0-.19,0-.18,0,0,0,0l.06-.1c-.05.07-.07.07-.09.07s0,0,0,0H6v0s0,0,0-.06A.13.13,0,0,1,6,10.24c-.09,0-.18-.08-.32,0L5.8,10c-.32.25-.08-.26-.36,0,0-.09.07-.15.08-.23-.2.09-.25,0-.29-.09l0,0c0-.09-.27,0-.38-.08l.2-.26c-.09,0-.26.16-.27.07a.07.07,0,0,1,.07-.05c-.09,0-.1-.12-.08-.21-.23.1-.23,0-.46.11.13-.26.17,0,.3-.25s-.22-.19-.43-.19a.8.8,0,0,1,.13-.13,3.15,3.15,0,0,0-.91.62c-.17.13-.29.19-.31.41.12-.06.31-.09.17.1l.15-.16c.21.05-.29.35-.13.49l0-.09s.15-.06.14,0-.07.06-.12.08l.33-.1a.68.68,0,0,1-.22.2c.12.1.25-.32.33-.12s-.1.09-.17.12c-.06.21.11.12.26.1-.14.14-.17.08-.19.23,0-.09.16-.22.22-.19-.15.12,0,.1,0,.18A.35.35,0,0,1,4,10.46s0,.07,0,.09l.08-.2c.2-.07.05.18.05.3l-.07,0c0,.11,0,.29.15.23h0c.28,0,.18-.28.47-.26,0,.08-.46.45-.18.39.06-.18.36-.22.48-.21l-.33.21s.15,0,.14,0l0-.07c.22-.24.06.12.25,0a3.17,3.17,0,0,0-.62.52c.21-.13.42-.24.48-.12l-.3.18s.06.06.12.06h.26a1.24,1.24,0,0,0,.51-.2,1.21,1.21,0,0,0-.15.26.54.54,0,0,1-.16.22l.21.12a1.84,1.84,0,0,1-.17.22.28.28,0,0,1,.2-.09s.07,0,.13-.23c0,0,0,.08-.08,0a.69.69,0,0,1,.1-.19c0-.06.09-.09.12-.05a.12.12,0,0,1,0,.14.23.23,0,0,0-.06.11c.05,0,.06,0,.07,0s0,.1,0,.06a1.62,1.62,0,0,0,0-.22c0-.1.07-.08.09-.05s0,.08.07,0-.08.21-.08.39v0s.06,0,.08,0,0,0,.06.09,0,.22-.08.33a1.21,1.21,0,0,0,.09-.2c0,.06,0,.22,0,.25s.08.11.1.07a1.17,1.17,0,0,0,0-.23,1,1,0,0,1,0-.22s0,0,.09.08h0a1,1,0,0,1,0,.19s0,0-.08-.07a1,1,0,0,0,.08.55v0h0a2.11,2.11,0,0,0,.25-.26A1,1,0,0,0,6.69,12.44Z"/><path class="cls-1" d="M6.26,13.1C6.18,13,6.1,13,6.07,13a.42.42,0,0,0,.1.2C6.22,13.22,6.27,13.23,6.26,13.1Z"/><path class="cls-1" d="M13.71,5.37v0Z"/><path class="cls-1" d="M14,4.93l-.06,0S14,5,14,4.93Z"/><path class="cls-1" d="M10.24,8.91h0Z"/><path class="cls-1" d="M12.45,6.85a.58.58,0,0,0-.13-.22S12.35,6.73,12.45,6.85Z"/><path class="cls-1" d="M11.64,7.48l0,0A.08.08,0,0,0,11.64,7.48Z"/><path class="cls-1" d="M10.23,9.12c0-.1,0-.14,0-.21S10.12,9,10.23,9.12Z"/><polygon class="cls-1" points="14.26 4.25 14.33 4.39 14.29 4.28 14.26 4.25"/><path class="cls-1" d="M14,4.67c-.05,0,0,.11,0,.15A.33.33,0,0,1,14,4.67Z"/><polygon class="cls-1" points="12.52 5.9 12.62 6.03 12.56 5.91 12.52 5.9"/><path class="cls-1" d="M10.68,14.58c.09.06,0,0,0-.09Z"/><path class="cls-1" d="M10.7,14.49v-.07A.15.15,0,0,0,10.7,14.49Z"/><path class="cls-1" d="M10.76,13.88c.06.14,0,.31.07.39C10.89,14.13,10.87,13.91,10.76,13.88Z"/><polygon class="cls-1" points="10.69 14.09 10.75 14.11 10.66 13.98 10.69 14.09"/><polygon class="cls-1" points="10.64 14.18 10.66 14.16 10.61 13.97 10.64 14.18"/><path class="cls-1" d="M10.8,13.41v.14c-.07.13-.1-.09-.15,0s.16.06.13.28c.07,0,0-.35.11-.32C10.94,13.33,10.84,13.5,10.8,13.41Z"/><path class="cls-1" d="M10.21,5.27v0S10.2,5.27,10.21,5.27Z"/><path class="cls-1" d="M8.62,5.2l-.09,0,0,0Z"/><path class="cls-1" d="M10.41,6.44l0,.09A.12.12,0,0,0,10.41,6.44Z"/><path class="cls-1" d="M.58,7.76l0,0h0l0,0Z"/><path class="cls-1" d="M6,5.37H6Z"/><path class="cls-1" d="M10.42,7.27v0a.43.43,0,0,0,0,0Z"/><path class="cls-1" d="M9.38,5.35s-.06,0-.09,0Z"/><path class="cls-1" d="M10.92,11.27a.16.16,0,0,0,0-.1S10.89,11.23,10.92,11.27Z"/><path class="cls-1" d="M10.91,10.45Z"/><path class="cls-1" d="M10.92,9.92h0S10.93,9.92,10.92,9.92Z"/><path class="cls-1" d="M10.91,11.17c0-.07.18-.09,0-.18l0,0s0-.13,0-.19l0,0a.72.72,0,0,1,0,.13C10.81,11.05,10.88,11.1,10.91,11.17Z"/><path class="cls-1" d="M10.23,5.25s0,0,0,0Z"/><path class="cls-1" d="M10.35,5.71V5.64S10.34,5.69,10.35,5.71Z"/><path class="cls-1" d="M10.31,8.39h0S10.3,8.38,10.31,8.39Z"/><path class="cls-1" d="M10.35,5.58v.06A.06.06,0,0,0,10.35,5.58Z"/><path class="cls-1" d="M10.39,7.59v0Z"/><path class="cls-1" d="M4.94,15.24c-.06,0-.09,0-.14,0s.24,0,.07.1l.13,0-.07-.1C4.83,15.21,5,15.2,4.94,15.24Z"/><path class="cls-1" d="M.38,8.43v0s0,0-.08.09.17,0,.24.09a.41.41,0,0,1,0-.1C.49,8.54.43,8.48.38,8.43Z"/><path class="cls-1" d="M.55,8.48h0l0,0a.07.07,0,0,1,0-.05S.56,8.45.55,8.48Z"/><path class="cls-1" d="M3.15,15.2H3.09S3.14,15.21,3.15,15.2Z"/><path class="cls-1" d="M6.21,4.16l.07,0S6.22,4.14,6.21,4.16Z"/><path class="cls-1" d="M.47,7.15l0-.06s0,0,0,0Z"/><path class="cls-1" d="M1.39,11.39c-.11,0,0,0-.06.13l.06.08A.74.74,0,0,0,1.39,11.39Z"/><polygon class="cls-1" points="5 15.27 5.01 15.26 5 15.27 5 15.27"/><path class="cls-1" d="M1.41,13.77h0Z"/><path class="cls-1" d="M.6,8V7.66l0,.1C.63,7.8.53,7.94.6,8Z"/><path class="cls-1" d="M1.45,10l.07,0c-.14-.32.06-.69-.14-.94.23-.39-.2-.26,0-.61h0c0-.59.06-1.19.08-1.78,0-.3,0-.6,0-.89V5.53h0v0l0-.1,0,0v0a2.41,2.41,0,0,0,.55,0H3.24c.83,0,1.66,0,2.49,0,.16,0,.06-.15.2-.2s.2,0,.2.06,0,.08-.09.1a2.2,2.2,0,0,0,.63,0l-.15-.07a.66.66,0,0,1,.24,0s.06.12,0,.14c.37-.19.29.08.6,0,.06-.15.45-.28.71-.39l.13,0c-.17,0,0,.11-.21.11.18,0,.35,0,.53,0,0,0,0-.09,0-.11s.12.1.24.11l-.12.05c.09,0,.16,0,.23,0s.21.08.18.15c.16-.09.22,0,.4-.1-.18-.07.05-.08,0-.14l-.21,0c.29,0-.1,0-.07.12-.14,0,.19-.18-.05-.16a2.62,2.62,0,0,1,.31,0l.14,0,.08,0h0a0,0,0,0,0,0,0s.05,0,0-.07h.09s0,0,0,0a.07.07,0,0,0,0,.08l.09,0S10,5,10,5s0,0,0,.06-.05,0,0,.07-.08,0-.14,0H9.79a.1.1,0,0,0,0,.12c-.1,0-.22.09-.36.09l.22.06h.2V5.27s.07-.1.1-.09,0,.05,0,.06,0,0,0,0,0,0,0,0,.14-.1.27-.13A.34.34,0,0,1,10.13,5,.16.16,0,0,0,10.06,5s.07,0,.09,0a.15.15,0,0,0,.08,0s0,0,0,0l.1,0c.06,0,0,.05,0,.08s-.08.07-.07.1h0c0,.07,0,.07,0,.08s0,0,0,0l0,0s0,0,0,0h0s0,.12.08.12,0,.06,0,.08l0,0v0h0v0a.16.16,0,0,1-.05.17h0c0,.14,0,.26-.09.22l0,.23-.09,0c0,.21.08.19.17.33a.94.94,0,0,0,0,.51.14.14,0,0,0,0,.09l0-.09c0,.16,0,.14,0,.25s0,0,0,0a.13.13,0,0,1,0,.06s0,0,0,0h0c-.1.14.06.21,0,.35a.43.43,0,0,0,0,0c0,.07-.16.19-.08.22s0,.05,0,.07v.06s0,0,0-.06.06.07,0,.08l0,.2a.2.2,0,0,0,0,.13l0,0c0,.08,0,.08,0,.07-.14.25.07.39-.05.67.07,0,.1-.06.13-.07s.09.2.13.28-.17.49-.3.43c0,.23.08-.07.13.05v0a.33.33,0,0,1,.11-.18c.07,0,.09.18.07.24l-.1,0c0,.21.19.16.29.29s-.13.08-.22.11l0,.18h-.07c0,.11.09.13.06.29-.07-.11-.07.24-.17.08,0,.09.12.11,0,.16.08.06,0-.08.07-.12s.05.19.08.29-.07-.07-.11,0a.12.12,0,0,1,0,.18c.07,0,0,.14,0,.21,0-.08.07-.19.13-.14a.4.4,0,0,1,0,.25l0-.1c.11.13-.08.21,0,.37-.05-.07-.05-.11-.1-.17a2.79,2.79,0,0,1,.12.35l-.11.14c.06,0,0,.15.07.15-.05.18-.09-.14-.14-.15,0,.21.12.17,0,.38l-.07-.07c0,.07,0,.21,0,.22s0,0,0-.08.11.32.26.3v-.1c0,.15.14.25.08.37s-.1-.07-.14-.12c0,.14.17.12.15.28,0-.09.08-.07.12,0s0-.29,0-.26l0,0s-.05-.06-.07-.09.07-.06.1-.09c0-.22-.16,0-.15-.22l0,0c0-.1-.05-.25-.14-.27.1-.09,0-.23,0-.32.22,0,0,.34.1.45,0-.11.11.06.16.1l-.1-.33s.14-.12.06-.18v0c0-.13-.12-.09-.09-.2s.06,0,.07,0-.05-.09-.07-.16.09.06.12,0,0-.19,0-.3c-.12.05-.17-.42-.28-.19l-.08-.25c.06-.08.17.17.28.1v.2c.16,0-.1-.42.07-.55a.57.57,0,0,1,.07-.28l-.14,0c0-.11.1-.14.13-.14a.54.54,0,0,1,0-.18.16.16,0,0,1,.05.08c.07-.08,0-.11,0-.13a.34.34,0,0,1,0-.18l.06.06s0-.09-.06-.09a.19.19,0,0,0,0-.08.41.41,0,0,0-.14.15,2.6,2.6,0,0,1,.14-.64s.09.09.09.07,0-.22-.1-.21a.13.13,0,0,1,0-.06s.07,0,.08-.09a.1.1,0,0,0,0-.07c-.11,0-.05-.23-.1-.28a.91.91,0,0,0,0,.17c-.07-.09-.15-.16-.09-.23.06.16.11-.17.14.07.14-.17-.1-.09,0-.26l0-.12c.08,0,0,.19.07.16V8.51c.06.08,0,.38.11.56l.05-.37A9.06,9.06,0,0,0,11,7.27v0H11l0,0-.06-.08a2.13,2.13,0,0,0,.15-.39c-.05.08-.05.08-.11.09s-.12,0-.09-.16.06.08.1,0-.07,0-.07,0,0-.19.1-.2,0,.07,0,.09,0-.14.09,0V6.37c0-.08.07,0,.1,0,0-.22-.17-.34-.2-.54h.12A.43.43,0,0,0,11,5.62,1.16,1.16,0,0,1,11,5.47a.57.57,0,0,1,0-.18s0,.12,0,.2c0-.41,0-.79.06-1.19-.31,0-.61-.06-1-.11l-.21.13-.05,0,0,0-.07,0a5.76,5.76,0,0,0-1.44,0c-.16,0-.09-.09-.17-.13-.34,0-.43.14-.75.17,0,0,.12-.16,0-.16s0,.1-.14.07l0,0c-.08-.06-.16,0-.33,0a1.82,1.82,0,0,0-.83.24c-.26,0,0-.14,0-.17.18,0,.13,0,.17-.06s-.22.06-.27,0a.64.64,0,0,0-.33.07c.06,0,.12,0,.06.06s-.4,0-.38-.12c-.65,0-1.38,0-2.08,0-.11.06.09,0,0,.06s-.14,0-.27,0l0-.07a1.92,1.92,0,0,0-.61.17c0-.07-.17-.06,0-.1-.1,0-.22-.32-.29-.25l.11.3s-.14,0-.13,0a.64.64,0,0,0-.24-.13c0-.07.11-.06.19,0S1.78,4,1.9,3.93c-.17,0,0,.06-.08.11L1.67,4l.12,0a.52.52,0,0,0-.15.07.53.53,0,0,1-.28,0l-.25.12s-.08,0-.14,0a.74.74,0,0,1-.21,0l.05-.06a1.9,1.9,0,0,1-.44,0s.08,0,.12,0,.08,0,.07,0L.3,4s0,0,0,.07,0,0,.12.06a.71.71,0,0,1-.13.12,1.77,1.77,0,0,1,.06.56c0,.07-.07,0-.09-.08s0-.19-.09-.18a1.22,1.22,0,0,0,0,.34.81.81,0,0,0,.09.25,1,1,0,0,1,.13.37v.14a.24.24,0,0,0,0,.09A.8.8,0,0,1,.49,6c-.07-.07-.08.17-.14.21L.28,6.09c0,.07,0,.14-.05.12s.08.3.13.47l.07,0a1.3,1.3,0,0,1,.06.44c0,.2.09.16.17.31a.18.18,0,0,1-.23,0c0-.06,0-.15,0-.24C.4,7,.24,6.76.28,6.51.09,6.4.3,6.68.23,6.8s0,0,0,0a0,0,0,0,1,0,0c0-.09,0-.24-.14-.26,0,.15.18.11.1.3s-.09.25-.11.34.22.09.19.32l-.1-.1c0,.26.15.13.15.37,0-.09.1.08.1-.08a.53.53,0,0,1,0,.38s0,0,.07,0c.07-.15-.07-.23,0-.35l-.11-.1c0-.14.13-.15.17-.07s0-.07,0-.1c.17,0-.06.16.09.21l0-.09c.11,0,.1.22.09.34s-.07.27-.15.28L.58,8c-.06.1,0,.24,0,.35s0,0,0,0h0a.09.09,0,0,1,0,.06c0,.1,0,.23,0,.32h0c0-.09,0-.2.1-.14s-.09.24-.15.28,0-.19,0-.29c-.11.06,0,.2-.08.41-.12-.09,0-.24-.11-.28,0,.16.07.2,0,.37-.06,0-.06-.19-.13-.17l0,.11c0-.28-.14,0-.17-.17,0,.1.1.14,0,.28,0,0,.14-.15.19,0l0,.15C.17,9.36.1,9.14.05,9.24l0,.16s.06-.08.1,0,.14.15.19.26a.26.26,0,0,1,0,.19c.1.22.1.49.2.7-.07-.14-.12,0-.17.08a.15.15,0,0,0-.2-.14c0,.09.13.16.16.11,0,.16.08.11,0,.25s-.1-.05-.14,0,.13,0,.1.23c0,0,0,0,0,0a.24.24,0,0,0,.09.24c-.15.1,0,.3-.13.28,0,.25.08,0,.13,0a.52.52,0,0,1,0,.35c0-.06,0-.12,0-.18l-.1.06c-.07.31.22.19.13.49,0-.15-.07,0-.14-.13s0,.28.07.14a1,1,0,0,1,0,.27.7.7,0,0,0,.13.26.79.79,0,0,1-.12.35,1.93,1.93,0,0,1,0,.48V14a2.61,2.61,0,0,0,0,.4v0c0,.22,0,.15.06.09s.07-.12.06.08c-.12,0-.08.31-.14.51v.06a4.31,4.31,0,0,0,.72,0l.34,0h.17l.15,0a0,0,0,0,1,0,0h.58a2.76,2.76,0,0,0,1-.05s0,.06-.06.08a.93.93,0,0,0,.6-.06c.22.11.14,0,.42.07,0,0,0,0,0,0a2.21,2.21,0,0,0,.37,0c.3-.08.38-.23.73-.18,0,.16-.22,0-.22.16s.13-.06.22,0,0,0-.05.1.3-.17.3-.15,0,0-.09,0c.08-.1.35,0,.52,0-.06,0-.23,0-.17-.11.23,0,.31-.13.47-.19s-.16.14-.12.25.13.13,0,.17c.19,0,.32-.07.49-.09v0c.24,0,.49-.15.69-.09L7.2,15s.16,0,.23-.07.15.1.08.14c.11-.17.54-.1.66-.26.06,0,0,.11,0,.15s-.2-.05-.28,0c.13,0,.22,0,.2.08.13-.11.42-.15.49-.25.09.05.17.08.14.17.38-.06-.19-.28.24-.27.2.08-.19.11.08.14H9c.2.23.14-.16.36-.15,0,.12-.15.09,0,.18s.29-.22.5-.18l0,0c.13,0,.38,0,.51,0s0,0,0,0c.24,0,.1-.07.3,0l.05-.06a.53.53,0,0,0-.41,0c.12-.07-.2-.16-.13-.26l0,0a3.41,3.41,0,0,0-1.16-.27c-.26.12-.44,0-.72,0,0,.15,0,0-.29.06.13,0,0-.11-.07-.13a.39.39,0,0,1-.16.07c0-.05-.35-.17-.46-.07-.14-.05,0-.05.07-.08s-.12.06-.17,0a0,0,0,0,1,0,0,5.87,5.87,0,0,1-.59-.05c0,.14-.23.05-.33.1s-.13,0-.2-.08l-.12.11c-.13.09-.18-.07-.34,0l0,0a.94.94,0,0,1-.53-.12C4,14.39,3.38,14,2.25,14c-.07,0,0,.07,0,.13a2.5,2.5,0,0,1-.25,0c.09,0,.08,0,.06,0l.17,0s0,0,0,0a.54.54,0,0,1,.19,0c-.1,0-.13.14-.27.1,0,0,0,0,.07,0-.11,0-.12,0-.2,0s-.08,0-.09,0l-.32-.06-.05,0h-.1l-.07-.05a.14.14,0,0,1,.09-.07A.08.08,0,0,0,1.55,14a.25.25,0,0,1,0-.07l0,.07-.05,0h0s0,.05-.05,0l0,0-.06.05c.07-.08,0,0,.05-.12h0s0,0,0,0,0-.05,0-.1a.13.13,0,0,1-.09,0l0,0s0,0,0,0,0-.08.08,0l-.05-.14c.14-.17.05-.33.1-.58h0a.56.56,0,0,1-.07-.33l.08,0c.05-.17-.17-.13-.12-.32-.08,0-.12.12-.2.14.08-.05.09-.25,0-.2,0-.19,0-.13,0-.15L1.13,12c0-.13.12,0,.16,0-.09-.12,0-.26,0-.39l0,0v-.18a.65.65,0,0,1,0-.44l.11.11c.06-.11,0-.06-.06-.09s0-.21.09-.3C1.32,10.53,1.62,10.26,1.45,10Zm8.91-1.71,0,0C10.4,8.36,10.42,8.39,10.36,8.32Zm0-1.5c0,.18,0,.13,0,.14,0-.18,0-.28,0-.43a.11.11,0,0,1-.07,0c0-.06,0-.12.09-.14S10.33,6.9,10.39,6.82Zm.55,3.38,0,0h0Zm-.09-.89s0,0,0-.06S10.84,9.28,10.85,9.31ZM11,7.53s0-.14,0-.21A1.22,1.22,0,0,0,11,7.53ZM2.23,4.4c.06,0,.16-.07.06-.1s-.13,0-.16,0h0ZM.83,8.49s-.1,0-.13,0h0s0,0,0,0a.17.17,0,0,0,0,.12C.81,8.6.83,8.69.83,8.49Z"/><path class="cls-1" d="M.21,6.73a.11.11,0,0,1,0,0A.11.11,0,0,0,.21,6.73Z"/><path class="cls-1" d="M.66,8.58s0-.05,0-.11S.67,8.51.66,8.58Z"/><path class="cls-1" d="M10.44,13.11l0,0,0,.11a.27.27,0,0,0,.19.22,1.23,1.23,0,0,1-.06-.45Z"/><path class="cls-1" d="M10.94,13S11,13,11,12.94l0,0Z"/><path class="cls-1" d="M11.16,11l0,.16C11.16,11.17,11.23,11,11.16,11Z"/><path class="cls-1" d="M10.37,11.69l.05.09c0-.08,0-.18,0-.2S10.37,11.6,10.37,11.69Z"/><path class="cls-1" d="M11.17,10.51c-.09,0,0-.17-.05-.2S11.08,10.5,11.17,10.51Z"/><path class="cls-1" d="M10.31,10.63c-.08,0,0,.14,0,.24C10.28,10.78,10.37,10.66,10.31,10.63Z"/><path class="cls-1" d="M10.91,9.62c.06,0,.06.08.05.16s-.05,0-.06-.08a1.91,1.91,0,0,1,.07.24c0-.1.07-.26.15-.24S11,9.53,10.91,9.62Z"/><path class="cls-1" d="M10.3,10.37c0,.09-.08.14-.08.25s.11,0,.1-.18l.08.05C10.45,10.37,10.3,10.53,10.3,10.37Z"/><path class="cls-1" d="M11.08,9.14l0,0c.06.13,0,.28.12.35A.84.84,0,0,0,11.08,9.14Z"/><path class="cls-1" d="M10.44,10l-.1,0c0,.12,0,0,.06,0a.13.13,0,0,0,0,.12C10.38,9.94,10.48,10.07,10.44,10Z"/><path class="cls-1" d="M10.33,9.55l-.05-.16-.11.12C10.21,9.69,10.23,9.52,10.33,9.55Z"/><path class="cls-1" d="M10.4,9.35h0l-.16-.24A1,1,0,0,0,10.4,9.35Z"/><path class="cls-1" d="M11.08,6.51c-.05,0-.11.11-.06,0S11.12,6.4,11.08,6.51Z"/><path class="cls-1" d="M10.24,7.07a.89.89,0,0,0-.06-.38C10.2,6.8,10.18,7.08,10.24,7.07Z"/><path class="cls-1" d="M10.16,6.65l0,0Z"/><path class="cls-1" d="M8.55,5.4h0Z"/><path class="cls-1" d="M8.65,5.37c.06,0,.19,0,.21-.06a1.06,1.06,0,0,0-.31.09S8.65,5.42,8.65,5.37Z"/><path class="cls-1" d="M7.72,5.35s.12,0,.1-.06S7.69,5.32,7.72,5.35Z"/><path class="cls-1" d="M1.4,4c-.16,0-.26,0-.19.06S1.27,4.06,1.4,4Z"/><path class="cls-1" d="M1,4.11l0,0L.85,4Z"/><path class="cls-1" d="M.07,4.22a.46.46,0,0,1,0-.09C.05,4.2.06,4.26.07,4.22Z"/><path class="cls-1" d="M0,4.09v0Z"/><path class="cls-1" d="M.06,4,0,4a.87.87,0,0,1,0,.1S0,4,.06,4Z"/><path class="cls-1" d="M.06,4.55a.71.71,0,0,1,.1-.14c0-.12,0-.07-.06,0s0,.1-.1-.06Z"/><path class="cls-1" d="M.09,5.3a.43.43,0,0,0,0,.16v.08l0,0c0,.06,0,.12,0,.15.06.32.2-.07.24.29.06-.34-.22-.18-.16-.48,0,.07-.05,0-.06,0V5.42S.09,5.32.09,5.3Z"/><path class="cls-1" d="M.28,5.25c-.06,0-.06.19,0,.26a.28.28,0,0,1,0-.12A.14.14,0,0,0,.28,5.25Z"/><polygon class="cls-1" points="0.14 6.02 0.09 6.12 0.13 6.14 0.14 6.02"/><path class="cls-1" d="M.11,6.39l-.06-.1S.07,6.47.11,6.39Z"/><path class="cls-1" d="M0,6.9c0,.09.13.17.1,0v0S0,7,0,6.9Z"/><path class="cls-1" d="M.28,8.08C.28,8,.26,8,.23,8l0,.17Z"/><path class="cls-1" d="M.66,8.06c.1-.06,0-.16,0-.27A.74.74,0,0,0,.66,8.06Z"/><path class="cls-1" d="M.14,8.27s0-.11,0-.15S.09,8.25.14,8.27Z"/><path class="cls-1" d="M.17,8.54c0,.06-.05,0-.08,0a.36.36,0,0,0,0,.31s.15-.07.2,0c0-.18-.21-.28-.08-.37L.07,8.32C0,8.47.18,8.44.17,8.54Z"/><path class="cls-1" d="M.49,8.16l0,.1s.06.06.08.11S.5,8.22.49,8.16Z"/><polygon class="cls-1" points="0.25 9.58 0.28 9.79 0.28 9.72 0.25 9.58"/><polygon class="cls-1" points="0.21 9.72 0.17 9.72 0.24 9.88 0.21 9.72"/><polygon class="cls-1" points="0.17 9.94 0.17 9.91 0.14 9.79 0.17 9.94"/><path class="cls-1" d="M.14,10.38l0,0c0-.05,0-.16,0-.15A.21.21,0,0,1,.14,10.38Z"/><path class="cls-1" d="M1.45,11.85s-.06,0-.09,0l.09.06S1.43,11.87,1.45,11.85Z"/><path class="cls-1" d="M1.31,12.11l.1.16c0-.18-.06-.21-.08-.37,0,.07,0,.16,0,.25Z"/><path class="cls-1" d="M1.53,14.09c0,.07,0,.06-.07.1l.13,0h.24c0-.05.11-.12,0-.1l-.21,0,0,0s-.06,0-.08,0l0,0S1.56,14.11,1.53,14.09Z"/><path class="cls-1" d="M9.71,14.78s0,.06,0,.08S9.69,14.78,9.71,14.78Z"/></g></g></svg>