<svg xmlns="http://www.w3.org/2000/svg" viewBox="0 0 18.2 14.29"><defs><style>.cls-1{fill:#00abbf;}</style></defs><g id="Layer_2" data-name="Layer 2"><g id="layout"><g id="g4407"><g id="g6066"><path id="path35430" class="cls-1" d="M6.66.41l-6,4.43L5.79,8.78a3,3,0,0,1,3.83,0l5.26-3.94L8.84.41A1.66,1.66,0,0,0,6.66.41ZM6.93,2H8.58a.51.51,0,0,1,.33.15.38.38,0,0,1,.15.3V3.94h1.48a.3.3,0,0,1,.24.49L8.21,6.92a.55.55,0,0,1-.91,0L4.72,4.43A.3.3,0,0,1,5,3.94H6.47V2.45a.39.39,0,0,1,.13-.31A.45.45,0,0,1,6.93,2Z"/><path id="path35434" class="cls-1" d="M15.42,5.51,10.29,9.4l5.13,4.25a1,1,0,0,0,.1-.42V5.91A.91.91,0,0,0,15.42,5.51Zm-15.3,0A.93.93,0,0,0,0,5.91v7.32a.81.81,0,0,0,.12.4l5-4.22ZM6,9.77.65,14.24a1.08,1.08,0,0,0,.27,0h13.7a1.19,1.19,0,0,0,.26,0L9.53,9.84A2.54,2.54,0,0,0,6,9.77Z"/></g></g><g id="g4464"><path id="path8094" class="cls-1" d="M18.2,8.36,13.9.74h0"/></g></g></g></svg>