<svg xmlns="http://www.w3.org/2000/svg" viewBox="0 0 32.16 31.25"><defs><style>.cls-1{fill:#26b8c9;}.cls-2,.cls-3{fill:none;stroke:#fff;stroke-linecap:round;stroke-linejoin:round;}.cls-2{stroke-width:1.09px;}.cls-3{stroke-width:0.8px;}</style></defs><g id="Layer_2" data-name="Layer 2"><g id="layout"><polygon class="cls-1" points="31.76 16.94 23.9 11.31 23.9 3.32 16.2 3.32 16.2 0.82 0.4 0.82 0.4 30.82 16.2 30.82 16.2 30.32 23.9 30.32 23.9 20.79 26.32 17.89 31.76 16.94"/><path class="cls-2" d="M1.5.54H7.32a1,1,0,0,1,.95,1.05V29.66a1,1,0,0,1-.95,1H1.5a1,1,0,0,1-1-1V1.59a1,1,0,0,1,1-1Z"/><line class="cls-2" x1="6.23" y1="6.78" x2="2.58" y2="6.78"/><line class="cls-2" x1="2.58" y1="4.25" x2="6.23" y2="4.25"/><line class="cls-2" x1="6.23" y1="26.91" x2="2.58" y2="26.91"/><line class="cls-2" x1="2.58" y1="24.38" x2="6.23" y2="24.38"/><path class="cls-2" d="M8.39,1.59a1,1,0,0,1,1-1h5.81a1,1,0,0,1,1,1.05V29.66a1,1,0,0,1-1,1H9.35a1,1,0,0,1-1-1"/><polygon class="cls-3" points="22.78 22.13 21.55 9.63 31.76 16.94 26.32 17.89 22.78 22.13 22.78 22.13"/><line class="cls-3" x1="26.32" y1="17.89" x2="30.96" y2="25.92"/><path class="cls-2" d="M23.84,25.7v4.05a1,1,0,0,1-1,.95H17.07a1,1,0,0,1-1-.95"/><path class="cls-2" d="M16.11,4.06a1,1,0,0,1,1-1h5.81a1,1,0,0,1,1,1V7"/><line class="cls-2" x1="14.08" y1="26.91" x2="10.43" y2="26.91"/><line class="cls-2" x1="10.43" y1="24.38" x2="14.08" y2="24.38"/><line class="cls-2" x1="21.8" y1="26.91" x2="18.15" y2="26.91"/><line class="cls-2" x1="18.15" y1="24.38" x2="21.8" y2="24.38"/><line class="cls-2" x1="21.8" y1="6.78" x2="18.15" y2="6.78"/><line class="cls-2" x1="14.08" y1="6.78" x2="10.43" y2="6.78"/><line class="cls-2" x1="10.43" y1="4.25" x2="14.08" y2="4.25"/></g></g></svg>