<svg xmlns="http://www.w3.org/2000/svg" viewBox="0 0 19.3 17.43"><defs><style>.cls-1{fill:#00abbf;}</style></defs><g id="Layer_2" data-name="Layer 2"><g id="layout"><g id="g22772"><path id="path22388" class="cls-1" d="M13.5.46l-.94,1.62,5.68,3.28,1-1.62a1,1,0,0,0-.37-1.3l-4-2.31A1,1,0,0,0,13.5.46Z"/><path id="rect22347" class="cls-1" d="M.82,15.8H5.45a.77.77,0,0,1,.81.74v.15a.77.77,0,0,1-.81.74H.82A.78.78,0,0,1,0,16.69v-.15A.78.78,0,0,1,.82,15.8Z"/></g><path class="cls-1" d="M12.09,2.89l-4.64,8a1.85,1.85,0,0,0-.37,1l.07,4.72a.77.77,0,0,0,1.2.7L12.48,15a1.88,1.88,0,0,0,.64-.79l4.65-8ZM8.92,15.7l-.65-.37,0-3.28,3.56,2Z"/></g></g></svg>