<svg xmlns="http://www.w3.org/2000/svg" viewBox="0 0 152.99 38.11"><defs><style>.cls-1{fill:#fff;}.cls-2{fill:#ececeb;stroke:#3e3428;stroke-miterlimit:10;stroke-width:0.79px;}.cls-3{fill:#3e3428;}</style></defs><g id="Layer_2" data-name="Layer 2"><g id="layout"><path class="cls-1" d="M71.87,9c0-.36.43-.79,1.39-.93h.12c.41,0,.67.33.72.86,0,.24,0,.5,0,.76a16.91,16.91,0,0,1-.31,3.07c.55,0,1-.1,1.46-.1,1.75,0,3,.74,3.28,2.58a15.75,15.75,0,0,1,.12,1.87,22.2,22.2,0,0,1-1,6.36c-.64,1.8-1.58,2.42-2.58,2.42a3.33,3.33,0,0,1-1.39-.33,5.18,5.18,0,0,1-1.58-1.18,1.26,1.26,0,0,1-.33-.76.86.86,0,0,1,.28-.62.76.76,0,0,1,.53-.24,1,1,0,0,1,.69.33,3.84,3.84,0,0,0,.94.77,1.93,1.93,0,0,0,.64.16c.43,0,.82-.31,1.13-1.17A19.86,19.86,0,0,0,76.9,17c0-.5,0-1-.07-1.39-.12-1-.65-1.41-1.75-1.41a13.51,13.51,0,0,0-1.63.14A27,27,0,0,1,68.5,25a1.12,1.12,0,0,1-.77.41.86.86,0,0,1-.67-.41.91.91,0,0,1-.19-.55,1.47,1.47,0,0,1,.48-1c1.84-1.93,3.71-6.12,4.33-8.87-1.27.21-2.61.5-3.56.74-.15,0-.27.05-.36.05a.59.59,0,0,1-.65-.65.51.51,0,0,1,0-.21c.12-.75.55-1.18.91-1.18a.59.59,0,0,1,.5.34c.86-.22,2.18-.48,3.49-.7a16.86,16.86,0,0,0,.26-2.68c0-.31,0-.59,0-.86A.48.48,0,0,1,71.87,9ZM84.15,19.79a2.43,2.43,0,0,1,0,.36.83.83,0,0,1-.88.91c-.43,0-.82-.27-.94-1a21.82,21.82,0,0,0-3.44-8.33.59.59,0,0,1-.17-.41c0-.38.45-.67.74-.71a2.05,2.05,0,0,1,.53-.05c.64,0,1,.26,1,.64a.87.87,0,0,1-.14.46A25.69,25.69,0,0,1,84.15,19.79Zm1.27-5.89a2,2,0,0,1,0,.31.7.7,0,0,1-.71.7.72.72,0,0,1-.63-.46,25.78,25.78,0,0,0-1.91-4A.9.9,0,0,1,82,9.93a.79.79,0,0,1,.88-.72.77.77,0,0,1,.84.67.81.81,0,0,1-.07.32A15.78,15.78,0,0,1,85.42,13.9Zm2.44-1.46a2.23,2.23,0,0,1,0,.34.67.67,0,0,1-.71.67.7.7,0,0,1-.63-.46,25.78,25.78,0,0,0-1.91-4,.9.9,0,0,1-.19-.53.67.67,0,0,1,.48-.62c.64-.21,1.24.07,1.24.6a.8.8,0,0,1-.07.31A15.28,15.28,0,0,1,87.86,12.44Z"/><path class="cls-1" d="M95.12,11.58a20.17,20.17,0,0,1-.52-3.75c0-.53.12-1,.74-1,1,0,1.48.4,1.48.76,0,.19-.12.39-.43.53,0,1,.24,2.39.36,3.3l3.57-.38h.24c.57,0,.86.24.86.67a.84.84,0,0,1-.82.91l-9.64,1c-.5,0-1-.22-1-.6a.5.5,0,0,1,0-.17c.36-.91.72-1.27,1-1.27s.33.15.45.39Zm-2.89,4.74a2.08,2.08,0,0,1-.31-.91.53.53,0,0,1,.43-.53,2.91,2.91,0,0,1,.88-.19c.43,0,.65.17.65.48a.8.8,0,0,1-.12.43A16.23,16.23,0,0,0,96,18.88a19.84,19.84,0,0,0,1.48-4.38.73.73,0,0,1-.21-.45c0-.39.5-.67,1.46-.67.43,0,.69.26.69.76a2.09,2.09,0,0,1-.12.65,29.05,29.05,0,0,1-2.1,5.38,21.16,21.16,0,0,0,2.94,2.68c.48.31.67.62.67,1a1.08,1.08,0,0,1-.12.45.88.88,0,0,1-.79.51,1.17,1.17,0,0,1-.72-.27,25.31,25.31,0,0,1-2.89-2.89,33.87,33.87,0,0,1-4.09,5.19,1.25,1.25,0,0,1-.79.36.81.81,0,0,1-.7-.41.82.82,0,0,1-.14-.45,1.5,1.5,0,0,1,.57-1,33.75,33.75,0,0,0,4-4.88A22.28,22.28,0,0,1,92.23,16.32Zm15.89-3.73,2.53-.24h.22c.6,0,.79.33.79.86A.72.72,0,0,1,111,14l-2.85.26.19,11.89c0,1.15-.53,1.7-1.55,1.7a6.73,6.73,0,0,1-2.49-.53,1,1,0,0,1-.65-.86.75.75,0,0,1,.74-.84,2.29,2.29,0,0,1,.55.1,5.77,5.77,0,0,0,1.27.26c.38,0,.43-.19.43-.6l-.19-11-4.88.46c-.38,0-.81-.15-.81-.55a.9.9,0,0,1,.07-.34c.41-.81.69-1.15,1-1.15s.29.15.41.39l4.24-.43-.07-4.36c-.32-.12-.48-.29-.48-.48s.38-.6,1.19-1a.63.63,0,0,1,.29-.08c.41,0,.69.43.69,1Zm-3,8.16a1.47,1.47,0,0,1,.38.88.9.9,0,0,1-.84.82,1.14,1.14,0,0,1-.86-.58,31.44,31.44,0,0,1-2.44-4.47,2.27,2.27,0,0,1-.22-.89c0-.26.08-.43.32-.48a5.83,5.83,0,0,1,.74-.07c.57,0,.86.14.86.43a.93.93,0,0,1-.14.43A18.67,18.67,0,0,0,105.08,20.75Z"/><path class="cls-1" d="M122,6.87c0-.34.48-.53,1.18-.53a2.85,2.85,0,0,1,.64,0,.54.54,0,0,1,.5.53.92.92,0,0,1-.33.64,29.81,29.81,0,0,1-5.89,4.6,1.82,1.82,0,0,1-.74.26.79.79,0,0,1-.55-.26.9.9,0,0,1-.24-.55c0-.27.19-.53.65-.77a20.93,20.93,0,0,0,4.88-3.66A.59.59,0,0,1,122,6.87Zm-1.29,9.9v.1a.69.69,0,0,1-.76.69h-.07c-.44,0-.75-.19-.82-.79l-.43-3.34a.49.49,0,0,1-.31-.44c0-.28.31-.67,1.08-1a.52.52,0,0,1,.26-.05c.36,0,.6.36.65.88l.26,2.52,4.19-.27.12-2.1-3,.21c-.45,0-.81-.21-.81-.5a.62.62,0,0,1,0-.19c.36-.7.67-1.1,1-1.1.14,0,.26.09.38.31l2.63-.19a22.08,22.08,0,0,0,2.35-2.35l-3.11.29h-.07c-.41,0-.75-.26-.75-.55a.5.5,0,0,1,.08-.26c.4-.6.76-.91,1-.91A.38.38,0,0,1,125,8l3.69-.34a1.41,1.41,0,0,1,.84-.28c.43,0,.79.24.79.62a1.09,1.09,0,0,1-.39.76,27.13,27.13,0,0,1-2.65,2.54l4-.31a1.06,1.06,0,0,1,.89-.48,1,1,0,0,1,.91,1.08v.28l-.39,3.81c-.07.62-.33.81-.79.81A.77.77,0,0,1,131,16l-3.9.29a.73.73,0,0,1-.29.4,11.63,11.63,0,0,1-1.27.89A6.27,6.27,0,0,1,127,20.1a12.71,12.71,0,0,1,.65,4,8.54,8.54,0,0,1-.26,2.23c-.36,1.22-.94,1.67-2,1.67a5.46,5.46,0,0,1-2.08-.55.92.92,0,0,1-.6-.81,1.23,1.23,0,0,1,.08-.39.61.61,0,0,1,.62-.38,2.82,2.82,0,0,1,.79.17,2.86,2.86,0,0,0,.91.19c.4,0,.55-.24.64-.67a12.37,12.37,0,0,0,.22-2.3,9,9,0,0,0-.07-1.15A29,29,0,0,1,118.33,27a1.66,1.66,0,0,1-.58.14.73.73,0,0,1-.72-.55,1,1,0,0,1,0-.24c0-.28.17-.57.65-.79a27.3,27.3,0,0,0,7.94-5,7.09,7.09,0,0,0-1.12-2.37,34.76,34.76,0,0,1-4.26,1.87,1,1,0,0,1-.31.07.74.74,0,0,1-.7-.74.83.83,0,0,1,.72-.77,21.48,21.48,0,0,0,5-2.18Zm2.13,3c0-.24.19-.33.5-.33a2.46,2.46,0,0,1,.72.12.61.61,0,0,1,.43.57.69.69,0,0,1-.31.55,22.08,22.08,0,0,1-5.93,3.16,1.14,1.14,0,0,1-.38.07.72.72,0,0,1-.7-.55,1,1,0,0,1,0-.24.78.78,0,0,1,.62-.74,20.61,20.61,0,0,0,5.07-2.46Zm3.71-6.94-.19,2.13,4.66-.31.12-2.15Zm4.93,4.29c0-.27.17-.41.53-.41a2.61,2.61,0,0,1,1.14.33.72.72,0,0,1,.43.65.85.85,0,0,1-.35.67,31.86,31.86,0,0,1-3.74,2.46A31.6,31.6,0,0,0,135,24.91a1.08,1.08,0,0,1,.6.91.92.92,0,0,1-.24.62.79.79,0,0,1-.67.34,1.84,1.84,0,0,1-1-.36A51.8,51.8,0,0,1,128,21.37a1,1,0,0,1-.29-.62.81.81,0,0,1,.38-.65,28.31,28.31,0,0,0,3.52-2.68A.89.89,0,0,1,131.51,17.09Z"/><path class="cls-1" d="M141.36,11.65c.41-2.24,2.83-4.16,5.62-4.16,3.35,0,6,1.7,6,4.81,0,2-.91,3.23-2.73,4.33a5.8,5.8,0,0,0-2.15,1.94,4.42,4.42,0,0,0-.62,1.94.8.8,0,0,1-.79.86.75.75,0,0,1-.77-.81,5.49,5.49,0,0,1,.77-2.83,7.87,7.87,0,0,1,2.17-2.1c1.54-1.13,1.94-1.89,1.94-3.33,0-2-1.5-3-3.85-3a4,4,0,0,0-4,3.33c-.07.55-.31,1-.79,1a1.23,1.23,0,0,1-.5-.14c-.74-.39-1.05-.87-1.05-1.23a.57.57,0,0,1,.64-.55Zm7,13.67A1.71,1.71,0,0,1,146.7,27a1.71,1.71,0,0,1,0-3.42A1.72,1.72,0,0,1,148.37,25.32Z"/><path class="cls-2" d="M32.32,35.07c-9.19-2.43-29.19,2.55-29.19,2.55L.42,6.64S17.27-.21,29.61,4.09Z"/><path class="cls-2" d="M32.36,35.06c8.63-4,29.19-2.55,29.19-2.55l-2.71-31S41.06-2.29,29.65,4.09Z"/><path class="cls-3" d="M12.45,11.9c-.26-.08-.4-.22-.42-.39s.37-.69,1.1-.86h.06a.73.73,0,0,1,.74.59A5.14,5.14,0,0,1,14,12a9.73,9.73,0,0,1-.11,2.36c2.17-.34,4.33-.74,5.92-1.07A10.71,10.71,0,0,0,19,12.12a.74.74,0,0,1-.21-.45.62.62,0,0,1,.41-.61,1,1,0,0,1,.36-.1.63.63,0,0,1,.75.51,1,1,0,0,1,0,.28,15,15,0,0,1,1.83,3.19,2.11,2.11,0,0,1,.07.3.49.49,0,0,1-.21.48.81.81,0,0,1-.37.14.55.55,0,0,1-.57-.37c-.13-.27-.26-.56-.42-.84-1.8.35-4.3.78-6.87,1.2-.45,3.36-2,8.43-4.54,11.45a.83.83,0,0,1-.53.3.73.73,0,0,1-.49-.17.89.89,0,0,1-.32-.55A.77.77,0,0,1,8,26.37a24.17,24.17,0,0,0,4.14-10.28c-1.56.24-3.1.46-4.49.65A.59.59,0,0,1,7,16.22a.62.62,0,0,1,0-.13c.19-.8.52-1.19.81-1.22a.54.54,0,0,1,.46.3c1.2-.13,2.61-.31,4.09-.53a11.89,11.89,0,0,0,.1-2.48Zm6,5.88h.12a6.84,6.84,0,0,1,3.48.51.9.9,0,0,1,.56.74.85.85,0,0,1-.11.5.65.65,0,0,1-.5.34.92.92,0,0,1-.57-.18,4.09,4.09,0,0,0-2.76-.51,10.1,10.1,0,0,0-3.07,1,1.37,1.37,0,0,1-.54.18c-.25,0-.43-.11-.47-.49V19.7c-.07-.8.14-1.29.5-1.32a.64.64,0,0,1,.47.19A9.94,9.94,0,0,1,18.43,17.78Zm3.87,6.68a.78.78,0,0,1,.77.58.66.66,0,0,1,0,.23.86.86,0,0,1-.58.86,7,7,0,0,1-2.36.57,7.27,7.27,0,0,1-1.48,0c-1.79-.23-3.1-1.31-3.22-2.66A2.49,2.49,0,0,1,15.61,23a.69.69,0,0,1,1-.5A.67.67,0,0,1,17,23c0,.1,0,.21,0,.32a1.29,1.29,0,0,0,0,.39c.06.7.82,1.33,2.2,1.47a6,6,0,0,0,.85,0,4.78,4.78,0,0,0,2-.62A.67.67,0,0,1,22.3,24.46Zm1.85-11a2.18,2.18,0,0,1,.07.27.54.54,0,0,1-.24.52.87.87,0,0,1-.37.13.51.51,0,0,1-.54-.37,15.88,15.88,0,0,0-2-3.37.72.72,0,0,1-.2-.43.61.61,0,0,1,.41-.61,1.09,1.09,0,0,1,.36-.1c.4,0,.72.17.74.49a.75.75,0,0,1,0,.3A14.77,14.77,0,0,1,24.15,13.46Z"/><path class="cls-3" d="M40.2,9.22c0-.34.36-.78,1.1-.86.44-.06.75.27.81,1,0,.11,0,.24,0,.34,0,1.78.07,3.71.22,5.68a12.83,12.83,0,0,1,3.72-4.55,2.72,2.72,0,0,1,1.25-.41,2.06,2.06,0,0,1,1,.13,1.7,1.7,0,0,1,1,1.53,4,4,0,0,1,0,.9,22.71,22.71,0,0,0-.06,4.68,12.26,12.26,0,0,0,.56,3c.17.44.37.63.61.61s.35-.16.52-.43a8.09,8.09,0,0,0,.86-2.74.8.8,0,0,1,.63-.72.78.78,0,0,1,.87.69,2.29,2.29,0,0,1,0,.37,9.6,9.6,0,0,1-1.07,3.23A2.4,2.4,0,0,1,50.43,23c-.83.07-1.62-.5-2.1-1.76a15.22,15.22,0,0,1-.67-3.5,23.91,23.91,0,0,1,0-4.65,2.87,2.87,0,0,0,0-.41c0-.42-.25-.62-.56-.59a1.77,1.77,0,0,0-.92.44,14.7,14.7,0,0,0-3.69,5.4c.19,2.23.38,3.85.63,6,0,.21.07.53.08.65a.66.66,0,0,1-.61.82.72.72,0,0,1-.9-.71c-.21-1.71-.4-3.42-.55-5.11a11.21,11.21,0,0,1-3.24,2.74,1.47,1.47,0,0,1-.48.12c-.3,0-.52-.08-.58-.29a3,3,0,0,1-.06-.4c-.05-.65.15-1.06.42-1.08a.48.48,0,0,1,.38.14,10.44,10.44,0,0,0,3.4-3c-.07-1.1-.15-2.21-.2-3.29a14.23,14.23,0,0,1-2.46.47,4.72,4.72,0,0,1-1.15,0,1,1,0,0,1-.88-.81.75.75,0,0,1,.09-.4c.27-.4.53-.6.76-.62s.39.14.51.47a6.52,6.52,0,0,0,1.17,0,11.6,11.6,0,0,0,1.89-.35c-.06-1.24-.1-2.43-.14-3.6A.47.47,0,0,1,40.2,9.22Z"/></g></g></svg>