<svg xmlns="http://www.w3.org/2000/svg" viewBox="0 0 47.62 51.79"><defs><style>.cls-1{fill:#80d5df;}</style></defs><g id="Layer_2" data-name="Layer 2"><g id="layout"><path class="cls-1" d="M34.91,32c.27.47.64.24,1,0s.63-.4.33-.8a.68.68,0,0,0-1-.21A.72.72,0,0,0,34.91,32Z"/><path class="cls-1" d="M24,12.74a.69.69,0,0,0,.21-.81c-.12-.26-.36-.19-.62-.12a.62.62,0,0,0-.14.78C23.54,12.81,23.77,12.93,24,12.74Z"/><path class="cls-1" d="M9.66,27.12c.33-.11.35-.49.21-.78s-.52-.4-.92-.25c-.2.17-.35.38-.18.67A.77.77,0,0,0,9.66,27.12Z"/><path class="cls-1" d="M11.33,32a8.89,8.89,0,0,0-.79.45c-.36.22-.33.59-.3.93s.37.54.71.63a1.67,1.67,0,0,0,1.29-.35c.82-.5.94-.77.61-1.32S12.14,31.63,11.33,32Z"/><path class="cls-1" d="M34.08,19.4a.84.84,0,0,0,1,.39,3.25,3.25,0,0,0,.5-.17,4.94,4.94,0,0,1,.37-.33c.42-.35.7-.78.4-1.29s-.84-.38-1.31-.14a1.73,1.73,0,0,0-.69.38A1.08,1.08,0,0,0,34.08,19.4Z"/><path class="cls-1" d="M34.8,38.25a18.41,18.41,0,0,0,3.61-3.66c.93-1.27,1.63-2.67,2.48-4a4.12,4.12,0,0,0,.2-.65c.5-1.52,0-3.05.12-4.57,0-.55-.41-.8-.52-1.23a2.05,2.05,0,0,1-.07-.34,21.52,21.52,0,0,0-.87-3.45,14.26,14.26,0,0,0-5.7-7.82,32.61,32.61,0,0,0-4-2.14,12.78,12.78,0,0,0-8.63-.78,14.89,14.89,0,0,0-4.24,1.7,21.65,21.65,0,0,0-4.66,3.14,22.11,22.11,0,0,1-2.26,1.95A7.6,7.6,0,0,0,7.3,20.15c-.18.55-.37,1.09-.58,1.63a14.76,14.76,0,0,0-.27,8.58,10.39,10.39,0,0,0,2.08,4.22,23.26,23.26,0,0,0,2.77,3.91,7.62,7.62,0,0,0,2.77,2.19,18.47,18.47,0,0,0,6.21,2c1.06.1,2.13.17,3.19.29A8.38,8.38,0,0,0,28.14,42c1.38-.66,2.68-1.49,4-2.15A15.28,15.28,0,0,0,34.8,38.25Zm-8.57,2a14.78,14.78,0,0,1-9,.1A11.81,11.81,0,0,1,11,36.1a21,21,0,0,1-2.28-3.57,15.5,15.5,0,0,1-1.19-5.24,3.55,3.55,0,0,0,0-.57c-.74-2.38.25-4.47,1-6.64a7.43,7.43,0,0,1,2.61-3.21,42.6,42.6,0,0,1,4.33-3.6c2.83-1.64,5.76-3,9.14-3.07a9.33,9.33,0,0,1,3.71.63,26.9,26.9,0,0,1,5.41,2.79,14,14,0,0,1,5,7,21.9,21.9,0,0,1,1.36,6,6.72,6.72,0,0,1-1.5,4.79c-.94,1.11-1.67,2.39-2.71,3.42a12.17,12.17,0,0,1-2.38,2A38.76,38.76,0,0,1,26.23,40.28Z"/><path class="cls-1" d="M31.47,14.65a.44.44,0,0,0,.37-.49c-.08-.21-.25-.24-.45-.22a.41.41,0,0,0-.41.44C31,14.65,31.22,14.73,31.47,14.65Z"/><path class="cls-1" d="M37,24.28a.34.34,0,0,0-.09.41,1.2,1.2,0,0,0,1.41.3.26.26,0,0,0,.07-.31A1.24,1.24,0,0,0,37,24.28Z"/><path class="cls-1" d="M16.63,36.38c-.38,0-.57.32-.73.64A.87.87,0,0,0,16,38a.34.34,0,0,0,.41.09A1.46,1.46,0,0,0,17,36.55.39.39,0,0,0,16.63,36.38Z"/><path class="cls-1" d="M25.47,24.21a1.36,1.36,0,0,0-1.45.06c-.17.16-.37.33-.56.53A1.4,1.4,0,0,0,25,27.08c.75-.3.87-1,1-1.69A1,1,0,0,0,25.47,24.21Zm-.72,1.66c-.05-.07-.12-.13-.12-.19,0-.25-.12-.55.22-.67.07,0,.26,0,.28.11C25.24,25.48,25.17,25.78,24.75,25.87Z"/><path class="cls-1" d="M31.8,42.73c1-.63,1.95-1.21,3-1.77A17.36,17.36,0,0,0,38,38.63c1.22-1.11,2.21-2.44,3.33-3.64a1.09,1.09,0,0,1,1.37-.36l2.56,1A1.22,1.22,0,0,0,47,35.08c.21-.37.34-.77.53-1.15a.64.64,0,0,0-.3-1c-.91-.56-1.78-1.19-2.68-1.77-1.07-.71-1.15-.75-.83-1.95A12.1,12.1,0,0,0,43.15,22a33.15,33.15,0,0,0-3.36-7.28c-1.16-1.75-2.3-3.57-4.15-4.71a33.06,33.06,0,0,0-3.81-2.13c-1.95-.86-3.89-1.84-6.13-1.7a8.77,8.77,0,0,0-1.14.1c-.16,0-.33,0-.34-.19a.31.31,0,0,1,.26-.33,7,7,0,0,1,.91-.07c.58,0,1.15.08,1.73.07.84,0,2-1.18,1.8-1.89C28.42,1.88,27,0,24.6,0a8.46,8.46,0,0,0-2.92.51c-2.47.89-3.51,2.78-3,5.43A.92.92,0,0,0,19,6c1.17-.35,2.36,0,3.54-.06.2,0,.39.05.42.29a.4.4,0,0,1-.31.43,1.7,1.7,0,0,1-.45.08,10.25,10.25,0,0,0-4.72,1.65c-.2.11-.4.23-.61.32-1.09.43-1.77-.07-1.72-1.27,0-.32,0-.62-.23-.84a2.41,2.41,0,0,1-.65-1.19,5.66,5.66,0,0,0-1-1.68A1.43,1.43,0,0,0,12,3.12a2.55,2.55,0,0,0-1.87,1c-.67.76-.91,1.44-.23,2.31a2.45,2.45,0,0,1,.38,1.08,4.15,4.15,0,0,0,.68,1.44c.19.31.42.55.84.46.76-.17.84.5,1.07.93s-.15.75-.5,1c-1.43,1-2.86,2.06-4.21,3.21-.17.15-.35.3-.53.43a.81.81,0,0,1-1.12-.24c-.27-.31.09-.56.28-.77.47-.5,1-1,1.46-1.46.83-.8.8-1.29-.17-1.85A6.28,6.28,0,0,0,4.18,10a.94.94,0,0,0-.32.11A6.64,6.64,0,0,0,.07,15a3.52,3.52,0,0,0,1.26,3.51c.29.24.65.42.78.83.07.22.28.2.48.18a1.15,1.15,0,0,0,.83-.54A10.21,10.21,0,0,0,4.7,16.52a.49.49,0,0,1,.83-.23c.32.23.7.41.39.89S5.3,18.05,5,18.5a7.59,7.59,0,0,0-1.43,2.85A8.47,8.47,0,0,0,3.68,25,9.58,9.58,0,0,1,4,27.6a9.29,9.29,0,0,0,1.34,4.92C6,33.61,6.5,34.76,7.09,35.87c1.06,2,2,4,3.84,5.39.9.71,1.77,1.46,2.6,2.26a5.68,5.68,0,0,0,2,1.27,21.62,21.62,0,0,0,2.7,1,1.38,1.38,0,0,1,1.1,1,6.56,6.56,0,0,1,.35,2.37A6.25,6.25,0,0,0,19.83,51a1,1,0,0,0,1.07.81,1.92,1.92,0,0,0,2-2.16A19.15,19.15,0,0,1,23,47a1.26,1.26,0,0,1,1.11-1.38,12.22,12.22,0,0,0,1.44-.38A21.74,21.74,0,0,0,31.8,42.73Zm14.23-9c.11.1.24.21.2.38s-.28.22-.46.22a10.36,10.36,0,0,1-2.83-.89c-.39-.12-.3-1.07.12-1.39a.39.39,0,0,1,.5,0A16.87,16.87,0,0,1,46,33.72Zm-24.62-29c-.46,0-.92,0-1.37.08-.7.06-.82-.07-.56-.75a3.68,3.68,0,0,1,2.78-2.6,5.81,5.81,0,0,1,3-.09,3.77,3.77,0,0,1,2.57,3.15C25.58,4.4,23.5,4.65,21.41,4.69ZM11.73,7.51a1,1,0,0,0-.35-1,2.12,2.12,0,0,1-.55-.86c-.17-.41-.43-.84.1-1.2a1.26,1.26,0,0,1,1.58,0,2.82,2.82,0,0,1,.63.9,1.57,1.57,0,0,1,.12,2,1.72,1.72,0,0,1-.85.67C11.83,8.25,11.62,8.12,11.73,7.51ZM3.24,17.32c-.68,1.1-.91.88-1.64.05a.91.91,0,0,1-.13-.19A2.94,2.94,0,0,1,1,15.9c-.24-1.88.84-3.15,2.07-4.25s2.44-.71,3.7-.26c.61.22.63.37.24.91a2.61,2.61,0,0,1-.37.44A19.83,19.83,0,0,0,3.24,17.32ZM21.66,49.89c-.09.21-.18.45-.46.43s-.31-.3-.38-.52c-.3-1-.07-2.14-.31-3.19-.05-.23.13-.34.34-.36a2.55,2.55,0,0,1,1.43,0A16,16,0,0,1,21.66,49.89Zm2.55-5.33a9.8,9.8,0,0,1-6.85-.22,10.57,10.57,0,0,1-3.81-2.25,22.85,22.85,0,0,0-1.74-1.5,15.45,15.45,0,0,1-4.14-5.84,11,11,0,0,0-1-1.83A19.21,19.21,0,0,1,5,29.79,2.27,2.27,0,0,1,4.81,29a38,38,0,0,1-.14-7.54A6.52,6.52,0,0,1,6,18.58,22.55,22.55,0,0,1,12.78,12c.64-.42,1.17-1,1.83-1.38,1-.6,2.13-1,3.16-1.64C20,7.65,22.59,7.51,25.09,7.24a9.42,9.42,0,0,1,4.16.68,33.49,33.49,0,0,1,6,3.12,9,9,0,0,1,2.32,2.37c.46.6.88,1.25,1.33,1.87a16.11,16.11,0,0,1,2,3.63c.55,1.51,1.41,2.89,1.82,4.46a12.27,12.27,0,0,1-1.54,10.37,17.8,17.8,0,0,1-6.88,6.45,14.6,14.6,0,0,0-2.07,1.25,16.21,16.21,0,0,1-5.11,2.28C26.12,44,25.16,44.25,24.21,44.56Z"/><path class="cls-1" d="M29.44,35.57c-.43.6-.42.84.14,1.7.22.16.24.7.73.65s.63-.49.8-.87a1.77,1.77,0,0,0,.15-1.11,1,1,0,0,0-.87-.79A.8.8,0,0,0,29.44,35.57Z"/><path class="cls-1" d="M21.79,38.22a.83.83,0,0,0-.24,1.18c.22.36.52.68,1,.55.33-.09.54-1,.35-1.43A1.07,1.07,0,0,0,21.79,38.22Z"/><path class="cls-1" d="M10.53,19.43c0,.07-.13.18-.11.26.13.51.57.67,1,.79a.78.78,0,0,0,1-.47.37.37,0,0,0,0-.31A3.08,3.08,0,0,0,10.53,19.43Z"/><path class="cls-1" d="M17.77,15.93c.37-.48,0-.85-.23-1.22a3.38,3.38,0,0,0-.37-.58,1,1,0,0,0-1.73.29c-.28.63-.12,1,.74,1.54A1.48,1.48,0,0,0,17.77,15.93Z"/></g></g></svg>