<svg xmlns="http://www.w3.org/2000/svg" viewBox="0 0 65.76 65.9"><defs><style>.cls-1{fill:#80d5df;}</style></defs><g id="Layer_2" data-name="Layer 2"><g id="layout"><path class="cls-1" d="M39.93,25l-1.06-.08a49.94,49.94,0,0,0-5.68-3.59c-5.56-3.09-11.18-6-16.8-9A100.08,100.08,0,0,1,6.6,6.56,15.16,15.16,0,0,1,3.52,3.82,6.34,6.34,0,0,1,2.45,2.06,1.49,1.49,0,0,1,2.67.38,3.11,3.11,0,0,1,5.26.19,25.84,25.84,0,0,1,11,2.82C19.77,8,28.24,13.62,36.63,19.39l4.14,2.88a26.63,26.63,0,0,0,4.12,2,22.1,22.1,0,0,0,7.67,1.84,32.67,32.67,0,0,1,5.89,1,11.25,11.25,0,0,1,4.84,2.51c2.34,2.1,2.76,4.73,2.31,7.65a2.5,2.5,0,0,1-.74,1.27A12.72,12.72,0,0,0,63,40.94,6.79,6.79,0,0,1,55.31,44,11,11,0,0,1,48,37.86a67.13,67.13,0,0,0-4.91-9.35,14.79,14.79,0,0,0-1.33-1.88A22.18,22.18,0,0,0,39.93,25Zm4.92,4.7c1.41,2.58,2.75,5.19,4,7.87A9.78,9.78,0,0,0,55.37,43a5.8,5.8,0,0,0,6.07-1.67c.1-.07.18-.15.09-.28a1.68,1.68,0,0,1-.39.07,11.55,11.55,0,0,1-10.23-4.26c-.6-.69-1.1-1.46-1.65-2.19A38.17,38.17,0,0,0,45,29.6c-.09-.1-.17-.23-.33-.13S44.76,29.65,44.85,29.7Zm-2.43-3.84c-.22.26.07.31.19.4a42.36,42.36,0,0,1,7.83,8.65,15.49,15.49,0,0,0,1.8,2.24,10.73,10.73,0,0,0,7.87,3.18,3.14,3.14,0,0,0,2.45-.91,18.53,18.53,0,0,1-7.9-3.94c-2.31-1.82-4.56-3.73-6.83-5.6a39.53,39.53,0,0,0-5.42-4c-.11.05-.16,0-.21-.09Zm-2.58-3.47c-.68-.44-1.39-.88-2.09-1.34-5.29-3.53-10.51-7.16-15.85-10.59C17.51,7.64,13.19,4.74,8.59,2.28A12.13,12.13,0,0,0,4.43.67a1.59,1.59,0,0,0-1.56.41A4,4,0,0,0,4,3.36,14.1,14.1,0,0,0,6.78,5.88,131,131,0,0,0,19.32,13.1q6,3.18,11.94,6.4c2.49,1.35,4.9,2.84,7.26,4.43.43.29.83.56,1.33.09A3.33,3.33,0,0,0,39.84,22.39Zm.83,2a28.66,28.66,0,0,1,7.64,4.88c2.7,2.19,5.39,4.4,8.17,6.49a17.15,17.15,0,0,0,4.88,2.52,3,3,0,0,0,2,.13A2.61,2.61,0,0,0,62.7,36a16.42,16.42,0,0,0-5.47-4.46c-2.15-1.1-4.48-1.78-6.69-2.74A48.92,48.92,0,0,1,41,23.6c-.08-.05-.14-.06-.21,0a1.54,1.54,0,0,0-.08.19C40.66,24,40.67,24.11,40.67,24.39ZM64.41,37.47c.57-2.29.49-4.27-.83-6A8.48,8.48,0,0,0,59.9,28.6a26.17,26.17,0,0,0-6.81-1.54,33.84,33.84,0,0,1-5.2-.89c-1-.3-2-.68-3-1,.68.28,1.24.77,1.89,1.08,2.91,1.39,5.88,2.61,8.89,3.74a16.62,16.62,0,0,1,4.68,2.64A11.67,11.67,0,0,1,64.41,37.47Z"/><path class="cls-1" d="M23.59,52.76A2.12,2.12,0,0,1,25,52.31a27.94,27.94,0,0,1,5.48.42,9.92,9.92,0,0,1,3.66,1.64,3.5,3.5,0,0,1,1.54,3.27A6.19,6.19,0,0,1,34,61.58a13.24,13.24,0,0,1-8.9,4.29,7.81,7.81,0,0,1-3.27-.49,5.39,5.39,0,0,1-3.65-6.55,8.15,8.15,0,0,1,1.09-2.77,2.2,2.2,0,0,0,.21-2.17A71,71,0,0,0,16,46.23C14.15,42.62,12.33,39,10.6,35.31c-.9-1.91-1.91-3.76-3-5.58-.21-.36-.44-.62-.89-.56A19.06,19.06,0,0,0,5,26.44c-1.64-2.51-3-5.15-4.42-7.8a5.27,5.27,0,0,1-.31-.74c-.57-1.87-.38-3.19,1.56-4A3,3,0,0,1,3.6,15a15.81,15.81,0,0,1,3.2,5c.5,1.2.85,2.46,1.33,3.67Q9.84,28,11.74,32.15c.93,2.06,1.91,4.1,3,6.11,2,3.84,4.24,7.55,6.56,11.2A28.6,28.6,0,0,0,23.59,52.76Zm-2.43,3.39a.51.51,0,0,1,.49.63c0,.45-.1.91-.13,1.37a2.29,2.29,0,0,0,1.94,2.58,4.69,4.69,0,0,0,1.71.1,11.09,11.09,0,0,0,6.61-3.16,2.85,2.85,0,0,0,1-1.73c-.07-1-1-1.2-1.51-1.68.06-.22.28-.26.2-.49-2.28-.82-4.7-.72-7-.91-.22.32-.22.66-.38.65a1,1,0,0,1-.72-.26A19.71,19.71,0,0,1,22,51.68,111.77,111.77,0,0,1,11.4,33.56c-.78-1.7-1.6-3.38-2.3-5.2-.4.23-.81.19-1.06.6a35.77,35.77,0,0,1,3.37,5.86q2.37,5.1,4.86,10.16c1.32,2.68,2.54,5.41,3.59,8.21A4.93,4.93,0,0,1,20,56.34c-.16.56-.35,1.1-.54,1.64A7.08,7.08,0,0,0,19,60.35a4.17,4.17,0,0,0,2.66,4.06,7.26,7.26,0,0,0,3.7.62,12.46,12.46,0,0,0,8-4,5.46,5.46,0,0,0,1.38-2.62c.42-1.86-.13-2.94-1.94-3.84-.07.21.08.35.17.49a1.84,1.84,0,0,1,0,2.06,4.94,4.94,0,0,1-.81,1.11,11.16,11.16,0,0,1-4.82,3,7.67,7.67,0,0,1-4.52.31A3.38,3.38,0,0,1,21.16,56.15ZM9,27.57c-.49-1.09-1-2.05-1.37-3-.6-1.45-1.12-2.94-1.74-4.38A15.45,15.45,0,0,0,2.15,14.7C1,15.38.8,15.84,1,17a4.2,4.2,0,0,0,.35,1.09,103.91,103.91,0,0,0,5.49,9.83.73.73,0,0,0,.56.43A6.27,6.27,0,0,0,9,27.57Z"/><path class="cls-1" d="M3.13,18.2c0-1.39-.32-1.85-1.18-1.73A2.86,2.86,0,0,0,3.13,18.2Z"/><path class="cls-1" d="M3.13,18.2A2.86,2.86,0,0,1,2,16.47C2.81,16.35,3.15,16.81,3.13,18.2Z"/></g></g></svg>