<svg xmlns="http://www.w3.org/2000/svg" viewBox="0 0 146.58 38.11"><defs><style>.cls-1{fill:#fff;}.cls-2{fill:#ececeb;stroke:#3e3428;stroke-miterlimit:10;stroke-width:0.79px;}.cls-3{fill:#3e3428;}</style></defs><g id="Layer_2" data-name="Layer 2"><g id="layout"><path class="cls-1" d="M68.67,9.48c0-.41.52-.84,1.46-.84.4,0,.84.17.84.65a.36.36,0,0,1,0,.16,45.77,45.77,0,0,0-1.24,9.93A13.28,13.28,0,0,0,70.58,25a.89.89,0,0,1-.81,1.34c-.45,0-.6-.15-.89-.82a16.34,16.34,0,0,1-1-6.17,40.94,40.94,0,0,1,1.2-9.26C68.79,9.88,68.67,9.69,68.67,9.48Zm10.77,1a9.62,9.62,0,0,1,1.69.14c1.75.36,2.66,1.32,2.66,2.42a2.65,2.65,0,0,1-.72,1.72,9.5,9.5,0,0,1-1.84,1.68.82.82,0,0,1-1.32-.58.93.93,0,0,1,.44-.67,7.5,7.5,0,0,0,1.36-1.31,1.41,1.41,0,0,0,.31-.77c0-.43-.36-.79-1.29-.95a7.7,7.7,0,0,0-1.15-.1,18.1,18.1,0,0,0-5.12.88.66.66,0,0,1-.93-.52v-.1c.21-1,.64-1.48,1-1.48a.59.59,0,0,1,.48.31A15.36,15.36,0,0,1,79.44,10.53Zm4.13,12.82a1,1,0,0,1-.74.87,9.26,9.26,0,0,1-3.18.55,8.14,8.14,0,0,1-3.09-.58,4.34,4.34,0,0,1-2.89-4.26c0-.59.21-1,.86-1,.41,0,.79.2.79.89V20a2.77,2.77,0,0,0,2.27,2.8,6,6,0,0,0,1.94.29,7.82,7.82,0,0,0,2.58-.46,2.33,2.33,0,0,1,.7-.14.61.61,0,0,1,.57.26A1.08,1.08,0,0,1,83.57,23.35Z"/><path class="cls-1" d="M92.92,19l-1.94.2c0,.52-.38.64-.71.69h-.1c-.38,0-.65-.26-.69-.84l-.38-3.73a.55.55,0,0,1-.41-.5c0-.36.41-.82,1.15-1a.32.32,0,0,1,.14,0c.36,0,.57.33.62.86l.29,3.16L93,17.64V15.1l-1.32.14c-.45,0-.76-.21-.76-.55a.36.36,0,0,1,0-.14c.22-.74.53-1.08.82-1.08a.6.6,0,0,1,.5.36l.69-.07v-2.2l-3.32.38c-.48.05-.89-.17-.89-.52a.77.77,0,0,1,.05-.17c.31-.82.65-1.25,1-1.25.14,0,.31.12.48.34l2.7-.31V8a.58.58,0,0,1-.36-.52c0-.32.34-.7,1.18-.91a.3.3,0,0,1,.16,0c.36,0,.65.34.65.89V9.84l2.54-.29h.14a.7.7,0,0,1,.72.69v.12a.72.72,0,0,1-.74.72l-2.66.31v2.18l2.15-.24a.84.84,0,0,1,.74-.41c.41,0,.84.34.84,1.18v.33l-.45,4.07a.78.78,0,0,1-.79.72H97a.57.57,0,0,1-.65-.53l-1.79.19V20.2A18,18,0,0,0,98,22.9a.93.93,0,0,1,.55.79.89.89,0,0,1-.81.86,1.25,1.25,0,0,1-.75-.29A20.67,20.67,0,0,1,94.55,22v5a.82.82,0,1,1-1.63,0V20.79l0,.15a14.94,14.94,0,0,1-3.06,5,1.2,1.2,0,0,1-.88.46.63.63,0,0,1-.41-.15.78.78,0,0,1-.36-.62,1.47,1.47,0,0,1,.53-.91,14.27,14.27,0,0,0,2.68-3.95.43.43,0,0,1-.19-.31c0-.4.79-.81,1.5-.62a.41.41,0,0,1,.24.19Zm1.58-4.09v2.56l1.94-.19.19-2.61ZM103,9.48l-3.43.33c-.35,0-.69-.16-.69-.5A.51.51,0,0,1,99,9c.33-.74.59-1,.81-1a.59.59,0,0,1,.43.29l7.87-.79.22,0c.52,0,.81.24.81.6a.8.8,0,0,1-.76.89l-3.76.38a.8.8,0,0,1,.09.36,1.33,1.33,0,0,1-.12.5,13.12,13.12,0,0,1-1,1.58l2.59-.31a.68.68,0,0,1,.67-.45c.45,0,1,.35,1,1.19V23.45a.73.73,0,0,1-.78.74,1,1,0,0,1-.58-.21,1.51,1.51,0,0,1-.09.33,8.74,8.74,0,0,0,2.15,2,1.07,1.07,0,0,1,.5.81,1,1,0,0,1-.24.63.84.84,0,0,1-.64.31,1.09,1.09,0,0,1-.67-.29,19.48,19.48,0,0,1-2.54-2.7,1.27,1.27,0,0,1-.34-.77.51.51,0,0,1,.41-.5,4.32,4.32,0,0,1,1-.22,1,1,0,0,1,.26.05,1.33,1.33,0,0,1,0-.43l-5.12.34a.84.84,0,0,1-.2.4.77.77,0,0,1,.39-.07,2.59,2.59,0,0,1,.6.1c.38.12.52.33.52.57a.9.9,0,0,1-.21.55,15.31,15.31,0,0,1-2.73,2.59,1.35,1.35,0,0,1-.74.26.88.88,0,0,1-.82-.91.85.85,0,0,1,.48-.72,7.86,7.86,0,0,0,2.35-2,.13.13,0,0,1,0-.12.15.15,0,0,1,0-.09.89.89,0,0,1-.4.09.77.77,0,0,1-.82-.74v-10a.5.5,0,0,1-.28-.43c0-.34.33-.7,1-1a.72.72,0,0,1,.28-.07c.39,0,.63.41.63,1v2.61L105,15h.16a.6.6,0,0,1,.67.57v.12a.65.65,0,0,1-.67.65l-4,.43v1.82l3.82-.39h.12c.46,0,.72.24.72.6a.72.72,0,0,1-.72.79l-3.94.39v2.17l5.12-.36v-9l-4.12.53H102a.6.6,0,0,1-.63-.65.63.63,0,0,1,.51-.69A18.23,18.23,0,0,0,103,9.55Z"/><path class="cls-1" d="M119.5,13.11c-1,.08-2.06.12-3,.12a17.34,17.34,0,0,1-2.66-.16c-.5-.08-.86-.17-.86-.53a.83.83,0,0,1,.1-.38c.31-.74.71-1.1,1-1.1s.41.19.48.55a22.93,22.93,0,0,0,2.78.16c.67,0,1.39,0,2.13-.07,0-.93,0-1.84,0-2.68-.29-.14-.46-.33-.46-.55s.43-.71,1.34-.86a.58.58,0,0,1,.74.62v0c0,1.1-.07,2.23-.09,3.3a37.79,37.79,0,0,0,5.19-.81,11.49,11.49,0,0,0-.77-1.12,1.1,1.1,0,0,1-.23-.65.63.63,0,0,1,.57-.67c.88-.05,1.46.24,1.46.67a.74.74,0,0,1-.12.33,24.53,24.53,0,0,1,2.87,5.94,1.8,1.8,0,0,1,.1.57.73.73,0,0,1-.6.77,1.47,1.47,0,0,1-.29.05c-.33,0-.65-.22-.81-.82A21.52,21.52,0,0,0,127,12.11a54.19,54.19,0,0,1-5.91.88c0,2,0,2.4,0,3.62,0,.5,0,1.22,0,1.53a3.64,3.64,0,0,1-1.93,3.35,5.45,5.45,0,0,0-.82,2,2.19,2.19,0,0,0,0,.31c0,.43.24.7.89.84a15.33,15.33,0,0,0,3,.26,19.42,19.42,0,0,0,3.37-.29A1.67,1.67,0,0,0,127.15,23a4.8,4.8,0,0,0,0-.67,4.61,4.61,0,0,0-.74-2.54,1,1,0,0,1-.19-.53.81.81,0,0,1,.38-.64.84.84,0,0,1,.46-.15,1,1,0,0,1,.76.48,6.4,6.4,0,0,1,1.06,3.62,5.8,5.8,0,0,1-.05.93c-.17,1.34-1,2.32-3,2.75a18.26,18.26,0,0,1-3.44.29,22.55,22.55,0,0,1-3.74-.29c-1.46-.26-2-1.08-2-2.06a3.1,3.1,0,0,1,.14-.88,6.06,6.06,0,0,1,.6-1.34c-2,0-2.92-.6-2.92-2.78a4.27,4.27,0,0,1,1.89-3.66,3.74,3.74,0,0,1,1.94-.65,2.56,2.56,0,0,1,1.17.29Zm-1,3.11a2.32,2.32,0,0,0-1.24.46,3,3,0,0,0-1.15,2.46c0,1,.31,1.39,1.12,1.39h.08a2.16,2.16,0,0,0,2.29-2.18,14.46,14.46,0,0,0-.07-1.55A1.23,1.23,0,0,0,118.54,16.22Z"/><path class="cls-1" d="M135.52,12.09c.39-2.16,2.71-3.95,5.36-3.95,3.14,0,5.7,1.62,5.7,4.54,0,1.85-.84,2.87-2.63,4.05a6.22,6.22,0,0,0-2,1.82,3.49,3.49,0,0,0-.58,1.81.77.77,0,0,1-.76.84.74.74,0,0,1-.74-.79,5.11,5.11,0,0,1,.71-2.65,7.29,7.29,0,0,1,2.06-2c1.44-1.06,1.82-1.7,1.82-3.07,0-1.86-1.39-2.82-3.59-2.82A3.74,3.74,0,0,0,137.13,13c-.07.5-.29.88-.72.88a1,1,0,0,1-.48-.12c-.76-.38-1.08-.81-1.08-1.15s.24-.47.63-.47Zm6.7,12.72a1.63,1.63,0,1,1-1.62-1.62A1.64,1.64,0,0,1,142.22,24.81Z"/><path class="cls-2" d="M32.32,35.07c-9.19-2.43-29.19,2.55-29.19,2.55L.42,6.64S17.27-.21,29.61,4.09Z"/><path class="cls-2" d="M32.36,35.06c8.63-4,29.19-2.55,29.19-2.55l-2.71-31S41.06-2.29,29.65,4.09Z"/><path class="cls-3" d="M11.32,14.09a1.39,1.39,0,0,1-.41-.86,1.69,1.69,0,0,1,0-.32.83.83,0,0,1,.71-.62c.85-.08,1.25.1,1.28.44a.83.83,0,0,1-.19.51A50.93,50.93,0,0,1,16,18c2.15-1.34,3.52-2.21,4.84-3.22a13.26,13.26,0,0,0-1.07-1.3.94.94,0,0,1-.24-.49.6.6,0,0,1,.34-.58,1.39,1.39,0,0,1,.46-.13.58.58,0,0,1,.7.5A.47.47,0,0,1,21,13a15.51,15.51,0,0,1,2.1,3,.91.91,0,0,1,.11.33.48.48,0,0,1-.22.47.65.65,0,0,1-.36.18.56.56,0,0,1-.57-.34c-.12-.22-.25-.44-.4-.66a33.51,33.51,0,0,1-4.38,2.85c-1.87,1.06-3.62,2.24-4.2,3.62a1.64,1.64,0,0,0-.14.84,2,2,0,0,0,2,1.62,19.89,19.89,0,0,0,2.64-.06,20.8,20.8,0,0,0,2.72-.41,6.46,6.46,0,0,0,1.55-.54,1.48,1.48,0,0,1,.56-.18.72.72,0,0,1,.55.21,1,1,0,0,1,.24.56.88.88,0,0,1-.6.88,9.77,9.77,0,0,1-2.08.63,18.48,18.48,0,0,1-2.42.34,24.12,24.12,0,0,1-3.37.08c-2-.14-3.2-1.3-3.33-2.74a3.84,3.84,0,0,1,.51-2.15,10.56,10.56,0,0,1,2.94-2.76A29.75,29.75,0,0,0,11.32,14.09Zm13.7.23a.71.71,0,0,1,.11.33.48.48,0,0,1-.21.47.68.68,0,0,1-.37.18A.56.56,0,0,1,24,15a17.19,17.19,0,0,0-2.31-3.17.8.8,0,0,1-.23-.49.61.61,0,0,1,.33-.58,1.39,1.39,0,0,1,.46-.13.58.58,0,0,1,.7.5.38.38,0,0,1,0,.23A15.51,15.51,0,0,1,25,14.32Z"/><path class="cls-3" d="M45.18,9.72a12.64,12.64,0,0,1,2.28,0c1.68.15,2.58,1,2.67,2a2.53,2.53,0,0,1-.51,1.68A8.88,8.88,0,0,1,48.16,15a1,1,0,0,1-.62.29.72.72,0,0,1-.77-.61.82.82,0,0,1,.32-.67,5.81,5.81,0,0,0,1.19-1.34,1.41,1.41,0,0,0,.21-.75c0-.4-.41-.71-1.29-.8a12.78,12.78,0,0,0-2.39,0A17,17,0,0,0,40,12.28a1.19,1.19,0,0,1-.23.07.6.6,0,0,1-.66-.48v-.08c.11-.91.45-1.37.83-1.4a.62.62,0,0,1,.51.21A25,25,0,0,1,45.18,9.72ZM50.3,22.63a10.23,10.23,0,0,1-3.69,1,9.59,9.59,0,0,1-3.72-.3,4.22,4.22,0,0,1-3-3.72c-.06-.74.3-1,.66-1,.57-.05.86.14.92.75v.17c.11,1.27.8,2.05,2.37,2.46a8.1,8.1,0,0,0,2.55.1,8.42,8.42,0,0,0,3-.76,1.57,1.57,0,0,1,.6-.2.79.79,0,0,1,.85.76A.83.83,0,0,1,50.3,22.63Z"/></g></g></svg>