<svg xmlns="http://www.w3.org/2000/svg" viewBox="0 0 155.94 38.11"><defs><style>.cls-1{fill:#fff;}.cls-2{fill:#ececeb;stroke:#3e3428;stroke-miterlimit:10;stroke-width:0.79px;}.cls-3{fill:#3e3428;}</style></defs><g id="Layer_2" data-name="Layer 2"><g id="layout"><path class="cls-1" d="M81.74,20a14.48,14.48,0,0,0,1,2.06l.07.11c.29-.21.55-.4.74-.57a1,1,0,0,1-.12-.38c0-.22.15-.31.41-.31a2.8,2.8,0,0,1,1.1.31.6.6,0,0,1,.38.55.93.93,0,0,1-.36.69c-.35.29-.76.62-1.24,1a12.82,12.82,0,0,0,2.11,2.2,1.14,1.14,0,0,0,.59.34c.24,0,.34-.38.46-1.41.07-.58.29-.94.72-.94a.87.87,0,0,1,.93,1,8,8,0,0,1-.33,2.24c-.24.75-.65,1.13-1.23,1.13a2.45,2.45,0,0,1-1.19-.41,12.48,12.48,0,0,1-3.37-3.23,27.88,27.88,0,0,1-4,2.27,1,1,0,0,1-.43.1.71.71,0,0,1-.67-.5.73.73,0,0,1-.07-.31.84.84,0,0,1,.62-.77A22.59,22.59,0,0,0,81.48,23,18.58,18.58,0,0,1,80,20.1l-5,.46v1.38c1.13-.24,2.18-.48,3-.67a1.17,1.17,0,0,1,.26,0,.61.61,0,0,1,.6.62.72.72,0,0,1-.57.69c-.87.24-2,.5-3.26.79v2.85c0,1.12-.41,1.55-1.63,1.55a6.77,6.77,0,0,1-1.81-.26c-.53-.17-.79-.43-.79-.81s.21-.79.64-.79a2.32,2.32,0,0,1,.65.12,2.72,2.72,0,0,0,.81.16c.36,0,.46-.19.46-.59V23.69c-1.51.31-3,.57-4.07.74a3.54,3.54,0,0,1-.45.05c-.58,0-.77-.17-.77-.46a.86.86,0,0,1,0-.21c.17-.86.51-1.29.82-1.29s.36.12.5.38c1.12-.14,2.53-.38,4-.65V20.7l-4.88.43h-.12c-.43,0-.77-.19-.77-.45,0-.08,0-.12,0-.17.33-.74.64-1.13.93-1.13s.34.12.5.39l4.29-.39v-1c-.89.17-1.82.31-2.63.41h-.17c-.5,0-.72-.29-.72-.6a.71.71,0,0,1,.74-.74,18.82,18.82,0,0,0,4.5-.94.43.43,0,0,1,.45-.43,1.82,1.82,0,0,1,1,.43.87.87,0,0,1,.38.62.65.65,0,0,1-.52.58c-.39.12-.84.21-1.32.33v1.18l4.45-.41a12.52,12.52,0,0,1-.43-2,2.23,2.23,0,0,1,0-.36c0-.46.22-.65.7-.65a1.06,1.06,0,0,1,.28,0c.77.09,1.2.28,1.2.59a.69.69,0,0,1-.33.51,10.3,10.3,0,0,0,.35,1.7l3.09-.29a7.72,7.72,0,0,1-.62-1.13,1.57,1.57,0,0,1-.19-.62c0-.24.14-.4.5-.45a3.26,3.26,0,0,1,.67-.05c.53,0,.81.14.81.43a1,1,0,0,1-.14.48,11.32,11.32,0,0,0,1.87,2.53,1,1,0,0,1,.31.65.86.86,0,0,1-.77.79,1.06,1.06,0,0,1-.74-.41,8.56,8.56,0,0,1-.81-1ZM74,9.48a4.45,4.45,0,0,0-.91-1.32H73c-.33,0-.5-.14-.5-.36a1.38,1.38,0,0,1,.67-.93.87.87,0,0,1,.53-.22c.28,0,.55.22.83.63a10.12,10.12,0,0,1,1,1.7.72.72,0,0,1,.1.38l4-.26a14.45,14.45,0,0,0,.89-1.92c-.17-.12-.27-.24-.27-.36,0-.28.55-.5,1.27-.5a3,3,0,0,1,.41,0,.75.75,0,0,1,.67.75,1.05,1.05,0,0,1-.15.5c-.31.48-.64,1-.93,1.39L85,8.74h0c.48,0,.74.26.74.62a.64.64,0,0,1-.69.69l-6.51.41v1.36L84,11.49h0c.46,0,.7.26.7.57a.61.61,0,0,1-.67.67L78.63,13v1.37l8-.48h0c.5,0,.77.26.77.62a.67.67,0,0,1-.72.72l-17.68,1c-.48,0-.79-.19-.79-.48a.39.39,0,0,1,0-.14c.24-.72.55-1,.84-1a.7.7,0,0,1,.5.33l7.25-.43V13.14l-5.38.31h-.08c-.4,0-.69-.17-.69-.41a.48.48,0,0,1,0-.14c.26-.6.57-1,.84-1,.12,0,.24.1.35.29l4.91-.31V10.55l-6.15.39h-.12c-.4,0-.72-.17-.72-.41a.55.55,0,0,1,0-.17c.36-.69.69-1,1-1a.54.54,0,0,1,.43.29Z"/><path class="cls-1" d="M96.64,18.26c0-.31.34-.55,1.1-.55.55,0,.84.07.84.52a1.06,1.06,0,0,1-.1.48,19,19,0,0,1-3.2,5.39,1.11,1.11,0,0,1-.82.43.9.9,0,0,1-.83-.86A1,1,0,0,1,94,23a15.58,15.58,0,0,0,2.83-4.26A.75.75,0,0,1,96.64,18.26Zm2.49-3.76a1.15,1.15,0,0,1-.19-.17,15.2,15.2,0,0,1-2-2.89,1.6,1.6,0,0,1-.19-.67.39.39,0,0,1,.28-.43,4.5,4.5,0,0,1,.86-.12c.41,0,.65.12.65.36a.5.5,0,0,1-.12.33,5.11,5.11,0,0,0,.57,1,19,19,0,0,0,2-2.56L95.66,10c-.5,0-1-.17-1-.51a.47.47,0,0,1,0-.16c.4-.91.72-1.27,1-1.27a.93.93,0,0,1,.57.33L102,7.83a1.24,1.24,0,0,1,.79-.31.74.74,0,0,1,.81.71,1,1,0,0,1-.19.58A27.56,27.56,0,0,1,99.87,13a6.12,6.12,0,0,0,.41.48.87.87,0,0,1,.26.57.73.73,0,0,1-.12.36l2.3-.29a1,1,0,0,1,.79-.43.81.81,0,0,1,.84.81,1.17,1.17,0,0,1-.17.6,23.32,23.32,0,0,1-1.89,3.14c-.29.33-.5.6-.84.6a.77.77,0,0,1-.79-.67.84.84,0,0,1,.12-.39,21.94,21.94,0,0,0,1.17-2.1l-7.32,1c-.52.07-1-.15-1-.48a.5.5,0,0,1,0-.17c.36-.93.67-1.31,1-1.31a.87.87,0,0,1,.55.33Zm-.29,2.85a.43.43,0,0,1-.28-.38c0-.27.33-.58,1.1-.79a.36.36,0,0,1,.16,0c.36,0,.63.31.63.84v8.92c0,1.18-.6,1.7-1.77,1.7A4.8,4.8,0,0,1,96.43,27a.82.82,0,0,1-.46-.72,1.15,1.15,0,0,1,.07-.36.7.7,0,0,1,.7-.5,1.45,1.45,0,0,1,.52.1,5.56,5.56,0,0,0,1.22.29c.34,0,.36-.2.36-.55Zm4.69,4.14c-.43.05-.76-.19-.76-.5s.45-1.27.86-1.27A.45.45,0,0,1,104,20l3.39-.32v-.38a7.7,7.7,0,0,0,0-.81c-.22-.12-.36-.22-.36-.36s.28-.46,1-.79a.7.7,0,0,1,.36-.1c.43,0,.67.43.72.79,0,.19,0,.51,0,.86s0,.44,0,.63l2.63-.24a.92.92,0,0,1,.72-.36,1,1,0,0,1,.91,1.08v.21a30.26,30.26,0,0,1-1.39,6.53,1.58,1.58,0,0,1-1.72,1.2,6.06,6.06,0,0,1-2.2-.53.81.81,0,0,1-.46-.72,1,1,0,0,1,.15-.5.67.67,0,0,1,.64-.38,1.23,1.23,0,0,1,.48.09,4.41,4.41,0,0,0,1.08.32c.24,0,.33-.15.45-.43a19.3,19.3,0,0,0,1.1-5l-2.63.24a11,11,0,0,1-4.4,6.27,1.77,1.77,0,0,1-1,.41.72.72,0,0,1-.57-.26.91.91,0,0,1-.26-.63.84.84,0,0,1,.45-.71,9.23,9.23,0,0,0,4-4.93Zm.91-2.94a2,2,0,0,1-.72.19.63.63,0,0,1-.55-.29A1.09,1.09,0,0,1,103,18a.79.79,0,0,1,.57-.74,17.77,17.77,0,0,0,4-2.37c-.48-.41-1.17-1-1.82-1.58a1,1,0,0,1-.36-.67.41.41,0,0,1,.22-.38,2.49,2.49,0,0,1,1.07-.44.33.33,0,0,1,.36.36.78.78,0,0,1,0,.22,14.68,14.68,0,0,0,1.7,1.46,4.36,4.36,0,0,0,1.41-1.89.54.54,0,0,1-.19-.34c0-.31.67-.45,1.34-.45a.63.63,0,0,1,.69.64,1.07,1.07,0,0,1-.07.39A10.12,10.12,0,0,1,110,14.65a21.91,21.91,0,0,0,4.59,2,.77.77,0,0,1,.62.77,1,1,0,0,1-.07.38.77.77,0,0,1-.76.53,1.33,1.33,0,0,1-.48-.1,23.82,23.82,0,0,1-5-2.56A18.86,18.86,0,0,1,104.44,18.55Zm1.68-11.44c0-.29.36-.48.93-.48a3.39,3.39,0,0,1,.67.07.59.59,0,0,1,.48.62,1.21,1.21,0,0,1-.12.46,20.26,20.26,0,0,1-3,4.47,1.08,1.08,0,0,1-.76.39,1,1,0,0,1-.84-.84.74.74,0,0,1,.26-.53,16.06,16.06,0,0,0,2.61-3.78A.61.61,0,0,1,106.12,7.11Zm6.94,2h.11c.51,0,.77.26.77.65a.71.71,0,0,1-.74.78l-5.38.48a.63.63,0,0,1-.77-.52.39.39,0,0,1,0-.15c.31-.71.6-1.07.89-1.07a.5.5,0,0,1,.38.28Z"/><path class="cls-1" d="M121.47,26.56l.41-11.82v-.07a20.91,20.91,0,0,1-2.3,2.32,1.3,1.3,0,0,1-.79.34.83.83,0,0,1-.6-.27.77.77,0,0,1-.24-.52.85.85,0,0,1,.39-.7A24.82,24.82,0,0,0,124,8.93a.6.6,0,0,1-.19-.43c0-.41.64-.65,1.74-.6.34,0,.46.24.46.57a1.84,1.84,0,0,1-.12.65A22.48,22.48,0,0,1,122.52,14a.59.59,0,0,1,.2,0c.45,0,.86.19.86.76v.05l-.34,11.84a.78.78,0,0,1-.88.84c-.51,0-.89-.19-.89-.81Zm6.41-17.18c-.36-.09-.55-.31-.55-.55s.43-.76,1.46-1a.5.5,0,0,1,.17,0c.41,0,.72.36.72.93L129.56,24c0,.84.28,1,1,1.08.43,0,1,0,1.67,0a24.49,24.49,0,0,0,3.38-.19c.86-.17,1-.55,1.19-2.78.05-.65.27-1.05.79-1.05h.1c.79.07,1,.38,1,1v.27a11.42,11.42,0,0,1-.36,2.53,2.05,2.05,0,0,1-2.11,1.77c-1.07.1-2.58.19-4,.19-.86,0-1.7,0-2.39-.09-1.56-.15-2-.79-2-2.18Zm7.25,2.9c0-.31.19-.48.58-.48a3.36,3.36,0,0,1,1.29.33.76.76,0,0,1,.43.7.93.93,0,0,1-.41.74,40.33,40.33,0,0,1-5.36,3.09,1.68,1.68,0,0,1-.74.21.71.71,0,0,1-.57-.29.83.83,0,0,1-.27-.59c0-.24.15-.48.55-.65a22,22,0,0,0,4.57-2.73A1.15,1.15,0,0,1,135.13,12.28Z"/><path class="cls-1" d="M144.32,11.66c.4-2.25,2.82-4.17,5.62-4.17,3.35,0,6,1.7,6,4.81,0,2-.91,3.23-2.72,4.33a5.84,5.84,0,0,0-2.16,1.94,4.42,4.42,0,0,0-.62,1.94.79.79,0,0,1-.79.86.75.75,0,0,1-.76-.81,5.58,5.58,0,0,1,.76-2.83,7.91,7.91,0,0,1,2.18-2.1c1.53-1.13,1.94-1.89,1.94-3.33,0-2-1.51-3-3.86-3A4,4,0,0,0,146,12.59c-.08.55-.31,1-.79,1a1.27,1.27,0,0,1-.51-.14c-.74-.39-1-.87-1-1.22s.24-.55.65-.55Zm7,13.66A1.71,1.71,0,0,1,149.65,27a1.71,1.71,0,1,1,1.68-1.67Z"/><path class="cls-2" d="M32.32,35.07c-9.19-2.43-29.19,2.55-29.19,2.55L.42,6.64S17.27-.21,29.61,4.09Z"/><path class="cls-2" d="M32.36,35.06c8.63-4,29.19-2.55,29.19-2.55l-2.71-31S41.06-2.29,29.65,4.09Z"/><path class="cls-3" d="M7.84,14.16a.81.81,0,0,1,.51-.73,1.23,1.23,0,0,1,.34-.09,1,1,0,0,1,.81.31,1.41,1.41,0,0,1,.38.89,1.76,1.76,0,0,1,0,.45,17.43,17.43,0,0,0,0,3.61,17.69,17.69,0,0,0,.85,4.19c.61,1.57,1.22,2.13,2.23,2s1.8-.94,2.16-2.66c.11-.48.37-.67.64-.7a.83.83,0,0,1,.48.11.72.72,0,0,1,.42.61,2.11,2.11,0,0,1-.06.58c-.44,2-1.84,3.61-3.51,3.78s-3-.93-3.94-3.37a19.26,19.26,0,0,1-.89-4.57,17.38,17.38,0,0,1,.05-3.82A1,1,0,0,1,7.84,14.16Zm10.6-1.31a1.26,1.26,0,0,1,.85.27,7.86,7.86,0,0,1,2.37,3.16A11.67,11.67,0,0,1,22.6,20a9.82,9.82,0,0,1,0,1.8c-.07.66-.25,1.08-.72,1.12s-.94-.08-1-.7a.79.79,0,0,1,0-.21,14.55,14.55,0,0,0,0-2,12.13,12.13,0,0,0-.58-2.79A6.42,6.42,0,0,0,18.07,14a.57.57,0,0,1-.29-.44.73.73,0,0,1,.37-.65A.66.66,0,0,1,18.44,12.85Z"/><path class="cls-3" d="M41.61,12a27.31,27.31,0,0,1,3.75-.61,7.35,7.35,0,0,1,.87-.05c3,0,4.91,1.27,5.17,4.17a6,6,0,0,1-3.2,5.94,18.4,18.4,0,0,1-5.46,1.93h-.17c-.55.05-.79-.21-.86-.56v-.11c0-.36.15-.7.76-.79a15.29,15.29,0,0,0,4.64-1.6,4.85,4.85,0,0,0,2.62-4.71c-.12-1.4-1-2.77-3.35-2.87a10.62,10.62,0,0,0-1.23.05,22.8,22.8,0,0,0-3.4.59c-1.53.37-3.24,1.05-4.65,1.54a2.13,2.13,0,0,1-.5.11c-.49,0-.91-.11-.94-.52a.27.27,0,0,1,0-.15c.12-.82.42-1.21.74-1.24a.51.51,0,0,1,.45.26C38.13,13,40.05,12.39,41.61,12Z"/></g></g></svg>