<svg xmlns="http://www.w3.org/2000/svg" viewBox="0 0 103.7 95.33"><defs><style>.cls-1{fill:#80d5df;}</style></defs><g id="Layer_2" data-name="Layer 2"><g id="layout"><path class="cls-1" d="M28,17.35l.72-.83A51.73,51.73,0,0,0,35.14,14c6-2.74,11.89-5.6,17.79-8.48A109.2,109.2,0,0,1,63.73.89,15.65,15.65,0,0,1,67.9,0,6.37,6.37,0,0,1,70,.21a1.53,1.53,0,0,1,1.26,1.21,3.25,3.25,0,0,1-1.43,2.27,26,26,0,0,1-5.7,3.15C54.48,11,44.59,14.6,34.65,18l-4.94,1.68a26.29,26.29,0,0,0-4.2,2.2,22.66,22.66,0,0,0-6.23,5.26,34.61,34.61,0,0,1-4.44,4.29A11.75,11.75,0,0,1,9.78,34c-3.19.66-5.64-.61-7.79-2.78a2.52,2.52,0,0,1-.61-1.39,12.69,12.69,0,0,0-.82-3,7,7,0,0,1,2.13-8.25,11.37,11.37,0,0,1,9.61-2.34,70.38,70.38,0,0,0,10.81,1.65,17.07,17.07,0,0,0,2.37,0A23.09,23.09,0,0,0,28,17.35ZM21,18.57c-3-.41-6-.89-9-1.53a10.08,10.08,0,0,0-8.57,2.11,6,6,0,0,0-2.33,6.09c0,.12,0,.24.18.24a1.81,1.81,0,0,1,.18-.37,12,12,0,0,1,9.82-5.91c.94-.07,1.89,0,2.83,0A40.09,40.09,0,0,0,21,18.77c.14,0,.3,0,.31-.19A.21.21,0,0,0,21,18.57Zm4.68.33c-.08-.35-.29-.13-.44-.09a43.71,43.71,0,0,1-12,1.21,17.22,17.22,0,0,0-3,.13,11.09,11.09,0,0,0-7.47,4.6,3.19,3.19,0,0,0-.74,2.6,19.16,19.16,0,0,1,8.11-4.16c2.94-.8,5.9-1.51,8.85-2.25a40.36,40.36,0,0,0,6.69-2.05c0-.11.11-.11.2-.11Zm4.48,0c.78-.3,1.58-.63,2.4-.92C38.75,15.72,45,13.6,51.11,11.25c5-1.92,10.1-3.75,15-6.07A12.75,12.75,0,0,0,70,2.71a1.64,1.64,0,0,0,.62-1.55A4,4,0,0,0,68,.67a13.91,13.91,0,0,0-3.82.8,134.42,134.42,0,0,0-13.7,6q-6.32,3-12.65,6c-2.65,1.24-5.37,2.33-8.13,3.32-.51.19-1,.35-.9,1.06A3.54,3.54,0,0,0,30.18,18.88ZM28,18.33a29.69,29.69,0,0,1-8.74,3.38c-3.48.9-7,1.79-10.42,2.83a17.71,17.71,0,0,0-5.08,2.51,3.12,3.12,0,0,0-1.35,1.6,2.71,2.71,0,0,0,2.44.94,17.24,17.24,0,0,0,7.08-1.82c2.23-1.12,4.22-2.64,6.38-3.9a51.13,51.13,0,0,1,10.17-4.81.14.14,0,0,0,.13-.17,1.22,1.22,0,0,0-.12-.19ZM2.56,30.09c1.56,1.88,3.26,3,5.53,3a8.75,8.75,0,0,0,4.62-1.32,27,27,0,0,0,5.46-4.72,31.89,31.89,0,0,1,3.93-3.78c.87-.66,1.79-1.25,2.69-1.88-.65.4-1.4.56-2.06.91-2.93,1.58-5.78,3.3-8.56,5.12A17.25,17.25,0,0,1,9.1,29.69,12.06,12.06,0,0,1,2.56,30.09Z"/><path class="cls-1" d="M97.81,53.12c-.4.32-.68.12-.88.35a8.68,8.68,0,0,0-.51,1.91,25,25,0,0,1,5.66,1.17,1.21,1.21,0,0,1,.08,1.21c-.66,2.7-1.3,5.4-2,8.09-.82,3.27-1.73,6.52-2.51,9.79-.67,2.82-1.23,5.65-2,8.45a14.54,14.54,0,0,1-2.16,4.59c-1.34,1.92-2.78,3.75-4.3,5.53a2.55,2.55,0,0,1-1.5,1.12A4.17,4.17,0,0,1,86.25,93a20.73,20.73,0,0,1-.85-8.57,127.88,127.88,0,0,1,3.43-18.92c1.06-4.15,2-8.33,3.23-12.43a9.38,9.38,0,0,0,.12-2.11,31.85,31.85,0,0,1,.88-4.43c1.79-7.6,3.77-15.16,6-22.65a1.06,1.06,0,0,1,.12-.2,2.58,2.58,0,0,1,3.26.75A5.71,5.71,0,0,1,103.61,29c-.35,2-.89,3.86-1.33,5.79-1.11,4.91-2,9.87-3.4,14.71A29.27,29.27,0,0,1,97.81,53.12ZM87.66,94.6a4.07,4.07,0,0,0,1.17-1c1.54-1.76,3-3.6,4.37-5.47a15.61,15.61,0,0,0,2.41-6c.59-2.62,1-5.28,1.7-7.89,1.37-5.42,2.83-10.81,4.25-16.22a1.55,1.55,0,0,0,.14-.89c-1-.24-2-.45-3-.74s-2.05.06-2.9-.65a20.28,20.28,0,0,1,.61-2.56,16.75,16.75,0,0,0-3.67-.87c-1,3.74-2,7.37-2.76,11.05s-1.76,7.15-2.34,10.8a91.38,91.38,0,0,0-1.47,10.93A26.72,26.72,0,0,0,87.66,94.6ZM99.46,24C98.57,28.73,97,33.18,96,37.79c-.78,3.6-1.73,7.16-2.6,10.74A10.71,10.71,0,0,0,93,51.67a17.13,17.13,0,0,1,4,1.1c.38-1.31.76-2.51,1.09-3.74,1.7-6.39,2.9-12.9,4.73-19.26a5.72,5.72,0,0,0-.75-4.64A2.17,2.17,0,0,0,99.46,24Z"/><path class="cls-1" d="M78.11,23.05c-3.57,4.39-7,8.8-10.61,13.06A101.32,101.32,0,0,0,60,46.68a4.42,4.42,0,0,0-.64,2.14c-.07,1.06-.17,2.13-.22,3.2a11,11,0,0,1-1.9,5.87c-1.48,2.16-3,4.27-4.65,6.32S49.73,68.19,48,70a3,3,0,0,1-1.68,1.07c-.57-.08-1.15-.2-1.73-.23a6.2,6.2,0,0,1-3.4-1.8c-1.57-1.26-3-2.7-4.48-4.07-.79-.73-1.19-1.78-2-2.44A1.53,1.53,0,0,1,34.89,61c.43-.67.8-1.38,1.29-2a93.93,93.93,0,0,1,9.57-10.56,11.07,11.07,0,0,1,4.44-2.64c1.52-.44,3-.91,4.55-1.38a6.68,6.68,0,0,0,3.13-2c4-4.58,8-9.09,12-13.71,1.75-2,3.47-4.12,5.18-6.2.3-.37.57-.76.86-1.14a2.68,2.68,0,0,1,.62-2.54,13.92,13.92,0,0,0,1.59-2.91,26,26,0,0,1,3.86-6.11,7.3,7.3,0,0,1,2.72-1.86,4.5,4.5,0,0,1,1-.29c2.39-.38,3.87,1,3.7,3.36a7.72,7.72,0,0,1-2,4.6c-1.92,2.23-4.12,4.18-6.21,6.23A4.83,4.83,0,0,1,78.11,23.05ZM35.52,61.81a5.9,5.9,0,0,0,1.42,2c1,.89,2,1.74,2.88,2.66a11.89,11.89,0,0,0,5.3,3.26,2,2,0,0,0,1.69-.18,10,10,0,0,0,2.11-1.9c1.57-1.68,2.82-3.62,4.23-5.43,2.3-3,4.34-6.06,4.78-9.93.14-1.3.67-2.54.7-3.85a7.67,7.67,0,0,1,1.49-4.06c1.61-2.49,3.4-4.87,5.21-7.22,2.74-3.54,5.52-7.05,8.47-10.42,1.17-1.34,2.39-2.62,3.63-4a2.82,2.82,0,0,0-1.18-.62c-1.62,2-3.16,4-4.77,6S68.19,32,66.54,34c-2.53,2.94-5,5.91-7.74,8.71a10.87,10.87,0,0,1-4.24,2.76c-1.57.55-3.17,1-4.78,1.43a7.39,7.39,0,0,0-3.68,2.25c-1.73,1.92-3.5,3.79-5.2,5.73A54.46,54.46,0,0,0,35.52,61.81ZM78.76,22.1A2.16,2.16,0,0,0,80,21.47c1.59-1.54,3.2-3.06,4.8-4.59a22.06,22.06,0,0,0,1.69-1.66,7.41,7.41,0,0,0,2.07-4.55c0-1.54-.67-2.26-2.21-2.26A3.27,3.27,0,0,0,85,8.65a6.82,6.82,0,0,0-3.11,2.29,27.56,27.56,0,0,0-3.14,5.28,9.44,9.44,0,0,1-2.23,3.4C76.47,21.31,76.77,21.64,78.76,22.1Z"/><path class="cls-1" d="M84.49,12.38c1.31-.19,2.1-1.2,1.69-2.17A2.28,2.28,0,0,0,84.49,12.38Z"/><path class="cls-1" d="M53.16,48.07a1.57,1.57,0,0,1-.34,1.54c-1.45,2.42-3.12,4.67-4.74,7a38.61,38.61,0,0,1-4.82,5.55,16.51,16.51,0,0,1-3.21,2.24.42.42,0,0,1-.48,0,1.78,1.78,0,0,1,.3-2.17c.45-.6.93-1.19,1.43-1.75,1.82-2,3.68-4.05,5.47-6.12,1.55-1.8,3-3.66,4.65-5.4A1.9,1.9,0,0,1,53.16,48.07ZM40.26,63.25A64.77,64.77,0,0,0,51.92,49.61a11.44,11.44,0,0,0-1.26,1.25c-2.07,2.29-3.95,4.74-6.08,7-1.22,1.29-2.41,2.62-3.6,3.94A1.82,1.82,0,0,0,40.26,63.25Z"/><path class="cls-1" d="M42.75,65.14a3.74,3.74,0,0,1,1.1-2.2c2.21-3,4.56-5.89,7-8.73,1-1.15,1.82-2.4,2.9-3.47a3.21,3.21,0,0,1,2-1.17,2,2,0,0,1-.3,1.76,50.93,50.93,0,0,1-6.19,8.54c-1.57,1.68-2.81,3.65-4.52,5.21-.52.48-1.06,1-1.59,1.43a.87.87,0,0,1-.79.3c-.2-.44-.46-.88-.11-1.38.34-.26.38.13.71.3C47.09,61.05,51.6,56.62,54.59,51c-2.17,2.25-4,4.78-6,7.16S44.85,62.93,42.75,65.14Z"/><path class="cls-1" d="M49.38,48.93a.72.72,0,0,1-.08.89c-.43.57-.81,1.17-1.24,1.74A108.69,108.69,0,0,1,40,60.74a2.53,2.53,0,0,1-1.87.94l-.29-1a6.93,6.93,0,0,1,1.26-2c2-2.41,3.81-5,6-7.25A13.2,13.2,0,0,1,48.5,49,.9.9,0,0,1,49.38,48.93ZM38.91,60.44c1.39-.88,2.17-2.34,3.24-3.51s2-2.42,3.09-3.6,2.14-2.34,3.21-3.51a7.05,7.05,0,0,0-2.74,1.82c-1.88,2-3.49,4.19-5.19,6.32A6.31,6.31,0,0,0,38.91,60.44Z"/><path class="cls-1" d="M55.37,54.23c.58.47.29.88.14,1.27a18.41,18.41,0,0,1-2.87,4.75c-1.25,1.63-2.59,3.19-3.91,4.77a21,21,0,0,1-3.06,2.74c-.79-1-.84-1.31-.06-2.14,2.13-2.24,3.92-4.75,6-7.07.63-.7,1.13-1.52,1.71-2.27A5.87,5.87,0,0,1,55.37,54.23Zm-1.08,2c-1.16,1.53-2.4,3-3.58,4.45S48.5,63.53,47.4,65A48.91,48.91,0,0,0,54.29,56.22Z"/><path class="cls-1" d="M84.49,12.38a2.28,2.28,0,0,1,1.69-2.17C86.59,11.18,85.8,12.19,84.49,12.38Z"/></g></g></svg>