<svg xmlns="http://www.w3.org/2000/svg" viewBox="0 0 90.57 65.51"><defs><style>.cls-1{fill:#80d5df;}</style></defs><g id="Layer_2" data-name="Layer 2"><g id="layout"><path class="cls-1" d="M69.61,30a33.16,33.16,0,0,0,5.28-5.57c2.82-3.46,5.32-7.08,8-10.62a6.75,6.75,0,0,1,1.63-1.76,4.56,4.56,0,0,1,5-.19c1.19.75,1.4,1.49.68,2.77a28.72,28.72,0,0,1-3.25,4.61c-3.56,4.13-7.18,8.22-10.76,12.33-.49.56-.94,1.14-1.49,1.82,1.91,1.27,3.45,2.82,5.19,4.2A6.45,6.45,0,0,1,80,41.16a30.12,30.12,0,0,1-4.72,10.15A43.83,43.83,0,0,1,65.1,62a18.29,18.29,0,0,1-6.3,3,10.82,10.82,0,0,1-8.41-.78,87.5,87.5,0,0,1-8.56-5.43,5.06,5.06,0,0,1-1.93-5,21.71,21.71,0,0,1,3.82-10A44.18,44.18,0,0,1,56.23,31.28a17.12,17.12,0,0,1,5.7-2.34A10.21,10.21,0,0,1,69.61,30ZM52.34,56.08c1.28-1,2.27-1.68,3.21-2.43A57.41,57.41,0,0,0,65.84,43a24.29,24.29,0,0,0,4.42-8.36c.65-2.61-.06-3.74-2.85-4.78a7.66,7.66,0,0,0-1.81-.38,11.48,11.48,0,0,0-7.84,2A49.81,49.81,0,0,0,50.37,37a44.59,44.59,0,0,0-7.54,10.08A15.87,15.87,0,0,0,41,54.54c-.09,2.75,2.49,4.35,5.66,3.84a14.73,14.73,0,0,0,4.66-1.74,10.75,10.75,0,0,1,2.3-5.85c.58-.8,1.19-1.6,1.8-2.39a51,51,0,0,1,7.42-7.66A2.43,2.43,0,0,1,64.4,40a25.14,25.14,0,0,0-4.59,4.43,59,59,0,0,0-6.29,8.13A6.46,6.46,0,0,0,52.34,56.08ZM71.75,32.87c-.3.11-.23.32-.24.5A14.12,14.12,0,0,1,70,38.47a40.2,40.2,0,0,1-7.42,10.29A50.62,50.62,0,0,1,53,57a14.62,14.62,0,0,1-7.25,2.49.42.42,0,0,0-.43.31l7.31,4.4a1.18,1.18,0,0,0,.47.15c2.87.39,5.68.55,8.28-1.24A46.77,46.77,0,0,0,72.39,53a38.77,38.77,0,0,0,6.39-12,3.65,3.65,0,0,0-1.4-4C75.63,35.52,73.63,34.23,71.75,32.87Zm.39-1.43a3.29,3.29,0,0,0,1.38-1.13c3.16-3.92,6.35-7.82,9.5-11.75.92-1.16,1.65-2.42,2.63-3.54.41-.47,0-1.18.9-1.53.56.68,0,1.24-.37,1.73A147.73,147.73,0,0,1,73.19,32c-.09.1-.1.18,0,.27s.28.24.58.18C78.79,26,84.7,20,89.92,13.65c-1-1.74-2.89-2-5-.79C80.38,19,76.47,25.2,70.67,30.47A5.44,5.44,0,0,0,72.14,31.44Z"/><path class="cls-1" d="M40.23,13.47c1.83-1.12,3.65-2.17,5.37-3.31C50.45,6.94,55.51,4,60.51.93,61.69.2,62.9-.39,64.43.32a3,3,0,0,0,.65,1.13,3.71,3.71,0,0,1-1,2.63,13.36,13.36,0,0,1-4,3.5c-4.76,3.11-9.8,5.87-14.8,8.68L43.5,17.32c.4,1.18.73,2.36,1.1,3.52a7.37,7.37,0,0,1-.74,5.83,42.86,42.86,0,0,1-2.13,3.78c-2.91,4.37-7.12,7.75-12,10.56-1.29.74-2.72,1.3-4.06,2-4.44,2.29-9,2.11-13.57,1.16a25.64,25.64,0,0,1-4.92-1.44C3.44,41.13.73,38.79.08,35.14a9.71,9.71,0,0,1,1.16-5.51C4,23.49,9.16,18.94,15.23,15A29,29,0,0,1,23.14,11a21.24,21.24,0,0,1,15.2,1,5,5,0,0,1,.94.59C39.57,12.84,39.82,13.1,40.23,13.47Zm2.82,3.15c2.64-1.56,5.15-3.05,7.69-4.51,3.1-1.8,6.06-3.75,9-5.67a12.68,12.68,0,0,0,4.05-4c.3-.49.74-1,.1-1.49a3.85,3.85,0,0,0-3,.83c-6.44,3.92-12.8,7.93-19.46,11.57a1.59,1.59,0,0,0-.73.54A15.58,15.58,0,0,1,43.05,16.62Zm-2.88,4.15a9,9,0,0,0,.51-2.67,5.45,5.45,0,0,0-3.52-5.63,19.76,19.76,0,0,0-17.16.6,42.43,42.43,0,0,0-9.27,6.05c-3.14,2.76-6.28,5.56-8.07,9.12C1.72,30.12.74,32.09.94,34.09c.42,4.27,4.67,8.31,10.73,7.67a23.25,23.25,0,0,0,7.63-2.07,49.86,49.86,0,0,0,17.2-13A22.54,22.54,0,0,0,40.17,20.77Zm2-3a4,4,0,0,0-.62,1.93,6.51,6.51,0,0,1-.72,2.37,30.51,30.51,0,0,1-3.73,5.58A48.75,48.75,0,0,1,22.72,39.22a28.15,28.15,0,0,1-9.21,3.37c-.78.11-1.55.24-2.33.36,4.53,1.24,9,1.4,13.58-.6A43,43,0,0,0,39.27,32.08a22.87,22.87,0,0,0,3.52-5.21C44.39,23.81,43.44,20.9,42.2,17.76Z"/><path class="cls-1" d="M38.55,16.25c-3.85-2.48-8.35-2.47-12.68-1.09-8.37,2.65-15,7.25-19.28,14.05a10.65,10.65,0,0,0-1.4,6.62c0,.63.65,1,.83,1.56a.7.7,0,0,1-1,.06,2.5,2.5,0,0,1-.89-2.05c-.25-3.56,1.22-6.73,3.8-9.63a35.58,35.58,0,0,1,10-7.85,46,46,0,0,1,5.84-2.78,18.44,18.44,0,0,1,12.36-.61A3.25,3.25,0,0,1,38.55,16.25Z"/></g></g></svg>