<svg xmlns="http://www.w3.org/2000/svg" xmlns:xlink="http://www.w3.org/1999/xlink" viewBox="0 0 373.87 286.43"><defs><style>.cls-1,.cls-5{fill:none;}.cls-2{fill:#f4e75e;}.cls-3{opacity:0.7;}.cls-4{clip-path:url(#clip-path);}.cls-5{stroke:#fff;stroke-miterlimit:10;stroke-width:0.27px;}.cls-6{fill:#e45b58;}</style><clipPath id="clip-path" transform="translate(83.35 84.82)"><path class="cls-1" d="M65.1,0C62.48-.13,55,8.52,52.44,9S39.93,3.85,37.5,4.88s-5.35,12-7.48,13.55-13.5.92-15.24,2.9.36,13-.89,15.35S2.07,43.36,1.36,45.89s6,11.7,5.9,14.32S-.44,71.28,0,73.87s10.5,7.89,11.53,10.31S9.37,97.5,10.91,99.63s13,2.61,15,4.35,3.82,12.93,6.13,14.18,12.72-3.36,15.25-2.65,9,10,11.64,10.18,10.07-8.52,12.67-9,12.51,5.12,14.93,4.1,5.35-12,7.49-13.56,13.5-.92,15.24-2.89-.37-13.16.88-15.47,11.83-6.56,12.54-9.09-6-11.7-5.9-14.33,7.7-11.07,7.23-13.66-10.49-7.88-11.52-10.3,2.18-13.32.64-15.46-13-2.6-15-4.34S94.31,8.78,92,7.53s-12.72,3.36-15.26,2.65S67.73.13,65.1,0Z"/></clipPath></defs><g id="Layer_2" data-name="Layer 2"><g id="layout"><path class="cls-2" d="M65.1,0C62.48-.13,55,8.52,52.44,9S39.93,3.85,37.5,4.88s-5.35,12-7.48,13.55-13.5.92-15.24,2.9.36,13-.89,15.35S2.07,43.36,1.36,45.89s6,11.7,5.9,14.32S-.44,71.28,0,73.87s10.5,7.89,11.53,10.31S9.37,97.5,10.91,99.63s13,2.61,15,4.35,3.82,12.93,6.13,14.18,12.72-3.36,15.25-2.65,9,10,11.64,10.18,10.07-8.52,12.67-9,12.51,5.12,14.93,4.1,5.35-12,7.49-13.56,13.5-.92,15.24-2.89-.37-13.16.88-15.47,11.83-6.56,12.54-9.09-6-11.7-5.9-14.33,7.7-11.07,7.23-13.66-10.49-7.88-11.52-10.3,2.18-13.32.64-15.46-13-2.6-15-4.34S94.31,8.78,92,7.53s-12.72,3.36-15.26,2.65S67.73.13,65.1,0Z" transform="translate(83.35 84.82)"/><g class="cls-3"><g class="cls-4"><line class="cls-5" x1="129.14" y1="43.2" x2="0.12" y2="286.37"/><line class="cls-5" x1="135.1" y1="42.14" x2="6.08" y2="285.32"/><line class="cls-5" x1="141.07" y1="41.09" x2="12.05" y2="284.26"/><line class="cls-5" x1="147.04" y1="40.04" x2="18.02" y2="283.21"/><line class="cls-5" x1="153" y1="38.99" x2="23.98" y2="282.16"/><line class="cls-5" x1="158.97" y1="37.94" x2="29.95" y2="281.11"/><line class="cls-5" x1="164.93" y1="36.88" x2="35.92" y2="280.06"/><line class="cls-5" x1="170.9" y1="35.83" x2="41.88" y2="279"/><line class="cls-5" x1="176.87" y1="34.78" x2="47.85" y2="277.95"/><line class="cls-5" x1="182.83" y1="33.73" x2="53.82" y2="276.9"/><line class="cls-5" x1="188.8" y1="32.68" x2="59.78" y2="275.85"/><line class="cls-5" x1="194.77" y1="31.62" x2="65.75" y2="274.8"/><line class="cls-5" x1="200.73" y1="30.57" x2="71.71" y2="273.74"/><line class="cls-5" x1="206.7" y1="29.52" x2="77.68" y2="272.69"/><line class="cls-5" x1="212.66" y1="28.47" x2="83.65" y2="271.64"/><line class="cls-5" x1="218.63" y1="27.42" x2="89.61" y2="270.59"/><line class="cls-5" x1="224.6" y1="26.36" x2="95.58" y2="269.54"/><line class="cls-5" x1="230.56" y1="25.31" x2="101.55" y2="268.48"/><line class="cls-5" x1="236.53" y1="24.26" x2="107.51" y2="267.43"/><line class="cls-5" x1="242.5" y1="23.21" x2="113.48" y2="266.38"/><line class="cls-5" x1="248.46" y1="22.16" x2="119.44" y2="265.33"/><line class="cls-5" x1="254.43" y1="21.1" x2="125.41" y2="264.28"/><line class="cls-5" x1="260.4" y1="20.05" x2="131.38" y2="263.22"/><line class="cls-5" x1="266.36" y1="19" x2="137.34" y2="262.17"/><line class="cls-5" x1="272.33" y1="17.95" x2="143.31" y2="261.12"/><line class="cls-5" x1="278.29" y1="16.9" x2="149.28" y2="260.07"/><line class="cls-5" x1="284.26" y1="15.84" x2="155.24" y2="259.02"/><line class="cls-5" x1="290.23" y1="14.79" x2="161.21" y2="257.96"/><line class="cls-5" x1="296.19" y1="13.74" x2="167.18" y2="256.91"/><line class="cls-5" x1="302.16" y1="12.69" x2="173.14" y2="255.86"/><line class="cls-5" x1="308.13" y1="11.63" x2="179.11" y2="254.81"/><line class="cls-5" x1="314.09" y1="10.58" x2="185.07" y2="253.76"/><line class="cls-5" x1="320.06" y1="9.53" x2="191.04" y2="252.7"/><line class="cls-5" x1="326.03" y1="8.48" x2="197.01" y2="251.65"/><line class="cls-5" x1="331.99" y1="7.43" x2="202.97" y2="250.6"/><line class="cls-5" x1="337.96" y1="6.37" x2="208.94" y2="249.55"/><line class="cls-5" x1="343.92" y1="5.32" x2="214.91" y2="248.5"/><line class="cls-5" x1="349.89" y1="4.27" x2="220.87" y2="247.44"/><line class="cls-5" x1="355.86" y1="3.22" x2="226.84" y2="246.39"/><line class="cls-5" x1="361.82" y1="2.17" x2="232.8" y2="245.34"/><line class="cls-5" x1="367.79" y1="1.11" x2="238.77" y2="244.29"/><line class="cls-5" x1="373.76" y1="0.06" x2="244.74" y2="243.24"/></g></g><path class="cls-6" d="M35.09,62.59,33,50.58l-.85.15L31,48.07l.61-.11a.8.8,0,0,0,.71-.76l.27-2.52L31,45,29.9,42.28l.72-.13a.78.78,0,0,0,.71-.76l.27-3.24,3.48-.61-.48,5.18A2.71,2.71,0,0,1,33.91,44l2.25-.4-.54,4.9a2.69,2.69,0,0,1-.44,1l1.35-.23,2.22,12.59Zm21.35-4a2.48,2.48,0,0,1-2.9-1.44l-.61-1.24-.08,1.68a2.48,2.48,0,0,1-2.35,2l-1.21.21-.95-2.39,0,.1a2.2,2.2,0,0,1-2,2.87L45,60.69,44,58.51l.38-.07a.54.54,0,0,0,.51-.72l-.2-1.15-1.82.32.74,4.2-3.38.59L37.79,47.8l8.58-1.51L48.26,57l.51-.09a.81.81,0,0,0,.76-.76l.36-6.54-3.08-6.5,3.28-.58.2.41.2-3.25-1,.17v.08c-.06,1.17-.82,1.91-2.33,2.18l-1,.17L45.2,40l-3.91.7-1.07,3,2.21-.39c.51-.09.77-.25.73-.48v0l-.6-1L45,41.25l.87,2c0,.08.06.15.08.26.19,1.07-.57,1.76-2.28,2.06l-6.2,1.09-.54-3.1L38,41.24l-1.95.35L35.61,39l3-.53L38.31,37,42,36.32l.27,1.54,2.67-.47.42,2.38.53-.1c.31-.05.43-.26.47-.63l.33-3.55,3.17-.56-.15,1.8L54,36l.53,3-.59.1-.63,10,3,6a.72.72,0,0,0,.87.32l.33,0,.53,3ZM43.37,49.06l-1.81.32L41.85,51l1.81-.32Zm.68,3.82-1.82.32.27,1.51,1.81-.32Z" transform="translate(83.35 84.82)"/><path class="cls-6" d="M66.55,36.63l3,17.16a2.19,2.19,0,0,1-2,2.86L65.66,57l-1.09-2.87.64-.11a.56.56,0,0,0,.51-.73l-3.35-19,10.5-1.85L72.61,31l3.69-.65.26,1.44,9-1.6.53,3ZM85.78,53.44a2.47,2.47,0,0,1-2.86-1.24l-3.19-7.78-5.84,1,.34,1.95a.56.56,0,0,0,.75.5l3.92-.69.51,2.87-5.79,1a2.19,2.19,0,0,1-2.86-2L68.83,38.16l12.78-2.25a.55.55,0,0,0,.5-.73L82,34.72l3.48-.61.27,1.51a2.19,2.19,0,0,1-2,2.86l-2.23.4.83,2,5-.88.53,3-4.33.76L86,49.63a.91.91,0,0,0,1.1.52l2-.35.52,3ZM71.26,56l-.52-3,9.6-1.69.53,3Zm6.48-16.45L73,40.38l.36,2.07,5.18-.91Z" transform="translate(83.35 84.82)"/><path class="cls-6" d="M43.4,95.93a2.2,2.2,0,0,1-2.89-2l-3.8-21.56,3.66-.65.68,3.82,6.35-1.12.52,3-6.35,1.12L44,92.13a.56.56,0,0,0,.75.5l6-1.06.52,3Zm12.39-2.19a2.19,2.19,0,0,1-2.88-2L49.09,70.08l3.69-.65.7,4L60,72.3l.52,3L54,76.42l2.38,13.52a.55.55,0,0,0,.72.51l6.33-1.12.52,3Z" transform="translate(83.35 84.82)"/><path class="cls-6" d="M78.72,88l.33,1.89-3.68.65L75,88.61,71,89.33l-.49-2.77,4.08-.72-.28-1.53-3.55.63L68.5,72.36l3.56-.63-.27-1.53-4,.7-.49-2.77,4-.7-.22-1.23,3.69-.65L75,66.78l3.94-.69.49,2.76-4,.7.27,1.53,3.64-.64,1.78,10.12a2.2,2.2,0,0,1-2,2.89l-1.2.21.27,1.53,4-.69.48,2.76ZM72.51,74.3l-1.38.24L71.56,77l1.38-.24Zm.88,5L72,79.56,72.44,82l1.38-.25Zm4.26-5.92-1.45.26.43,2.43,1.45-.26Zm.89,5-1.46.25.43,2.41.84-.15a.55.55,0,0,0,.51-.72Zm1.55-9.2-.51-2.89,4.09-.73L83.4,64l3.66-.64L87.34,65l4.25-.75.51,2.89Zm1.4,6.62-1.12-2.89,1-.18a.78.78,0,0,0,.74-.76l.12-2.3,3.46-.61-.26,4.38a2.48,2.48,0,0,1-2.32,2.07Zm12,11.28A3.52,3.52,0,0,1,89.93,86l-.8-.95-.37,1a3.22,3.22,0,0,1-2.67,2.34l-2.21.39-1.11-2.87,1.54-.27a1.19,1.19,0,0,0,1-.88l1.14-2.94L82,76.76l3.86-.68,1.9,2.09,1-2.61,3.86-.68-2.25,6.26,2.31,2.58a.83.83,0,0,0,.82.3L95,83.76l.52,3Zm-2-13a2.38,2.38,0,0,1-2.86-1.53L87,68.86l3.48-.61,1,2.29a.74.74,0,0,0,.89.38l.33-.06.52,3Z" transform="translate(83.35 84.82)"/></g></g></svg>