<svg xmlns="http://www.w3.org/2000/svg" viewBox="0 0 276.09 35.14"><defs><style>.cls-1{fill:none;stroke:#fff;stroke-miterlimit:10;stroke-width:0.87px;}.cls-2{fill:#fff;}.cls-3{fill:#4cc4d2;}</style></defs><g id="Layer_2" data-name="Layer 2"><g id="layout"><path class="cls-1" d="M243.39,34.54c-9.83-3.28-32.22,0-32.22,0V2.86s19.11-5.46,32.22,0Z"/><path class="cls-1" d="M243.43,34.54c9.84-3.28,32.23,0,32.23,0V2.86s-19.12-5.46-32.23,0Z"/><path class="cls-2" d="M111.85,32.65h-5.72V20.49H97.66V32.65H91.92V4.23h5.74V15.72h8.47V4.23h5.72Z"/><path class="cls-2" d="M130.78,26.83H123l-1.52,5.82h-6.07l8.88-28.42h5.25l8.94,28.42H132.3Zm-6.58-4.78h5.31l-2.65-10.13Z"/><path class="cls-2" d="M159.55,23.18q-.21,4.86-2.73,7.36a9.64,9.64,0,0,1-7.1,2.5,9,9,0,0,1-7.39-3.17c-1.71-2.12-2.57-5.13-2.57-9V16q0-5.86,2.65-9a9.08,9.08,0,0,1,7.38-3.17q4.65,0,7.06,2.59t2.74,7.46h-5.76a7.72,7.72,0,0,0-.92-4.15,3.68,3.68,0,0,0-3.12-1.14,3.5,3.5,0,0,0-3.26,1.61,11.37,11.37,0,0,0-1,5.3v5.37c0,2.82.31,4.76.95,5.81a3.47,3.47,0,0,0,3.25,1.59,3.75,3.75,0,0,0,3.12-1.11,7.19,7.19,0,0,0,1-4Z"/><path class="cls-2" d="M183,23.18q-.22,4.86-2.74,7.36a9.64,9.64,0,0,1-7.1,2.5,9,9,0,0,1-7.39-3.17c-1.71-2.12-2.57-5.13-2.57-9V16q0-5.86,2.66-9a9.08,9.08,0,0,1,7.37-3.17q4.65,0,7.06,2.59t2.74,7.46H177.3a7.72,7.72,0,0,0-.92-4.15,3.68,3.68,0,0,0-3.12-1.14A3.5,3.5,0,0,0,170,10.21a11.37,11.37,0,0,0-1,5.3v5.37q0,4.23.95,5.81a3.47,3.47,0,0,0,3.25,1.59,3.73,3.73,0,0,0,3.12-1.11,7.27,7.27,0,0,0,1-4Z"/><path class="cls-2" d="M192.7,22.65v10H187V4.23h9.68a8.92,8.92,0,0,1,6.73,2.61,9.43,9.43,0,0,1,2.5,6.8,8.75,8.75,0,0,1-2.48,6.59,9.38,9.38,0,0,1-6.87,2.42Zm0-4.78h3.94a3.15,3.15,0,0,0,2.54-1.07,4.77,4.77,0,0,0,.9-3.13,5.64,5.64,0,0,0-.92-3.38A2.93,2.93,0,0,0,196.7,9h-4Z"/><path class="cls-2" d="M219.84,15.2l-2.28-1.67A14.68,14.68,0,0,0,221,6.63l2.72.52c-.13.6-.26,1.2-.5,2h3.11V6.44h2.8V9.15h7.52V12h-7.52V15.2h8.41V18h-6.13v6.15c0,.41.15.6.54.6h2.07c.54,0,.84,0,1-3l2.61.53c-.21,3.71-.64,5.34-2.3,5.34h-4.71a1.78,1.78,0,0,1-1.85-2V18h-3c-.11,3.86-1.34,8.21-7.31,10.14L217,25.39c4.53-1.2,6-3.4,6.06-7.37h-5.74V15.2Zm6.52,0V12h-4.25A15.45,15.45,0,0,1,220,15.2Z"/><path class="cls-2" d="M254.09,13.46a14.35,14.35,0,0,1-2.46,3.67l-2-2.11c.73-.83,2.61-3,3.88-8.33l2.72.46a32.06,32.06,0,0,1-1,3.56h3.51V6.4h2.76v4.31h7.68v2.75h-7.68v3.92h7.18v2.73h-7.18v4.36h8.62v2.8H249.9v-2.8h8.8V20.11h-7.31V17.38h7.31V13.46Z"/><path class="cls-3" d="M.89,34.87,0,26.52c18.63-1.92,49-3,84.65-2.39l-1.06,7C51.2,31.22,17.33,33.14.89,34.87Z"/><path class="cls-2" d="M12.57,28.3a21.7,21.7,0,0,0,7.88-5.74,15.32,15.32,0,0,0,1.6-2.23A29,29,0,0,1,20.85,13a24.3,24.3,0,0,1-3.74,4.59l-.32-.22a31.05,31.05,0,0,0,2.69-5.94H14a28.66,28.66,0,0,1-2.4,2.54h2.08c.63-.94.86-1.17,1.23-1.17s.72.2,1.69.94c.77.6,1,1,1,1.23s-.32.57-1.29.74a27.46,27.46,0,0,1-3.48,2.26c.74.14.91.28.91.48,0,.37-.25.52-1,.86v1c2.08-.26,4.16-.63,6.25-1l.11.42c-1.37.55-2.74,1.06-4.14,1.55-.74.25-1.48.48-2.22.74.05,2,.17,3.77.17,4.42,0,1.46-1.37,2.6-3.4,2.6-.51,0-.57-.06-.71-.6-.29-1.08-.83-1.6-2.57-2.17l0-.43a20.61,20.61,0,0,0,2.66.2c.88,0,1.06-.11,1.06-1.08V22.85c-1.35.37-2.69.71-4,1-.17.69-.4.92-.71.92s-.69-.43-1.72-3.51c2.2-.17,4.34-.37,6.43-.63a28.93,28.93,0,0,0-.15-3.11l1.83.2a27.86,27.86,0,0,0,1.71-2.37H10a34,34,0,0,1-6.22,4L3.52,19A35.94,35.94,0,0,0,7.77,15.4l-2.22.11V13.8l2.85.14h.77a32,32,0,0,0,2.09-2.54H6.43l-2.8.14V9.83l2.8.14H8.6V7.43H6.8l-2.22.14V5.86L6.8,6H8.6c0-1.4-.08-2.48-.14-3.42,3.51.34,4.11.54,4.11.91s-.26.54-1.06.89V6h.37c.4-.54.75-1,1.23-1.6.74.86,1.17,1.37,1.43,1.75.57-1.12,1.08-2.26,1.57-3.43,3.14,1,3.48,1.31,3.48,1.66s-.25.57-1.34.74A44.31,44.31,0,0,1,15.11,10h.77c.46-.6.89-1.11,1.51-1.83a15.12,15.12,0,0,1,2.4,2.32,53.43,53.43,0,0,0,1.8-7.83c3.48.75,4.05,1.12,4.05,1.46s-.22.54-1.25.77a27.35,27.35,0,0,1-1.57,4.48h3c.57-.71,1-1.31,1.65-2,2.48,2.05,2.83,2.57,2.83,2.88s-.15.6-.43.6H28.67a.85.85,0,0,1-.4.31,23.66,23.66,0,0,1-3.48,9.77,14.3,14.3,0,0,0,1.34,1.68A21.39,21.39,0,0,0,30.53,26l-.12.4A3.77,3.77,0,0,0,28,28c-.22.35-.37.52-.54.52s-.31-.14-.57-.4A20.42,20.42,0,0,1,23.1,23a7.38,7.38,0,0,1-.74.74,20.14,20.14,0,0,1-9.62,5ZM12.26,10c.57-.83,1.08-1.68,1.59-2.54H11.51V10Zm9.87.8c-.2.37-.4.74-.6,1.09a22.56,22.56,0,0,0,1.66,6.25,28.6,28.6,0,0,0,2.08-7.34Z"/><path class="cls-2" d="M42.15,15.31c-1.66.64-3.12,1.12-4.07,1.54-.44.19-.83.44-1.25.63a1.74,1.74,0,0,1-.65.17A2.33,2.33,0,0,1,35,17a1.94,1.94,0,0,1-.66-1.41,2.44,2.44,0,0,1,.86-1.73,20.56,20.56,0,0,1,5.14-3.78,4.39,4.39,0,0,1-2.32-3.21l.37-.18c.73,1.13,1.87,1.56,3.75,1.78a3.75,3.75,0,0,1,1.8.66,1.45,1.45,0,0,1,.56,1.12,1,1,0,0,1-1,1.07,6.35,6.35,0,0,1-1.15-.12l-.37,0a5.63,5.63,0,0,0-1.41.24,8.85,8.85,0,0,0-3.87,2.24,2.14,2.14,0,0,0-.69,1.17c0,.42.25.52.57.52a6.69,6.69,0,0,0,1-.17c.9-.22,2.58-.71,3.72-1.1a3.45,3.45,0,0,0,1.39-.73.8.8,0,0,1,.61-.29,3.14,3.14,0,0,1,1.41.68c.93.68,1.2,1,1.2,1.36s-.12.39-.49.56a3.76,3.76,0,0,0-1.17.69c-1.17,1-2.43,2.26-4.46,4.28a3.74,3.74,0,0,1,1-.14c1.34,0,2.12.95,2.85,2.58S44.92,25,46.17,25a6.36,6.36,0,0,0,2-.22,5.72,5.72,0,0,1,1.41-.3c1.32,0,2,.66,2,1.49a1.1,1.1,0,0,1-.9,1.17,13.39,13.39,0,0,1-3.19.29A7.85,7.85,0,0,1,44.22,27c-1-.48-1.63-1-2.32-3.26-.58-1.93-1.12-2.32-1.73-2.32s-1.05.37-1.68,1.05c-.85.93-2,2.44-3.14,3.78-.73.85-1,1.1-1.59,1.1s-1.07-.59-1.07-1.44a2.15,2.15,0,0,1,.88-1.51c1.58-1.44,2.83-2.56,4.56-4.36C39.54,18.55,41,17,42.22,15.43Z"/><path class="cls-2" d="M51.09,12c.83.88,1.25,1.05,1.73,1.05l.27,0a20.84,20.84,0,0,0,2.9-.47c3.19-.7,6.34-1.43,8.14-1.87a11.48,11.48,0,0,0,2.41-.78,3.55,3.55,0,0,1,1.59-.49,4.93,4.93,0,0,1,2,.44,1.38,1.38,0,0,1,1,1.36c0,.66-.31.95-1.68.95a14.86,14.86,0,0,0-4.51.56c-3.38,1.2-5.16,3.71-5.16,6.46a4.59,4.59,0,0,0,3.7,4.49,9.72,9.72,0,0,0,1.88.26l.34,0a7.27,7.27,0,0,1,.78-.05c1.58,0,2.46.9,2.46,1.8s-.39,1.25-1.78,1.25a13.19,13.19,0,0,1-5.24-1.17,6.49,6.49,0,0,1-3.73-5.95,8.76,8.76,0,0,1,3.93-7c-2,.7-3.83,1.22-6.36,2.05a5.78,5.78,0,0,0-1.49.65,1.15,1.15,0,0,1-.71.25,1.68,1.68,0,0,1-1-.39A4.51,4.51,0,0,1,50.82,13a4.55,4.55,0,0,1,0-.59v-.34Z"/><path class="cls-2" d="M78.12,24.36a1.71,1.71,0,1,1-1.37-2.07A1.78,1.78,0,0,1,78.12,24.36Zm-1.5-3.88a24.72,24.72,0,0,0,.51-8.1,10,10,0,0,1,0-2.42,1.76,1.76,0,1,1,3.45.61,9.13,9.13,0,0,1-.82,2.28A23.69,23.69,0,0,0,77.62,20l-.11.65Z"/></g></g></svg>