<svg xmlns="http://www.w3.org/2000/svg" viewBox="0 0 287.48 36.59"><defs><style>.cls-1{fill:#ececeb;stroke-width:0.9px;}.cls-1,.cls-2,.cls-3{stroke:#3e3428;stroke-miterlimit:10;}.cls-2,.cls-3,.cls-5{fill:#3e3428;}.cls-2{stroke-width:0.45px;}.cls-3{stroke-width:0.6px;}.cls-4{fill:#f4e75e;}</style></defs><g id="Layer_2" data-name="Layer 2"><g id="layout"><path class="cls-1" d="M253.43,36c-10.24-3.41-33.56,0-33.56,0V3s19.91-5.69,33.56,0Z"/><path class="cls-1" d="M253.47,36C263.71,32.55,287,36,287,36V3s-19.9-5.69-33.55,0Z"/><path class="cls-2" d="M116.46,34h-6V21.33h-8.82V34h-6V4.4h6v12h8.82V4.4h6Z"/><path class="cls-2" d="M136.17,27.94H128L126.44,34h-6.33L129.36,4.4h5.47L144.14,34h-6.38Zm-6.85-5h5.53l-2.76-10.55Z"/><path class="cls-2" d="M166.13,24.14c-.15,3.37-1.09,5.93-2.84,7.66s-4.22,2.6-7.4,2.6a9.31,9.31,0,0,1-7.69-3.3q-2.69-3.3-2.68-9.42v-5q0-6.1,2.77-9.4A9.47,9.47,0,0,1,156,4c3.23,0,5.67.91,7.35,2.71s2.62,4.39,2.85,7.76h-6a8.05,8.05,0,0,0-1-4.32A3.82,3.82,0,0,0,156,9a3.61,3.61,0,0,0-3.39,1.68,11.65,11.65,0,0,0-1.06,5.52v5.59q0,4.41,1,6.06a3.62,3.62,0,0,0,3.38,1.64,3.9,3.9,0,0,0,3.25-1.15,7.49,7.49,0,0,0,1-4.15Z"/><path class="cls-2" d="M190.57,24.14c-.15,3.37-1.1,5.93-2.84,7.66s-4.22,2.6-7.4,2.6a9.35,9.35,0,0,1-7.7-3.3Q170,27.8,170,21.68v-5q0-6.1,2.77-9.4A9.47,9.47,0,0,1,180.41,4c3.22,0,5.67.91,7.35,2.71s2.62,4.39,2.85,7.76h-6a8.05,8.05,0,0,0-1-4.32A3.82,3.82,0,0,0,180.41,9a3.64,3.64,0,0,0-3.4,1.68,11.8,11.8,0,0,0-1,5.52v5.59q0,4.41,1,6.06a3.64,3.64,0,0,0,3.39,1.64,3.9,3.9,0,0,0,3.25-1.15,7.58,7.58,0,0,0,1-4.15Z"/><path class="cls-2" d="M200.64,23.59V34h-6V4.4h10.08a9.26,9.26,0,0,1,7,2.72,9.82,9.82,0,0,1,2.61,7.08,9.16,9.16,0,0,1-2.58,6.87,9.79,9.79,0,0,1-7.15,2.52Zm0-5h4.11a3.23,3.23,0,0,0,2.64-1.12,5,5,0,0,0,.94-3.25,5.86,5.86,0,0,0-1-3.53,3.07,3.07,0,0,0-2.56-1.33h-4.17Z"/><path class="cls-3" d="M228.91,15.83l-2.38-1.74a15.21,15.21,0,0,0,3.61-7.19l2.83.55c-.13.62-.27,1.24-.52,2.07h3.24V6.71h2.91V9.52h7.84v2.94H238.6v3.37h8.76v2.94H241v6.4c0,.43.16.62.57.62h2.15c.56,0,.88,0,1-3.13l2.72.55c-.23,3.87-.68,5.56-2.41,5.56h-4.89a1.86,1.86,0,0,1-1.93-2.05V18.77h-3.07c-.12,4-1.4,8.55-7.61,10.55L226,26.43c4.71-1.24,6.21-3.53,6.3-7.66h-6V15.83Zm6.78,0V12.46h-4.43a15.67,15.67,0,0,1-2.15,3.37Z"/><path class="cls-3" d="M264.56,14A14.82,14.82,0,0,1,262,17.84l-2.13-2.2c.76-.86,2.72-3.08,4-8.67l2.83.48a32.08,32.08,0,0,1-1,3.7h3.66V6.66h2.87v4.49h8V14h-8V18.1h7.47v2.84h-7.47v4.54h9v2.91h-21V25.48h9.16V20.94h-7.61V18.1h7.61V14Z"/><path class="cls-4" d="M.92,36.31,0,27.61c19.4-2,51-3.1,88.14-2.48L87,32.36C53.32,32.51,18,34.51.92,36.31Z"/><path class="cls-5" d="M13.09,29.47a22.63,22.63,0,0,0,8.2-6A14.82,14.82,0,0,0,23,21.17a30.06,30.06,0,0,1-1.25-7.66,25.24,25.24,0,0,1-3.9,4.78l-.32-.24a31.74,31.74,0,0,0,2.79-6.18H14.54a31,31,0,0,1-2.49,2.65h2.17c.65-1,.89-1.22,1.27-1.22s.75.21,1.76,1c.8.62,1,1,1,1.28s-.33.59-1.34.77a30.49,30.49,0,0,1-3.62,2.35c.77.15.95.29.95.5,0,.39-.27.54-1.07.89v1.07c2.17-.26,4.34-.65,6.51-1l.11.45c-1.42.56-2.85,1.1-4.31,1.61-.77.26-1.54.5-2.31.77.06,2.08.17,3.92.17,4.61,0,1.51-1.42,2.7-3.53,2.7-.54,0-.6-.06-.75-.62C8.78,28.49,8.21,28,6.4,27.36l0-.45a22.2,22.2,0,0,0,2.76.21c.92,0,1.1-.12,1.1-1.13v-2.2c-1.39.39-2.79.74-4.16,1.07-.18.71-.41.95-.74.95s-.72-.44-1.79-3.65c2.29-.18,4.52-.39,6.69-.66a31.5,31.5,0,0,0-.15-3.24l1.91.21A28.6,28.6,0,0,0,13.83,16H10.38A34.88,34.88,0,0,1,3.9,20.13l-.24-.38A36.51,36.51,0,0,0,8.09,16l-2.32.12V14.37l3,.15h.8a32.52,32.52,0,0,0,2.17-2.65h-5L3.78,12V10.24l2.92.14H9V7.74H7.08l-2.32.15V6.1l2.32.15H9c0-1.45-.09-2.58-.15-3.56,3.65.35,4.28.56,4.28,1s-.27.56-1.1.92V6.25h.38c.42-.56.78-1,1.28-1.66.77.89,1.22,1.43,1.49,1.81.59-1.16,1.13-2.35,1.63-3.57C20,3.9,20.4,4.2,20.4,4.56s-.27.59-1.4.77a45.53,45.53,0,0,1-3.27,5.05h.8c.48-.62.93-1.15,1.58-1.9a15.57,15.57,0,0,1,2.5,2.41,56.68,56.68,0,0,0,1.87-8.14c3.63.77,4.22,1.15,4.22,1.51s-.24.57-1.31.8a28.71,28.71,0,0,1-1.63,4.67h3.15C27.5,9,28,8.36,28.63,7.59c2.59,2.14,2.95,2.68,2.95,3s-.15.63-.45.63H29.85a1,1,0,0,1-.41.32,24.75,24.75,0,0,1-3.63,10.17,14.51,14.51,0,0,0,1.4,1.75,22.12,22.12,0,0,0,4.57,3.63l-.12.42a3.9,3.9,0,0,0-2.49,1.66c-.24.36-.39.54-.57.54s-.32-.15-.59-.42a21,21,0,0,1-4-5.35,8,8,0,0,1-.77.77,20.91,20.91,0,0,1-10,5.17Zm-.33-19.09c.59-.86,1.13-1.75,1.66-2.64H12v2.64ZM23,11.22c-.2.38-.41.77-.62,1.13a23.54,23.54,0,0,0,1.72,6.51,29.74,29.74,0,0,0,2.17-7.64Z"/><path class="cls-5" d="M43.89,15.94c-1.73.66-3.25,1.17-4.24,1.6-.46.21-.87.46-1.3.66a1.92,1.92,0,0,1-.68.18,2.41,2.41,0,0,1-1.19-.63,2,2,0,0,1-.69-1.48,2.52,2.52,0,0,1,.89-1.8A21.5,21.5,0,0,1,42,10.54a4.6,4.6,0,0,1-2.41-3.35L40,7c.76,1.17,2,1.63,3.91,1.85a3.91,3.91,0,0,1,1.88.69,1.52,1.52,0,0,1,.58,1.17,1,1,0,0,1-1,1.11,6.87,6.87,0,0,1-1.19-.12s-.23,0-.38,0a6,6,0,0,0-1.47.25,9.16,9.16,0,0,0-4,2.34,2.15,2.15,0,0,0-.71,1.22c0,.43.26.53.59.53a6,6,0,0,0,1-.18c.94-.23,2.69-.73,3.89-1.14a3.51,3.51,0,0,0,1.44-.76.89.89,0,0,1,.64-.31,3.34,3.34,0,0,1,1.47.72c1,.71,1.24,1.06,1.24,1.42s-.12.4-.5.58a3.94,3.94,0,0,0-1.22.71c-1.22,1-2.54,2.36-4.65,4.47a3.29,3.29,0,0,1,1-.16c1.39,0,2.21,1,3,2.69s1.37,2,2.66,2a6.57,6.57,0,0,0,2.06-.23,5.65,5.65,0,0,1,1.47-.3c1.37,0,2,.68,2,1.54a1.15,1.15,0,0,1-.94,1.22,13.87,13.87,0,0,1-3.32.31A8.29,8.29,0,0,1,46,28.1c-1.06-.51-1.7-1.09-2.41-3.4-.61-2-1.17-2.41-1.8-2.41s-1.09.38-1.75,1.09c-.89,1-2.08,2.54-3.27,3.93-.77.89-1,1.14-1.65,1.14S34,27.84,34,27A2.25,2.25,0,0,1,35,25.38c1.65-1.49,2.95-2.66,4.75-4.54,1.47-1.52,2.94-3.17,4.26-4.77Z"/><path class="cls-5" d="M53.2,12.52c.86.91,1.29,1.09,1.8,1.09.1,0,.2,0,.28,0a19.75,19.75,0,0,0,3-.48c3.32-.73,6.6-1.5,8.48-1.95a13,13,0,0,0,2.51-.81,3.74,3.74,0,0,1,1.65-.51,5,5,0,0,1,2.1.46,1.44,1.44,0,0,1,1,1.42c0,.68-.33,1-1.75,1a15.46,15.46,0,0,0-4.7.58c-3.52,1.24-5.38,3.86-5.38,6.72a4.77,4.77,0,0,0,3.86,4.67A9.44,9.44,0,0,0,68,25l.36,0a7.81,7.81,0,0,1,.81-.05c1.65,0,2.56.93,2.56,1.87s-.4,1.3-1.85,1.3a13.48,13.48,0,0,1-5.45-1.22,6.74,6.74,0,0,1-3.89-6.19c0-2.23,1-5,4.09-7.34-2.13.74-4,1.27-6.62,2.14a5.76,5.76,0,0,0-1.55.68,1.25,1.25,0,0,1-.74.26A1.7,1.7,0,0,1,54.7,16a4.56,4.56,0,0,1-1.78-2.44,3.32,3.32,0,0,1-.05-.61v-.35Z"/><path class="cls-5" d="M81.34,25.37a1.78,1.78,0,1,1-1.43-2.16A1.86,1.86,0,0,1,81.34,25.37Zm-1.56-4a25.79,25.79,0,0,0,.54-8.44,10.42,10.42,0,0,1,0-2.52,1.91,1.91,0,0,1,2.15-1.66A1.88,1.88,0,0,1,83.92,11a9.9,9.9,0,0,1-.85,2.38,24.38,24.38,0,0,0-2.24,7.44l-.12.67Z"/></g></g></svg>